<svg xmlns="http://www.w3.org/2000/svg" xmlns:xlink="http://www.w3.org/1999/xlink" contentStyleType="text/css" height="641px" preserveAspectRatio="none" style="width:974px;height:641px;background:#FFFFFF;" version="1.1" viewBox="0 0 974 641" width="974px" zoomAndPan="magnify"><title>&lt;size:20&gt;Sequence Diagram US242 - Remove Drone Model&lt;/size&gt;</title><defs/><g><text fill="#000000" font-family="FG Virgil" font-size="20" font-weight="bold" lengthAdjust="spacing" textLength="469.0332" x="251.8699" y="36.582">Sequence Diagram US242 - Remove Drone Model</text><rect fill="#FFFFFF" height="398.7832" style="stroke:#181818;stroke-width:1.0;" width="10" x="37.6274" y="141.2227"/><rect fill="#FFFFFF" height="375.4922" style="stroke:#181818;stroke-width:1.0;" width="10" x="334.6172" y="164.5137"/><rect fill="#FFFFFF" height="312.9102" style="stroke:#181818;stroke-width:1.0;" width="10" x="573.0942" y="195.8047"/><rect fill="#FFFFFF" height="31.291" style="stroke:#181818;stroke-width:1.0;" width="10" x="749.5186" y="383.5508"/><rect fill="#FFFFFF" height="31.291" style="stroke:#181818;stroke-width:1.0;" width="10" x="885.1836" y="320.9688"/><rect fill="#FFFFFF" height="31.291" style="stroke:#181818;stroke-width:1.0;" width="10" x="885.1836" y="446.1328"/><line style="stroke:#181818;stroke-width:0.5;stroke-dasharray:5.0,5.0;" x1="42" x2="42" y1="131.2227" y2="558.0059"/><line style="stroke:#181818;stroke-width:0.5;stroke-dasharray:5.0,5.0;" x1="339.4761" x2="339.4761" y1="131.2227" y2="558.0059"/><line style="stroke:#181818;stroke-width:0.5;stroke-dasharray:5.0,5.0;" x1="577.6738" x2="577.6738" y1="131.2227" y2="558.0059"/><line style="stroke:#181818;stroke-width:0.5;stroke-dasharray:5.0,5.0;" x1="754.4429" x2="754.4429" y1="131.2227" y2="558.0059"/><line style="stroke:#181818;stroke-width:0.5;stroke-dasharray:5.0,5.0;" x1="889.5942" x2="889.5942" y1="131.2227" y2="558.0059"/><text fill="#000000" font-family="FG Virgil" font-size="14" lengthAdjust="spacing" textLength="69.2549" x="5" y="127.709">DroneTech</text><ellipse cx="42.6274" cy="61.1016" fill="#E3E3E3" rx="8" ry="8" style="stroke:#181818;stroke-width:0.5;"/><path d="M42.6274,69.1016 L42.6274,96.1016 M29.6274,77.1016 L55.6274,77.1016 M42.6274,96.1016 L29.6274,111.1016 M42.6274,96.1016 L55.6274,111.1016 " fill="none" style="stroke:#181818;stroke-width:0.5;"/><text fill="#000000" font-family="FG Virgil" font-size="14" lengthAdjust="spacing" textLength="69.2549" x="5" y="572.1133">DroneTech</text><ellipse cx="42.6274" cy="584.127" fill="#E3E3E3" rx="8" ry="8" style="stroke:#181818;stroke-width:0.5;"/><path d="M42.6274,592.127 L42.6274,619.127 M29.6274,600.127 L55.6274,600.127 M42.6274,619.127 L29.6274,634.127 M42.6274,619.127 L55.6274,634.127 " fill="none" style="stroke:#181818;stroke-width:0.5;"/><rect fill="#E3E3E3" height="51.2422" rx="2.5" ry="2.5" style="stroke:#181818;stroke-width:0.5;" width="160.2822" x="259.4761" y="78.9805"/><text fill="#000000" font-family="FG Virgil" font-size="14" font-style="italic" lengthAdjust="spacing" textLength="92.627" x="293.3037" y="101.0879">&#171;presentation&#187;</text><text fill="#000000" font-family="FG Virgil" font-size="14" lengthAdjust="spacing" textLength="146.2822" x="266.4761" y="119.709">:RemoveDroneModelUI</text><rect fill="#E3E3E3" height="51.2422" rx="2.5" ry="2.5" style="stroke:#181818;stroke-width:0.5;" width="160.2822" x="259.4761" y="557.0059"/><text fill="#000000" font-family="FG Virgil" font-size="14" font-style="italic" lengthAdjust="spacing" textLength="92.627" x="293.3037" y="579.1133">&#171;presentation&#187;</text><text fill="#000000" font-family="FG Virgil" font-size="14" lengthAdjust="spacing" textLength="146.2822" x="266.4761" y="597.7344">:RemoveDroneModelUI</text><rect fill="#E3E3E3" height="51.2422" rx="2.5" ry="2.5" style="stroke:#181818;stroke-width:0.5;" width="154.8408" x="500.6738" y="78.9805"/><text fill="#000000" font-family="FG Virgil" font-size="14" font-style="italic" lengthAdjust="spacing" textLength="82.5098" x="536.8394" y="101.0879">&#171;application&#187;</text><text fill="#000000" font-family="FG Virgil" font-size="14" lengthAdjust="spacing" textLength="140.8408" x="507.6738" y="119.709">:DroneModelController</text><rect fill="#E3E3E3" height="51.2422" rx="2.5" ry="2.5" style="stroke:#181818;stroke-width:0.5;" width="154.8408" x="500.6738" y="557.0059"/><text fill="#000000" font-family="FG Virgil" font-size="14" font-style="italic" lengthAdjust="spacing" textLength="82.5098" x="536.8394" y="579.1133">&#171;application&#187;</text><text fill="#000000" font-family="FG Virgil" font-size="14" lengthAdjust="spacing" textLength="140.8408" x="507.6738" y="597.7344">:DroneModelController</text><rect fill="#E3E3E3" height="51.2422" rx="2.5" ry="2.5" style="stroke:#181818;stroke-width:0.5;" width="94.1514" x="707.4429" y="78.9805"/><text fill="#000000" font-family="FG Virgil" font-size="14" font-style="italic" lengthAdjust="spacing" textLength="61.4893" x="723.7739" y="101.0879">&#171;domain&#187;</text><text fill="#000000" font-family="FG Virgil" font-size="14" lengthAdjust="spacing" textLength="80.1514" x="714.4429" y="119.709">:DroneModel</text><rect fill="#E3E3E3" height="51.2422" rx="2.5" ry="2.5" style="stroke:#181818;stroke-width:0.5;" width="94.1514" x="707.4429" y="557.0059"/><text fill="#000000" font-family="FG Virgil" font-size="14" font-style="italic" lengthAdjust="spacing" textLength="61.4893" x="723.7739" y="579.1133">&#171;domain&#187;</text><text fill="#000000" font-family="FG Virgil" font-size="14" lengthAdjust="spacing" textLength="80.1514" x="714.4429" y="597.7344">:DroneModel</text><rect fill="#E3E3E3" height="51.2422" rx="2.5" ry="2.5" style="stroke:#181818;stroke-width:0.5;" width="157.1787" x="811.5942" y="78.9805"/><text fill="#000000" font-family="FG Virgil" font-size="14" font-style="italic" lengthAdjust="spacing" textLength="77.041" x="851.6631" y="101.0879">&#171;repository&#187;</text><text fill="#000000" font-family="FG Virgil" font-size="14" lengthAdjust="spacing" textLength="143.1787" x="818.5942" y="119.709">DroneModelRepository</text><rect fill="#E3E3E3" height="51.2422" rx="2.5" ry="2.5" style="stroke:#181818;stroke-width:0.5;" width="157.1787" x="811.5942" y="557.0059"/><text fill="#000000" font-family="FG Virgil" font-size="14" font-style="italic" lengthAdjust="spacing" textLength="77.041" x="851.6631" y="579.1133">&#171;repository&#187;</text><text fill="#000000" font-family="FG Virgil" font-size="14" lengthAdjust="spacing" textLength="143.1787" x="818.5942" y="597.7344">DroneModelRepository</text><rect fill="#FFFFFF" height="398.7832" style="stroke:#181818;stroke-width:1.0;" width="10" x="37.6274" y="141.2227"/><rect fill="#FFFFFF" height="375.4922" style="stroke:#181818;stroke-width:1.0;" width="10" x="334.6172" y="164.5137"/><rect fill="#FFFFFF" height="312.9102" style="stroke:#181818;stroke-width:1.0;" width="10" x="573.0942" y="195.8047"/><rect fill="#FFFFFF" height="31.291" style="stroke:#181818;stroke-width:1.0;" width="10" x="749.5186" y="383.5508"/><rect fill="#FFFFFF" height="31.291" style="stroke:#181818;stroke-width:1.0;" width="10" x="885.1836" y="320.9688"/><rect fill="#FFFFFF" height="31.291" style="stroke:#181818;stroke-width:1.0;" width="10" x="885.1836" y="446.1328"/><polygon fill="#181818" points="322.6172,160.5137,332.6172,164.5137,322.6172,168.5137,326.6172,164.5137" style="stroke:#181818;stroke-width:1.0;"/><line style="stroke:#181818;stroke-width:1.0;" x1="47.6274" x2="328.6172" y1="164.5137" y2="164.5137"/><text fill="#000000" font-family="FG Virgil" font-size="13" lengthAdjust="spacing" textLength="203.0552" x="54.6274" y="159.251">Requests to remove a drone model</text><polygon fill="#181818" points="561.0942,191.8047,571.0942,195.8047,561.0942,199.8047,565.0942,195.8047" style="stroke:#181818;stroke-width:1.0;"/><line style="stroke:#181818;stroke-width:1.0;" x1="344.6172" x2="567.0942" y1="195.8047" y2="195.8047"/><text fill="#000000" font-family="FG Virgil" font-size="13" lengthAdjust="spacing" textLength="35.4199" x="351.6172" y="190.542">delete</text><polygon fill="#181818" points="58.6274,223.0957,48.6274,227.0957,58.6274,231.0957,54.6274,227.0957" style="stroke:#181818;stroke-width:1.0;"/><line style="stroke:#181818;stroke-width:1.0;stroke-dasharray:2.0,2.0;" x1="52.6274" x2="333.6172" y1="227.0957" y2="227.0957"/><text fill="#000000" font-family="FG Virgil" font-size="13" lengthAdjust="spacing" textLength="194.3589" x="64.6274" y="221.833">Ask for drone model ID to remove</text><polygon fill="#181818" points="322.6172,254.3867,332.6172,258.3867,322.6172,262.3867,326.6172,258.3867" style="stroke:#181818;stroke-width:1.0;"/><line style="stroke:#181818;stroke-width:1.0;" x1="47.6274" x2="328.6172" y1="258.3867" y2="258.3867"/><text fill="#000000" font-family="FG Virgil" font-size="13" lengthAdjust="spacing" textLength="143.0698" x="54.6274" y="253.124">Provides drone model ID</text><polygon fill="#181818" points="561.0942,285.6777,571.0942,289.6777,561.0942,293.6777,565.0942,289.6777" style="stroke:#181818;stroke-width:1.0;"/><line style="stroke:#181818;stroke-width:1.0;" x1="344.6172" x2="567.0942" y1="289.6777" y2="289.6777"/><text fill="#000000" font-family="FG Virgil" font-size="13" lengthAdjust="spacing" textLength="204.4771" x="351.6172" y="284.415">removeDroneModel(droneModelID)</text><polygon fill="#181818" points="873.1836,316.9688,883.1836,320.9688,873.1836,324.9688,877.1836,320.9688" style="stroke:#181818;stroke-width:1.0;"/><line style="stroke:#181818;stroke-width:1.0;" x1="583.0942" x2="879.1836" y1="320.9688" y2="320.9688"/><text fill="#000000" font-family="FG Virgil" font-size="13" lengthAdjust="spacing" textLength="137.2871" x="590.0942" y="315.7061">findById(droneModelID)</text><polygon fill="#181818" points="594.0942,348.2598,584.0942,352.2598,594.0942,356.2598,590.0942,352.2598" style="stroke:#181818;stroke-width:1.0;"/><line style="stroke:#181818;stroke-width:1.0;stroke-dasharray:2.0,2.0;" x1="588.0942" x2="889.1836" y1="352.2598" y2="352.2598"/><text fill="#000000" font-family="FG Virgil" font-size="13" lengthAdjust="spacing" textLength="103.3462" x="600.0942" y="346.9971">foundDroneModel</text><polygon fill="#181818" points="737.5186,379.5508,747.5186,383.5508,737.5186,387.5508,741.5186,383.5508" style="stroke:#181818;stroke-width:1.0;"/><line style="stroke:#181818;stroke-width:1.0;" x1="583.0942" x2="743.5186" y1="383.5508" y2="383.5508"/><text fill="#000000" font-family="FG Virgil" font-size="13" lengthAdjust="spacing" textLength="147.4243" x="590.0942" y="378.2881">delete(foundDroneModel)</text><polygon fill="#181818" points="594.0942,410.8418,584.0942,414.8418,594.0942,418.8418,590.0942,414.8418" style="stroke:#181818;stroke-width:1.0;"/><line style="stroke:#181818;stroke-width:1.0;stroke-dasharray:2.0,2.0;" x1="588.0942" x2="753.5186" y1="414.8418" y2="414.8418"/><text fill="#000000" font-family="FG Virgil" font-size="13" lengthAdjust="spacing" textLength="105.5044" x="600.0942" y="409.5791">deletionConfirmed</text><polygon fill="#181818" points="873.1836,442.1328,883.1836,446.1328,873.1836,450.1328,877.1836,446.1328" style="stroke:#181818;stroke-width:1.0;"/><line style="stroke:#181818;stroke-width:1.0;" x1="583.0942" x2="879.1836" y1="446.1328" y2="446.1328"/><text fill="#000000" font-family="FG Virgil" font-size="13" lengthAdjust="spacing" textLength="125.7344" x="590.0942" y="440.8701">delete(droneModelID)</text><polygon fill="#181818" points="594.0942,473.4238,584.0942,477.4238,594.0942,481.4238,590.0942,477.4238" style="stroke:#181818;stroke-width:1.0;"/><line style="stroke:#181818;stroke-width:1.0;stroke-dasharray:2.0,2.0;" x1="588.0942" x2="889.1836" y1="477.4238" y2="477.4238"/><text fill="#000000" font-family="FG Virgil" font-size="13" lengthAdjust="spacing" textLength="94.6689" x="600.0942" y="472.1611">deletionSuccess</text><polygon fill="#181818" points="355.6172,504.7148,345.6172,508.7148,355.6172,512.7148,351.6172,508.7148" style="stroke:#181818;stroke-width:1.0;"/><line style="stroke:#181818;stroke-width:1.0;stroke-dasharray:2.0,2.0;" x1="349.6172" x2="577.0942" y1="508.7148" y2="508.7148"/><text fill="#000000" font-family="FG Virgil" font-size="13" lengthAdjust="spacing" textLength="94.6689" x="361.6172" y="503.4521">deletionSuccess</text><polygon fill="#181818" points="53.6274,536.0059,43.6274,540.0059,53.6274,544.0059,49.6274,540.0059" style="stroke:#181818;stroke-width:1.0;"/><line style="stroke:#181818;stroke-width:1.0;stroke-dasharray:2.0,2.0;" x1="47.6274" x2="338.6172" y1="540.0059" y2="540.0059"/><text fill="#000000" font-family="FG Virgil" font-size="13" lengthAdjust="spacing" textLength="262.9897" x="59.6274" y="534.7432">Confirmation message for successful removal</text><!--SRC=[jLJ1Yjim4BthAuOzRG-X9VHaWc7RiCM7bh9fUX-aSI8YIwuafwHVtx6SjLpZxBA7-c0iwRsdzsOaHnqDmIReFrIiFvGx-jMHbGHRZGUF3UntwuzhMC4JDUxCqzvPWgzEaTcyxqcb4E6aROizk77MoQDt3K7q7KrMMfGdFD0kNdWtJp9ErXJLs9duw6pyXanz_08_jJzeCy648ohtMzi3r6W22O4oEZ_O-K7o21ZWePyIZ8zQwXPjXBjYi9rWoVI-kkkX-mesczPJ81inQcVBSaRCbC_iopjZo2Tg7h84jgtHyZM5nDkw1hLbZaeVCtW6Fr7hWkOa5yRwSS3uFhC-OwHhqlI6LSbf2kuFDox40D5nVLEl45JgLjFBPlA-4WBuuHemDySfk1668gN54PtNCujfQUy27i89QZOnsGYgRVQGAF_u_ExTMIiACyejItxMltirVbRRTudKFvEciC1ICGkejLMVBfMw8J4cNcAFgCK-hMQcQzTPbP4ZMT7BczoAamxCStlkP-fB2H8XUnvEtcgfstnmUQxMlY6rw7EGUbEXhpx_UvcV0-mwAIc4jvLv6kHwD9Vq9beltuHh5TEl01gcyzykNOqmgDMT6Gup6Y4cgdmR9wFXOly5]--></g></svg>