<svg xmlns="http://www.w3.org/2000/svg" xmlns:xlink="http://www.w3.org/1999/xlink" contentStyleType="text/css" height="578px" preserveAspectRatio="none" style="width:997px;height:578px;background:#FFFFFF;" version="1.1" viewBox="0 0 997 578" width="997px" zoomAndPan="magnify"><title>&lt;size:20&gt;Sequence Diagram US241 - Add Drone Model&lt;/size&gt;</title><defs/><g><text fill="#000000" font-family="FG Virgil" font-size="20" font-weight="bold" lengthAdjust="spacing" textLength="430.0977" x="282.5593" y="36.582">Sequence Diagram US241 - Add Drone Model</text><rect fill="#FFFFFF" height="336.2012" style="stroke:#181818;stroke-width:1.0;" width="10" x="37.6274" y="141.2227"/><rect fill="#FFFFFF" height="312.9102" style="stroke:#181818;stroke-width:1.0;" width="10" x="464.7251" y="164.5137"/><rect fill="#FFFFFF" height="250.3281" style="stroke:#181818;stroke-width:1.0;" width="10" x="637.4658" y="195.8047"/><rect fill="#FFFFFF" height="31.291" style="stroke:#181818;stroke-width:1.0;" width="10" x="771.9619" y="320.9688"/><rect fill="#FFFFFF" height="31.291" style="stroke:#181818;stroke-width:1.0;" width="10" x="907.627" y="383.5508"/><line style="stroke:#181818;stroke-width:0.5;stroke-dasharray:5.0,5.0;" x1="42" x2="42" y1="131.2227" y2="495.4238"/><line style="stroke:#181818;stroke-width:0.5;stroke-dasharray:5.0,5.0;" x1="469.1943" x2="469.1943" y1="131.2227" y2="495.4238"/><line style="stroke:#181818;stroke-width:0.5;stroke-dasharray:5.0,5.0;" x1="642.0454" x2="642.0454" y1="131.2227" y2="495.4238"/><line style="stroke:#181818;stroke-width:0.5;stroke-dasharray:5.0,5.0;" x1="776.8862" x2="776.8862" y1="131.2227" y2="495.4238"/><line style="stroke:#181818;stroke-width:0.5;stroke-dasharray:5.0,5.0;" x1="912.0376" x2="912.0376" y1="131.2227" y2="495.4238"/><text fill="#000000" font-family="FG Virgil" font-size="14" lengthAdjust="spacing" textLength="69.2549" x="5" y="127.709">DroneTech</text><ellipse cx="42.6274" cy="61.1016" fill="#E3E3E3" rx="8" ry="8" style="stroke:#181818;stroke-width:0.5;"/><path d="M42.6274,69.1016 L42.6274,96.1016 M29.6274,77.1016 L55.6274,77.1016 M42.6274,96.1016 L29.6274,111.1016 M42.6274,96.1016 L55.6274,111.1016 " fill="none" style="stroke:#181818;stroke-width:0.5;"/><text fill="#000000" font-family="FG Virgil" font-size="14" lengthAdjust="spacing" textLength="69.2549" x="5" y="509.5313">DroneTech</text><ellipse cx="42.6274" cy="521.5449" fill="#E3E3E3" rx="8" ry="8" style="stroke:#181818;stroke-width:0.5;"/><path d="M42.6274,529.5449 L42.6274,556.5449 M29.6274,537.5449 L55.6274,537.5449 M42.6274,556.5449 L29.6274,571.5449 M42.6274,556.5449 L55.6274,571.5449 " fill="none" style="stroke:#181818;stroke-width:0.5;"/><rect fill="#E3E3E3" height="51.2422" rx="2.5" ry="2.5" style="stroke:#181818;stroke-width:0.5;" width="133.0615" x="403.1943" y="78.9805"/><text fill="#000000" font-family="FG Virgil" font-size="14" font-style="italic" lengthAdjust="spacing" textLength="92.627" x="423.4116" y="101.0879">&#171;presentation&#187;</text><text fill="#000000" font-family="FG Virgil" font-size="14" lengthAdjust="spacing" textLength="119.0615" x="410.1943" y="119.709">:AddDroneModelUI</text><rect fill="#E3E3E3" height="51.2422" rx="2.5" ry="2.5" style="stroke:#181818;stroke-width:0.5;" width="133.0615" x="403.1943" y="494.4238"/><text fill="#000000" font-family="FG Virgil" font-size="14" font-style="italic" lengthAdjust="spacing" textLength="92.627" x="423.4116" y="516.5313">&#171;presentation&#187;</text><text fill="#000000" font-family="FG Virgil" font-size="14" lengthAdjust="spacing" textLength="119.0615" x="410.1943" y="535.1523">:AddDroneModelUI</text><rect fill="#E3E3E3" height="51.2422" rx="2.5" ry="2.5" style="stroke:#181818;stroke-width:0.5;" width="154.8408" x="565.0454" y="78.9805"/><text fill="#000000" font-family="FG Virgil" font-size="14" font-style="italic" lengthAdjust="spacing" textLength="82.5098" x="601.2109" y="101.0879">&#171;application&#187;</text><text fill="#000000" font-family="FG Virgil" font-size="14" lengthAdjust="spacing" textLength="140.8408" x="572.0454" y="119.709">:DroneModelController</text><rect fill="#E3E3E3" height="51.2422" rx="2.5" ry="2.5" style="stroke:#181818;stroke-width:0.5;" width="154.8408" x="565.0454" y="494.4238"/><text fill="#000000" font-family="FG Virgil" font-size="14" font-style="italic" lengthAdjust="spacing" textLength="82.5098" x="601.2109" y="516.5313">&#171;application&#187;</text><text fill="#000000" font-family="FG Virgil" font-size="14" lengthAdjust="spacing" textLength="140.8408" x="572.0454" y="535.1523">:DroneModelController</text><rect fill="#E3E3E3" height="51.2422" rx="2.5" ry="2.5" style="stroke:#181818;stroke-width:0.5;" width="94.1514" x="729.8862" y="78.9805"/><text fill="#000000" font-family="FG Virgil" font-size="14" font-style="italic" lengthAdjust="spacing" textLength="61.4893" x="746.2173" y="101.0879">&#171;domain&#187;</text><text fill="#000000" font-family="FG Virgil" font-size="14" lengthAdjust="spacing" textLength="80.1514" x="736.8862" y="119.709">:DroneModel</text><rect fill="#E3E3E3" height="51.2422" rx="2.5" ry="2.5" style="stroke:#181818;stroke-width:0.5;" width="94.1514" x="729.8862" y="494.4238"/><text fill="#000000" font-family="FG Virgil" font-size="14" font-style="italic" lengthAdjust="spacing" textLength="61.4893" x="746.2173" y="516.5313">&#171;domain&#187;</text><text fill="#000000" font-family="FG Virgil" font-size="14" lengthAdjust="spacing" textLength="80.1514" x="736.8862" y="535.1523">:DroneModel</text><rect fill="#E3E3E3" height="51.2422" rx="2.5" ry="2.5" style="stroke:#181818;stroke-width:0.5;" width="157.1787" x="834.0376" y="78.9805"/><text fill="#000000" font-family="FG Virgil" font-size="14" font-style="italic" lengthAdjust="spacing" textLength="77.041" x="874.1064" y="101.0879">&#171;repository&#187;</text><text fill="#000000" font-family="FG Virgil" font-size="14" lengthAdjust="spacing" textLength="143.1787" x="841.0376" y="119.709">DroneModelRepository</text><rect fill="#E3E3E3" height="51.2422" rx="2.5" ry="2.5" style="stroke:#181818;stroke-width:0.5;" width="157.1787" x="834.0376" y="494.4238"/><text fill="#000000" font-family="FG Virgil" font-size="14" font-style="italic" lengthAdjust="spacing" textLength="77.041" x="874.1064" y="516.5313">&#171;repository&#187;</text><text fill="#000000" font-family="FG Virgil" font-size="14" lengthAdjust="spacing" textLength="143.1787" x="841.0376" y="535.1523">DroneModelRepository</text><rect fill="#FFFFFF" height="336.2012" style="stroke:#181818;stroke-width:1.0;" width="10" x="37.6274" y="141.2227"/><rect fill="#FFFFFF" height="312.9102" style="stroke:#181818;stroke-width:1.0;" width="10" x="464.7251" y="164.5137"/><rect fill="#FFFFFF" height="250.3281" style="stroke:#181818;stroke-width:1.0;" width="10" x="637.4658" y="195.8047"/><rect fill="#FFFFFF" height="31.291" style="stroke:#181818;stroke-width:1.0;" width="10" x="771.9619" y="320.9688"/><rect fill="#FFFFFF" height="31.291" style="stroke:#181818;stroke-width:1.0;" width="10" x="907.627" y="383.5508"/><polygon fill="#181818" points="452.7251,160.5137,462.7251,164.5137,452.7251,168.5137,456.7251,164.5137" style="stroke:#181818;stroke-width:1.0;"/><line style="stroke:#181818;stroke-width:1.0;" x1="47.6274" x2="458.7251" y1="164.5137" y2="164.5137"/><text fill="#000000" font-family="FG Virgil" font-size="13" lengthAdjust="spacing" textLength="208.8569" x="54.6274" y="159.251">Requests to add a new drone model</text><polygon fill="#181818" points="625.4658,191.8047,635.4658,195.8047,625.4658,199.8047,629.4658,195.8047" style="stroke:#181818;stroke-width:1.0;"/><line style="stroke:#181818;stroke-width:1.0;" x1="474.7251" x2="631.4658" y1="195.8047" y2="195.8047"/><text fill="#000000" font-family="FG Virgil" font-size="13" lengthAdjust="spacing" textLength="36.1309" x="481.7251" y="190.542">create</text><polygon fill="#181818" points="58.6274,223.0957,48.6274,227.0957,58.6274,231.0957,54.6274,227.0957" style="stroke:#181818;stroke-width:1.0;"/><line style="stroke:#181818;stroke-width:1.0;stroke-dasharray:2.0,2.0;" x1="52.6274" x2="463.7251" y1="227.0957" y2="227.0957"/><text fill="#000000" font-family="FG Virgil" font-size="13" lengthAdjust="spacing" textLength="393.0977" x="64.6274" y="221.833">Request drone model details (name, wind behavior, tolerances, etc.)</text><polygon fill="#181818" points="452.7251,254.3867,462.7251,258.3867,452.7251,262.3867,456.7251,258.3867" style="stroke:#181818;stroke-width:1.0;"/><line style="stroke:#181818;stroke-width:1.0;" x1="47.6274" x2="458.7251" y1="258.3867" y2="258.3867"/><text fill="#000000" font-family="FG Virgil" font-size="13" lengthAdjust="spacing" textLength="167.6479" x="54.6274" y="253.124">Provides drone model details</text><polygon fill="#181818" points="625.4658,285.6777,635.4658,289.6777,625.4658,293.6777,629.4658,289.6777" style="stroke:#181818;stroke-width:1.0;"/><line style="stroke:#181818;stroke-width:1.0;" x1="474.7251" x2="631.4658" y1="289.6777" y2="289.6777"/><text fill="#000000" font-family="FG Virgil" font-size="13" lengthAdjust="spacing" textLength="138.7407" x="481.7251" y="284.415">addDroneModel(details)</text><polygon fill="#181818" points="759.9619,316.9688,769.9619,320.9688,759.9619,324.9688,763.9619,320.9688" style="stroke:#181818;stroke-width:1.0;"/><line style="stroke:#181818;stroke-width:1.0;" x1="647.4658" x2="765.9619" y1="320.9688" y2="320.9688"/><text fill="#000000" font-family="FG Virgil" font-size="13" lengthAdjust="spacing" textLength="70.0845" x="654.4658" y="315.7061">new(details)</text><polygon fill="#181818" points="658.4658,348.2598,648.4658,352.2598,658.4658,356.2598,654.4658,352.2598" style="stroke:#181818;stroke-width:1.0;"/><line style="stroke:#181818;stroke-width:1.0;stroke-dasharray:2.0,2.0;" x1="652.4658" x2="775.9619" y1="352.2598" y2="352.2598"/><text fill="#000000" font-family="FG Virgil" font-size="13" lengthAdjust="spacing" textLength="94.6626" x="664.4658" y="346.9971">newDroneModel</text><polygon fill="#181818" points="895.627,379.5508,905.627,383.5508,895.627,387.5508,899.627,383.5508" style="stroke:#181818;stroke-width:1.0;"/><line style="stroke:#181818;stroke-width:1.0;" x1="647.4658" x2="901.627" y1="383.5508" y2="383.5508"/><text fill="#000000" font-family="FG Virgil" font-size="13" lengthAdjust="spacing" textLength="130.7808" x="654.4658" y="378.2881">save(newDroneModel)</text><polygon fill="#181818" points="658.4658,410.8418,648.4658,414.8418,658.4658,418.8418,654.4658,414.8418" style="stroke:#181818;stroke-width:1.0;"/><line style="stroke:#181818;stroke-width:1.0;stroke-dasharray:2.0,2.0;" x1="652.4658" x2="911.627" y1="414.8418" y2="414.8418"/><text fill="#000000" font-family="FG Virgil" font-size="13" lengthAdjust="spacing" textLength="105.5044" x="664.4658" y="409.5791">savedDroneModel</text><polygon fill="#181818" points="485.7251,442.1328,475.7251,446.1328,485.7251,450.1328,481.7251,446.1328" style="stroke:#181818;stroke-width:1.0;"/><line style="stroke:#181818;stroke-width:1.0;stroke-dasharray:2.0,2.0;" x1="479.7251" x2="641.4658" y1="446.1328" y2="446.1328"/><text fill="#000000" font-family="FG Virgil" font-size="13" lengthAdjust="spacing" textLength="105.5044" x="491.7251" y="440.8701">savedDroneModel</text><polygon fill="#181818" points="53.6274,473.4238,43.6274,477.4238,53.6274,481.4238,49.6274,477.4238" style="stroke:#181818;stroke-width:1.0;"/><line style="stroke:#181818;stroke-width:1.0;stroke-dasharray:2.0,2.0;" x1="47.6274" x2="468.7251" y1="477.4238" y2="477.4238"/><text fill="#000000" font-family="FG Virgil" font-size="13" lengthAdjust="spacing" textLength="345.4014" x="59.6274" y="472.1611">Confirmation of successful drone model addition with details</text><!--SRC=[XLF1Rjim3BtxAuYUCY1Pjs8d8p1GB6YHmuQXMNPd9JeMAakU92VeldwK4bYEvwu-69RvtkEZ7nrKq0Hhh_vGUVUfsj7ldemWs2WyE6nXlxlxyXbMS2ybR9mr1D-i9Bs-ZOogAFoBCXr6P6kD5OspBK5mFOqg7OeNFD0kl78hHoACQf9gx7Lui2PyHwO-FC8lvGvAZp2-GMbFoXoWHksfA504wyvsVf9e03tSnrS5uuCIgaCJuAPapmcJ7E-tDn6tty9wtJdoP086PKrLJLYPyfLDEQirkKJDHvR0hjDAlAUGU1lReZBCaUbX0i_W9-giLpp6AsFTS61y75WTCT1bp7I7LSNJbF0K8_F1Gx20d1A2eHF8b5KRTJDxloqAu8i_0fFpF2K8Hmn8nG6Twvd5jDHyQ3jkn646LDh3md2KI-3893nJWqTbtPBziHJoSlabK10VFoJLgrb-E7jKaloSwblMSPpouW8-QyThb1eJprcKyHFz2nqcFwE6zvS0LvF6h94R3s19KvcthCm4NuB78oskbEVypL2psxc5cdgFRUGxxkUQ5DCvBi7DwOsq_hzANAsLQzFF1BO6tmjU4b_t-ceFE6YL82SLchmLepQytwFJ-L_v2m00]--></g></svg>