<?xml version="1.0" encoding="UTF-8" standalone="no"?><svg xmlns="http://www.w3.org/2000/svg" xmlns:xlink="http://www.w3.org/1999/xlink" contentStyleType="text/css" height="542px" preserveAspectRatio="none" style="width:1579px;height:542px;background:#FFFFFF;" version="1.1" viewBox="0 0 1579 542" width="1579px" zoomAndPan="magnify"><defs/><g><!--cluster Show Request--><g id="cluster_Show Request"><path d="M8.5,6.7188 L153.5,6.7188 A3.75,3.75 0 0 1 156,9.2188 L163,36.2734 L1569.5,36.2734 A2.5,2.5 0 0 1 1572,38.7734 L1572,532.5388 A2.5,2.5 0 0 1 1569.5,535.0388 L8.5,535.0388 A2.5,2.5 0 0 1 6,532.5388 L6,9.2188 A2.5,2.5 0 0 1 8.5,6.7188 " fill="#7A91FF" style="stroke:#000000;stroke-width:1.5;"/><line style="stroke:#000000;stroke-width:1.5;" x1="6" x2="163" y1="36.2734" y2="36.2734"/><text fill="#000000" font-family="sans-serif" font-size="20" font-weight="bold" lengthAdjust="spacing" textLength="144" x="10" y="28.0547">Show Request</text></g><g id="elem_ShowRequest"><rect fill="#F1F1F1" height="294.6563" style="stroke:#181818;stroke-width:0.5;" width="358" x="665" y="48.7188"/><text fill="#000000" font-family="sans-serif" font-size="20" font-style="italic" lengthAdjust="spacing" textLength="73" x="807.5" y="68.0547">«Entity»</text><text fill="#000000" font-family="sans-serif" font-size="20" font-style="italic" lengthAdjust="spacing" textLength="64" x="812" y="91.6094">«Root»</text><text fill="#000000" font-family="sans-serif" font-size="20" lengthAdjust="spacing" textLength="127" x="780.5" y="117.1641">ShowRequest</text><line style="stroke:#181818;stroke-width:0.5;" x1="666" x2="1022" y1="123.3828" y2="123.3828"/><ellipse cx="676" cy="140.6602" fill="none" rx="3" ry="3" style="stroke:#038048;stroke-width:1.0;"/><text fill="#000000" font-family="sans-serif" font-size="20" lengthAdjust="spacing" textLength="72" x="686" y="146.7188">Long id</text><ellipse cx="676" cy="164.2148" fill="none" rx="3" ry="3" style="stroke:#038048;stroke-width:1.0;"/><text fill="#000000" font-family="sans-serif" font-size="20" lengthAdjust="spacing" textLength="122" x="686" y="170.2734">Long version</text><ellipse cx="676" cy="187.7695" fill="none" rx="3" ry="3" style="stroke:#038048;stroke-width:1.0;"/><text fill="#000000" font-family="sans-serif" font-size="20" lengthAdjust="spacing" textLength="331" x="686" y="193.8281">FrameworkDescription description</text><ellipse cx="676" cy="211.3242" fill="none" rx="3" ry="3" style="stroke:#038048;stroke-width:1.0;"/><text fill="#000000" font-family="sans-serif" font-size="20" lengthAdjust="spacing" textLength="183" x="686" y="217.3828">RequestPlace place</text><ellipse cx="676" cy="234.8789" fill="none" rx="3" ry="3" style="stroke:#038048;stroke-width:1.0;"/><text fill="#000000" font-family="sans-serif" font-size="20" lengthAdjust="spacing" textLength="329" x="686" y="240.9375">RequestCreationDate creationDate</text><ellipse cx="676" cy="258.4336" fill="none" rx="3" ry="3" style="stroke:#038048;stroke-width:1.0;"/><text fill="#000000" font-family="sans-serif" font-size="20" lengthAdjust="spacing" textLength="270" x="686" y="264.4922">RequestShowDate showDate</text><ellipse cx="676" cy="281.9883" fill="none" rx="3" ry="3" style="stroke:#038048;stroke-width:1.0;"/><text fill="#000000" font-family="sans-serif" font-size="20" lengthAdjust="spacing" textLength="247" x="686" y="288.0469">RequestDuration duration</text><ellipse cx="676" cy="305.543" fill="none" rx="3" ry="3" style="stroke:#038048;stroke-width:1.0;"/><text fill="#000000" font-family="sans-serif" font-size="20" lengthAdjust="spacing" textLength="246" x="686" y="311.6016">RequestNDrones nDrones</text><ellipse cx="676" cy="329.0977" fill="none" rx="3" ry="3" style="stroke:#038048;stroke-width:1.0;"/><text fill="#000000" font-family="sans-serif" font-size="20" lengthAdjust="spacing" textLength="229" x="686" y="335.1563">ShodroneUser customer</text></g><g id="elem_FrameworkDescription"><rect fill="#F1F1F1" height="82.6641" style="stroke:#181818;stroke-width:0.5;" width="231" x="21.5" y="432.3788"/><text fill="#000000" font-family="sans-serif" font-size="20" font-style="italic" lengthAdjust="spacing" textLength="142" x="66" y="451.7147">«Value Object»</text><text fill="#000000" font-family="sans-serif" font-size="20" lengthAdjust="spacing" textLength="217" x="28.5" y="477.2694">FrameworkDescription</text><line style="stroke:#181818;stroke-width:0.5;" x1="22.5" x2="251.5" y1="483.4881" y2="483.4881"/><ellipse cx="32.5" cy="500.7655" fill="none" rx="3" ry="3" style="stroke:#038048;stroke-width:1.0;"/><text fill="#000000" font-family="sans-serif" font-size="20" lengthAdjust="spacing" textLength="112" x="42.5" y="506.8241">String value</text></g><g id="elem_RequestCreationDate"><rect fill="#F1F1F1" height="82.6641" style="stroke:#181818;stroke-width:0.5;" width="216" x="287" y="432.3788"/><text fill="#000000" font-family="sans-serif" font-size="20" font-style="italic" lengthAdjust="spacing" textLength="142" x="324" y="451.7147">«Value Object»</text><text fill="#000000" font-family="sans-serif" font-size="20" lengthAdjust="spacing" textLength="202" x="294" y="477.2694">RequestCreationDate</text><line style="stroke:#181818;stroke-width:0.5;" x1="288" x2="502" y1="483.4881" y2="483.4881"/><ellipse cx="298" cy="500.7655" fill="none" rx="3" ry="3" style="stroke:#038048;stroke-width:1.0;"/><text fill="#000000" font-family="sans-serif" font-size="20" lengthAdjust="spacing" textLength="142" x="308" y="506.8241">LocalDate date</text></g><g id="elem_RequestShowDate"><rect fill="#F1F1F1" height="82.6641" style="stroke:#181818;stroke-width:0.5;" width="185" x="537.5" y="432.3788"/><text fill="#000000" font-family="sans-serif" font-size="20" font-style="italic" lengthAdjust="spacing" textLength="142" x="559" y="451.7147">«Value Object»</text><text fill="#000000" font-family="sans-serif" font-size="20" lengthAdjust="spacing" textLength="171" x="544.5" y="477.2694">RequestShowDate</text><line style="stroke:#181818;stroke-width:0.5;" x1="538.5" x2="721.5" y1="483.4881" y2="483.4881"/><ellipse cx="548.5" cy="500.7655" fill="none" rx="3" ry="3" style="stroke:#038048;stroke-width:1.0;"/><text fill="#000000" font-family="sans-serif" font-size="20" lengthAdjust="spacing" textLength="142" x="558.5" y="506.8241">LocalDate date</text></g><g id="elem_RequestDuration"><rect fill="#F1F1F1" height="82.6641" style="stroke:#181818;stroke-width:0.5;" width="174" x="757" y="432.3788"/><text fill="#000000" font-family="sans-serif" font-size="20" font-style="italic" lengthAdjust="spacing" textLength="142" x="773" y="451.7147">«Value Object»</text><text fill="#000000" font-family="sans-serif" font-size="20" lengthAdjust="spacing" textLength="160" x="764" y="477.2694">RequestDuration</text><line style="stroke:#181818;stroke-width:0.5;" x1="758" x2="930" y1="483.4881" y2="483.4881"/><ellipse cx="768" cy="500.7655" fill="none" rx="3" ry="3" style="stroke:#038048;stroke-width:1.0;"/><text fill="#000000" font-family="sans-serif" font-size="20" lengthAdjust="spacing" textLength="125" x="778" y="506.8241">long minutes</text></g><g id="elem_RequestNDrones"><rect fill="#F1F1F1" height="82.6641" style="stroke:#181818;stroke-width:0.5;" width="174" x="966" y="432.3788"/><text fill="#000000" font-family="sans-serif" font-size="20" font-style="italic" lengthAdjust="spacing" textLength="142" x="982" y="451.7147">«Value Object»</text><text fill="#000000" font-family="sans-serif" font-size="20" lengthAdjust="spacing" textLength="160" x="973" y="477.2694">RequestNDrones</text><line style="stroke:#181818;stroke-width:0.5;" x1="967" x2="1139" y1="483.4881" y2="483.4881"/><ellipse cx="977" cy="500.7655" fill="none" rx="3" ry="3" style="stroke:#038048;stroke-width:1.0;"/><text fill="#000000" font-family="sans-serif" font-size="20" lengthAdjust="spacing" textLength="106" x="987" y="506.8241">int number</text></g><g id="elem_RequestPlace"><rect fill="#F1F1F1" height="82.6641" style="stroke:#181818;stroke-width:0.5;" width="197" x="1175.5" y="432.3788"/><text fill="#000000" font-family="sans-serif" font-size="20" font-style="italic" lengthAdjust="spacing" textLength="142" x="1203" y="451.7147">«Value Object»</text><text fill="#000000" font-family="sans-serif" font-size="20" lengthAdjust="spacing" textLength="126" x="1211" y="477.2694">RequestPlace</text><line style="stroke:#181818;stroke-width:0.5;" x1="1176.5" x2="1371.5" y1="483.4881" y2="483.4881"/><ellipse cx="1186.5" cy="500.7655" fill="none" rx="3" ry="3" style="stroke:#038048;stroke-width:1.0;"/><text fill="#000000" font-family="sans-serif" font-size="20" lengthAdjust="spacing" textLength="170" x="1196.5" y="506.8241">String description</text></g><g id="elem_ShodroneUser"><rect fill="#F1F1F1" height="90.6641" style="stroke:#181818;stroke-width:0.5;" width="148" x="1408" y="428.3788"/><text fill="#000000" font-family="sans-serif" font-size="20" font-style="italic" lengthAdjust="spacing" textLength="73" x="1445.5" y="447.7147">«Entity»</text><text fill="#000000" font-family="sans-serif" font-size="20" font-style="italic" lengthAdjust="spacing" textLength="64" x="1450" y="471.2694">«Root»</text><text fill="#000000" font-family="sans-serif" font-size="20" lengthAdjust="spacing" textLength="134" x="1415" y="496.8241">ShodroneUser</text><line style="stroke:#181818;stroke-width:0.5;" x1="1409" x2="1555" y1="503.0428" y2="503.0428"/></g><!--reverse link ShowRequest to FrameworkDescription--><g id="link_ShowRequest_FrameworkDescription"><path codeLine="53" d="M651.21,272.2188 C519.15,323.7088 349.07,390.0188 241.5,431.9588 " fill="none" id="ShowRequest-backto-FrameworkDescription" style="stroke:#181818;stroke-width:1.0;"/><polygon fill="#181818" points="663.27,267.5088,656.2278,265.957,652.0869,271.8607,659.1291,273.4124,663.27,267.5088" style="stroke:#181818;stroke-width:1.0;"/><polygon fill="#000000" points="386.4065,389.0621,401.5981,388.1861,398.1819,379.424,386.4065,389.0621" style="stroke:#000000;stroke-width:1.0;"/><text fill="#000000" font-family="sans-serif" font-size="20" lengthAdjust="spacing" textLength="33" x="406.86" y="393.7147">has</text><text fill="#000000" font-family="sans-serif" font-size="20" lengthAdjust="spacing" textLength="13" x="643.8407" y="265.8128">1</text><text fill="#000000" font-family="sans-serif" font-size="20" lengthAdjust="spacing" textLength="13" x="243.5063" y="420.1829">1</text></g><!--reverse link ShowRequest to RequestPlace--><g id="link_ShowRequest_RequestPlace"><path codeLine="54" d="M1035.37,319.7288 C1098.27,360.0488 1163.9,402.1288 1210.38,431.9188 " fill="none" id="ShowRequest-backto-RequestPlace" style="stroke:#181818;stroke-width:1.0;"/><polygon fill="#181818" points="1024.52,312.7688,1027.4128,319.3742,1034.6227,319.2445,1031.7299,312.6391,1024.52,312.7688" style="stroke:#181818;stroke-width:1.0;"/><polygon fill="#000000" points="1161.675,390.4735,1152.029,378.7045,1146.9536,386.6219,1161.675,390.4735" style="stroke:#000000;stroke-width:1.0;"/><text fill="#000000" font-family="sans-serif" font-size="20" lengthAdjust="spacing" textLength="33" x="1167.94" y="393.7147">has</text><text fill="#000000" font-family="sans-serif" font-size="20" lengthAdjust="spacing" textLength="13" x="1031.0863" y="312.7113">1</text><text fill="#000000" font-family="sans-serif" font-size="20" lengthAdjust="spacing" textLength="13" x="1186.6429" y="420.1368">1</text></g><!--reverse link ShowRequest to RequestCreationDate--><g id="link_ShowRequest_RequestCreationDate"><path codeLine="55" d="M652.39,314.6888 C584.29,356.4988 512.05,400.8388 461.5,431.8788 " fill="none" id="ShowRequest-backto-RequestCreationDate" style="stroke:#181818;stroke-width:1.0;"/><polygon fill="#181818" points="663.32,307.9788,656.114,307.7063,653.0911,314.2532,660.297,314.5256,663.32,307.9788" style="stroke:#181818;stroke-width:1.0;"/><polygon fill="#000000" points="554.2323,390.3416,569.0258,386.7773,564.1055,378.7626,554.2323,390.3416" style="stroke:#000000;stroke-width:1.0;"/><text fill="#000000" font-family="sans-serif" font-size="20" lengthAdjust="spacing" textLength="33" x="574.05" y="393.7147">has</text><text fill="#000000" font-family="sans-serif" font-size="20" lengthAdjust="spacing" textLength="13" x="643.7678" y="307.7296">1</text><text fill="#000000" font-family="sans-serif" font-size="20" lengthAdjust="spacing" textLength="13" x="457.6875" y="420.0907">1</text></g><!--reverse link ShowRequest to RequestShowDate--><g id="link_ShowRequest_RequestShowDate"><path codeLine="56" d="M721.26,355.1488 C699.14,383.6488 677.94,410.9588 661.55,432.0688 " fill="none" id="ShowRequest-backto-RequestShowDate" style="stroke:#181818;stroke-width:1.0;"/><polygon fill="#181818" points="729.18,344.9488,722.3414,347.2364,721.8228,354.4288,728.6614,352.1412,729.18,344.9488" style="stroke:#181818;stroke-width:1.0;"/><polygon fill="#000000" points="708.4244,392.4756,721.0132,383.927,713.5842,378.1601,708.4244,392.4756" style="stroke:#000000;stroke-width:1.0;"/><text fill="#000000" font-family="sans-serif" font-size="20" lengthAdjust="spacing" textLength="33" x="726.33" y="393.7147">has</text><text fill="#000000" font-family="sans-serif" font-size="20" lengthAdjust="spacing" textLength="13" x="711.2786" y="370.8199">1</text><text fill="#000000" font-family="sans-serif" font-size="20" lengthAdjust="spacing" textLength="13" x="652.3858" y="420.3098">1</text></g><!--reverse link ShowRequest to RequestDuration--><g id="link_ShowRequest_RequestDuration"><path codeLine="57" d="M844,358.1688 C844,385.5688 844,411.6988 844,432.0688 " fill="none" id="ShowRequest-backto-RequestDuration" style="stroke:#181818;stroke-width:1.0;"/><polygon fill="#181818" points="844,345.2688,840,351.2688,844,357.2688,848,351.2688,844,345.2688" style="stroke:#181818;stroke-width:1.0;"/><polygon fill="#000000" points="852,394.1561,856.7023,379.684,847.2977,379.684,852,394.1561" style="stroke:#000000;stroke-width:1.0;"/><text fill="#000000" font-family="sans-serif" font-size="20" lengthAdjust="spacing" textLength="33" x="865" y="393.7147">has</text><text fill="#000000" font-family="sans-serif" font-size="20" lengthAdjust="spacing" textLength="13" x="830.6852" y="370.8199">1</text><text fill="#000000" font-family="sans-serif" font-size="20" lengthAdjust="spacing" textLength="13" x="830.0047" y="420.3098">1</text></g><!--reverse link ShowRequest to RequestNDrones--><g id="link_ShowRequest_RequestNDrones"><path codeLine="58" d="M963.87,355.1488 C985.48,383.6488 1006.18,410.9588 1022.19,432.0688 " fill="none" id="ShowRequest-backto-RequestNDrones" style="stroke:#181818;stroke-width:1.0;"/><polygon fill="#181818" points="956.15,344.9588,956.5848,352.1567,963.3963,354.5239,962.9615,347.3259,956.15,344.9588" style="stroke:#181818;stroke-width:1.0;"/><polygon fill="#000000" points="1004.0734,392.5309,999.0768,378.1578,991.5827,383.8397,1004.0734,392.5309" style="stroke:#000000;stroke-width:1.0;"/><text fill="#000000" font-family="sans-serif" font-size="20" lengthAdjust="spacing" textLength="33" x="1012.24" y="393.7147">has</text><text fill="#000000" font-family="sans-serif" font-size="20" lengthAdjust="spacing" textLength="13" x="947.3029" y="370.8199">1</text><text fill="#000000" font-family="sans-serif" font-size="20" lengthAdjust="spacing" textLength="13" x="1003.4769" y="420.3098">1</text></g><!--link ShowRequest to ShodroneUser--><g id="link_ShowRequest_ShodroneUser"><path codeLine="59" d="M1023.16,272.9488 C1182.35,340.3988 1390,428.3788 1390,428.3788 C1390,428.3788 1397.28,431.8788 1407.74,436.9188 " fill="none" id="ShowRequest-ShodroneUser" style="stroke:#181818;stroke-width:1.0;"/><polygon fill="#000000" points="1326.109,389.2937,1314.6407,379.2922,1310.9522,387.9432,1326.109,389.2937" style="stroke:#000000;stroke-width:1.0;"/><text fill="#000000" font-family="sans-serif" font-size="20" lengthAdjust="spacing" textLength="125" x="1331.75" y="393.7147">requested by</text><text fill="#000000" font-family="sans-serif" font-size="20" lengthAdjust="spacing" textLength="13" x="1030.9925" y="272.0555">1</text><text fill="#000000" font-family="sans-serif" font-size="20" lengthAdjust="spacing" textLength="13" x="1387.0426" y="428.6783">1</text></g><!--SRC=[fLDTQzj047pNhnZK1oTjR3TzAJN646872caJ4fhtixIohpxTgNUdf6xeV- -U92iMI60e26bFE_jnixDk9tKXhCYLINQK8gLCbChV6EqVvH_2fu_HQEjzuMRJQQ64zcMk9ed9fuaIperJAJOS74Nka0TAQlBxWb0OjG-7Q2jJ0kM5toEdV4tMHL4XaftO4EB7hNd10_qgoVaOxpwBBvTPXjSe0ipw9oKU0T40C9-lj9T-lrYm-M2CP-ELeS27MwCtaEdHuPahIQFhFpVS6xqOkrkIIwmiF7lujgrTevewzqeaV87mxlo_jYG2U2ay8JawT52XuGhX6gFZNPPMrCKRe-FzlhH6auEklvLlD1upGwe2Eup7TG1NIGFcXoEBf7JUv6JPzJTGD-A0mf8ZPekPy5l2wkh-zYko0mqZXsCcdkvmvcHUA9b9Ii_VsE_bRJv_4geat5MOTWRSbBUXtdFm7dff4lLHE927nvS8LI7IchwUH2tB_vEa7SPG4XM4b4jT-ceOFIaE4nlA8BM7BeFi- -DhhGr5DuHsXTgCUFNRazL2eTu9dF7oyhwba1f26nwwHRDd5w39PdA1-BeHIWnZ4LVQ-IOq8tAMIdpUsRetUGsltGXNdbjS1tvWiavOtIa_nniSNyPupu8EtrvjpR0L3el1e0vj9u8xeZinfjNNYVXMIYVY3xePWZVepXnci3M2XxpUSz0_]--></g></svg>