<?xml version="1.0" encoding="UTF-8" standalone="no"?><svg xmlns="http://www.w3.org/2000/svg" xmlns:xlink="http://www.w3.org/1999/xlink" contentStyleType="text/css" height="724px" preserveAspectRatio="none" style="width:1548px;height:724px;background:#FFFFFF;" version="1.1" viewBox="0 0 1548 724" width="1548px" zoomAndPan="magnify"><defs/><g><!--cluster Customer--><g id="cluster_Customer"><rect fill="#FFF37A" height="711.54" rx="2.5" ry="2.5" style="stroke:#000000;stroke-width:1.5;" width="1535" x="7" y="7"/><text fill="#000000" font-family="sans-serif" font-size="20" font-weight="bold" lengthAdjust="spacing" textLength="99" x="725" y="28.3359">Customer</text></g><g id="elem_Customer"><rect fill="#F1F1F1" height="153.3281" style="stroke:#181818;stroke-width:0.5;" width="242" x="574" y="72.56"/><text fill="#000000" font-family="sans-serif" font-size="20" font-style="italic" lengthAdjust="spacing" textLength="73" x="658.5" y="91.8959">«Entity»</text><text fill="#000000" font-family="sans-serif" font-size="20" font-style="italic" lengthAdjust="spacing" textLength="64" x="663" y="115.4506">«Root»</text><text fill="#000000" font-family="sans-serif" font-size="20" lengthAdjust="spacing" textLength="93" x="648.5" y="141.0053">Customer</text><line style="stroke:#181818;stroke-width:0.5;" x1="575" x2="815" y1="147.2241" y2="147.2241"/><ellipse cx="585" cy="164.5014" fill="none" rx="3" ry="3" style="stroke:#038048;stroke-width:1.0;"/><text fill="#000000" font-family="sans-serif" font-size="20" lengthAdjust="spacing" textLength="78" x="595" y="170.56">id: Long</text><ellipse cx="585" cy="188.0561" fill="none" rx="3" ry="3" style="stroke:#038048;stroke-width:1.0;"/><text fill="#000000" font-family="sans-serif" font-size="20" lengthAdjust="spacing" textLength="128" x="595" y="194.1147">version: Long</text><ellipse cx="585" cy="211.6108" fill="none" rx="3" ry="3" style="stroke:#038048;stroke-width:1.0;"/><text fill="#000000" font-family="sans-serif" font-size="20" lengthAdjust="spacing" textLength="215" x="595" y="217.6694">CompanyName: String</text></g><g id="elem_CustomerStatus"><rect fill="#F1F1F1" height="82.6641" style="stroke:#181818;stroke-width:0.5;" width="452" x="23" y="381.55"/><text fill="#000000" font-family="sans-serif" font-size="20" font-style="italic" lengthAdjust="spacing" textLength="136" x="181" y="400.8859">«ValueObject»</text><text fill="#000000" font-family="sans-serif" font-size="20" lengthAdjust="spacing" textLength="151" x="173.5" y="426.4406">CustomerStatus</text><line style="stroke:#181818;stroke-width:0.5;" x1="24" x2="474" y1="432.6594" y2="432.6594"/><ellipse cx="34" cy="449.9367" fill="none" rx="3" ry="3" style="stroke:#038048;stroke-width:1.0;"/><text fill="#000000" font-family="sans-serif" font-size="20" lengthAdjust="spacing" textLength="425" x="44" y="455.9953">Name: String ' e.g., Active, Inactive, Prospect</text></g><g id="elem_ContactDetails"><rect fill="#F1F1F1" height="129.7734" style="stroke:#181818;stroke-width:0.5;" width="270" x="510" y="357.99"/><text fill="#000000" font-family="sans-serif" font-size="20" font-style="italic" lengthAdjust="spacing" textLength="136" x="577" y="377.3259">«ValueObject»</text><text fill="#000000" font-family="sans-serif" font-size="20" lengthAdjust="spacing" textLength="139" x="575.5" y="402.8806">ContactDetails</text><line style="stroke:#181818;stroke-width:0.5;" x1="511" x2="779" y1="409.0994" y2="409.0994"/><ellipse cx="521" cy="426.3767" fill="none" rx="3" ry="3" style="stroke:#038048;stroke-width:1.0;"/><text fill="#000000" font-family="sans-serif" font-size="20" lengthAdjust="spacing" textLength="197" x="531" y="432.4353">Email: EmailAddress</text><ellipse cx="521" cy="449.9314" fill="none" rx="3" ry="3" style="stroke:#038048;stroke-width:1.0;"/><text fill="#000000" font-family="sans-serif" font-size="20" lengthAdjust="spacing" textLength="206" x="531" y="455.99">Phone: PhoneNumber</text><ellipse cx="521" cy="473.4861" fill="none" rx="3" ry="3" style="stroke:#038048;stroke-width:1.0;"/><text fill="#000000" font-family="sans-serif" font-size="20" lengthAdjust="spacing" textLength="243" x="531" y="479.5447">PrimaryAddress: Address</text></g><g id="elem_EmailAddress"><rect fill="#F1F1F1" height="82.6641" style="stroke:#181818;stroke-width:0.5;" width="148" x="478" y="608.1"/><text fill="#000000" font-family="sans-serif" font-size="20" font-style="italic" lengthAdjust="spacing" textLength="136" x="484" y="627.4359">«ValueObject»</text><text fill="#000000" font-family="sans-serif" font-size="20" lengthAdjust="spacing" textLength="132" x="486" y="652.9906">EmailAddress</text><line style="stroke:#181818;stroke-width:0.5;" x1="479" x2="625" y1="659.2094" y2="659.2094"/><ellipse cx="489" cy="676.4867" fill="none" rx="3" ry="3" style="stroke:#038048;stroke-width:1.0;"/><text fill="#000000" font-family="sans-serif" font-size="20" lengthAdjust="spacing" textLength="121" x="499" y="682.5453">Value: String</text></g><g id="elem_PhoneNumber"><rect fill="#F1F1F1" height="106.2188" style="stroke:#181818;stroke-width:0.5;" width="378" x="661" y="596.32"/><text fill="#000000" font-family="sans-serif" font-size="20" font-style="italic" lengthAdjust="spacing" textLength="136" x="782" y="615.6559">«ValueObject»</text><text fill="#000000" font-family="sans-serif" font-size="20" lengthAdjust="spacing" textLength="136" x="782" y="641.2106">PhoneNumber</text><line style="stroke:#181818;stroke-width:0.5;" x1="662" x2="1038" y1="647.4294" y2="647.4294"/><ellipse cx="672" cy="664.7067" fill="none" rx="3" ry="3" style="stroke:#038048;stroke-width:1.0;"/><text fill="#000000" font-family="sans-serif" font-size="20" lengthAdjust="spacing" textLength="146" x="682" y="670.7653">Number: String</text><ellipse cx="672" cy="688.2614" fill="none" rx="3" ry="3" style="stroke:#038048;stroke-width:1.0;"/><text fill="#000000" font-family="sans-serif" font-size="20" lengthAdjust="spacing" textLength="351" x="682" y="694.32">Type: String ' e.g., Mobile, Work, Fax</text></g><g id="elem_Address"><rect fill="#F1F1F1" height="200.4375" style="stroke:#181818;stroke-width:0.5;" width="246" x="1128" y="49"/><text fill="#000000" font-family="sans-serif" font-size="20" font-style="italic" lengthAdjust="spacing" textLength="136" x="1183" y="68.3359">«ValueObject»</text><text fill="#000000" font-family="sans-serif" font-size="20" lengthAdjust="spacing" textLength="79" x="1211.5" y="93.8906">Address</text><line style="stroke:#181818;stroke-width:0.5;" x1="1129" x2="1373" y1="100.1094" y2="100.1094"/><ellipse cx="1139" cy="117.3867" fill="none" rx="3" ry="3" style="stroke:#038048;stroke-width:1.0;"/><text fill="#000000" font-family="sans-serif" font-size="20" lengthAdjust="spacing" textLength="176" x="1149" y="123.4453">StreetLine1: String</text><ellipse cx="1139" cy="140.9414" fill="none" rx="3" ry="3" style="stroke:#038048;stroke-width:1.0;"/><text fill="#000000" font-family="sans-serif" font-size="20" lengthAdjust="spacing" textLength="176" x="1149" y="147">StreetLine2: String</text><ellipse cx="1139" cy="164.4961" fill="none" rx="3" ry="3" style="stroke:#038048;stroke-width:1.0;"/><text fill="#000000" font-family="sans-serif" font-size="20" lengthAdjust="spacing" textLength="105" x="1149" y="170.5547">City: String</text><ellipse cx="1139" cy="188.0508" fill="none" rx="3" ry="3" style="stroke:#038048;stroke-width:1.0;"/><text fill="#000000" font-family="sans-serif" font-size="20" lengthAdjust="spacing" textLength="219" x="1149" y="194.1094">StateOrProvince: String</text><ellipse cx="1139" cy="211.6055" fill="none" rx="3" ry="3" style="stroke:#038048;stroke-width:1.0;"/><text fill="#000000" font-family="sans-serif" font-size="20" lengthAdjust="spacing" textLength="175" x="1149" y="217.6641">PostalCode: String</text><ellipse cx="1139" cy="235.1602" fill="none" rx="3" ry="3" style="stroke:#038048;stroke-width:1.0;"/><text fill="#000000" font-family="sans-serif" font-size="20" lengthAdjust="spacing" textLength="143" x="1149" y="241.2188">Country: String</text></g><g id="elem_VATNumber"><rect fill="#F1F1F1" height="82.6641" style="stroke:#181818;stroke-width:0.5;" width="148" x="815" y="381.55"/><text fill="#000000" font-family="sans-serif" font-size="20" font-style="italic" lengthAdjust="spacing" textLength="136" x="821" y="400.8859">«ValueObject»</text><text fill="#000000" font-family="sans-serif" font-size="20" lengthAdjust="spacing" textLength="118" x="830" y="426.4406">VATNumber</text><line style="stroke:#181818;stroke-width:0.5;" x1="816" x2="962" y1="432.6594" y2="432.6594"/><ellipse cx="826" cy="449.9367" fill="none" rx="3" ry="3" style="stroke:#038048;stroke-width:1.0;"/><text fill="#000000" font-family="sans-serif" font-size="20" lengthAdjust="spacing" textLength="121" x="836" y="455.9953">Value: String</text></g><g id="elem_CustomerRepresentative"><rect fill="#F1F1F1" height="176.8828" style="stroke:#181818;stroke-width:0.5;" width="528" x="998" y="334.44"/><text fill="#000000" font-family="sans-serif" font-size="20" font-style="italic" lengthAdjust="spacing" textLength="73" x="1225.5" y="353.7759">«Entity»</text><text fill="#000000" font-family="sans-serif" font-size="20" lengthAdjust="spacing" textLength="234" x="1145" y="379.3306">CustomerRepresentative</text><line style="stroke:#181818;stroke-width:0.5;" x1="999" x2="1525" y1="385.5494" y2="385.5494"/><ellipse cx="1009" cy="402.8267" fill="none" rx="3" ry="3" style="stroke:#038048;stroke-width:1.0;"/><text fill="#000000" font-family="sans-serif" font-size="20" lengthAdjust="spacing" textLength="78" x="1019" y="408.8853">id: Long</text><ellipse cx="1009" cy="426.3814" fill="none" rx="3" ry="3" style="stroke:#038048;stroke-width:1.0;"/><text fill="#000000" font-family="sans-serif" font-size="20" lengthAdjust="spacing" textLength="128" x="1019" y="432.44">version: Long</text><ellipse cx="1009" cy="449.9361" fill="none" rx="3" ry="3" style="stroke:#038048;stroke-width:1.0;"/><text fill="#000000" font-family="sans-serif" font-size="20" lengthAdjust="spacing" textLength="166" x="1019" y="455.9947">FirstName: String</text><ellipse cx="1009" cy="473.4908" fill="none" rx="3" ry="3" style="stroke:#038048;stroke-width:1.0;"/><text fill="#000000" font-family="sans-serif" font-size="20" lengthAdjust="spacing" textLength="163" x="1019" y="479.5494">LastName: String</text><ellipse cx="1009" cy="497.0455" fill="none" rx="3" ry="3" style="stroke:#038048;stroke-width:1.0;"/><text fill="#000000" font-family="sans-serif" font-size="20" lengthAdjust="spacing" textLength="501" x="1019" y="503.1041">Position: String ' e.g., Project Manager, Sales Contact</text></g><g id="elem_RepresentativeStatus"><rect fill="#F1F1F1" height="82.6641" style="stroke:#181818;stroke-width:0.5;" width="452" x="1074" y="608.1"/><text fill="#000000" font-family="sans-serif" font-size="20" font-style="italic" lengthAdjust="spacing" textLength="136" x="1232" y="627.4359">«ValueObject»</text><text fill="#000000" font-family="sans-serif" font-size="20" lengthAdjust="spacing" textLength="199" x="1200.5" y="652.9906">RepresentativeStatus</text><line style="stroke:#181818;stroke-width:0.5;" x1="1075" x2="1525" y1="659.2094" y2="659.2094"/><ellipse cx="1085" cy="676.4867" fill="none" rx="3" ry="3" style="stroke:#038048;stroke-width:1.0;"/><text fill="#000000" font-family="sans-serif" font-size="20" lengthAdjust="spacing" textLength="425" x="1095" y="682.5453">Name: String ' e.g., Active, Inactive, OnLeave</text></g><!--reverse link Customer to CustomerStatus--><g id="link_Customer_CustomerStatus"><path codeLine="72" d="M561.41,231.59 C480.45,280.9 380.65,341.69 315.97,381.09 " fill="none" id="Customer-backto-CustomerStatus" style="stroke:#181818;stroke-width:1.0;"/><polygon fill="#181818" points="572.43,224.88,565.225,224.5832,562.1799,231.1198,569.3849,231.4166,572.43,224.88" style="stroke:#181818;stroke-width:1.0;"/><polygon fill="#000000" points="473.1677,296.379,487.9736,292.8664,483.0813,284.8346,473.1677,296.379" style="stroke:#000000;stroke-width:1.0;"/><text fill="#000000" font-family="sans-serif" font-size="20" lengthAdjust="spacing" textLength="33" x="493" y="299.7759">has</text><text fill="#000000" font-family="sans-serif" font-size="20" lengthAdjust="spacing" textLength="13" x="552.9334" y="224.3042">1</text><text fill="#000000" font-family="sans-serif" font-size="20" lengthAdjust="spacing" textLength="13" x="312.2295" y="369.3081">1</text></g><!--reverse link Customer to ContactDetails--><g id="link_Customer_ContactDetails"><path codeLine="73" d="M633.35,237.76 C617.09,260.84 604,279.44 604,279.44 C604,279.44 604,304.44 604,304.44 C604,304.44 613.01,330.24 622.58,357.66 " fill="none" id="Customer-backto-ContactDetails" style="stroke:#181818;stroke-width:1.0;"/><polygon fill="#181818" points="640.67,227.37,633.9448,229.9722,633.7602,237.1809,640.4854,234.5787,640.67,227.37" style="stroke:#181818;stroke-width:1.0;"/><polygon fill="#000000" points="611.2843,300.1853,617.2625,286.1918,607.8956,285.3505,611.2843,300.1853" style="stroke:#000000;stroke-width:1.0;"/><text fill="#000000" font-family="sans-serif" font-size="20" lengthAdjust="spacing" textLength="114" x="625" y="299.7759">has primary</text><text fill="#000000" font-family="sans-serif" font-size="20" lengthAdjust="spacing" textLength="13" x="623.3872" y="253.0872">1</text><text fill="#000000" font-family="sans-serif" font-size="20" lengthAdjust="spacing" textLength="13" x="606.4169" y="345.6354">1</text></g><!--reverse link Customer to VATNumber--><g id="link_Customer_VATNumber"><path codeLine="74" d="M743.54,238.28 C762.6,272.86 780,304.44 780,304.44 C780,304.44 819.7,347.21 851.18,381.13 " fill="none" id="Customer-backto-VATNumber" style="stroke:#181818;stroke-width:1.0;"/><polygon fill="#181818" points="737.48,227.3,736.8711,234.4854,743.2696,237.811,743.8785,230.6256,737.48,227.3" style="stroke:#181818;stroke-width:1.0;"/><text fill="#000000" font-family="sans-serif" font-size="20" lengthAdjust="spacing" textLength="474" x="781" y="299.7759">has &gt; ' A customer might not have a VAT number</text><text fill="#000000" font-family="sans-serif" font-size="20" lengthAdjust="spacing" textLength="13" x="726.8895" y="253.19">1</text><text fill="#000000" font-family="sans-serif" font-size="20" lengthAdjust="spacing" textLength="38" x="804.4794" y="369.3542">0..1</text></g><!--link Customer to CustomerRepresentative--><g id="link_Customer_CustomerRepresentative"><path codeLine="77" d="M816.43,179.25 C938.9,208.53 1110,249.44 1110,249.44 C1110,249.44 1260,279.44 1260,279.44 C1260,279.44 1260.36,304.79 1260.77,334.1 " fill="none" id="Customer-CustomerRepresentative" style="stroke:#181818;stroke-width:1.0;"/><polygon fill="#000000" points="1275.8944,294.85,1263.7758,285.6471,1260.6809,294.5278,1275.8944,294.85" style="stroke:#000000;stroke-width:1.0;"/><text fill="#000000" font-family="sans-serif" font-size="20" lengthAdjust="spacing" textLength="81" x="1281.34" y="299.7759">employs</text><text fill="#000000" font-family="sans-serif" font-size="20" lengthAdjust="spacing" textLength="13" x="823.826" y="176.673">1</text><text fill="#000000" font-family="sans-serif" font-size="20" lengthAdjust="spacing" textLength="35" x="1224.2189" y="322.1544">0..*</text></g><!--reverse link CustomerRepresentative to RepresentativeStatus--><g id="link_CustomerRepresentative_RepresentativeStatus"><path codeLine="78" d="M1279.24,525.76 C1284.14,554.71 1289.2,584.59 1293.09,607.61 " fill="none" id="CustomerRepresentative-backto-RepresentativeStatus" style="stroke:#181818;stroke-width:1.0;"/><polygon fill="#181818" points="1277.11,513.15,1274.1687,519.734,1279.1149,524.9813,1282.0562,518.3974,1277.11,513.15" style="stroke:#181818;stroke-width:1.0;"/><polygon fill="#000000" points="1294.8547,561.9852,1297.0766,546.9314,1287.8038,548.5005,1294.8547,561.9852" style="stroke:#000000;stroke-width:1.0;"/><text fill="#000000" font-family="sans-serif" font-size="20" lengthAdjust="spacing" textLength="33" x="1306.52" y="561.6559">has</text><text fill="#000000" font-family="sans-serif" font-size="20" lengthAdjust="spacing" textLength="13" x="1264.5001" y="538.6948">1</text><text fill="#000000" font-family="sans-serif" font-size="20" lengthAdjust="spacing" textLength="13" x="1278.0366" y="595.8235">1</text></g><!--reverse link CustomerRepresentative to EmailAddress--><g id="link_CustomerRepresentative_EmailAddress"><path codeLine="79" d="M983.94,510.41 C982.02,511 981,511.32 981,511.32 C981,511.32 832,541.32 832,541.32 C832,541.32 644,596.32 644,596.32 C644,596.32 635.68,601.04 624.04,607.63 " fill="none" id="CustomerRepresentative-backto-EmailAddress" style="stroke:#181818;stroke-width:1.0;"/><polygon fill="#181818" points="996.29,506.56,989.3734,504.5204,984.8304,510.1205,991.747,512.1601,996.29,506.56" style="stroke:#181818;stroke-width:1.0;"/><polygon fill="#000000" points="832.2768,556.1836,847.4745,556.9491,845.0219,547.8699,832.2768,556.1836" style="stroke:#000000;stroke-width:1.0;"/><text fill="#000000" font-family="sans-serif" font-size="20" lengthAdjust="spacing" textLength="145" x="853" y="561.6559">has work email</text><text fill="#000000" font-family="sans-serif" font-size="20" lengthAdjust="spacing" textLength="13" x="976.7018" y="504.5836">1</text><text fill="#000000" font-family="sans-serif" font-size="20" lengthAdjust="spacing" textLength="13" x="621.0758" y="595.8465">1</text></g><!--reverse link CustomerRepresentative to PhoneNumber--><g id="link_CustomerRepresentative_PhoneNumber"><path codeLine="80" d="M1088.32,518.54 C1039.74,545.02 988.71,572.83 946.38,595.9 " fill="none" id="CustomerRepresentative-backto-PhoneNumber" style="stroke:#181818;stroke-width:1.0;"/><polygon fill="#181818" points="1099.61,512.39,1092.4277,511.7459,1089.0707,518.1279,1096.253,518.772,1099.61,512.39" style="stroke:#181818;stroke-width:1.0;"/><polygon fill="#000000" points="1044.6255,557.9258,1059.5832,555.1289,1055.0826,546.8712,1044.6255,557.9258" style="stroke:#000000;stroke-width:1.0;"/><text fill="#000000" font-family="sans-serif" font-size="20" lengthAdjust="spacing" textLength="199" x="1064.65" y="561.6559">has contact numbers</text><text fill="#000000" font-family="sans-serif" font-size="20" lengthAdjust="spacing" textLength="13" x="1075.1112" y="538.6948">1</text><text fill="#000000" font-family="sans-serif" font-size="20" lengthAdjust="spacing" textLength="35" x="921.4865" y="583.9396">0..*</text></g><!--SRC=[hLPBRzim3BxxLn3P8Llpwhh302Ce46GjC21ze2cwmx03Ook95bao9CQRL_I_ZtwaiTsazO2TB8aY-V4J-ILk8tMC5YDbWeq88HHBt2gwD9hcye-0irElkoQAdJyQnGerRICr34mq2XGwDmWbhjZPyzmk3YYf1QMnWDYeDDjKR3466ro9EQLAW1K1eLufuQrbA414CQKGYMWXhFEyyYfqfbj79XAs0- -Mo-MdpmYFdWTW5Z_P7tPM68ylD4bApyzvUMSCyUAHxm7qPEZ3pEXLiKiul3IwUZGrKOmwlSP8-30dAqj3Tp20Ew6G-Bw3mQ0ux0LbpZaXRPt_ZA7OmtiPnKe6aY2Ho5MM_ciPVzW5O7One2-2KAeiG6tV8a22TBtDYFBXON9VB5kuMH5RuGGd8vc82lAxck7xoOytWZqTU86o-l7u0TLMtEJ6_HjKkOKkYE5gs8T9aANhmrUDvUhM6XUpOpD7dQ0ZEIuYjlgGVoPXo1Mvmd2xDfgpvv-2hFBSoWXjMjxrOUzKJLwDTonrVbZldGoq8ujIamzNJ18i120ag6J8pSunOMbiXCrQAoYFabc-VILTxvv7xWN1LsOX5TFwpTXD7oxnTmjeSPOVT06WG9XzWDRPoAwu2qQ1sMgoQGFu6nGnD25eneBmiOvyRpYh6wOypishIEB6SfSaKWTrmdktnX6ggGaRvzC2RUMmYde_F__fQJbWdRqZyrAVkQf-jPMjIsaTlH2jtWmFdJ8xal80ZHvXCdDSLwXPRsqVvgY4sutSQpheIlshLz9Q1NznKnuOsVRwMRoRgmtslsdNGUI7-w2rXDtecS14x39rcQyAUmp2vUFq_CCroFbytdO-Tk24FR9lGrfzMAE3ywEtwo9Pt8uBYJlYTJeSyd8_0cK61Zs1tQySH7Ar9j26s9XaVRxly3O5DlhyGBabafFECHy_-tEWJ5elld6fIiN1Ttr9toiHQXrPU6RzMWftco15HLKrByAKpLioc07odho_]--></g></svg>