<?xml version="1.0" encoding="UTF-8" standalone="no"?><svg xmlns="http://www.w3.org/2000/svg" xmlns:xlink="http://www.w3.org/1999/xlink" contentStyleType="text/css" height="2318px" preserveAspectRatio="none" style="width:4142px;height:2318px;background:#FFFFFF;" version="1.1" viewBox="0 0 4142 2318" width="4142px" zoomAndPan="magnify"><defs/><g><text fill="#000000" font-family="FG Virgil" font-size="20" font-weight="bold" lengthAdjust="spacing" textLength="501" x="1819.75" y="34.3359">Sequence Diagram US310: Create Show Proposal</text><rect fill="#FFFFFF" height="2069.5078" style="stroke:#181818;stroke-width:1.0;" width="10" x="88" y="143.1094"/><rect fill="#FFFFFF" height="2039.9531" style="stroke:#181818;stroke-width:1.0;" width="10" x="908" y="172.6641"/><rect fill="#FFFFFF" height="187.7734" style="stroke:#181818;stroke-width:1.0;" width="10" x="1179" y="210.2188"/><rect fill="#FFFFFF" height="112.6641" style="stroke:#181818;stroke-width:1.0;" width="10" x="1179" y="1036.4219"/><rect fill="#FFFFFF" height="187.7734" style="stroke:#181818;stroke-width:1.0;" width="10" x="1499.5" y="435.5469"/><rect fill="#FFFFFF" height="112.6641" style="stroke:#181818;stroke-width:1.0;" width="10" x="1499.5" y="1261.75"/><rect fill="#FFFFFF" height="337.9922" style="stroke:#181818;stroke-width:1.0;" width="10" x="1832" y="660.875"/><rect fill="#FFFFFF" height="612.875" style="stroke:#181818;stroke-width:1.0;" width="10" x="1832" y="1562.1875"/><rect fill="#FFFFFF" height="37.5547" style="stroke:#181818;stroke-width:1.0;" width="10" x="2095.5" y="247.7734"/><rect fill="#FFFFFF" height="37.5547" style="stroke:#181818;stroke-width:1.0;" width="10" x="2095.5" y="473.1016"/><rect fill="#FFFFFF" height="37.5547" style="stroke:#181818;stroke-width:1.0;" width="10" x="2095.5" y="698.4297"/><rect fill="#FFFFFF" height="75.1094" style="stroke:#181818;stroke-width:1.0;" width="10" x="2296" y="322.8828"/><rect fill="#FFFFFF" height="75.1094" style="stroke:#181818;stroke-width:1.0;" width="10" x="2296" y="548.2109"/><rect fill="#FFFFFF" height="75.1094" style="stroke:#181818;stroke-width:1.0;" width="10" x="2296" y="773.5391"/><rect fill="#FFFFFF" height="37.5547" style="stroke:#181818;stroke-width:1.0;" width="10" x="2296" y="886.2031"/><rect fill="#FFFFFF" height="37.5547" style="stroke:#181818;stroke-width:1.0;" width="10" x="2296" y="961.3125"/><rect fill="#FFFFFF" height="37.5547" style="stroke:#181818;stroke-width:1.0;" width="10" x="2520" y="1073.9766"/><rect fill="#FFFFFF" height="37.5547" style="stroke:#181818;stroke-width:1.0;" width="10" x="2520" y="1599.7422"/><rect fill="#FFFFFF" height="37.5547" style="stroke:#181818;stroke-width:1.0;" width="10" x="2796.5" y="1299.3047"/><rect fill="#FFFFFF" height="37.5547" style="stroke:#181818;stroke-width:1.0;" width="10" x="2796.5" y="1674.8516"/><rect fill="#FFFFFF" height="37.5547" style="stroke:#181818;stroke-width:1.0;" width="10" x="3076" y="2099.9531"/><rect fill="#FFFFFF" height="37.5547" style="stroke:#181818;stroke-width:1.0;" width="10" x="3633" y="2024.8438"/><rect fill="#FFFFFF" height="37.5547" style="stroke:#181818;stroke-width:1.0;" width="10" x="3782" y="1851.0703"/><rect fill="#FFFFFF" height="37.5547" style="stroke:#181818;stroke-width:1.0;" width="10" x="3927" y="1926.1797"/><line style="stroke:#181818;stroke-width:0.5;stroke-dasharray:5.0,5.0;" x1="93" x2="93" y1="133.1094" y2="2230.6172"/><line style="stroke:#181818;stroke-width:0.5;stroke-dasharray:5.0,5.0;" x1="912.5" x2="912.5" y1="133.1094" y2="2230.6172"/><line style="stroke:#181818;stroke-width:0.5;stroke-dasharray:5.0,5.0;" x1="1183.5" x2="1183.5" y1="133.1094" y2="2230.6172"/><line style="stroke:#181818;stroke-width:0.5;stroke-dasharray:5.0,5.0;" x1="1504.5" x2="1504.5" y1="133.1094" y2="2230.6172"/><line style="stroke:#181818;stroke-width:0.5;stroke-dasharray:5.0,5.0;" x1="1836.5" x2="1836.5" y1="133.1094" y2="2230.6172"/><line style="stroke:#181818;stroke-width:0.5;stroke-dasharray:5.0,5.0;" x1="2100.5" x2="2100.5" y1="133.1094" y2="2230.6172"/><line style="stroke:#181818;stroke-width:0.5;stroke-dasharray:5.0,5.0;" x1="2300.5" x2="2300.5" y1="133.1094" y2="2230.6172"/><line style="stroke:#181818;stroke-width:0.5;stroke-dasharray:5.0,5.0;" x1="2524.5" x2="2524.5" y1="133.1094" y2="2230.6172"/><line style="stroke:#181818;stroke-width:0.5;stroke-dasharray:5.0,5.0;" x1="2801.5" x2="2801.5" y1="133.1094" y2="2230.6172"/><line style="stroke:#181818;stroke-width:0.5;stroke-dasharray:5.0,5.0;" x1="3080.5" x2="3080.5" y1="133.1094" y2="2230.6172"/><line style="stroke:#181818;stroke-width:0.5;stroke-dasharray:5.0,5.0;" x1="3285.5" x2="3285.5" y1="133.1094" y2="2230.6172"/><line style="stroke:#181818;stroke-width:0.5;stroke-dasharray:5.0,5.0;" x1="3460.5" x2="3460.5" y1="133.1094" y2="2230.6172"/><line style="stroke:#181818;stroke-width:0.5;stroke-dasharray:5.0,5.0;" x1="3637.5" x2="3637.5" y1="133.1094" y2="2230.6172"/><line style="stroke:#181818;stroke-width:0.5;stroke-dasharray:5.0,5.0;" x1="3786.5" x2="3786.5" y1="133.1094" y2="2230.6172"/><line style="stroke:#181818;stroke-width:0.5;stroke-dasharray:5.0,5.0;" x1="3931.5" x2="3931.5" y1="133.1094" y2="2230.6172"/><line style="stroke:#181818;stroke-width:0.5;stroke-dasharray:5.0,5.0;" x1="4073.5" x2="4073.5" y1="133.1094" y2="2230.6172"/><text fill="#000000" font-family="FG Virgil" font-size="20" lengthAdjust="spacing" textLength="170" x="5" y="128.8906">CRM Collaborator</text><ellipse cx="93" cy="58.0547" fill="#E3E3E3" rx="8" ry="8" style="stroke:#181818;stroke-width:0.5;"/><path d="M93,66.0547 L93,93.0547 M80,74.0547 L106,74.0547 M93,93.0547 L80,108.0547 M93,93.0547 L106,108.0547 " fill="none" style="stroke:#181818;stroke-width:0.5;"/><text fill="#000000" font-family="FG Virgil" font-size="20" lengthAdjust="spacing" textLength="170" x="5" y="2248.9531">CRM Collaborator</text><ellipse cx="93" cy="2261.6719" fill="#E3E3E3" rx="8" ry="8" style="stroke:#181818;stroke-width:0.5;"/><path d="M93,2269.6719 L93,2296.6719 M80,2277.6719 L106,2277.6719 M93,2296.6719 L80,2311.6719 M93,2296.6719 L106,2311.6719 " fill="none" style="stroke:#181818;stroke-width:0.5;"/><rect fill="#E3E3E3" height="61.1094" rx="2.5" ry="2.5" style="stroke:#181818;stroke-width:0.5;" width="235" x="795.5" y="71"/><text fill="#000000" font-family="FG Virgil" font-size="20" font-style="italic" lengthAdjust="spacing" textLength="140" x="843" y="97.3359">«presentation»</text><text fill="#000000" font-family="FG Virgil" font-size="20" lengthAdjust="spacing" textLength="221" x="802.5" y="120.8906">:CreateShowProposalUI</text><rect fill="#E3E3E3" height="61.1094" rx="2.5" ry="2.5" style="stroke:#181818;stroke-width:0.5;" width="235" x="795.5" y="2229.6172"/><text fill="#000000" font-family="FG Virgil" font-size="20" font-style="italic" lengthAdjust="spacing" textLength="140" x="843" y="2255.9531">«presentation»</text><text fill="#000000" font-family="FG Virgil" font-size="20" lengthAdjust="spacing" textLength="221" x="802.5" y="2279.5078">:CreateShowProposalUI</text><rect fill="#E3E3E3" height="61.1094" rx="2.5" ry="2.5" style="stroke:#181818;stroke-width:0.5;" width="287" x="1040.5" y="71"/><text fill="#000000" font-family="FG Virgil" font-size="20" font-style="italic" lengthAdjust="spacing" textLength="127" x="1120.5" y="97.3359">«application»</text><text fill="#000000" font-family="FG Virgil" font-size="20" lengthAdjust="spacing" textLength="273" x="1047.5" y="120.8906">:ListShowRequestsController</text><rect fill="#E3E3E3" height="61.1094" rx="2.5" ry="2.5" style="stroke:#181818;stroke-width:0.5;" width="287" x="1040.5" y="2229.6172"/><text fill="#000000" font-family="FG Virgil" font-size="20" font-style="italic" lengthAdjust="spacing" textLength="127" x="1120.5" y="2255.9531">«application»</text><text fill="#000000" font-family="FG Virgil" font-size="20" lengthAdjust="spacing" textLength="273" x="1047.5" y="2279.5078">:ListShowRequestsController</text><rect fill="#E3E3E3" height="61.1094" rx="2.5" ry="2.5" style="stroke:#181818;stroke-width:0.5;" width="334" x="1337.5" y="71"/><text fill="#000000" font-family="FG Virgil" font-size="20" font-style="italic" lengthAdjust="spacing" textLength="127" x="1441" y="97.3359">«application»</text><text fill="#000000" font-family="FG Virgil" font-size="20" lengthAdjust="spacing" textLength="320" x="1344.5" y="120.8906">:ListProposalTemplatesController</text><rect fill="#E3E3E3" height="61.1094" rx="2.5" ry="2.5" style="stroke:#181818;stroke-width:0.5;" width="334" x="1337.5" y="2229.6172"/><text fill="#000000" font-family="FG Virgil" font-size="20" font-style="italic" lengthAdjust="spacing" textLength="127" x="1441" y="2255.9531">«application»</text><text fill="#000000" font-family="FG Virgil" font-size="20" lengthAdjust="spacing" textLength="320" x="1344.5" y="2279.5078">:ListProposalTemplatesController</text><rect fill="#E3E3E3" height="61.1094" rx="2.5" ry="2.5" style="stroke:#181818;stroke-width:0.5;" width="311" x="1681.5" y="71"/><text fill="#000000" font-family="FG Virgil" font-size="20" font-style="italic" lengthAdjust="spacing" textLength="127" x="1773.5" y="97.3359">«application»</text><text fill="#000000" font-family="FG Virgil" font-size="20" lengthAdjust="spacing" textLength="297" x="1688.5" y="120.8906">:CreateShowProposalController</text><rect fill="#E3E3E3" height="61.1094" rx="2.5" ry="2.5" style="stroke:#181818;stroke-width:0.5;" width="311" x="1681.5" y="2229.6172"/><text fill="#000000" font-family="FG Virgil" font-size="20" font-style="italic" lengthAdjust="spacing" textLength="127" x="1773.5" y="2255.9531">«application»</text><text fill="#000000" font-family="FG Virgil" font-size="20" lengthAdjust="spacing" textLength="297" x="1688.5" y="2279.5078">:CreateShowProposalController</text><rect fill="#E3E3E3" height="61.1094" rx="2.5" ry="2.5" style="stroke:#181818;stroke-width:0.5;" width="196" x="2002.5" y="71"/><text fill="#000000" font-family="FG Virgil" font-size="20" font-style="italic" lengthAdjust="spacing" textLength="71" x="2065" y="97.3359">«static»</text><text fill="#000000" font-family="FG Virgil" font-size="20" lengthAdjust="spacing" textLength="182" x="2009.5" y="120.8906">PersistenceContext</text><rect fill="#E3E3E3" height="61.1094" rx="2.5" ry="2.5" style="stroke:#181818;stroke-width:0.5;" width="196" x="2002.5" y="2229.6172"/><text fill="#000000" font-family="FG Virgil" font-size="20" font-style="italic" lengthAdjust="spacing" textLength="71" x="2065" y="2255.9531">«static»</text><text fill="#000000" font-family="FG Virgil" font-size="20" lengthAdjust="spacing" textLength="182" x="2009.5" y="2279.5078">PersistenceContext</text><rect fill="#E3E3E3" height="61.1094" rx="2.5" ry="2.5" style="stroke:#181818;stroke-width:0.5;" width="185" x="2208.5" y="71"/><text fill="#000000" font-family="FG Virgil" font-size="20" font-style="italic" lengthAdjust="spacing" textLength="123" x="2239.5" y="97.3359">«framework»</text><text fill="#000000" font-family="FG Virgil" font-size="20" lengthAdjust="spacing" textLength="171" x="2215.5" y="120.8906">RepositoryFactory</text><rect fill="#E3E3E3" height="61.1094" rx="2.5" ry="2.5" style="stroke:#181818;stroke-width:0.5;" width="185" x="2208.5" y="2229.6172"/><text fill="#000000" font-family="FG Virgil" font-size="20" font-style="italic" lengthAdjust="spacing" textLength="123" x="2239.5" y="2255.9531">«framework»</text><text fill="#000000" font-family="FG Virgil" font-size="20" lengthAdjust="spacing" textLength="171" x="2215.5" y="2279.5078">RepositoryFactory</text><rect fill="#E3E3E3" height="61.1094" rx="2.5" ry="2.5" style="stroke:#181818;stroke-width:0.5;" width="243" x="2403.5" y="71"/><text fill="#000000" font-family="FG Virgil" font-size="20" font-style="italic" lengthAdjust="spacing" textLength="117" x="2466.5" y="97.3359">«repository»</text><text fill="#000000" font-family="FG Virgil" font-size="20" lengthAdjust="spacing" textLength="229" x="2410.5" y="120.8906">ShowRequestRepository</text><rect fill="#E3E3E3" height="61.1094" rx="2.5" ry="2.5" style="stroke:#181818;stroke-width:0.5;" width="243" x="2403.5" y="2229.6172"/><text fill="#000000" font-family="FG Virgil" font-size="20" font-style="italic" lengthAdjust="spacing" textLength="117" x="2466.5" y="2255.9531">«repository»</text><text fill="#000000" font-family="FG Virgil" font-size="20" lengthAdjust="spacing" textLength="229" x="2410.5" y="2279.5078">ShowRequestRepository</text><rect fill="#E3E3E3" height="61.1094" rx="2.5" ry="2.5" style="stroke:#181818;stroke-width:0.5;" width="290" x="2656.5" y="71"/><text fill="#000000" font-family="FG Virgil" font-size="20" font-style="italic" lengthAdjust="spacing" textLength="117" x="2743" y="97.3359">«repository»</text><text fill="#000000" font-family="FG Virgil" font-size="20" lengthAdjust="spacing" textLength="276" x="2663.5" y="120.8906">ProposalTemplateRepository</text><rect fill="#E3E3E3" height="61.1094" rx="2.5" ry="2.5" style="stroke:#181818;stroke-width:0.5;" width="290" x="2656.5" y="2229.6172"/><text fill="#000000" font-family="FG Virgil" font-size="20" font-style="italic" lengthAdjust="spacing" textLength="117" x="2743" y="2255.9531">«repository»</text><text fill="#000000" font-family="FG Virgil" font-size="20" lengthAdjust="spacing" textLength="276" x="2663.5" y="2279.5078">ProposalTemplateRepository</text><rect fill="#E3E3E3" height="61.1094" rx="2.5" ry="2.5" style="stroke:#181818;stroke-width:0.5;" width="249" x="2956.5" y="71"/><text fill="#000000" font-family="FG Virgil" font-size="20" font-style="italic" lengthAdjust="spacing" textLength="117" x="3022.5" y="97.3359">«repository»</text><text fill="#000000" font-family="FG Virgil" font-size="20" lengthAdjust="spacing" textLength="235" x="2963.5" y="120.8906">ShowProposalRepository</text><rect fill="#E3E3E3" height="61.1094" rx="2.5" ry="2.5" style="stroke:#181818;stroke-width:0.5;" width="249" x="2956.5" y="2229.6172"/><text fill="#000000" font-family="FG Virgil" font-size="20" font-style="italic" lengthAdjust="spacing" textLength="117" x="3022.5" y="2255.9531">«repository»</text><text fill="#000000" font-family="FG Virgil" font-size="20" lengthAdjust="spacing" textLength="235" x="2963.5" y="2279.5078">ShowProposalRepository</text><rect fill="#E3E3E3" height="61.1094" rx="2.5" ry="2.5" style="stroke:#181818;stroke-width:0.5;" width="141" x="3215.5" y="71"/><text fill="#000000" font-family="FG Virgil" font-size="20" font-style="italic" lengthAdjust="spacing" textLength="93" x="3239.5" y="97.3359">«domain»</text><text fill="#000000" font-family="FG Virgil" font-size="20" lengthAdjust="spacing" textLength="127" x="3222.5" y="120.8906">ShowRequest</text><rect fill="#E3E3E3" height="61.1094" rx="2.5" ry="2.5" style="stroke:#181818;stroke-width:0.5;" width="141" x="3215.5" y="2229.6172"/><text fill="#000000" font-family="FG Virgil" font-size="20" font-style="italic" lengthAdjust="spacing" textLength="93" x="3239.5" y="2255.9531">«domain»</text><text fill="#000000" font-family="FG Virgil" font-size="20" lengthAdjust="spacing" textLength="127" x="3222.5" y="2279.5078">ShowRequest</text><rect fill="#E3E3E3" height="61.1094" rx="2.5" ry="2.5" style="stroke:#181818;stroke-width:0.5;" width="188" x="3366.5" y="71"/><text fill="#000000" font-family="FG Virgil" font-size="20" font-style="italic" lengthAdjust="spacing" textLength="93" x="3414" y="97.3359">«domain»</text><text fill="#000000" font-family="FG Virgil" font-size="20" lengthAdjust="spacing" textLength="174" x="3373.5" y="120.8906">ProposalTemplate</text><rect fill="#E3E3E3" height="61.1094" rx="2.5" ry="2.5" style="stroke:#181818;stroke-width:0.5;" width="188" x="3366.5" y="2229.6172"/><text fill="#000000" font-family="FG Virgil" font-size="20" font-style="italic" lengthAdjust="spacing" textLength="93" x="3414" y="2255.9531">«domain»</text><text fill="#000000" font-family="FG Virgil" font-size="20" lengthAdjust="spacing" textLength="174" x="3373.5" y="2279.5078">ProposalTemplate</text><rect fill="#E3E3E3" height="61.1094" rx="2.5" ry="2.5" style="stroke:#181818;stroke-width:0.5;" width="147" x="3564.5" y="71"/><text fill="#000000" font-family="FG Virgil" font-size="20" font-style="italic" lengthAdjust="spacing" textLength="93" x="3591.5" y="97.3359">«domain»</text><text fill="#000000" font-family="FG Virgil" font-size="20" lengthAdjust="spacing" textLength="133" x="3571.5" y="120.8906">ShowProposal</text><rect fill="#E3E3E3" height="61.1094" rx="2.5" ry="2.5" style="stroke:#181818;stroke-width:0.5;" width="147" x="3564.5" y="2229.6172"/><text fill="#000000" font-family="FG Virgil" font-size="20" font-style="italic" lengthAdjust="spacing" textLength="93" x="3591.5" y="2255.9531">«domain»</text><text fill="#000000" font-family="FG Virgil" font-size="20" lengthAdjust="spacing" textLength="133" x="3571.5" y="2279.5078">ShowProposal</text><rect fill="#E3E3E3" height="61.1094" rx="2.5" ry="2.5" style="stroke:#181818;stroke-width:0.5;" width="131" x="3721.5" y="71"/><text fill="#000000" font-family="FG Virgil" font-size="20" font-style="italic" lengthAdjust="spacing" textLength="93" x="3740.5" y="97.3359">«domain»</text><text fill="#000000" font-family="FG Virgil" font-size="20" lengthAdjust="spacing" textLength="117" x="3728.5" y="120.8906">TotalDrones</text><rect fill="#E3E3E3" height="61.1094" rx="2.5" ry="2.5" style="stroke:#181818;stroke-width:0.5;" width="131" x="3721.5" y="2229.6172"/><text fill="#000000" font-family="FG Virgil" font-size="20" font-style="italic" lengthAdjust="spacing" textLength="93" x="3740.5" y="2255.9531">«domain»</text><text fill="#000000" font-family="FG Virgil" font-size="20" lengthAdjust="spacing" textLength="117" x="3728.5" y="2279.5078">TotalDrones</text><rect fill="#E3E3E3" height="61.1094" rx="2.5" ry="2.5" style="stroke:#181818;stroke-width:0.5;" width="139" x="3862.5" y="71"/><text fill="#000000" font-family="FG Virgil" font-size="20" font-style="italic" lengthAdjust="spacing" textLength="93" x="3885.5" y="97.3359">«domain»</text><text fill="#000000" font-family="FG Virgil" font-size="20" lengthAdjust="spacing" textLength="125" x="3869.5" y="120.8906">CreationDate</text><rect fill="#E3E3E3" height="61.1094" rx="2.5" ry="2.5" style="stroke:#181818;stroke-width:0.5;" width="139" x="3862.5" y="2229.6172"/><text fill="#000000" font-family="FG Virgil" font-size="20" font-style="italic" lengthAdjust="spacing" textLength="93" x="3885.5" y="2255.9531">«domain»</text><text fill="#000000" font-family="FG Virgil" font-size="20" lengthAdjust="spacing" textLength="125" x="3869.5" y="2279.5078">CreationDate</text><rect fill="#E3E3E3" height="61.1094" rx="2.5" ry="2.5" style="stroke:#181818;stroke-width:0.5;" width="125" x="4011.5" y="71"/><text fill="#000000" font-family="FG Virgil" font-size="20" font-style="italic" lengthAdjust="spacing" textLength="93" x="4027.5" y="97.3359">«domain»</text><text fill="#000000" font-family="FG Virgil" font-size="20" lengthAdjust="spacing" textLength="111" x="4018.5" y="120.8906">SystemUser</text><rect fill="#E3E3E3" height="61.1094" rx="2.5" ry="2.5" style="stroke:#181818;stroke-width:0.5;" width="125" x="4011.5" y="2229.6172"/><text fill="#000000" font-family="FG Virgil" font-size="20" font-style="italic" lengthAdjust="spacing" textLength="93" x="4027.5" y="2255.9531">«domain»</text><text fill="#000000" font-family="FG Virgil" font-size="20" lengthAdjust="spacing" textLength="111" x="4018.5" y="2279.5078">SystemUser</text><rect fill="#FFFFFF" height="2069.5078" style="stroke:#181818;stroke-width:1.0;" width="10" x="88" y="143.1094"/><rect fill="#FFFFFF" height="2039.9531" style="stroke:#181818;stroke-width:1.0;" width="10" x="908" y="172.6641"/><rect fill="#FFFFFF" height="187.7734" style="stroke:#181818;stroke-width:1.0;" width="10" x="1179" y="210.2188"/><rect fill="#FFFFFF" height="112.6641" style="stroke:#181818;stroke-width:1.0;" width="10" x="1179" y="1036.4219"/><rect fill="#FFFFFF" height="187.7734" style="stroke:#181818;stroke-width:1.0;" width="10" x="1499.5" y="435.5469"/><rect fill="#FFFFFF" height="112.6641" style="stroke:#181818;stroke-width:1.0;" width="10" x="1499.5" y="1261.75"/><rect fill="#FFFFFF" height="337.9922" style="stroke:#181818;stroke-width:1.0;" width="10" x="1832" y="660.875"/><rect fill="#FFFFFF" height="612.875" style="stroke:#181818;stroke-width:1.0;" width="10" x="1832" y="1562.1875"/><rect fill="#FFFFFF" height="37.5547" style="stroke:#181818;stroke-width:1.0;" width="10" x="2095.5" y="247.7734"/><rect fill="#FFFFFF" height="37.5547" style="stroke:#181818;stroke-width:1.0;" width="10" x="2095.5" y="473.1016"/><rect fill="#FFFFFF" height="37.5547" style="stroke:#181818;stroke-width:1.0;" width="10" x="2095.5" y="698.4297"/><rect fill="#FFFFFF" height="75.1094" style="stroke:#181818;stroke-width:1.0;" width="10" x="2296" y="322.8828"/><rect fill="#FFFFFF" height="75.1094" style="stroke:#181818;stroke-width:1.0;" width="10" x="2296" y="548.2109"/><rect fill="#FFFFFF" height="75.1094" style="stroke:#181818;stroke-width:1.0;" width="10" x="2296" y="773.5391"/><rect fill="#FFFFFF" height="37.5547" style="stroke:#181818;stroke-width:1.0;" width="10" x="2296" y="886.2031"/><rect fill="#FFFFFF" height="37.5547" style="stroke:#181818;stroke-width:1.0;" width="10" x="2296" y="961.3125"/><rect fill="#FFFFFF" height="37.5547" style="stroke:#181818;stroke-width:1.0;" width="10" x="2520" y="1073.9766"/><rect fill="#FFFFFF" height="37.5547" style="stroke:#181818;stroke-width:1.0;" width="10" x="2520" y="1599.7422"/><rect fill="#FFFFFF" height="37.5547" style="stroke:#181818;stroke-width:1.0;" width="10" x="2796.5" y="1299.3047"/><rect fill="#FFFFFF" height="37.5547" style="stroke:#181818;stroke-width:1.0;" width="10" x="2796.5" y="1674.8516"/><rect fill="#FFFFFF" height="37.5547" style="stroke:#181818;stroke-width:1.0;" width="10" x="3076" y="2099.9531"/><rect fill="#FFFFFF" height="37.5547" style="stroke:#181818;stroke-width:1.0;" width="10" x="3633" y="2024.8438"/><rect fill="#FFFFFF" height="37.5547" style="stroke:#181818;stroke-width:1.0;" width="10" x="3782" y="1851.0703"/><rect fill="#FFFFFF" height="37.5547" style="stroke:#181818;stroke-width:1.0;" width="10" x="3927" y="1926.1797"/><polygon fill="#181818" points="896,168.6641,906,172.6641,896,176.6641,900,172.6641" style="stroke:#181818;stroke-width:1.0;"/><line style="stroke:#181818;stroke-width:1.0;" x1="98" x2="902" y1="172.6641" y2="172.6641"/><text fill="#000000" font-family="FG Virgil" font-size="20" lengthAdjust="spacing" textLength="342" x="105" y="166.4453">Asks to create a new show proposal</text><polygon fill="#1D1D1D" points="1167,206.2188,1177,210.2188,1167,214.2188,1171,210.2188" style="stroke:#1D1D1D;stroke-width:1.0;"/><line style="stroke:#1D1D1D;stroke-width:1.0;" x1="918" x2="1173" y1="210.2188" y2="210.2188"/><text fill="#000000" font-family="FG Virgil" font-size="20" lengthAdjust="spacing" textLength="78" x="925" y="204">«create»</text><polygon fill="#1D1D1D" points="2083.5,243.7734,2093.5,247.7734,2083.5,251.7734,2087.5,247.7734" style="stroke:#1D1D1D;stroke-width:1.0;"/><line style="stroke:#1D1D1D;stroke-width:1.0;" x1="1189" x2="2089.5" y1="247.7734" y2="247.7734"/><text fill="#000000" font-family="FG Virgil" font-size="20" lengthAdjust="spacing" textLength="128" x="1196" y="241.5547">repositories()</text><polygon fill="#1D1D1D" points="1200,281.3281,1190,285.3281,1200,289.3281,1196,285.3281" style="stroke:#1D1D1D;stroke-width:1.0;"/><line style="stroke:#1D1D1D;stroke-width:1.0;stroke-dasharray:2.0,2.0;" x1="1194" x2="2099.5" y1="285.3281" y2="285.3281"/><text fill="#000000" font-family="FG Virgil" font-size="20" lengthAdjust="spacing" textLength="166" x="1206" y="279.1094">repositoryFactory</text><polygon fill="#1D1D1D" points="2284,318.8828,2294,322.8828,2284,326.8828,2288,322.8828" style="stroke:#1D1D1D;stroke-width:1.0;"/><line style="stroke:#1D1D1D;stroke-width:1.0;" x1="1189" x2="2290" y1="322.8828" y2="322.8828"/><text fill="#000000" font-family="FG Virgil" font-size="20" lengthAdjust="spacing" textLength="236" x="1196" y="316.6641">showRequestCatalogue()</text><polygon fill="#1D1D1D" points="2513,356.4375,2523,360.4375,2513,364.4375,2517,360.4375" style="stroke:#1D1D1D;stroke-width:1.0;"/><line style="stroke:#1D1D1D;stroke-width:1.0;" x1="2306" x2="2519" y1="360.4375" y2="360.4375"/><text fill="#000000" font-family="FG Virgil" font-size="20" lengthAdjust="spacing" textLength="78" x="2313" y="354.2188">«create»</text><polygon fill="#1D1D1D" points="1195,393.9922,1185,397.9922,1195,401.9922,1191,397.9922" style="stroke:#1D1D1D;stroke-width:1.0;"/><line style="stroke:#1D1D1D;stroke-width:1.0;stroke-dasharray:2.0,2.0;" x1="1189" x2="2300" y1="397.9922" y2="397.9922"/><text fill="#000000" font-family="FG Virgil" font-size="20" lengthAdjust="spacing" textLength="228" x="1201" y="391.7734">showRequestRepository</text><polygon fill="#1D1D1D" points="1487.5,431.5469,1497.5,435.5469,1487.5,439.5469,1491.5,435.5469" style="stroke:#1D1D1D;stroke-width:1.0;"/><line style="stroke:#1D1D1D;stroke-width:1.0;" x1="918" x2="1493.5" y1="435.5469" y2="435.5469"/><text fill="#000000" font-family="FG Virgil" font-size="20" lengthAdjust="spacing" textLength="78" x="925" y="429.3281">«create»</text><polygon fill="#1D1D1D" points="2083.5,469.1016,2093.5,473.1016,2083.5,477.1016,2087.5,473.1016" style="stroke:#1D1D1D;stroke-width:1.0;"/><line style="stroke:#1D1D1D;stroke-width:1.0;" x1="1509.5" x2="2089.5" y1="473.1016" y2="473.1016"/><text fill="#000000" font-family="FG Virgil" font-size="20" lengthAdjust="spacing" textLength="128" x="1516.5" y="466.8828">repositories()</text><polygon fill="#1D1D1D" points="1520.5,506.6563,1510.5,510.6563,1520.5,514.6563,1516.5,510.6563" style="stroke:#1D1D1D;stroke-width:1.0;"/><line style="stroke:#1D1D1D;stroke-width:1.0;stroke-dasharray:2.0,2.0;" x1="1514.5" x2="2099.5" y1="510.6563" y2="510.6563"/><text fill="#000000" font-family="FG Virgil" font-size="20" lengthAdjust="spacing" textLength="166" x="1526.5" y="504.4375">repositoryFactory</text><polygon fill="#1D1D1D" points="2284,544.2109,2294,548.2109,2284,552.2109,2288,548.2109" style="stroke:#1D1D1D;stroke-width:1.0;"/><line style="stroke:#1D1D1D;stroke-width:1.0;" x1="1509.5" x2="2290" y1="548.2109" y2="548.2109"/><text fill="#000000" font-family="FG Virgil" font-size="20" lengthAdjust="spacing" textLength="292" x="1516.5" y="541.9922">proposalTemplateRepository()</text><polygon fill="#1D1D1D" points="2789.5,581.7656,2799.5,585.7656,2789.5,589.7656,2793.5,585.7656" style="stroke:#1D1D1D;stroke-width:1.0;"/><line style="stroke:#1D1D1D;stroke-width:1.0;" x1="2306" x2="2795.5" y1="585.7656" y2="585.7656"/><text fill="#000000" font-family="FG Virgil" font-size="20" lengthAdjust="spacing" textLength="78" x="2313" y="579.5469">«create»</text><polygon fill="#1D1D1D" points="1515.5,619.3203,1505.5,623.3203,1515.5,627.3203,1511.5,623.3203" style="stroke:#1D1D1D;stroke-width:1.0;"/><line style="stroke:#1D1D1D;stroke-width:1.0;stroke-dasharray:2.0,2.0;" x1="1509.5" x2="2300" y1="623.3203" y2="623.3203"/><text fill="#000000" font-family="FG Virgil" font-size="20" lengthAdjust="spacing" textLength="278" x="1521.5" y="617.1016">proposalTemplateRepository</text><polygon fill="#1D1D1D" points="1820,656.875,1830,660.875,1820,664.875,1824,660.875" style="stroke:#1D1D1D;stroke-width:1.0;"/><line style="stroke:#1D1D1D;stroke-width:1.0;" x1="918" x2="1826" y1="660.875" y2="660.875"/><text fill="#000000" font-family="FG Virgil" font-size="20" lengthAdjust="spacing" textLength="78" x="925" y="654.6563">«create»</text><polygon fill="#1D1D1D" points="2083.5,694.4297,2093.5,698.4297,2083.5,702.4297,2087.5,698.4297" style="stroke:#1D1D1D;stroke-width:1.0;"/><line style="stroke:#1D1D1D;stroke-width:1.0;" x1="1842" x2="2089.5" y1="698.4297" y2="698.4297"/><text fill="#000000" font-family="FG Virgil" font-size="20" lengthAdjust="spacing" textLength="128" x="1849" y="692.2109">repositories()</text><polygon fill="#1D1D1D" points="1853,731.9844,1843,735.9844,1853,739.9844,1849,735.9844" style="stroke:#1D1D1D;stroke-width:1.0;"/><line style="stroke:#1D1D1D;stroke-width:1.0;stroke-dasharray:2.0,2.0;" x1="1847" x2="2099.5" y1="735.9844" y2="735.9844"/><text fill="#000000" font-family="FG Virgil" font-size="20" lengthAdjust="spacing" textLength="166" x="1859" y="729.7656">repositoryFactory</text><polygon fill="#1D1D1D" points="2284,769.5391,2294,773.5391,2284,777.5391,2288,773.5391" style="stroke:#1D1D1D;stroke-width:1.0;"/><line style="stroke:#1D1D1D;stroke-width:1.0;" x1="1842" x2="2290" y1="773.5391" y2="773.5391"/><text fill="#000000" font-family="FG Virgil" font-size="20" lengthAdjust="spacing" textLength="248" x="1849" y="767.3203">showProposalRepository()</text><polygon fill="#1D1D1D" points="3069,807.0938,3079,811.0938,3069,815.0938,3073,811.0938" style="stroke:#1D1D1D;stroke-width:1.0;"/><line style="stroke:#1D1D1D;stroke-width:1.0;" x1="2306" x2="3075" y1="811.0938" y2="811.0938"/><text fill="#000000" font-family="FG Virgil" font-size="20" lengthAdjust="spacing" textLength="78" x="2313" y="804.875">«create»</text><polygon fill="#1D1D1D" points="1853,844.6484,1843,848.6484,1853,852.6484,1849,848.6484" style="stroke:#1D1D1D;stroke-width:1.0;"/><line style="stroke:#1D1D1D;stroke-width:1.0;stroke-dasharray:2.0,2.0;" x1="1847" x2="2300" y1="848.6484" y2="848.6484"/><text fill="#000000" font-family="FG Virgil" font-size="20" lengthAdjust="spacing" textLength="234" x="1859" y="842.4297">showProposalRepository</text><polygon fill="#1D1D1D" points="2284,882.2031,2294,886.2031,2284,890.2031,2288,886.2031" style="stroke:#1D1D1D;stroke-width:1.0;"/><line style="stroke:#1D1D1D;stroke-width:1.0;" x1="1842" x2="2290" y1="886.2031" y2="886.2031"/><text fill="#000000" font-family="FG Virgil" font-size="20" lengthAdjust="spacing" textLength="236" x="1849" y="879.9844">showRequestCatalogue()</text><polygon fill="#1D1D1D" points="1853,919.7578,1843,923.7578,1853,927.7578,1849,923.7578" style="stroke:#1D1D1D;stroke-width:1.0;"/><line style="stroke:#1D1D1D;stroke-width:1.0;stroke-dasharray:2.0,2.0;" x1="1847" x2="2300" y1="923.7578" y2="923.7578"/><text fill="#000000" font-family="FG Virgil" font-size="20" lengthAdjust="spacing" textLength="228" x="1859" y="917.5391">showRequestRepository</text><polygon fill="#1D1D1D" points="2284,957.3125,2294,961.3125,2284,965.3125,2288,961.3125" style="stroke:#1D1D1D;stroke-width:1.0;"/><line style="stroke:#1D1D1D;stroke-width:1.0;" x1="1842" x2="2290" y1="961.3125" y2="961.3125"/><text fill="#000000" font-family="FG Virgil" font-size="20" lengthAdjust="spacing" textLength="292" x="1849" y="955.0938">proposalTemplateRepository()</text><polygon fill="#1D1D1D" points="1848,994.8672,1838,998.8672,1848,1002.8672,1844,998.8672" style="stroke:#1D1D1D;stroke-width:1.0;"/><line style="stroke:#1D1D1D;stroke-width:1.0;stroke-dasharray:2.0,2.0;" x1="1842" x2="2300" y1="998.8672" y2="998.8672"/><text fill="#000000" font-family="FG Virgil" font-size="20" lengthAdjust="spacing" textLength="278" x="1854" y="992.6484">proposalTemplateRepository</text><polygon fill="#181818" points="1167,1032.4219,1177,1036.4219,1167,1040.4219,1171,1036.4219" style="stroke:#181818;stroke-width:1.0;"/><line style="stroke:#181818;stroke-width:1.0;" x1="918" x2="1173" y1="1036.4219" y2="1036.4219"/><text fill="#000000" font-family="FG Virgil" font-size="20" lengthAdjust="spacing" textLength="180" x="925" y="1030.2031">listShowRequests()</text><polygon fill="#181818" points="2508,1069.9766,2518,1073.9766,2508,1077.9766,2512,1073.9766" style="stroke:#181818;stroke-width:1.0;"/><line style="stroke:#181818;stroke-width:1.0;" x1="1189" x2="2514" y1="1073.9766" y2="1073.9766"/><text fill="#000000" font-family="FG Virgil" font-size="20" lengthAdjust="spacing" textLength="159" x="1196" y="1067.7578">findProposable()</text><polygon fill="#181818" points="1200,1107.5313,1190,1111.5313,1200,1115.5313,1196,1111.5313" style="stroke:#181818;stroke-width:1.0;"/><line style="stroke:#181818;stroke-width:1.0;stroke-dasharray:2.0,2.0;" x1="1194" x2="2524" y1="1111.5313" y2="1111.5313"/><text fill="#000000" font-family="FG Virgil" font-size="20" lengthAdjust="spacing" textLength="412" x="1206" y="1105.3125">allShowRequests (Iterable&lt;ShowRequest&gt;)</text><polygon fill="#181818" points="929,1145.0859,919,1149.0859,929,1153.0859,925,1149.0859" style="stroke:#181818;stroke-width:1.0;"/><line style="stroke:#181818;stroke-width:1.0;stroke-dasharray:2.0,2.0;" x1="923" x2="1183" y1="1149.0859" y2="1149.0859"/><text fill="#000000" font-family="FG Virgil" font-size="20" lengthAdjust="spacing" textLength="160" x="935" y="1142.8672">allShowRequests</text><polygon fill="#181818" points="109,1182.6406,99,1186.6406,109,1190.6406,105,1186.6406" style="stroke:#181818;stroke-width:1.0;"/><line style="stroke:#181818;stroke-width:1.0;stroke-dasharray:2.0,2.0;" x1="103" x2="907" y1="1186.6406" y2="1186.6406"/><text fill="#000000" font-family="FG Virgil" font-size="20" lengthAdjust="spacing" textLength="393" x="115" y="1180.4219">Shows list of Show Requests for selection</text><polygon fill="#181818" points="896,1220.1953,906,1224.1953,896,1228.1953,900,1224.1953" style="stroke:#181818;stroke-width:1.0;"/><line style="stroke:#181818;stroke-width:1.0;" x1="98" x2="902" y1="1224.1953" y2="1224.1953"/><text fill="#000000" font-family="FG Virgil" font-size="20" lengthAdjust="spacing" textLength="492" x="105" y="1217.9766">Selects a Show Request (selectedShowRequestDTO)</text><polygon fill="#181818" points="1487.5,1257.75,1497.5,1261.75,1487.5,1265.75,1491.5,1261.75" style="stroke:#181818;stroke-width:1.0;"/><line style="stroke:#181818;stroke-width:1.0;" x1="918" x2="1493.5" y1="1261.75" y2="1261.75"/><text fill="#000000" font-family="FG Virgil" font-size="20" lengthAdjust="spacing" textLength="227" x="925" y="1255.5313">listProposalTemplates()</text><polygon fill="#181818" points="2784.5,1295.3047,2794.5,1299.3047,2784.5,1303.3047,2788.5,1299.3047" style="stroke:#181818;stroke-width:1.0;"/><line style="stroke:#181818;stroke-width:1.0;" x1="1509.5" x2="2790.5" y1="1299.3047" y2="1299.3047"/><text fill="#000000" font-family="FG Virgil" font-size="20" lengthAdjust="spacing" textLength="136" x="1516.5" y="1293.0859">findAllActive()</text><polygon fill="#181818" points="1520.5,1332.8594,1510.5,1336.8594,1520.5,1340.8594,1516.5,1336.8594" style="stroke:#181818;stroke-width:1.0;"/><line style="stroke:#181818;stroke-width:1.0;stroke-dasharray:2.0,2.0;" x1="1514.5" x2="2800.5" y1="1336.8594" y2="1336.8594"/><text fill="#000000" font-family="FG Virgil" font-size="20" lengthAdjust="spacing" textLength="423" x="1526.5" y="1330.6406">allTemplates (Iterable&lt;ProposalTemplate&gt;)</text><polygon fill="#181818" points="929,1370.4141,919,1374.4141,929,1378.4141,925,1374.4141" style="stroke:#181818;stroke-width:1.0;"/><line style="stroke:#181818;stroke-width:1.0;stroke-dasharray:2.0,2.0;" x1="923" x2="1503.5" y1="1374.4141" y2="1374.4141"/><text fill="#000000" font-family="FG Virgil" font-size="20" lengthAdjust="spacing" textLength="124" x="935" y="1368.1953">allTemplates</text><polygon fill="#181818" points="109,1407.9688,99,1411.9688,109,1415.9688,105,1411.9688" style="stroke:#181818;stroke-width:1.0;"/><line style="stroke:#181818;stroke-width:1.0;stroke-dasharray:2.0,2.0;" x1="103" x2="907" y1="1411.9688" y2="1411.9688"/><text fill="#000000" font-family="FG Virgil" font-size="20" lengthAdjust="spacing" textLength="440" x="115" y="1405.75">Shows list of Proposal Templates for selection</text><polygon fill="#181818" points="896,1445.5234,906,1449.5234,896,1453.5234,900,1449.5234" style="stroke:#181818;stroke-width:1.0;"/><line style="stroke:#181818;stroke-width:1.0;" x1="98" x2="902" y1="1449.5234" y2="1449.5234"/><text fill="#000000" font-family="FG Virgil" font-size="20" lengthAdjust="spacing" textLength="503" x="105" y="1443.3047">Selects a Proposal Template (selectedTemplateDTO)</text><polygon fill="#181818" points="109,1483.0781,99,1487.0781,109,1491.0781,105,1487.0781" style="stroke:#181818;stroke-width:1.0;"/><line style="stroke:#181818;stroke-width:1.0;stroke-dasharray:2.0,2.0;" x1="103" x2="907" y1="1487.0781" y2="1487.0781"/><text fill="#000000" font-family="FG Virgil" font-size="20" lengthAdjust="spacing" textLength="307" x="115" y="1480.8594">Ask for Total Number of Drones</text><polygon fill="#181818" points="896,1520.6328,906,1524.6328,896,1528.6328,900,1524.6328" style="stroke:#181818;stroke-width:1.0;"/><line style="stroke:#181818;stroke-width:1.0;" x1="98" x2="902" y1="1524.6328" y2="1524.6328"/><text fill="#000000" font-family="FG Virgil" font-size="20" lengthAdjust="spacing" textLength="464" x="105" y="1518.4141">Provides total number of drones (totalDronesInt)</text><polygon fill="#181818" points="1820,1558.1875,1830,1562.1875,1820,1566.1875,1824,1562.1875" style="stroke:#181818;stroke-width:1.0;"/><line style="stroke:#181818;stroke-width:1.0;" x1="918" x2="1826" y1="1562.1875" y2="1562.1875"/><text fill="#000000" font-family="FG Virgil" font-size="20" lengthAdjust="spacing" textLength="829" x="925" y="1555.9688">createShowProposal(selectedShowRequestDTO, totalDronesInt, selectedTemplateDTO)</text><polygon fill="#181818" points="2508,1595.7422,2518,1599.7422,2508,1603.7422,2512,1599.7422" style="stroke:#181818;stroke-width:1.0;"/><line style="stroke:#181818;stroke-width:1.0;" x1="1842" x2="2514" y1="1599.7422" y2="1599.7422"/><text fill="#000000" font-family="FG Virgil" font-size="20" lengthAdjust="spacing" textLength="382" x="1849" y="1593.5234">findById(selectedShowRequestDTO.id())</text><polygon fill="#181818" points="1853,1633.2969,1843,1637.2969,1853,1641.2969,1849,1637.2969" style="stroke:#181818;stroke-width:1.0;"/><line style="stroke:#181818;stroke-width:1.0;stroke-dasharray:2.0,2.0;" x1="1847" x2="2524" y1="1637.2969" y2="1637.2969"/><text fill="#000000" font-family="FG Virgil" font-size="20" lengthAdjust="spacing" textLength="179" x="1859" y="1631.0781">showRequestEntity</text><polygon fill="#181818" points="2784.5,1670.8516,2794.5,1674.8516,2784.5,1678.8516,2788.5,1674.8516" style="stroke:#181818;stroke-width:1.0;"/><line style="stroke:#181818;stroke-width:1.0;" x1="1842" x2="2790.5" y1="1674.8516" y2="1674.8516"/><text fill="#000000" font-family="FG Virgil" font-size="20" lengthAdjust="spacing" textLength="346" x="1849" y="1668.6328">findById(selectedTemplateDTO.id())</text><polygon fill="#181818" points="1853,1708.4063,1843,1712.4063,1853,1716.4063,1849,1712.4063" style="stroke:#181818;stroke-width:1.0;"/><line style="stroke:#181818;stroke-width:1.0;stroke-dasharray:2.0,2.0;" x1="1847" x2="2800.5" y1="1712.4063" y2="1712.4063"/><text fill="#000000" font-family="FG Virgil" font-size="20" lengthAdjust="spacing" textLength="138" x="1859" y="1706.1875">templateEntity</text><line style="stroke:#181818;stroke-width:1.0;" x1="1842" x2="1884" y1="1749.9609" y2="1749.9609"/><line style="stroke:#181818;stroke-width:1.0;" x1="1884" x2="1884" y1="1749.9609" y2="1762.9609"/><line style="stroke:#181818;stroke-width:1.0;" x1="1843" x2="1884" y1="1762.9609" y2="1762.9609"/><polygon fill="#181818" points="1853,1758.9609,1843,1762.9609,1853,1766.9609,1849,1762.9609" style="stroke:#181818;stroke-width:1.0;"/><text fill="#000000" font-family="FG Virgil" font-size="20" lengthAdjust="spacing" textLength="220" x="1849" y="1743.7422">getAuthenticatedUser()</text><line style="stroke:#181818;stroke-width:1.0;stroke-dasharray:2.0,2.0;" x1="1842" x2="1884" y1="1800.5156" y2="1800.5156"/><line style="stroke:#181818;stroke-width:1.0;stroke-dasharray:2.0,2.0;" x1="1884" x2="1884" y1="1800.5156" y2="1813.5156"/><line style="stroke:#181818;stroke-width:1.0;stroke-dasharray:2.0,2.0;" x1="1843" x2="1884" y1="1813.5156" y2="1813.5156"/><polygon fill="#181818" points="1853,1809.5156,1843,1813.5156,1853,1817.5156,1849,1813.5156" style="stroke:#181818;stroke-width:1.0;"/><text fill="#000000" font-family="FG Virgil" font-size="20" lengthAdjust="spacing" textLength="236" x="1849" y="1794.2969">authorUser (SystemUser)</text><polygon fill="#181818" points="3770,1847.0703,3780,1851.0703,3770,1855.0703,3774,1851.0703" style="stroke:#181818;stroke-width:1.0;"/><line style="stroke:#181818;stroke-width:1.0;" x1="1842" x2="3776" y1="1851.0703" y2="1851.0703"/><text fill="#000000" font-family="FG Virgil" font-size="20" lengthAdjust="spacing" textLength="223" x="1849" y="1844.8516">valueOf(totalDronesInt)</text><polygon fill="#181818" points="1853,1884.625,1843,1888.625,1853,1892.625,1849,1888.625" style="stroke:#181818;stroke-width:1.0;"/><line style="stroke:#181818;stroke-width:1.0;stroke-dasharray:2.0,2.0;" x1="1847" x2="3786" y1="1888.625" y2="1888.625"/><text fill="#000000" font-family="FG Virgil" font-size="20" lengthAdjust="spacing" textLength="227" x="1859" y="1882.4063">totalDronesValueObject</text><polygon fill="#181818" points="3915,1922.1797,3925,1926.1797,3915,1930.1797,3919,1926.1797" style="stroke:#181818;stroke-width:1.0;"/><line style="stroke:#181818;stroke-width:1.0;" x1="1842" x2="3921" y1="1926.1797" y2="1926.1797"/><text fill="#000000" font-family="FG Virgil" font-size="20" lengthAdjust="spacing" textLength="302" x="1849" y="1919.9609">valueOf(Calendar.getInstance())</text><polygon fill="#181818" points="1853,1959.7344,1843,1963.7344,1853,1967.7344,1849,1963.7344" style="stroke:#181818;stroke-width:1.0;"/><line style="stroke:#181818;stroke-width:1.0;stroke-dasharray:2.0,2.0;" x1="1847" x2="3931" y1="1963.7344" y2="1963.7344"/><text fill="#000000" font-family="FG Virgil" font-size="20" lengthAdjust="spacing" textLength="237" x="1859" y="1957.5156">creationDateValueObject</text><polygon fill="#181818" points="3621,2020.8438,3631,2024.8438,3621,2028.8438,3625,2024.8438" style="stroke:#181818;stroke-width:1.0;"/><line style="stroke:#181818;stroke-width:1.0;" x1="1842" x2="3627" y1="2024.8438" y2="2024.8438"/><text fill="#000000" font-family="FG Virgil" font-size="20" lengthAdjust="spacing" textLength="515" x="1849" y="1995.0703">«create» (showRequestEntity, totalDronesValueObject,</text><text fill="#000000" font-family="FG Virgil" font-size="20" lengthAdjust="spacing" textLength="511" x="1855" y="2018.625">templateEntity, authorUser, creationDateValueObject)</text><polygon fill="#181818" points="1853,2058.3984,1843,2062.3984,1853,2066.3984,1849,2062.3984" style="stroke:#181818;stroke-width:1.0;"/><line style="stroke:#181818;stroke-width:1.0;stroke-dasharray:2.0,2.0;" x1="1847" x2="3637" y1="2062.3984" y2="2062.3984"/><text fill="#000000" font-family="FG Virgil" font-size="20" lengthAdjust="spacing" textLength="171" x="1859" y="2056.1797">newShowProposal</text><polygon fill="#181818" points="3064,2095.9531,3074,2099.9531,3064,2103.9531,3068,2099.9531" style="stroke:#181818;stroke-width:1.0;"/><line style="stroke:#181818;stroke-width:1.0;" x1="1842" x2="3070" y1="2099.9531" y2="2099.9531"/><text fill="#000000" font-family="FG Virgil" font-size="20" lengthAdjust="spacing" textLength="227" x="1849" y="2093.7344">save(newShowProposal)</text><polygon fill="#181818" points="1853,2133.5078,1843,2137.5078,1853,2141.5078,1849,2137.5078" style="stroke:#181818;stroke-width:1.0;"/><line style="stroke:#181818;stroke-width:1.0;stroke-dasharray:2.0,2.0;" x1="1847" x2="3080" y1="2137.5078" y2="2137.5078"/><text fill="#000000" font-family="FG Virgil" font-size="20" lengthAdjust="spacing" textLength="188" x="1859" y="2131.2891">savedShowProposal</text><polygon fill="#181818" points="929,2171.0625,919,2175.0625,929,2179.0625,925,2175.0625" style="stroke:#181818;stroke-width:1.0;"/><line style="stroke:#181818;stroke-width:1.0;stroke-dasharray:2.0,2.0;" x1="923" x2="1836" y1="2175.0625" y2="2175.0625"/><text fill="#000000" font-family="FG Virgil" font-size="20" lengthAdjust="spacing" textLength="188" x="935" y="2168.8438">savedShowProposal</text><polygon fill="#181818" points="104,2208.6172,94,2212.6172,104,2216.6172,100,2212.6172" style="stroke:#181818;stroke-width:1.0;"/><line style="stroke:#181818;stroke-width:1.0;stroke-dasharray:2.0,2.0;" x1="98" x2="912" y1="2212.6172" y2="2212.6172"/><text fill="#000000" font-family="FG Virgil" font-size="20" lengthAdjust="spacing" textLength="786" x="110" y="2206.3984">Success message and displays created Show Proposal (or its ID) / Failure message</text><!--SRC=[hLZTRzis47_tNt787ce3JfksUp820vuJ5mQs9eZZl6nxO2JQuK9B6aabS__w7IbPufTafsqUZ8ZatVtk-qZvpBA22BBZUV9CKqZfXfHSBV9ChTWt2fyk1WF55ATmAV5xykbYkgB_bZHBA5mniaLAMAy-VxoOm5nGeYYidl9Nk1LvaKl2BpzegkbW80zoO9TdUV8ayXq59KfgxHGaUIPRkb9x52Teegmz2zTNWgIBB_30n9Pnwuny8cd-oh8jR0YNT30WYSe5dCtl_e1vpZbvp0N1bJCW4cPwRu24YYMi89c2iqcbWLRWW7-zD8VNIxYyB0ILD5D4iJoRJZtItvbKcl1E6qSgEKUW0cNIIfgrFLU28pTI59mbtSmE2Exfhk28AiQntJlECzJDOrWTq9l7kTrI8L6-ZWBDXVwd38lREP99RQ74fxYZA9EXoVSBuvMz8RXR8C46VKTVS_7iqrZsRCaDNRsZLv61Q3O3d9uHFJRsSYyVssmHA7hh91wrDhOE-liwmnJR8tMQxmZBZcdXO3z2QoDtyEg58xJtkIByIkGPbPN8zllXffFAn176pDK1gRtGGxVQOq3jrh8EH_rFY4-dD7lHPQRAN_CBvrFCq0dCvBC4bKDI5I826Nt5ee3bgAWLRidNoy40yEyTj6a0oumfHZZxPl2QVSpyypz_UUGb_NlgP_44aLMo49a-t73t3ffD_UUNWPRrxNm2JUmmAeUZXgZXUZjlrZ3Jpdjm2J_R6iAKnjXruxfRJ8m9wqYT4mo1V5lI6BwxHRE6YTtoiB8rCDdXS8yoCbO6OWhLygqLtmznbpfbjD-fpb77V6uj_ecEzT1zZskxi6dd5fqbyYqkjgbFzB6dLpUEqrtjUYTqjjlYkZtjdclaUnto9_dO1_LM1tUYEgHksBZUcho7_dQ2PtrjuW1wN5eLvHcNEPPlcZfzqlHOagLEk8snMyWIHyByKM6Jm1bMiXtZHF0zO6yeS1VNsCQme-dfTlkEajTlXxSKiQC8VoXlkt7-Q1f6KkSTNAFBkjjiVMYbQ04V9x2Y74V_wXfHMwp9v4XtuDxWNMlVsug3TkVrg0tBqZfe7pdrELf7pOOzZ9x781BEROGmN2egDETBQtawyatfombGrsEFn_xa7eZaPdoQ64dIM1BoZMDv2HlC8MbSSXY9d9chyfR4OSicWs55GbCBsTNzpSXnzgV6sOSAqIIsvt6lL_3O_IZc-B1THzgXtxsqzsUSppIZmFdsKRFZt27EutZHGysAvNrVXJ040caH-6qKD1jlw8rTGH1uv0sH4D2suN1O2MBXymI-4FM4rI4tlmsFAufLdSi8O1pt3IPpBO6lvUvHKs-Wkg64097b2qkflY9eWgmXI0q135LxlrbcoiNtQ_nzmufJlv8cmOMx8od6u0eUGzHQfqmepcr6K8N3o8jM-8d2fkJSxgL0pUMgizb4Ik9l-sNQeSDxbWv7aRxZrx1OlUnfbTSknexYUBBwVi8Tjq5O6HmZM0xgia2Gmj6YuTj0ERVxc04Sld4BR2ccOr8AWMe2AT4Co2r1cXHAl5t3S8PhkHZrwE_ZGfOpcv6-fG-x6KGu42DpRUItL_wHeqALQ0y4HnIuUVn7bvK-7zdF4XDuqMGtco2RGy_OTArhd4UEg6-i4qQMGHZraIFXc9cR9v9MXpdXD4k9U8zsNsPIaIoXqIXp6RYIsgUNywuoTJZIhuud9FIONUoWUhCvhSou3rBsDGDRXryEnXqU6CDVcPSuOolSnbsgTfGj5vDJlRptivXPC_fgd-mgOPuGowGhya9DvOgowJPZLQaaKWyz33rw1lMvUT6C5cXadfwgdL-VRWhj0fnMq3bbaLgrt7Gb_NfSoY2qR4s3W414LAqCuR1vBCLRXgxtMq6bF1lrCdGQdR5S8AAkJv7wfYUBk46wRqMnwQjC4aGAE_mXMsfkkIcJ6CjxMOyIgJjwm1176uOLVdarWW-mm2cf5FJ0O619No_jh-hXz7y0]--></g></svg>