<svg xmlns="http://www.w3.org/2000/svg" xmlns:xlink="http://www.w3.org/1999/xlink" contentStyleType="text/css" height="639.8px" preserveAspectRatio="none" style="width:508px;height:639px;background:#FFFFFF;" version="1.1" viewBox="0 0 508 639" width="508.9px" zoomAndPan="magnify"><defs/><g><!--cluster UI Layer (Backoffice Console)--><g id="cluster_UI Layer (Backoffice Console)"><path d="M5.95,4.2096 L145.52,4.2096 A2.625,2.625 0 0 1 147.27,5.9596 L152.17,21.4443 L220.85,21.4443 A1.75,1.75 0 0 1 222.6,23.1943 L222.6,293.3096 A1.75,1.75 0 0 1 220.85,295.0596 L5.95,295.0596 A1.75,1.75 0 0 1 4.2,293.3096 L4.2,5.9596 A1.75,1.75 0 0 1 5.95,4.2096 " fill="none" style="stroke:#000000;stroke-width:1.0499999999999998;"/><line style="stroke:#000000;stroke-width:1.0499999999999998;" x1="4.2" x2="152.17" y1="21.4443" y2="21.4443"/><text fill="#000000" font-family="sans-serif" font-size="9.8" font-weight="bold" lengthAdjust="spacing" textLength="138.87" x="7" y="16.1848">UI Layer (Backoffice Console)</text><text fill="#000000" font-family="sans-serif" font-size="9.8" font-style="italic" lengthAdjust="spacing" textLength="65.9251" x="83.2375" y="33.4195">&#171;Presentation&#187;</text></g><!--cluster Application Layer--><g id="cluster_Application Layer"><path d="M241.15,174.3096 L324.0781,174.3096 A2.625,2.625 0 0 1 325.8281,176.0596 L330.7281,191.5443 L502.25,191.5443 A1.75,1.75 0 0 1 504,193.2943 L504,308.3596 A1.75,1.75 0 0 1 502.25,310.1096 L241.15,310.1096 A1.75,1.75 0 0 1 239.4,308.3596 L239.4,176.0596 A1.75,1.75 0 0 1 241.15,174.3096 " fill="none" style="stroke:#000000;stroke-width:1.0499999999999998;"/><line style="stroke:#000000;stroke-width:1.0499999999999998;" x1="239.4" x2="330.7281" y1="191.5443" y2="191.5443"/><text fill="#000000" font-family="sans-serif" font-size="9.8" font-weight="bold" lengthAdjust="spacing" textLength="82.2281" x="242.2" y="186.2848">Application Layer</text><text fill="#000000" font-family="sans-serif" font-size="9.8" font-style="italic" lengthAdjust="spacing" textLength="58.8431" x="345.0785" y="203.5195">&#171;Application&#187;</text></g><!--cluster Domain Layer (Framework Core)--><g id="cluster_Domain Layer (Framework Core)"><path d="M19.95,345.8096 L172.0476,345.8096 A2.625,2.625 0 0 1 173.7976,347.5596 L178.6976,363.0443 L501.55,363.0443 A1.75,1.75 0 0 1 503.3,364.7943 L503.3,633.1596 A1.75,1.75 0 0 1 501.55,634.9096 L19.95,634.9096 A1.75,1.75 0 0 1 18.2,633.1596 L18.2,347.5596 A1.75,1.75 0 0 1 19.95,345.8096 " fill="none" style="stroke:#000000;stroke-width:1.0499999999999998;"/><line style="stroke:#000000;stroke-width:1.0499999999999998;" x1="18.2" x2="178.6976" y1="363.0443" y2="363.0443"/><text fill="#000000" font-family="sans-serif" font-size="9.8" font-weight="bold" lengthAdjust="spacing" textLength="151.3976" x="21" y="357.7848">Domain Layer (Framework Core)</text><text fill="#000000" font-family="sans-serif" font-size="9.8" font-style="italic" lengthAdjust="spacing" textLength="44.6694" x="241.2153" y="375.0195">&#171;Domain&#187;</text></g><!--class ListUsersUI--><g id="elem_ListUsersUI"><rect codeLine="5" fill="#F1F1F1" height="85.7391" id="ListUsersUI" rx="1.75" ry="1.75" style="stroke:#181818;stroke-width:0.3499999999999999;" width="195.7484" x="15.4" y="43.4096"/><ellipse cx="84.9786" cy="54.6096" fill="#ADD1B2" rx="7.7" ry="7.7" style="stroke:#181818;stroke-width:0.6999999999999998;"/><path d="M86.9145,51.7221 Q87.0239,51.5689 87.1551,51.4924 Q87.2864,51.4158 87.4395,51.4158 Q87.702,51.4158 87.8661,51.6018 Q88.0301,51.7768 88.0301,52.2033 L88.0301,53.2205 Q88.0301,53.6471 87.8661,53.833 Q87.702,54.0189 87.4395,54.0189 Q87.1989,54.0189 87.0567,53.8768 Q86.9145,53.7455 86.8379,53.3846 Q86.8051,53.133 86.6739,53.0018 Q86.4442,52.7393 86.0176,52.5861 Q85.5911,52.433 85.1536,52.433 Q84.6176,52.433 84.1692,52.6627 Q83.7317,52.8924 83.3817,53.4174 Q83.0426,53.9424 83.0426,54.6643 L83.0426,55.4299 Q83.0426,56.2939 83.6661,56.8736 Q84.2895,57.4424 85.4051,57.4424 Q86.0614,57.4424 86.5208,57.2674 Q86.7942,57.158 87.0895,56.8518 Q87.2754,56.6658 87.3739,56.6111 Q87.4833,56.5564 87.6254,56.5564 Q87.8551,56.5564 88.0301,56.7424 Q88.2161,56.9174 88.2161,57.158 Q88.2161,57.3986 87.9754,57.683 Q87.6254,58.0877 87.0676,58.3174 Q86.3129,58.6346 85.4051,58.6346 Q84.3442,58.6346 83.502,58.1971 Q82.8129,57.8471 82.3317,57.1033 Q81.8504,56.3486 81.8504,55.4518 L81.8504,54.6424 Q81.8504,53.7127 82.277,52.9143 Q82.7145,52.1049 83.4801,51.6783 Q84.2458,51.2408 85.1098,51.2408 Q85.6239,51.2408 86.0723,51.3611 Q86.5317,51.4705 86.9145,51.7221 Z " fill="#000000"/><text fill="#000000" font-family="sans-serif" font-size="9.8" lengthAdjust="spacing" textLength="50.6413" x="99.3286" y="58.6674">ListUsersUI</text><line style="stroke:#181818;stroke-width:0.3499999999999999;" x1="16.1" x2="210.4484" y1="65.8096" y2="65.8096"/><rect fill="none" height="4.2" style="stroke:#C82930;stroke-width:0.6999999999999998;" width="4.2" x="21" y="74.077"/><text fill="#000000" font-family="sans-serif" font-size="9.8" lengthAdjust="spacing" textLength="177.5484" x="29.4" y="79.1848">theController: ListSystemUsersController</text><line style="stroke:#181818;stroke-width:0.6999999999999998;" x1="16.1" x2="210.4484" y1="84.4443" y2="84.4443"/><ellipse cx="23.1" cy="94.8117" fill="#84BE84" rx="2.1" ry="2.1" style="stroke:#038048;stroke-width:0.6999999999999998;"/><text fill="#000000" font-family="sans-serif" font-size="9.8" lengthAdjust="spacing" textLength="41.9419" x="29.4" y="97.8195">doShow()</text><ellipse cx="23.1" cy="107.8465" fill="#84BE84" rx="2.1" ry="2.1" style="stroke:#038048;stroke-width:0.6999999999999998;"/><text fill="#000000" font-family="sans-serif" font-size="9.8" lengthAdjust="spacing" textLength="167.7389" x="29.4" y="110.8543">elementPrinter(): Visitor&lt;SystemUser&gt;</text><ellipse cx="23.1" cy="120.8812" fill="#84BE84" rx="2.1" ry="2.1" style="stroke:#038048;stroke-width:0.6999999999999998;"/><text fill="#000000" font-family="sans-serif" font-size="9.8" lengthAdjust="spacing" textLength="149.2347" x="29.4" y="123.8891">elements(): Iterable&lt;SystemUser&gt;</text></g><!--class SystemUserPrinter--><g id="elem_SystemUserPrinter"><rect codeLine="13" fill="#F1F1F1" height="55.4422" id="SystemUserPrinter" rx="1.75" ry="1.75" style="stroke:#181818;stroke-width:0.3499999999999999;" width="128.1916" x="49.35" y="228.5596"/><ellipse cx="70.4536" cy="244.1633" fill="#ADD1B2" rx="7.7" ry="7.7" style="stroke:#181818;stroke-width:0.6999999999999998;"/><path d="M72.3895,241.2758 Q72.4989,241.1227 72.6301,241.0461 Q72.7614,240.9695 72.9145,240.9695 Q73.177,240.9695 73.3411,241.1555 Q73.5051,241.3305 73.5051,241.757 L73.5051,242.7742 Q73.5051,243.2008 73.3411,243.3867 Q73.177,243.5727 72.9145,243.5727 Q72.6739,243.5727 72.5317,243.4305 Q72.3895,243.2992 72.3129,242.9383 Q72.2801,242.6867 72.1489,242.5555 Q71.9192,242.293 71.4926,242.1398 Q71.0661,241.9867 70.6286,241.9867 Q70.0926,241.9867 69.6442,242.2164 Q69.2067,242.4461 68.8567,242.9711 Q68.5176,243.4961 68.5176,244.218 L68.5176,244.9836 Q68.5176,245.8477 69.1411,246.4273 Q69.7645,246.9961 70.8801,246.9961 Q71.5364,246.9961 71.9958,246.8211 Q72.2692,246.7117 72.5645,246.4055 Q72.7504,246.2195 72.8489,246.1648 Q72.9583,246.1102 73.1004,246.1102 Q73.3301,246.1102 73.5051,246.2961 Q73.6911,246.4711 73.6911,246.7117 Q73.6911,246.9523 73.4504,247.2367 Q73.1004,247.6414 72.5426,247.8711 Q71.7879,248.1883 70.8801,248.1883 Q69.8192,248.1883 68.977,247.7508 Q68.2879,247.4008 67.8067,246.657 Q67.3254,245.9023 67.3254,245.0055 L67.3254,244.1961 Q67.3254,243.2664 67.752,242.468 Q68.1895,241.6586 68.9551,241.232 Q69.7208,240.7945 70.5848,240.7945 Q71.0989,240.7945 71.5473,240.9148 Q72.0067,241.0242 72.3895,241.2758 Z " fill="#000000"/><text fill="#000000" font-family="sans-serif" font-size="8.4" font-style="italic" lengthAdjust="spacing" textLength="32.6812" x="107.3833" y="241.124">&#171;Visitor&#187;</text><text fill="#000000" font-family="sans-serif" font-size="9.8" lengthAdjust="spacing" textLength="82.2281" x="82.6099" y="253.8074">SystemUserPrinter</text><line style="stroke:#181818;stroke-width:0.3499999999999999;" x1="50.05" x2="176.8416" y1="259.767" y2="259.767"/><line style="stroke:#181818;stroke-width:0.6999999999999998;" x1="50.05" x2="176.8416" y1="265.367" y2="265.367"/><ellipse cx="57.05" cy="275.7344" fill="#84BE84" rx="2.1" ry="2.1" style="stroke:#038048;stroke-width:0.6999999999999998;"/><text fill="#000000" font-family="sans-serif" font-size="9.8" lengthAdjust="spacing" textLength="109.9916" x="63.35" y="278.7422">visit(visitee: SystemUser)</text></g><!--class ListSystemUsersController--><g id="elem_ListSystemUsersController"><rect codeLine="20" fill="#F1F1F1" height="85.7391" id="ListSystemUsersController" rx="1.75" ry="1.75" style="stroke:#181818;stroke-width:0.3499999999999999;" width="241.5137" x="250.95" y="213.5096"/><ellipse cx="310.7333" cy="224.7096" fill="#ADD1B2" rx="7.7" ry="7.7" style="stroke:#181818;stroke-width:0.6999999999999998;"/><path d="M312.6693,221.8221 Q312.7787,221.6689 312.9099,221.5924 Q313.0412,221.5158 313.1943,221.5158 Q313.4568,221.5158 313.6208,221.7018 Q313.7849,221.8768 313.7849,222.3033 L313.7849,223.3205 Q313.7849,223.7471 313.6208,223.933 Q313.4568,224.1189 313.1943,224.1189 Q312.9537,224.1189 312.8115,223.9768 Q312.6693,223.8455 312.5927,223.4846 Q312.5599,223.233 312.4287,223.1018 Q312.199,222.8393 311.7724,222.6861 Q311.3458,222.533 310.9083,222.533 Q310.3724,222.533 309.924,222.7627 Q309.4865,222.9924 309.1365,223.5174 Q308.7974,224.0424 308.7974,224.7643 L308.7974,225.5299 Q308.7974,226.3939 309.4208,226.9736 Q310.0443,227.5424 311.1599,227.5424 Q311.8162,227.5424 312.2755,227.3674 Q312.549,227.258 312.8443,226.9518 Q313.0302,226.7658 313.1287,226.7111 Q313.238,226.6564 313.3802,226.6564 Q313.6099,226.6564 313.7849,226.8424 Q313.9708,227.0174 313.9708,227.258 Q313.9708,227.4986 313.7302,227.783 Q313.3802,228.1877 312.8224,228.4174 Q312.0677,228.7346 311.1599,228.7346 Q310.099,228.7346 309.2568,228.2971 Q308.5677,227.9471 308.0865,227.2033 Q307.6052,226.4486 307.6052,225.5518 L307.6052,224.7424 Q307.6052,223.8127 308.0318,223.0143 Q308.4693,222.2049 309.2349,221.7783 Q310.0005,221.3408 310.8646,221.3408 Q311.3787,221.3408 311.8271,221.4611 Q312.2865,221.5705 312.6693,221.8221 Z " fill="#000000"/><text fill="#000000" font-family="sans-serif" font-size="9.8" lengthAdjust="spacing" textLength="115.997" x="325.0833" y="228.7674">ListSystemUsersController</text><line style="stroke:#181818;stroke-width:0.3499999999999999;" x1="251.65" x2="491.7637" y1="235.9096" y2="235.9096"/><rect fill="none" height="4.2" style="stroke:#C82930;stroke-width:0.6999999999999998;" width="4.2" x="256.55" y="244.177"/><text fill="#000000" font-family="sans-serif" font-size="9.8" lengthAdjust="spacing" textLength="119.2987" x="264.95" y="249.2848">authz: AuthorizationService</text><rect fill="none" height="4.2" style="stroke:#C82930;stroke-width:0.6999999999999998;" width="4.2" x="256.55" y="257.2117"/><text fill="#000000" font-family="sans-serif" font-size="9.8" lengthAdjust="spacing" textLength="151.4167" x="264.95" y="262.3195">userSvc: UserManagementService</text><line style="stroke:#181818;stroke-width:0.6999999999999998;" x1="251.65" x2="491.7637" y1="267.5791" y2="267.5791"/><ellipse cx="258.65" cy="277.9465" fill="#84BE84" rx="2.1" ry="2.1" style="stroke:#038048;stroke-width:0.6999999999999998;"/><text fill="#000000" font-family="sans-serif" font-size="9.8" lengthAdjust="spacing" textLength="144.8658" x="264.95" y="280.9543">allUsers(): Iterable&lt;SystemUser&gt;</text><ellipse cx="258.65" cy="290.9812" fill="#84BE84" rx="2.1" ry="2.1" style="stroke:#038048;stroke-width:0.6999999999999998;"/><text fill="#000000" font-family="sans-serif" font-size="9.8" lengthAdjust="spacing" textLength="223.3137" x="264.95" y="293.9891">find(username: Username): Optional&lt;SystemUser&gt;</text></g><!--class SystemUser--><g id="elem_SystemUser"><rect codeLine="30" fill="#F1F1F1" height="120.616" id="SystemUser" rx="1.75" ry="1.75" style="stroke:#181818;stroke-width:0.3499999999999999;" width="172.3155" x="29.4" y="503.3096"/><ellipse cx="76.638" cy="518.9133" fill="#ADD1B2" rx="7.7" ry="7.7" style="stroke:#181818;stroke-width:0.6999999999999998;"/><path d="M78.574,516.0258 Q78.6833,515.8727 78.8146,515.7961 Q78.9458,515.7195 79.099,515.7195 Q79.3615,515.7195 79.5255,515.9055 Q79.6896,516.0805 79.6896,516.507 L79.6896,517.5242 Q79.6896,517.9508 79.5255,518.1367 Q79.3615,518.3227 79.099,518.3227 Q78.8583,518.3227 78.7162,518.1805 Q78.574,518.0492 78.4974,517.6883 Q78.4646,517.4367 78.3333,517.3055 Q78.1037,517.043 77.6771,516.8898 Q77.2505,516.7367 76.813,516.7367 Q76.2771,516.7367 75.8287,516.9664 Q75.3912,517.1961 75.0412,517.7211 Q74.7021,518.2461 74.7021,518.968 L74.7021,519.7336 Q74.7021,520.5977 75.3255,521.1773 Q75.949,521.7461 77.0646,521.7461 Q77.7208,521.7461 78.1802,521.5711 Q78.4537,521.4617 78.749,521.1555 Q78.9349,520.9695 79.0333,520.9148 Q79.1427,520.8602 79.2849,520.8602 Q79.5146,520.8602 79.6896,521.0461 Q79.8755,521.2211 79.8755,521.4617 Q79.8755,521.7023 79.6349,521.9867 Q79.2849,522.3914 78.7271,522.6211 Q77.9724,522.9383 77.0646,522.9383 Q76.0037,522.9383 75.1615,522.5008 Q74.4724,522.1508 73.9912,521.407 Q73.5099,520.6523 73.5099,519.7555 L73.5099,518.9461 Q73.5099,518.0164 73.9365,517.218 Q74.374,516.4086 75.1396,515.982 Q75.9052,515.5445 76.7693,515.5445 Q77.2833,515.5445 77.7318,515.6648 Q78.1912,515.7742 78.574,516.0258 Z " fill="#000000"/><text fill="#000000" font-family="sans-serif" font-size="8.4" font-style="italic" lengthAdjust="spacing" textLength="74.6895" x="89.588" y="515.874">&#171;Framework Entity&#187;</text><text fill="#000000" font-family="sans-serif" font-size="9.8" lengthAdjust="spacing" textLength="53.3641" x="100.2507" y="528.5574">SystemUser</text><line style="stroke:#181818;stroke-width:0.3499999999999999;" x1="30.1" x2="201.0155" y1="534.517" y2="534.517"/><rect fill="none" height="4.2" style="stroke:#C82930;stroke-width:0.6999999999999998;" width="4.2" x="35" y="542.7844"/><text fill="#000000" font-family="sans-serif" font-size="9.8" lengthAdjust="spacing" textLength="94.2293" x="43.4" y="547.8922">username: Username</text><rect fill="#F24D5C" height="4.2" style="stroke:#C82930;stroke-width:0.6999999999999998;" width="4.2" x="35" y="555.8191"/><text fill="#000000" font-family="sans-serif" font-size="9.8" lengthAdjust="spacing" textLength="154.1155" x="43.4" y="560.927">name: Name (firstName, lastName)</text><rect fill="none" height="4.2" style="stroke:#C82930;stroke-width:0.6999999999999998;" width="4.2" x="35" y="568.8539"/><text fill="#000000" font-family="sans-serif" font-size="9.8" lengthAdjust="spacing" textLength="65.9251" x="43.4" y="573.9617">active: boolean</text><line style="stroke:#181818;stroke-width:0.6999999999999998;" x1="30.1" x2="201.0155" y1="579.2213" y2="579.2213"/><ellipse cx="37.1" cy="589.5887" fill="#84BE84" rx="2.1" ry="2.1" style="stroke:#038048;stroke-width:0.6999999999999998;"/><text fill="#000000" font-family="sans-serif" font-size="9.8" lengthAdjust="spacing" textLength="100.7562" x="43.4" y="592.5965">username(): Username</text><ellipse cx="37.1" cy="602.6234" fill="#84BE84" rx="2.1" ry="2.1" style="stroke:#038048;stroke-width:0.6999999999999998;"/><text fill="#000000" font-family="sans-serif" font-size="9.8" lengthAdjust="spacing" textLength="62.6281" x="43.4" y="605.6312">name(): Name</text><ellipse cx="37.1" cy="615.6582" fill="#84BE84" rx="2.1" ry="2.1" style="stroke:#038048;stroke-width:0.6999999999999998;"/><text fill="#000000" font-family="sans-serif" font-size="9.8" lengthAdjust="spacing" textLength="80.6155" x="43.4" y="618.666">isActive(): boolean</text></g><!--class UserManagementService--><g id="elem_UserManagementService"><rect codeLine="40" fill="#F1F1F1" height="62.877" id="UserManagementService" rx="1.75" ry="1.75" style="stroke:#181818;stroke-width:0.3499999999999999;" width="286.719" x="205.1" y="385.0096"/><ellipse cx="290.1992" cy="400.6133" fill="#B4A7E5" rx="7.7" ry="7.7" style="stroke:#181818;stroke-width:0.6999999999999998;"/><path d="M290.8664,398.2617 L290.8664,402.9211 L292.0695,402.9211 Q292.4961,402.9211 292.682,403.0852 Q292.868,403.2492 292.868,403.5227 Q292.868,403.7852 292.682,403.9492 Q292.4961,404.1133 292.0695,404.1133 L288.4711,404.1133 Q288.0445,404.1133 287.8586,403.9492 Q287.6727,403.7852 287.6727,403.5117 Q287.6727,403.2492 287.8586,403.0852 Q288.0445,402.9211 288.4711,402.9211 L289.6742,402.9211 L289.6742,398.2617 L288.4711,398.2617 Q288.0445,398.2617 287.8586,398.0977 Q287.6727,397.9336 287.6727,397.6602 Q287.6727,397.3977 287.8586,397.2336 Q288.0445,397.0695 288.4711,397.0695 L292.0695,397.0695 Q292.4961,397.0695 292.682,397.2336 Q292.868,397.3977 292.868,397.6602 Q292.868,397.9336 292.682,398.0977 Q292.4961,398.2617 292.0695,398.2617 L290.8664,398.2617 Z " fill="#000000"/><text fill="#000000" font-family="sans-serif" font-size="8.4" font-style="italic" lengthAdjust="spacing" textLength="81.6908" x="318.9891" y="397.574">&#171;Framework Service&#187;</text><text fill="#000000" font-family="sans-serif" font-size="9.8" font-style="italic" lengthAdjust="spacing" textLength="110.5706" x="304.5492" y="410.2574">UserManagementService</text><line style="stroke:#181818;stroke-width:0.3499999999999999;" x1="205.8" x2="491.119" y1="416.217" y2="416.217"/><ellipse cx="212.8" cy="426.5844" fill="#84BE84" rx="2.1" ry="2.1" style="stroke:#038048;stroke-width:0.6999999999999998;"/><text fill="#000000" font-family="sans-serif" font-size="9.8" lengthAdjust="spacing" textLength="144.8658" x="219.1" y="429.5922">allUsers(): Iterable&lt;SystemUser&gt;</text><ellipse cx="212.8" cy="439.6191" fill="#84BE84" rx="2.1" ry="2.1" style="stroke:#038048;stroke-width:0.6999999999999998;"/><text fill="#000000" font-family="sans-serif" font-size="9.8" lengthAdjust="spacing" textLength="268.519" x="219.1" y="442.627">userOfIdentity(username: Username): Optional&lt;SystemUser&gt;</text></g><!--class UserRepository--><g id="elem_UserRepository"><rect codeLine="45" fill="#F1F1F1" height="62.877" id="UserRepository" rx="1.75" ry="1.75" style="stroke:#181818;stroke-width:0.3499999999999999;" width="265.4825" x="226.45" y="532.0096"/><ellipse cx="310.7005" cy="547.6133" fill="#B4A7E5" rx="7.7" ry="7.7" style="stroke:#181818;stroke-width:0.6999999999999998;"/><path d="M311.3677,545.2617 L311.3677,549.9211 L312.5708,549.9211 Q312.9974,549.9211 313.1833,550.0852 Q313.3693,550.2492 313.3693,550.5227 Q313.3693,550.7852 313.1833,550.9492 Q312.9974,551.1133 312.5708,551.1133 L308.9724,551.1133 Q308.5458,551.1133 308.3599,550.9492 Q308.174,550.7852 308.174,550.5117 Q308.174,550.2492 308.3599,550.0852 Q308.5458,549.9211 308.9724,549.9211 L310.1755,549.9211 L310.1755,545.2617 L308.9724,545.2617 Q308.5458,545.2617 308.3599,545.0977 Q308.174,544.9336 308.174,544.6602 Q308.174,544.3977 308.3599,544.2336 Q308.5458,544.0695 308.9724,544.0695 L312.5708,544.0695 Q312.9974,544.0695 313.1833,544.2336 Q313.3693,544.3977 313.3693,544.6602 Q313.3693,544.9336 313.1833,545.0977 Q312.9974,545.2617 312.5708,545.2617 L311.3677,545.2617 Z " fill="#000000"/><text fill="#000000" font-family="sans-serif" font-size="8.4" font-style="italic" lengthAdjust="spacing" textLength="93.8314" x="323.6505" y="544.574">&#171;Framework Repository&#187;</text><text fill="#000000" font-family="sans-serif" font-size="9.8" font-style="italic" lengthAdjust="spacing" textLength="67.5329" x="336.7998" y="557.2574">UserRepository</text><line style="stroke:#181818;stroke-width:0.3499999999999999;" x1="227.15" x2="491.2325" y1="563.217" y2="563.217"/><ellipse cx="234.15" cy="573.5844" fill="#84BE84" rx="2.1" ry="2.1" style="stroke:#038048;stroke-width:0.6999999999999998;"/><text fill="#000000" font-family="sans-serif" font-size="9.8" lengthAdjust="spacing" textLength="136.1616" x="240.45" y="576.5922">findAll(): Iterable&lt;SystemUser&gt;</text><ellipse cx="234.15" cy="586.6191" fill="#84BE84" rx="2.1" ry="2.1" style="stroke:#038048;stroke-width:0.6999999999999998;"/><text fill="#000000" font-family="sans-serif" font-size="9.8" lengthAdjust="spacing" textLength="247.2825" x="240.45" y="589.627">ofIdentity(username: Username): Optional&lt;SystemUser&gt;</text></g><!--link ListUsersUI to ListSystemUsersController--><g id="link_ListUsersUI_ListSystemUsersController"><path codeLine="52" d="M177.912,128.9426 C217.434,154.7586 264.3246,185.3829 303.8186,211.1779 " fill="none" id="ListUsersUI-to-ListSystemUsersController" style="stroke:#181818;stroke-width:0.6999999999999998;stroke-dasharray:7.0,7.0;"/><polygon fill="#181818" points="307.335,213.4746,303.5915,207.6852,304.4047,211.5607,300.5292,212.3738,307.335,213.4746" style="stroke:#181818;stroke-width:0.6999999999999998;"/><polygon fill="#000000" points="233.2303,158.4754,229.0543,153.2906,226.8043,156.7354,233.2303,158.4754" style="stroke:#000000;stroke-width:0.6999999999999998;"/><text fill="#000000" font-family="sans-serif" font-size="9.1" lengthAdjust="spacing" textLength="19.222" x="236.6" y="160.3294">uses</text></g><!--link ListUsersUI to SystemUserPrinter--><g id="link_ListUsersUI_SystemUserPrinter"><path codeLine="53" d="M113.4,128.9426 C113.4,160.0786 113.4,197.3466 113.4,224.1846 " fill="none" id="ListUsersUI-to-SystemUserPrinter" style="stroke:#181818;stroke-width:0.6999999999999998;stroke-dasharray:7.0,7.0;"/><polygon fill="#181818" points="113.4,228.3846,116.2,222.0846,113.4,224.8846,110.6,222.0846,113.4,228.3846" style="stroke:#181818;stroke-width:0.6999999999999998;"/><polygon fill="#000000" points="116.9,160.0614,118.9572,153.7299,114.8428,153.7299,116.9,160.0614" style="stroke:#000000;stroke-width:0.6999999999999998;"/><text fill="#000000" font-family="sans-serif" font-size="9.1" lengthAdjust="spacing" textLength="19.222" x="123.2" y="160.3294">uses</text></g><!--link SystemUserPrinter to SystemUser--><g id="link_SystemUserPrinter_SystemUser"><path codeLine="54" d="M113.589,284.0556 C113.925,332.9646 114.6101,432.7497 115.0651,498.9697 " fill="none" id="SystemUserPrinter-to-SystemUser" style="stroke:#181818;stroke-width:0.6999999999999998;stroke-dasharray:7.0,7.0;"/><polygon fill="#181818" points="115.094,503.1696,117.8506,496.8505,115.07,499.6697,112.2508,496.889,115.094,503.1696" style="stroke:#181818;stroke-width:0.6999999999999998;"/><polygon fill="#000000" points="117.624,420.1113,119.6378,413.7658,115.5234,413.7941,117.624,420.1113" style="stroke:#000000;stroke-width:0.6999999999999998;"/><text fill="#000000" font-family="sans-serif" font-size="9.1" lengthAdjust="spacing" textLength="20.2217" x="123.9" y="420.3794">visits</text></g><!--link ListSystemUsersController to UserManagementService--><g id="link_ListSystemUsersController_UserManagementService"><path codeLine="56" d="M365.568,299.0776 C361.655,326.0136 357.2686,356.1923 353.7126,380.6363 " fill="none" id="ListSystemUsersController-to-UserManagementService" style="stroke:#181818;stroke-width:0.6999999999999998;"/><polygon fill="#181818" points="353.108,384.7926,356.7858,378.9613,353.6119,381.329,351.2441,378.1551,353.108,384.7926" style="stroke:#181818;stroke-width:0.6999999999999998;"/><polygon fill="#000000" points="364.8965,331.525,367.8432,325.5552,363.7715,324.9634,364.8965,331.525" style="stroke:#000000;stroke-width:0.6999999999999998;"/><text fill="#000000" font-family="sans-serif" font-size="9.1" lengthAdjust="spacing" textLength="19.222" x="371.7" y="331.8294">uses</text></g><!--link UserManagementService to UserRepository--><g id="link_UserManagementService_UserRepository"><path codeLine="57" d="M350.826,448.0866 C352.611,472.7966 354.7944,503.0894 356.5724,527.7854 " fill="none" id="UserManagementService-to-UserRepository" style="stroke:#181818;stroke-width:0.6999999999999998;"/><polygon fill="#181818" points="356.874,531.9746,359.2144,525.4898,356.6227,528.4836,353.6288,525.8919,356.874,531.9746" style="stroke:#181818;stroke-width:0.6999999999999998;"/><polygon fill="#000000" points="356.5517,479.2524,358.1483,472.7893,354.0444,473.0851,356.5517,479.2524" style="stroke:#000000;stroke-width:0.6999999999999998;"/><text fill="#000000" font-family="sans-serif" font-size="9.1" lengthAdjust="spacing" textLength="19.222" x="362.6" y="479.5294">uses</text></g><!--link UserManagementService to SystemUser--><g id="link_UserManagementService_SystemUser"><path codeLine="58" d="M299.166,448.0866 C270.9,465.7406 238.2091,486.1605 205.3861,506.6635 " fill="none" id="UserManagementService-to-SystemUser" style="stroke:#181818;stroke-width:0.6999999999999998;stroke-dasharray:7.0,7.0;"/><polygon fill="#181818" points="201.824,508.8886,208.6506,507.9257,204.7925,507.0343,205.6838,503.1761,201.824,508.8886" style="stroke:#181818;stroke-width:0.6999999999999998;"/><polygon fill="#000000" points="260.2315,477.6156,266.6914,476.0062,264.5117,472.5165,260.2315,477.6156" style="stroke:#000000;stroke-width:0.6999999999999998;"/><text fill="#000000" font-family="sans-serif" font-size="9.1" lengthAdjust="spacing" textLength="37.4353" x="269.5" y="479.5294">manages</text></g><!--SRC=[dLJRRfmm47tdAqPv2MX3FW2jaBQNI2kbITHL-kvbXs35sCXsDY9L_hrZmu8996dB0rZZCsVEdB6f-041wyQsK6EzHssYg6758tj0EBlVmZLhKKFyXKAgB7c1y5L9emGcPx1UtsaqA2spNCayXzyHq5C8PWnSSsFl3V4HIHTtJmgsGcAmMWc1ElEmNMiirXuyReqfwR1SmK7jAlKS9q481TQauKvpQL77IGQ_kE5MwVN8cy_nnY6tbC7s0cVGroXePTpiYr3dVOsXwPdIemF4_esO1Hn9N-0rC7hJD88NtiRESMTk45pmTj6qGKmAxCbMBnbiwACqV_4qEzH76k60UQBitR78mD7yO9AqE6lUm4vThO09uGj-Q9q3bbmUOiSkMOqTlLjHsctZX32nu7Xeo3TLCovFf-zAK_Apqezq-7HtyZf0xylRCT7-cF9TMcxRmS6kwwckVgCBtj0Ruf9hOzto0eZShv8UnWhBZmJSAxe6J4Q1IQk1t5aqeL_1ANmpXhZPU38N7kdyuVC7hMHquHQ7CscnZmqz_kMaEhMtvVQ0tgD_cjY2o9_OA7yhsecwCHm8T2Ta8yGd-jJ_QYDrvrHO-6DlAjwOAFmXNLxc7roYpFbY89-bp7y40tI-DKqWfFyNE6pqVkaqpT-Pzr1fUVkK6CpWauoPljf3NC8V]--></g></svg>