<svg xmlns="http://www.w3.org/2000/svg" xmlns:xlink="http://www.w3.org/1999/xlink" contentStyleType="text/css" height="857.4px" preserveAspectRatio="none" style="width:2110px;height:857px;background:#FFFFFF;" version="1.1" viewBox="0 0 2110 857" width="2110.8px" zoomAndPan="magnify"><defs/><g><!--cluster User Management (System Level)--><g id="cluster_User Management (System Level)"><path d="M1221.9,540.0082 L1356.4816,540.0082 A2.25,2.25 0 0 1 1357.9816,541.5082 L1362.1816,554.7809 L1903.5,554.7809 A1.5,1.5 0 0 1 1905,556.2809 L1905,851.7082 A1.5,1.5 0 0 1 1903.5,853.2082 L1221.9,853.2082 A1.5,1.5 0 0 1 1220.4,851.7082 L1220.4,541.5082 A1.5,1.5 0 0 1 1221.9,540.0082 " fill="none" style="stroke:#000000;stroke-width:0.8999999999999999;"/><line style="stroke:#000000;stroke-width:0.8999999999999999;" x1="1220.4" x2="1362.1816" y1="554.7809" y2="554.7809"/><text fill="#000000" font-family="sans-serif" font-size="8.4" font-weight="bold" lengthAdjust="spacing" textLength="133.9816" x="1222.8" y="550.2727">User Management (System Level)</text></g><!--cluster Shodrone User Management (Application Specific)--><g id="cluster_Shodrone User Management (Application Specific)"><path d="M5.1,141.0082 L207.7963,141.0082 A2.25,2.25 0 0 1 209.2963,142.5082 L213.4963,155.7809 L629.1,155.7809 A1.5,1.5 0 0 1 630.6,157.2809 L630.6,503.4082 A1.5,1.5 0 0 1 629.1,504.9082 L5.1,504.9082 A1.5,1.5 0 0 1 3.6,503.4082 L3.6,142.5082 A1.5,1.5 0 0 1 5.1,141.0082 " fill="none" style="stroke:#000000;stroke-width:0.8999999999999999;"/><line style="stroke:#000000;stroke-width:0.8999999999999999;" x1="3.6" x2="213.4963" y1="155.7809" y2="155.7809"/><text fill="#000000" font-family="sans-serif" font-size="8.4" font-weight="bold" lengthAdjust="spacing" textLength="202.0963" x="6" y="151.2727">Shodrone User Management (Application Specific)</text></g><!--cluster Customer Representative Management--><g id="cluster_Customer Representative Management"><path d="M646.5,373.8082 L802.5451,373.8082 A2.25,2.25 0 0 1 804.0451,375.3082 L808.2451,388.5809 L1204.5,388.5809 A1.5,1.5 0 0 1 1206,390.0809 L1206,706.2082 A1.5,1.5 0 0 1 1204.5,707.7082 L646.5,707.7082 A1.5,1.5 0 0 1 645,706.2082 L645,375.3082 A1.5,1.5 0 0 1 646.5,373.8082 " fill="none" style="stroke:#000000;stroke-width:0.8999999999999999;"/><line style="stroke:#000000;stroke-width:0.8999999999999999;" x1="645" x2="808.2451" y1="388.5809" y2="388.5809"/><text fill="#000000" font-family="sans-serif" font-size="8.4" font-weight="bold" lengthAdjust="spacing" textLength="155.4451" x="647.4" y="384.0727">Customer Representative Management</text></g><!--cluster UI Layer (Backoffice Console)--><g id="cluster_UI Layer (Backoffice Console)"><path d="M1607.1,3.6082 L1726.7314,3.6082 A2.25,2.25 0 0 1 1728.2314,5.1082 L1732.4314,18.3809 L2105.1,18.3809 A1.5,1.5 0 0 1 2106.6,19.8809 L2106.6,108.9082 A1.5,1.5 0 0 1 2105.1,110.4082 L1607.1,110.4082 A1.5,1.5 0 0 1 1605.6,108.9082 L1605.6,5.1082 A1.5,1.5 0 0 1 1607.1,3.6082 " fill="none" style="stroke:#000000;stroke-width:0.8999999999999999;"/><line style="stroke:#000000;stroke-width:0.8999999999999999;" x1="1605.6" x2="1732.4314" y1="18.3809" y2="18.3809"/><text fill="#000000" font-family="sans-serif" font-size="8.4" font-weight="bold" lengthAdjust="spacing" textLength="119.0314" x="1608" y="13.8727">UI Layer (Backoffice Console)</text></g><!--class SystemUser--><g id="elem_SystemUser"><rect codeLine="6" fill="#F1F1F1" height="136.9031" id="SystemUser" rx="1.5" ry="1.5" style="stroke:#181818;stroke-width:0.3;" width="259.282" x="1230" y="574.8082"/><ellipse cx="1326.2813" cy="588.1828" fill="#ADD1B2" rx="6.6" ry="6.6" style="stroke:#181818;stroke-width:0.6;"/><path d="M1327.9406,585.7078 Q1328.0344,585.5766 1328.1469,585.5109 Q1328.2594,585.4453 1328.3906,585.4453 Q1328.6156,585.4453 1328.7563,585.6047 Q1328.8969,585.7547 1328.8969,586.1203 L1328.8969,586.9922 Q1328.8969,587.3578 1328.7563,587.5172 Q1328.6156,587.6766 1328.3906,587.6766 Q1328.1844,587.6766 1328.0625,587.5547 Q1327.9406,587.4422 1327.875,587.1328 Q1327.8469,586.9172 1327.7344,586.8047 Q1327.5375,586.5797 1327.1719,586.4484 Q1326.8062,586.3172 1326.4312,586.3172 Q1325.9719,586.3172 1325.5875,586.5141 Q1325.2125,586.7109 1324.9125,587.1609 Q1324.6219,587.6109 1324.6219,588.2297 L1324.6219,588.8859 Q1324.6219,589.6266 1325.1563,590.1234 Q1325.6906,590.6109 1326.6469,590.6109 Q1327.2094,590.6109 1327.6031,590.4609 Q1327.8375,590.3672 1328.0906,590.1047 Q1328.25,589.9453 1328.3344,589.8984 Q1328.4281,589.8516 1328.55,589.8516 Q1328.7469,589.8516 1328.8969,590.0109 Q1329.0562,590.1609 1329.0562,590.3672 Q1329.0562,590.5734 1328.85,590.8172 Q1328.55,591.1641 1328.0719,591.3609 Q1327.425,591.6328 1326.6469,591.6328 Q1325.7375,591.6328 1325.0156,591.2578 Q1324.425,590.9578 1324.0125,590.3203 Q1323.6,589.6734 1323.6,588.9047 L1323.6,588.2109 Q1323.6,587.4141 1323.9656,586.7297 Q1324.3406,586.0359 1324.9969,585.6703 Q1325.6531,585.2953 1326.3938,585.2953 Q1326.8344,585.2953 1327.2188,585.3984 Q1327.6125,585.4922 1327.9406,585.7078 Z " fill="#000000"/><text fill="#000000" font-family="sans-serif" font-size="7.2" font-style="italic" lengthAdjust="spacing" textLength="64.0195" x="1337.3813" y="585.5777">&#171;Framework Entity&#187;</text><text fill="#000000" font-family="sans-serif" font-size="8.4" lengthAdjust="spacing" textLength="45.7406" x="1346.5207" y="596.4492">SystemUser</text><line style="stroke:#181818;stroke-width:0.3;" x1="1230.6" x2="1488.682" y1="601.5574" y2="601.5574"/><rect fill="none" height="3.6" style="stroke:#C82930;stroke-width:0.6;" width="3.6" x="1234.8" y="608.6438"/><text fill="#000000" font-family="sans-serif" font-size="8.4" lengthAdjust="spacing" textLength="80.768" x="1242" y="613.0219">username: Username</text><rect fill="none" height="3.6" style="stroke:#C82930;stroke-width:0.6;" width="3.6" x="1234.8" y="619.8164"/><text fill="#000000" font-family="sans-serif" font-size="8.4" lengthAdjust="spacing" textLength="77.499" x="1242" y="624.1945">password: Password</text><rect fill="#F24D5C" height="3.6" style="stroke:#C82930;stroke-width:0.6;" width="3.6" x="1234.8" y="630.9891"/><text fill="#000000" font-family="sans-serif" font-size="8.4" lengthAdjust="spacing" textLength="132.099" x="1242" y="635.3672">name: Name (firstName, lastName)</text><rect fill="none" height="3.6" style="stroke:#C82930;stroke-width:0.6;" width="3.6" x="1234.8" y="642.1617"/><text fill="#000000" font-family="sans-serif" font-size="8.4" lengthAdjust="spacing" textLength="76.5598" x="1242" y="646.5398">email: EmailAddress</text><rect fill="none" height="3.6" style="stroke:#C82930;stroke-width:0.6;" width="3.6" x="1234.8" y="653.3344"/><text fill="#000000" font-family="sans-serif" font-size="8.4" lengthAdjust="spacing" textLength="62.5693" x="1242" y="657.7125">roles: Set&lt;Role&gt;</text><rect fill="none" height="3.6" style="stroke:#C82930;stroke-width:0.6;" width="3.6" x="1234.8" y="664.507"/><text fill="#000000" font-family="sans-serif" font-size="8.4" lengthAdjust="spacing" textLength="77.9789" x="1242" y="668.8852">createdOn: Calendar</text><rect fill="none" height="3.6" style="stroke:#C82930;stroke-width:0.6;" width="3.6" x="1234.8" y="675.6797"/><text fill="#000000" font-family="sans-serif" font-size="8.4" lengthAdjust="spacing" textLength="56.5072" x="1242" y="680.0578">active: boolean</text><line style="stroke:#181818;stroke-width:0.6;" x1="1230.6" x2="1488.682" y1="684.566" y2="684.566"/><ellipse cx="1236.6" cy="693.4523" fill="#84BE84" rx="1.8" ry="1.8" style="stroke:#038048;stroke-width:0.6;"/><text fill="#000000" font-family="sans-serif" font-size="8.4" lengthAdjust="spacing" textLength="243.682" x="1242" y="696.0305">addUser(username, password, firstName, lastName, email, roles)</text><ellipse cx="1236.6" cy="704.625" fill="#84BE84" rx="1.8" ry="1.8" style="stroke:#038048;stroke-width:0.6;"/><text fill="#000000" font-family="sans-serif" font-size="8.4" lengthAdjust="spacing" textLength="156.8725" x="1242" y="707.2031">ensureAuthenticatedUserHasAnyOf(roles)</text></g><!--class Role--><g id="elem_Role"><rect codeLine="19" fill="#F1F1F1" height="42.7219" id="Role" rx="1.5" ry="1.5" style="stroke:#181818;stroke-width:0.3;" width="102.0363" x="1308.6" y="780.0082"/><ellipse cx="1317.6" cy="793.3828" fill="#ADD1B2" rx="6.6" ry="6.6" style="stroke:#181818;stroke-width:0.6;"/><path d="M1319.2594,790.9078 Q1319.3531,790.7766 1319.4656,790.7109 Q1319.5781,790.6453 1319.7094,790.6453 Q1319.9344,790.6453 1320.075,790.8047 Q1320.2156,790.9547 1320.2156,791.3203 L1320.2156,792.1922 Q1320.2156,792.5578 1320.075,792.7172 Q1319.9344,792.8766 1319.7094,792.8766 Q1319.5031,792.8766 1319.3813,792.7547 Q1319.2594,792.6422 1319.1938,792.3328 Q1319.1656,792.1172 1319.0531,792.0047 Q1318.8563,791.7797 1318.4906,791.6484 Q1318.125,791.5172 1317.75,791.5172 Q1317.2906,791.5172 1316.9063,791.7141 Q1316.5313,791.9109 1316.2313,792.3609 Q1315.9406,792.8109 1315.9406,793.4297 L1315.9406,794.0859 Q1315.9406,794.8266 1316.475,795.3234 Q1317.0094,795.8109 1317.9656,795.8109 Q1318.5281,795.8109 1318.9219,795.6609 Q1319.1563,795.5672 1319.4094,795.3047 Q1319.5688,795.1453 1319.6531,795.0984 Q1319.7469,795.0516 1319.8687,795.0516 Q1320.0656,795.0516 1320.2156,795.2109 Q1320.375,795.3609 1320.375,795.5672 Q1320.375,795.7734 1320.1688,796.0172 Q1319.8687,796.3641 1319.3906,796.5609 Q1318.7437,796.8328 1317.9656,796.8328 Q1317.0562,796.8328 1316.3344,796.4578 Q1315.7437,796.1578 1315.3313,795.5203 Q1314.9188,794.8734 1314.9188,794.1047 L1314.9188,793.4109 Q1314.9188,792.6141 1315.2844,791.9297 Q1315.6594,791.2359 1316.3156,790.8703 Q1316.9719,790.4953 1317.7125,790.4953 Q1318.1531,790.4953 1318.5375,790.5984 Q1318.9312,790.6922 1319.2594,790.9078 Z " fill="#000000"/><text fill="#000000" font-family="sans-serif" font-size="7.2" font-style="italic" lengthAdjust="spacing" textLength="85.2363" x="1324.8" y="790.7777">&#171;Framework ValueObject&#187;</text><text fill="#000000" font-family="sans-serif" font-size="8.4" lengthAdjust="spacing" textLength="17.2758" x="1358.7803" y="801.6492">Role</text><line style="stroke:#181818;stroke-width:0.3;" x1="1309.2" x2="1410.0363" y1="806.7574" y2="806.7574"/><ellipse cx="1315.2" cy="815.6438" fill="#84BE84" rx="1.8" ry="1.8" style="stroke:#038048;stroke-width:0.6;"/><text fill="#000000" font-family="sans-serif" font-size="8.4" lengthAdjust="spacing" textLength="78.4301" x="1320.6" y="818.2219">valueOf(String): Role</text></g><!--class UserManagementService--><g id="elem_UserManagementService"><rect codeLine="23" fill="#F1F1F1" height="42.7219" id="UserManagementService" rx="1.5" ry="1.5" style="stroke:#181818;stroke-width:0.3;" width="384.3797" x="1510.5" y="621.9082"/><ellipse cx="1652.7524" cy="635.2828" fill="#B4A7E5" rx="6.6" ry="6.6" style="stroke:#181818;stroke-width:0.6;"/><path d="M1653.3243,633.2672 L1653.3243,637.2609 L1654.3556,637.2609 Q1654.7212,637.2609 1654.8806,637.4016 Q1655.0399,637.5422 1655.0399,637.7766 Q1655.0399,638.0016 1654.8806,638.1422 Q1654.7212,638.2828 1654.3556,638.2828 L1651.2712,638.2828 Q1650.9056,638.2828 1650.7462,638.1422 Q1650.5868,638.0016 1650.5868,637.7672 Q1650.5868,637.5422 1650.7462,637.4016 Q1650.9056,637.2609 1651.2712,637.2609 L1652.3024,637.2609 L1652.3024,633.2672 L1651.2712,633.2672 Q1650.9056,633.2672 1650.7462,633.1266 Q1650.5868,632.9859 1650.5868,632.7516 Q1650.5868,632.5266 1650.7462,632.3859 Q1650.9056,632.2453 1651.2712,632.2453 L1654.3556,632.2453 Q1654.7212,632.2453 1654.8806,632.3859 Q1655.0399,632.5266 1655.0399,632.7516 Q1655.0399,632.9859 1654.8806,633.1266 Q1654.7212,633.2672 1654.3556,633.2672 L1653.3243,633.2672 Z " fill="#000000"/><text fill="#000000" font-family="sans-serif" font-size="7.2" font-style="italic" lengthAdjust="spacing" textLength="70.0207" x="1677.4295" y="632.6777">&#171;Framework Service&#187;</text><text fill="#000000" font-family="sans-serif" font-size="8.4" font-style="italic" lengthAdjust="spacing" textLength="94.7748" x="1665.0524" y="643.5492">UserManagementService</text><line style="stroke:#181818;stroke-width:0.3;" x1="1511.1" x2="1894.2797" y1="648.6574" y2="648.6574"/><ellipse cx="1517.1" cy="657.5437" fill="#84BE84" rx="1.8" ry="1.8" style="stroke:#038048;stroke-width:0.6;"/><text fill="#000000" font-family="sans-serif" font-size="8.4" lengthAdjust="spacing" textLength="368.7797" x="1522.5" y="660.1219">registerNewUser(username, password, firstName, lastName, email, roles, createdOn): SystemUser</text></g><!--class AddSystemUserController--><g id="elem_AddSystemUserController"><rect codeLine="27" fill="#F1F1F1" height="84.6633" id="AddSystemUserController" rx="1.5" ry="1.5" style="stroke:#181818;stroke-width:0.3;" width="309.6902" x="1585.8" y="759.0082"/><ellipse cx="1689.5449" cy="768.6082" fill="#ADD1B2" rx="6.6" ry="6.6" style="stroke:#181818;stroke-width:0.6;"/><path d="M1691.2043,766.1332 Q1691.298,766.002 1691.4105,765.9363 Q1691.523,765.8707 1691.6543,765.8707 Q1691.8793,765.8707 1692.0199,766.0301 Q1692.1605,766.1801 1692.1605,766.5457 L1692.1605,767.4176 Q1692.1605,767.7832 1692.0199,767.9426 Q1691.8793,768.102 1691.6543,768.102 Q1691.448,768.102 1691.3262,767.9801 Q1691.2043,767.8676 1691.1387,767.5582 Q1691.1105,767.3426 1690.998,767.2301 Q1690.8012,767.0051 1690.4355,766.8738 Q1690.0699,766.7426 1689.6949,766.7426 Q1689.2355,766.7426 1688.8512,766.9395 Q1688.4762,767.1363 1688.1762,767.5863 Q1687.8855,768.0363 1687.8855,768.6551 L1687.8855,769.3113 Q1687.8855,770.052 1688.4199,770.5488 Q1688.9543,771.0363 1689.9105,771.0363 Q1690.473,771.0363 1690.8668,770.8863 Q1691.1012,770.7926 1691.3543,770.5301 Q1691.5137,770.3707 1691.598,770.3238 Q1691.6918,770.277 1691.8137,770.277 Q1692.0105,770.277 1692.1605,770.4363 Q1692.3199,770.5863 1692.3199,770.7926 Q1692.3199,770.9988 1692.1137,771.2426 Q1691.8137,771.5895 1691.3355,771.7863 Q1690.6887,772.0582 1689.9105,772.0582 Q1689.0012,772.0582 1688.2793,771.6832 Q1687.6887,771.3832 1687.2762,770.7457 Q1686.8637,770.0988 1686.8637,769.3301 L1686.8637,768.6363 Q1686.8637,767.8395 1687.2293,767.1551 Q1687.6043,766.4613 1688.2605,766.0957 Q1688.9168,765.7207 1689.6574,765.7207 Q1690.098,765.7207 1690.4824,765.8238 Q1690.8762,765.9176 1691.2043,766.1332 Z " fill="#000000"/><text fill="#000000" font-family="sans-serif" font-size="8.4" lengthAdjust="spacing" textLength="97.1004" x="1701.8449" y="772.0863">AddSystemUserController</text><line style="stroke:#181818;stroke-width:0.3;" x1="1586.4" x2="1894.8902" y1="778.2082" y2="778.2082"/><rect fill="none" height="3.6" style="stroke:#C82930;stroke-width:0.6;" width="3.6" x="1590.6" y="785.2945"/><text fill="#000000" font-family="sans-serif" font-size="8.4" lengthAdjust="spacing" textLength="102.2561" x="1597.8" y="789.6727">authz: AuthorizationService</text><rect fill="none" height="3.6" style="stroke:#C82930;stroke-width:0.6;" width="3.6" x="1590.6" y="796.4672"/><text fill="#000000" font-family="sans-serif" font-size="8.4" lengthAdjust="spacing" textLength="129.7857" x="1597.8" y="800.8453">userSvc: UserManagementService</text><line style="stroke:#181818;stroke-width:0.6;" x1="1586.4" x2="1894.8902" y1="805.3535" y2="805.3535"/><ellipse cx="1592.4" cy="814.2398" fill="#84BE84" rx="1.8" ry="1.8" style="stroke:#038048;stroke-width:0.6;"/><text fill="#000000" font-family="sans-serif" font-size="8.4" lengthAdjust="spacing" textLength="294.0902" x="1597.8" y="816.818">addUser(username, password, firstName, lastName, email, roles): SystemUser</text><ellipse cx="1592.4" cy="825.4125" fill="#84BE84" rx="1.8" ry="1.8" style="stroke:#038048;stroke-width:0.6;"/><text fill="#000000" font-family="sans-serif" font-size="8.4" lengthAdjust="spacing" textLength="141.0035" x="1597.8" y="827.9906">getRoleTypesAdmin(): Iterable&lt;Role&gt;</text><ellipse cx="1592.4" cy="836.5852" fill="#84BE84" rx="1.8" ry="1.8" style="stroke:#038048;stroke-width:0.6;"/><text fill="#000000" font-family="sans-serif" font-size="8.4" lengthAdjust="spacing" textLength="156.4131" x="1597.8" y="839.1633">getRoleTypesNonAdmin(): Iterable&lt;Role&gt;</text></g><!--class ShodroneUser--><g id="elem_ShodroneUser"><rect codeLine="40" fill="#F1F1F1" height="159.2484" id="ShodroneUser" rx="1.5" ry="1.5" style="stroke:#181818;stroke-width:0.3;" width="357.8098" x="13.2" y="175.8082"/><ellipse cx="162.4723" cy="189.1828" fill="#ADD1B2" rx="6.6" ry="6.6" style="stroke:#181818;stroke-width:0.6;"/><path d="M164.1316,186.7078 Q164.2254,186.5766 164.3379,186.5109 Q164.4504,186.4453 164.5816,186.4453 Q164.8066,186.4453 164.9473,186.6047 Q165.0879,186.7547 165.0879,187.1203 L165.0879,187.9922 Q165.0879,188.3578 164.9473,188.5172 Q164.8066,188.6766 164.5816,188.6766 Q164.3754,188.6766 164.2535,188.5547 Q164.1316,188.4422 164.066,188.1328 Q164.0379,187.9172 163.9254,187.8047 Q163.7285,187.5797 163.3629,187.4484 Q162.9973,187.3172 162.6223,187.3172 Q162.1629,187.3172 161.7785,187.5141 Q161.4035,187.7109 161.1035,188.1609 Q160.8129,188.6109 160.8129,189.2297 L160.8129,189.8859 Q160.8129,190.6266 161.3473,191.1234 Q161.8816,191.6109 162.8379,191.6109 Q163.4004,191.6109 163.7941,191.4609 Q164.0285,191.3672 164.2816,191.1047 Q164.441,190.9453 164.5254,190.8984 Q164.6191,190.8516 164.741,190.8516 Q164.9379,190.8516 165.0879,191.0109 Q165.2473,191.1609 165.2473,191.3672 Q165.2473,191.5734 165.041,191.8172 Q164.741,192.1641 164.2629,192.3609 Q163.616,192.6328 162.8379,192.6328 Q161.9285,192.6328 161.2066,192.2578 Q160.616,191.9578 160.2035,191.3203 Q159.791,190.6734 159.791,189.9047 L159.791,189.2109 Q159.791,188.4141 160.1566,187.7297 Q160.5316,187.0359 161.1879,186.6703 Q161.8441,186.2953 162.5848,186.2953 Q163.0254,186.2953 163.4098,186.3984 Q163.8035,186.4922 164.1316,186.7078 Z " fill="#000000"/><text fill="#000000" font-family="sans-serif" font-size="7.2" font-style="italic" lengthAdjust="spacing" textLength="56.4434" x="173.6332" y="186.5777">&#171;AggregateRoot&#187;</text><text fill="#000000" font-family="sans-serif" font-size="8.4" lengthAdjust="spacing" textLength="54.1652" x="174.7723" y="197.4492">ShodroneUser</text><line style="stroke:#181818;stroke-width:0.3;" x1="13.8" x2="370.4098" y1="202.5574" y2="202.5574"/><rect fill="none" height="3.6" style="stroke:#C82930;stroke-width:0.6;" width="3.6" x="18" y="209.6437"/><text fill="#000000" font-family="sans-serif" font-size="8.4" lengthAdjust="spacing" textLength="112.0383" x="25.2" y="214.0219">vatNumber: VATNumber &#171;ID&#187;</text><rect fill="none" height="3.6" style="stroke:#C82930;stroke-width:0.6;" width="3.6" x="18" y="220.8164"/><text fill="#000000" font-family="sans-serif" font-size="8.4" lengthAdjust="spacing" textLength="112.067" x="25.2" y="225.1945">phoneNumber: PhoneNumber</text><rect fill="none" height="3.6" style="stroke:#C82930;stroke-width:0.6;" width="3.6" x="18" y="231.9891"/><text fill="#000000" font-family="sans-serif" font-size="8.4" lengthAdjust="spacing" textLength="65.3666" x="25.2" y="236.3672">address: Address</text><rect fill="none" height="3.6" style="stroke:#C82930;stroke-width:0.6;" width="3.6" x="18" y="243.1617"/><text fill="#000000" font-family="sans-serif" font-size="8.4" lengthAdjust="spacing" textLength="94.7461" x="25.2" y="247.5398">systemUser: SystemUser</text><rect fill="none" height="3.6" style="stroke:#C82930;stroke-width:0.6;" width="3.6" x="18" y="254.3344"/><text fill="#000000" font-family="sans-serif" font-size="8.4" lengthAdjust="spacing" textLength="215.7012" x="25.2" y="258.7125">customerRepresentatives: List&lt;CustomerRepresentative&gt;</text><line style="stroke:#181818;stroke-width:0.6;" x1="13.8" x2="370.4098" y1="263.2207" y2="263.2207"/><ellipse cx="19.8" cy="272.107" fill="#84BE84" rx="1.8" ry="1.8" style="stroke:#038048;stroke-width:0.6;"/><text fill="#000000" font-family="sans-serif" font-size="8.4" lengthAdjust="spacing" textLength="342.2098" x="25.2" y="274.6852">ShodroneUser(systemUser, phoneNumber, vatNumber, address, customerRepresentatives)</text><ellipse cx="19.8" cy="283.2797" fill="#84BE84" rx="1.8" ry="1.8" style="stroke:#038048;stroke-width:0.6;"/><text fill="#000000" font-family="sans-serif" font-size="8.4" lengthAdjust="spacing" textLength="100.3406" x="25.2" y="285.8578">systemUser(): SystemUser</text><ellipse cx="19.8" cy="294.4523" fill="#84BE84" rx="1.8" ry="1.8" style="stroke:#038048;stroke-width:0.6;"/><text fill="#000000" font-family="sans-serif" font-size="8.4" lengthAdjust="spacing" textLength="97.5557" x="25.2" y="297.0305">vatNumber(): VATNumber</text><ellipse cx="19.8" cy="305.625" fill="#84BE84" rx="1.8" ry="1.8" style="stroke:#038048;stroke-width:0.6;"/><text fill="#000000" font-family="sans-serif" font-size="8.4" lengthAdjust="spacing" textLength="117.6615" x="25.2" y="308.2031">phoneNumber(): PhoneNumber</text><ellipse cx="19.8" cy="316.7977" fill="#84BE84" rx="1.8" ry="1.8" style="stroke:#038048;stroke-width:0.6;"/><text fill="#000000" font-family="sans-serif" font-size="8.4" lengthAdjust="spacing" textLength="70.9611" x="25.2" y="319.3758">address(): Address</text><ellipse cx="19.8" cy="327.9703" fill="#84BE84" rx="1.8" ry="1.8" style="stroke:#038048;stroke-width:0.6;"/><text fill="#000000" font-family="sans-serif" font-size="8.4" lengthAdjust="spacing" textLength="221.2957" x="25.2" y="330.5484">customerRepresentatives(): List&lt;CustomerRepresentative&gt;</text></g><!--class AddShodroneUserController--><g id="elem_AddShodroneUserController"><rect codeLine="55" fill="#F1F1F1" height="84.6633" id="AddShodroneUserController" rx="1.5" ry="1.5" style="stroke:#181818;stroke-width:0.3;" width="228.9469" x="391.8" y="213.0082"/><ellipse cx="450.9609" cy="222.6082" fill="#ADD1B2" rx="6.6" ry="6.6" style="stroke:#181818;stroke-width:0.6;"/><path d="M452.6203,220.1332 Q452.7141,220.002 452.8266,219.9363 Q452.9391,219.8707 453.0703,219.8707 Q453.2953,219.8707 453.4359,220.0301 Q453.5766,220.1801 453.5766,220.5457 L453.5766,221.4176 Q453.5766,221.7832 453.4359,221.9426 Q453.2953,222.102 453.0703,222.102 Q452.8641,222.102 452.7422,221.9801 Q452.6203,221.8676 452.5547,221.5582 Q452.5266,221.3426 452.4141,221.2301 Q452.2172,221.0051 451.8516,220.8738 Q451.4859,220.7426 451.1109,220.7426 Q450.6516,220.7426 450.2672,220.9395 Q449.8922,221.1363 449.5922,221.5863 Q449.3016,222.0363 449.3016,222.6551 L449.3016,223.3113 Q449.3016,224.052 449.8359,224.5488 Q450.3703,225.0363 451.3266,225.0363 Q451.8891,225.0363 452.2828,224.8863 Q452.5172,224.7926 452.7703,224.5301 Q452.9297,224.3707 453.0141,224.3238 Q453.1078,224.277 453.2297,224.277 Q453.4266,224.277 453.5766,224.4363 Q453.7359,224.5863 453.7359,224.7926 Q453.7359,224.9988 453.5297,225.2426 Q453.2297,225.5895 452.7516,225.7863 Q452.1047,226.0582 451.3266,226.0582 Q450.4172,226.0582 449.6953,225.6832 Q449.1047,225.3832 448.6922,224.7457 Q448.2797,224.0988 448.2797,223.3301 L448.2797,222.6363 Q448.2797,221.8395 448.6453,221.1551 Q449.0203,220.4613 449.6766,220.0957 Q450.3328,219.7207 451.0734,219.7207 Q451.5141,219.7207 451.8984,219.8238 Q452.2922,219.9176 452.6203,220.1332 Z " fill="#000000"/><text fill="#000000" font-family="sans-serif" font-size="8.4" lengthAdjust="spacing" textLength="105.525" x="463.2609" y="226.0863">AddShodroneUserController</text><line style="stroke:#181818;stroke-width:0.3;" x1="392.4" x2="620.1469" y1="232.2082" y2="232.2082"/><rect fill="none" height="3.6" style="stroke:#C82930;stroke-width:0.6;" width="3.6" x="396.6" y="239.2945"/><text fill="#000000" font-family="sans-serif" font-size="8.4" lengthAdjust="spacing" textLength="129.7857" x="403.8" y="243.6727">userSvc: UserManagementService</text><rect fill="none" height="3.6" style="stroke:#C82930;stroke-width:0.6;" width="3.6" x="396.6" y="250.4672"/><text fill="#000000" font-family="sans-serif" font-size="8.4" lengthAdjust="spacing" textLength="191.8957" x="403.8" y="254.8453">shodroneUserRepository: ShodroneUserRepository</text><line style="stroke:#181818;stroke-width:0.6;" x1="392.4" x2="620.1469" y1="259.3535" y2="259.3535"/><ellipse cx="398.4" cy="268.2398" fill="#84BE84" rx="1.8" ry="1.8" style="stroke:#038048;stroke-width:0.6;"/><text fill="#000000" font-family="sans-serif" font-size="8.4" lengthAdjust="spacing" textLength="213.3469" x="403.8" y="270.818">signup(username, password, firstName, lastName, email,</text><text fill="#000000" font-family="sans-serif" font-size="8.4" lengthAdjust="spacing" textLength="183.0199" x="403.8" y="281.9906">vatNumberInput, streetAddress, postalCode, city,</text><text fill="#000000" font-family="sans-serif" font-size="8.4" lengthAdjust="spacing" textLength="200.3121" x="403.8" y="293.1633">phoneNumberInput, createdOn, roles): ShodroneUser</text></g><!--class VATNumber--><g id="elem_VATNumber"><rect codeLine="64" fill="#F1F1F1" height="58.6945" id="VATNumber" rx="1.5" ry="1.5" style="stroke:#181818;stroke-width:0.3;" width="122.9666" x="123.3" y="425.4082"/><ellipse cx="159.1271" cy="438.7828" fill="#ADD1B2" rx="6.6" ry="6.6" style="stroke:#181818;stroke-width:0.6;"/><path d="M160.7865,436.3078 Q160.8803,436.1766 160.9928,436.1109 Q161.1053,436.0453 161.2365,436.0453 Q161.4615,436.0453 161.6021,436.2047 Q161.7428,436.3547 161.7428,436.7203 L161.7428,437.5922 Q161.7428,437.9578 161.6021,438.1172 Q161.4615,438.2766 161.2365,438.2766 Q161.0303,438.2766 160.9084,438.1547 Q160.7865,438.0422 160.7209,437.7328 Q160.6928,437.5172 160.5803,437.4047 Q160.3834,437.1797 160.0178,437.0484 Q159.6521,436.9172 159.2771,436.9172 Q158.8178,436.9172 158.4334,437.1141 Q158.0584,437.3109 157.7584,437.7609 Q157.4678,438.2109 157.4678,438.8297 L157.4678,439.4859 Q157.4678,440.2266 158.0021,440.7234 Q158.5365,441.2109 159.4928,441.2109 Q160.0553,441.2109 160.449,441.0609 Q160.6834,440.9672 160.9365,440.7047 Q161.0959,440.5453 161.1803,440.4984 Q161.274,440.4516 161.3959,440.4516 Q161.5928,440.4516 161.7428,440.6109 Q161.9021,440.7609 161.9021,440.9672 Q161.9021,441.1734 161.6959,441.4172 Q161.3959,441.7641 160.9178,441.9609 Q160.2709,442.2328 159.4928,442.2328 Q158.5834,442.2328 157.8615,441.8578 Q157.2709,441.5578 156.8584,440.9203 Q156.4459,440.2734 156.4459,439.5047 L156.4459,438.8109 Q156.4459,438.0141 156.8115,437.3297 Q157.1865,436.6359 157.8428,436.2703 Q158.499,435.8953 159.2396,435.8953 Q159.6803,435.8953 160.0646,435.9984 Q160.4584,436.0922 160.7865,436.3078 Z " fill="#000000"/><text fill="#000000" font-family="sans-serif" font-size="7.2" font-style="italic" lengthAdjust="spacing" textLength="47.2324" x="170.9171" y="436.1777">&#171;ValueObject&#187;</text><text fill="#000000" font-family="sans-serif" font-size="8.4" lengthAdjust="spacing" textLength="46.2123" x="171.4271" y="447.0492">VATNumber</text><line style="stroke:#181818;stroke-width:0.3;" x1="123.9" x2="245.6666" y1="452.1574" y2="452.1574"/><rect fill="none" height="3.6" style="stroke:#C82930;stroke-width:0.6;" width="3.6" x="128.1" y="459.2438"/><text fill="#000000" font-family="sans-serif" font-size="8.4" lengthAdjust="spacing" textLength="67.6922" x="135.3" y="463.6219">vatNumber: String</text><line style="stroke:#181818;stroke-width:0.6;" x1="123.9" x2="245.6666" y1="468.1301" y2="468.1301"/><ellipse cx="129.9" cy="477.0164" fill="#84BE84" rx="1.8" ry="1.8" style="stroke:#038048;stroke-width:0.6;"/><text fill="#000000" font-family="sans-serif" font-size="8.4" lengthAdjust="spacing" textLength="107.3666" x="135.3" y="479.5945">valueOf(String): VATNumber</text></g><!--class PhoneNumber--><g id="elem_PhoneNumber"><rect codeLine="70" fill="#F1F1F1" height="58.6945" id="PhoneNumber" rx="1.5" ry="1.5" style="stroke:#181818;stroke-width:0.3;" width="130.9195" x="267.6" y="425.4082"/><ellipse cx="303.4271" cy="438.7828" fill="#ADD1B2" rx="6.6" ry="6.6" style="stroke:#181818;stroke-width:0.6;"/><path d="M305.0865,436.3078 Q305.1803,436.1766 305.2928,436.1109 Q305.4053,436.0453 305.5365,436.0453 Q305.7615,436.0453 305.9021,436.2047 Q306.0428,436.3547 306.0428,436.7203 L306.0428,437.5922 Q306.0428,437.9578 305.9021,438.1172 Q305.7615,438.2766 305.5365,438.2766 Q305.3303,438.2766 305.2084,438.1547 Q305.0865,438.0422 305.0209,437.7328 Q304.9928,437.5172 304.8803,437.4047 Q304.6834,437.1797 304.3178,437.0484 Q303.9521,436.9172 303.5771,436.9172 Q303.1178,436.9172 302.7334,437.1141 Q302.3584,437.3109 302.0584,437.7609 Q301.7678,438.2109 301.7678,438.8297 L301.7678,439.4859 Q301.7678,440.2266 302.3021,440.7234 Q302.8365,441.2109 303.7928,441.2109 Q304.3553,441.2109 304.749,441.0609 Q304.9834,440.9672 305.2365,440.7047 Q305.3959,440.5453 305.4803,440.4984 Q305.574,440.4516 305.6959,440.4516 Q305.8928,440.4516 306.0428,440.6109 Q306.2021,440.7609 306.2021,440.9672 Q306.2021,441.1734 305.9959,441.4172 Q305.6959,441.7641 305.2178,441.9609 Q304.5709,442.2328 303.7928,442.2328 Q302.8834,442.2328 302.1615,441.8578 Q301.5709,441.5578 301.1584,440.9203 Q300.7459,440.2734 300.7459,439.5047 L300.7459,438.8109 Q300.7459,438.0141 301.1115,437.3297 Q301.4865,436.6359 302.1428,436.2703 Q302.799,435.8953 303.5396,435.8953 Q303.9803,435.8953 304.3646,435.9984 Q304.7584,436.0922 305.0865,436.3078 Z " fill="#000000"/><text fill="#000000" font-family="sans-serif" font-size="7.2" font-style="italic" lengthAdjust="spacing" textLength="47.2324" x="319.1936" y="436.1777">&#171;ValueObject&#187;</text><text fill="#000000" font-family="sans-serif" font-size="8.4" lengthAdjust="spacing" textLength="54.1652" x="315.7271" y="447.0492">PhoneNumber</text><line style="stroke:#181818;stroke-width:0.3;" x1="268.2" x2="397.9195" y1="452.1574" y2="452.1574"/><rect fill="none" height="3.6" style="stroke:#C82930;stroke-width:0.6;" width="3.6" x="272.4" y="459.2438"/><text fill="#000000" font-family="sans-serif" font-size="8.4" lengthAdjust="spacing" textLength="79.8451" x="279.6" y="463.6219">phoneNumber: String</text><line style="stroke:#181818;stroke-width:0.6;" x1="268.2" x2="397.9195" y1="468.1301" y2="468.1301"/><ellipse cx="274.2" cy="477.0164" fill="#84BE84" rx="1.8" ry="1.8" style="stroke:#038048;stroke-width:0.6;"/><text fill="#000000" font-family="sans-serif" font-size="8.4" lengthAdjust="spacing" textLength="115.3195" x="279.6" y="479.5945">valueOf(String): PhoneNumber</text></g><!--class Address--><g id="elem_Address"><rect codeLine="76" fill="#F1F1F1" height="81.0398" id="Address" rx="1.5" ry="1.5" style="stroke:#181818;stroke-width:0.3;" width="201.8807" x="419.4" y="414.3082"/><ellipse cx="495.3741" cy="427.6828" fill="#ADD1B2" rx="6.6" ry="6.6" style="stroke:#181818;stroke-width:0.6;"/><path d="M497.0335,425.2078 Q497.1272,425.0766 497.2397,425.0109 Q497.3522,424.9453 497.4835,424.9453 Q497.7085,424.9453 497.8491,425.1047 Q497.9897,425.2547 497.9897,425.6203 L497.9897,426.4922 Q497.9897,426.8578 497.8491,427.0172 Q497.7085,427.1766 497.4835,427.1766 Q497.2772,427.1766 497.1554,427.0547 Q497.0335,426.9422 496.9679,426.6328 Q496.9397,426.4172 496.8272,426.3047 Q496.6304,426.0797 496.2647,425.9484 Q495.8991,425.8172 495.5241,425.8172 Q495.0647,425.8172 494.6804,426.0141 Q494.3054,426.2109 494.0054,426.6609 Q493.7147,427.1109 493.7147,427.7297 L493.7147,428.3859 Q493.7147,429.1266 494.2491,429.6234 Q494.7835,430.1109 495.7397,430.1109 Q496.3022,430.1109 496.696,429.9609 Q496.9304,429.8672 497.1835,429.6047 Q497.3429,429.4453 497.4272,429.3984 Q497.521,429.3516 497.6429,429.3516 Q497.8397,429.3516 497.9897,429.5109 Q498.1491,429.6609 498.1491,429.8672 Q498.1491,430.0734 497.9429,430.3172 Q497.6429,430.6641 497.1647,430.8609 Q496.5179,431.1328 495.7397,431.1328 Q494.8304,431.1328 494.1085,430.7578 Q493.5179,430.4578 493.1054,429.8203 Q492.6929,429.1734 492.6929,428.4047 L492.6929,427.7109 Q492.6929,426.9141 493.0585,426.2297 Q493.4335,425.5359 494.0897,425.1703 Q494.746,424.7953 495.4866,424.7953 Q495.9272,424.7953 496.3116,424.8984 Q496.7054,424.9922 497.0335,425.2078 Z " fill="#000000"/><text fill="#000000" font-family="sans-serif" font-size="7.2" font-style="italic" lengthAdjust="spacing" textLength="47.2324" x="506.4741" y="425.0777">&#171;ValueObject&#187;</text><text fill="#000000" font-family="sans-serif" font-size="8.4" lengthAdjust="spacing" textLength="30.815" x="514.6828" y="435.9492">Address</text><line style="stroke:#181818;stroke-width:0.3;" x1="420" x2="620.6807" y1="441.0574" y2="441.0574"/><rect fill="none" height="3.6" style="stroke:#C82930;stroke-width:0.6;" width="3.6" x="424.2" y="448.1438"/><text fill="#000000" font-family="sans-serif" font-size="8.4" lengthAdjust="spacing" textLength="78.4342" x="431.4" y="452.5219">streetAddress: String</text><rect fill="none" height="3.6" style="stroke:#C82930;stroke-width:0.6;" width="3.6" x="424.2" y="459.3164"/><text fill="#000000" font-family="sans-serif" font-size="8.4" lengthAdjust="spacing" textLength="69.1072" x="431.4" y="463.6945">postalCode: String</text><rect fill="none" height="3.6" style="stroke:#C82930;stroke-width:0.6;" width="3.6" x="424.2" y="470.4891"/><text fill="#000000" font-family="sans-serif" font-size="8.4" lengthAdjust="spacing" textLength="39.2109" x="431.4" y="474.8672">city: String</text><line style="stroke:#181818;stroke-width:0.6;" x1="420" x2="620.6807" y1="479.3754" y2="479.3754"/><ellipse cx="426" cy="488.2617" fill="#84BE84" rx="1.8" ry="1.8" style="stroke:#038048;stroke-width:0.6;"/><text fill="#000000" font-family="sans-serif" font-size="8.4" lengthAdjust="spacing" textLength="186.2807" x="431.4" y="490.8398">valueOf(streetAddress, postalCode, city): Address</text></g><!--class CustomerRepresentative--><g id="elem_CustomerRepresentative"><rect codeLine="88" fill="#F1F1F1" height="92.2125" id="CustomerRepresentative" rx="1.5" ry="1.5" style="stroke:#181818;stroke-width:0.3;" width="276.0984" x="654.6" y="408.6082"/><ellipse cx="743.6449" cy="421.9828" fill="#ADD1B2" rx="6.6" ry="6.6" style="stroke:#181818;stroke-width:0.6;"/><path d="M745.3043,419.5078 Q745.398,419.3766 745.5105,419.3109 Q745.623,419.2453 745.7543,419.2453 Q745.9793,419.2453 746.1199,419.4047 Q746.2605,419.5547 746.2605,419.9203 L746.2605,420.7922 Q746.2605,421.1578 746.1199,421.3172 Q745.9793,421.4766 745.7543,421.4766 Q745.548,421.4766 745.4262,421.3547 Q745.3043,421.2422 745.2387,420.9328 Q745.2105,420.7172 745.098,420.6047 Q744.9012,420.3797 744.5355,420.2484 Q744.1699,420.1172 743.7949,420.1172 Q743.3355,420.1172 742.9512,420.3141 Q742.5762,420.5109 742.2762,420.9609 Q741.9855,421.4109 741.9855,422.0297 L741.9855,422.6859 Q741.9855,423.4266 742.5199,423.9234 Q743.0543,424.4109 744.0105,424.4109 Q744.573,424.4109 744.9668,424.2609 Q745.2012,424.1672 745.4543,423.9047 Q745.6137,423.7453 745.698,423.6984 Q745.7918,423.6516 745.9137,423.6516 Q746.1105,423.6516 746.2605,423.8109 Q746.4199,423.9609 746.4199,424.1672 Q746.4199,424.3734 746.2137,424.6172 Q745.9137,424.9641 745.4355,425.1609 Q744.7887,425.4328 744.0105,425.4328 Q743.1012,425.4328 742.3793,425.0578 Q741.7887,424.7578 741.3762,424.1203 Q740.9637,423.4734 740.9637,422.7047 L740.9637,422.0109 Q740.9637,421.2141 741.3293,420.5297 Q741.7043,419.8359 742.3605,419.4703 Q743.0168,419.0953 743.7574,419.0953 Q744.198,419.0953 744.5824,419.1984 Q744.9762,419.2922 745.3043,419.5078 Z " fill="#000000"/><text fill="#000000" font-family="sans-serif" font-size="7.2" font-style="italic" lengthAdjust="spacing" textLength="26.0156" x="789.3914" y="419.3777">&#171;Entity&#187;</text><text fill="#000000" font-family="sans-serif" font-size="8.4" lengthAdjust="spacing" textLength="92.9086" x="755.9449" y="430.2492">CustomerRepresentative</text><line style="stroke:#181818;stroke-width:0.3;" x1="655.2" x2="930.0984" y1="435.3574" y2="435.3574"/><rect fill="none" height="3.6" style="stroke:#C82930;stroke-width:0.6;" width="3.6" x="659.4" y="442.4437"/><text fill="#000000" font-family="sans-serif" font-size="8.4" lengthAdjust="spacing" textLength="49.9693" x="666.6" y="446.8219">id: Long &#171;ID&#187;</text><rect fill="none" height="3.6" style="stroke:#C82930;stroke-width:0.6;" width="3.6" x="659.4" y="453.6164"/><text fill="#000000" font-family="sans-serif" font-size="8.4" lengthAdjust="spacing" textLength="94.7461" x="666.6" y="457.9945">systemUser: SystemUser</text><rect fill="none" height="3.6" style="stroke:#C82930;stroke-width:0.6;" width="3.6" x="659.4" y="464.7891"/><text fill="#000000" font-family="sans-serif" font-size="8.4" lengthAdjust="spacing" textLength="112.067" x="666.6" y="469.1672">phoneNumber: PhoneNumber</text><rect fill="none" height="3.6" style="stroke:#C82930;stroke-width:0.6;" width="3.6" x="659.4" y="475.9617"/><text fill="#000000" font-family="sans-serif" font-size="8.4" lengthAdjust="spacing" textLength="116.71" x="666.6" y="480.3398">companyEmail: CompanyEmail</text><line style="stroke:#181818;stroke-width:0.6;" x1="655.2" x2="930.0984" y1="484.848" y2="484.848"/><ellipse cx="661.2" cy="493.7344" fill="#84BE84" rx="1.8" ry="1.8" style="stroke:#038048;stroke-width:0.6;"/><text fill="#000000" font-family="sans-serif" font-size="8.4" lengthAdjust="spacing" textLength="260.4984" x="666.6" y="496.3125">CustomerRepresentative(systemUser, phoneNumber, companyEmail)</text></g><!--class CompanyEmail--><g id="elem_CompanyEmail"><rect codeLine="97" fill="#F1F1F1" height="58.6945" id="CompanyEmail" rx="1.5" ry="1.5" style="stroke:#181818;stroke-width:0.3;" width="133.7086" x="725.7" y="613.8082"/><ellipse cx="761.5271" cy="627.1828" fill="#ADD1B2" rx="6.6" ry="6.6" style="stroke:#181818;stroke-width:0.6;"/><path d="M763.1865,624.7078 Q763.2803,624.5766 763.3928,624.5109 Q763.5053,624.4453 763.6365,624.4453 Q763.8615,624.4453 764.0021,624.6047 Q764.1428,624.7547 764.1428,625.1203 L764.1428,625.9922 Q764.1428,626.3578 764.0021,626.5172 Q763.8615,626.6766 763.6365,626.6766 Q763.4303,626.6766 763.3084,626.5547 Q763.1865,626.4422 763.1209,626.1328 Q763.0928,625.9172 762.9803,625.8047 Q762.7834,625.5797 762.4178,625.4484 Q762.0521,625.3172 761.6771,625.3172 Q761.2178,625.3172 760.8334,625.5141 Q760.4584,625.7109 760.1584,626.1609 Q759.8678,626.6109 759.8678,627.2297 L759.8678,627.8859 Q759.8678,628.6266 760.4021,629.1234 Q760.9365,629.6109 761.8928,629.6109 Q762.4553,629.6109 762.849,629.4609 Q763.0834,629.3672 763.3365,629.1047 Q763.4959,628.9453 763.5803,628.8984 Q763.674,628.8516 763.7959,628.8516 Q763.9928,628.8516 764.1428,629.0109 Q764.3021,629.1609 764.3021,629.3672 Q764.3021,629.5734 764.0959,629.8172 Q763.7959,630.1641 763.3178,630.3609 Q762.6709,630.6328 761.8928,630.6328 Q760.9834,630.6328 760.2615,630.2578 Q759.6709,629.9578 759.2584,629.3203 Q758.8459,628.6734 758.8459,627.9047 L758.8459,627.2109 Q758.8459,626.4141 759.2115,625.7297 Q759.5865,625.0359 760.2428,624.6703 Q760.899,624.2953 761.6396,624.2953 Q762.0803,624.2953 762.4646,624.3984 Q762.8584,624.4922 763.1865,624.7078 Z " fill="#000000"/><text fill="#000000" font-family="sans-serif" font-size="7.2" font-style="italic" lengthAdjust="spacing" textLength="47.2324" x="778.6881" y="624.5777">&#171;ValueObject&#187;</text><text fill="#000000" font-family="sans-serif" font-size="8.4" lengthAdjust="spacing" textLength="56.9543" x="773.8271" y="635.4492">CompanyEmail</text><line style="stroke:#181818;stroke-width:0.3;" x1="726.3" x2="858.8086" y1="640.5574" y2="640.5574"/><rect fill="none" height="3.6" style="stroke:#C82930;stroke-width:0.6;" width="3.6" x="730.5" y="647.6438"/><text fill="#000000" font-family="sans-serif" font-size="8.4" lengthAdjust="spacing" textLength="81.699" x="737.7" y="652.0219">companyEmail: String</text><line style="stroke:#181818;stroke-width:0.6;" x1="726.3" x2="858.8086" y1="656.5301" y2="656.5301"/><ellipse cx="732.3" cy="665.4164" fill="#84BE84" rx="1.8" ry="1.8" style="stroke:#038048;stroke-width:0.6;"/><text fill="#000000" font-family="sans-serif" font-size="8.4" lengthAdjust="spacing" textLength="118.1086" x="737.7" y="667.9945">valueOf(String): CompanyEmail</text></g><!--class CustomerRepresentativeDefaultValues--><g id="elem_CustomerRepresentativeDefaultValues"><rect codeLine="103" fill="#F1F1F1" height="62.318" id="CustomerRepresentativeDefaultValues" rx="1.5" ry="1.5" style="stroke:#181818;stroke-width:0.3;" width="244.3318" x="951.9" y="423.6082"/><ellipse cx="998.9121" cy="433.2082" fill="#ADD1B2" rx="6.6" ry="6.6" style="stroke:#181818;stroke-width:0.6;"/><path d="M1000.5715,430.7332 Q1000.6652,430.602 1000.7777,430.5363 Q1000.8902,430.4707 1001.0215,430.4707 Q1001.2465,430.4707 1001.3871,430.6301 Q1001.5277,430.7801 1001.5277,431.1457 L1001.5277,432.0176 Q1001.5277,432.3832 1001.3871,432.5426 Q1001.2465,432.702 1001.0215,432.702 Q1000.8152,432.702 1000.6934,432.5801 Q1000.5715,432.4676 1000.5059,432.1582 Q1000.4777,431.9426 1000.3652,431.8301 Q1000.1684,431.6051 999.8027,431.4738 Q999.4371,431.3426 999.0621,431.3426 Q998.6027,431.3426 998.2184,431.5395 Q997.8434,431.7363 997.5434,432.1863 Q997.2527,432.6363 997.2527,433.2551 L997.2527,433.9113 Q997.2527,434.652 997.7871,435.1488 Q998.3215,435.6363 999.2777,435.6363 Q999.8402,435.6363 1000.234,435.4863 Q1000.4684,435.3926 1000.7215,435.1301 Q1000.8809,434.9707 1000.9652,434.9238 Q1001.059,434.877 1001.1809,434.877 Q1001.3777,434.877 1001.5277,435.0363 Q1001.6871,435.1863 1001.6871,435.3926 Q1001.6871,435.5988 1001.4809,435.8426 Q1001.1809,436.1895 1000.7027,436.3863 Q1000.0559,436.6582 999.2777,436.6582 Q998.3684,436.6582 997.6465,436.2832 Q997.0559,435.9832 996.6434,435.3457 Q996.2309,434.6988 996.2309,433.9301 L996.2309,433.2363 Q996.2309,432.4395 996.5965,431.7551 Q996.9715,431.0613 997.6277,430.6957 Q998.284,430.3207 999.0246,430.3207 Q999.4652,430.3207 999.8496,430.4238 Q1000.2434,430.5176 1000.5715,430.7332 Z " fill="#000000"/><text fill="#000000" font-family="sans-serif" font-size="8.4" lengthAdjust="spacing" textLength="145.2076" x="1011.2121" y="436.6863">CustomerRepresentativeDefaultValues</text><line style="stroke:#181818;stroke-width:0.3;" x1="952.5" x2="1195.6318" y1="442.8082" y2="442.8082"/><line style="stroke:#181818;stroke-width:0.6;" x1="952.5" x2="1195.6318" y1="447.6082" y2="447.6082"/><ellipse cx="958.5" cy="456.4945" fill="#84BE84" rx="1.8" ry="1.8" style="stroke:#038048;stroke-width:0.6;"/><text fill="#000000" font-family="sans-serif" font-size="8.4" lengthAdjust="spacing" text-decoration="underline" textLength="102.7195" x="963.9" y="459.0727">buildRepresentativeDetails(</text><text fill="#000000" font-family="sans-serif" font-size="8.4" lengthAdjust="spacing" textLength="228.7318" x="963.9" y="470.2453">customerUsername, customerFirstName, customerLastName</text><text fill="#000000" font-family="sans-serif" font-size="8.4" lengthAdjust="spacing" textLength="147.9803" x="963.9" y="481.418">): SystemUserDetailsForRepresentative</text></g><!--class SystemUserDetailsForRepresentative--><g id="elem_SystemUserDetailsForRepresentative"><rect codeLine="110" fill="#F1F1F1" height="109.7578" id="SystemUserDetailsForRepresentative" rx="1.5" ry="1.5" style="stroke:#181818;stroke-width:0.3;" width="159.7154" x="994.2" y="588.3082"/><ellipse cx="1003.2" cy="601.6828" fill="#ADD1B2" rx="6.6" ry="6.6" style="stroke:#181818;stroke-width:0.6;"/><path d="M1004.8594,599.2078 Q1004.9531,599.0766 1005.0656,599.0109 Q1005.1781,598.9453 1005.3094,598.9453 Q1005.5344,598.9453 1005.675,599.1047 Q1005.8156,599.2547 1005.8156,599.6203 L1005.8156,600.4922 Q1005.8156,600.8578 1005.675,601.0172 Q1005.5344,601.1766 1005.3094,601.1766 Q1005.1031,601.1766 1004.9812,601.0547 Q1004.8594,600.9422 1004.7937,600.6328 Q1004.7656,600.4172 1004.6531,600.3047 Q1004.4563,600.0797 1004.0906,599.9484 Q1003.725,599.8172 1003.35,599.8172 Q1002.8906,599.8172 1002.5062,600.0141 Q1002.1312,600.2109 1001.8313,600.6609 Q1001.5406,601.1109 1001.5406,601.7297 L1001.5406,602.3859 Q1001.5406,603.1266 1002.075,603.6234 Q1002.6094,604.1109 1003.5656,604.1109 Q1004.1281,604.1109 1004.5219,603.9609 Q1004.7562,603.8672 1005.0094,603.6047 Q1005.1687,603.4453 1005.2531,603.3984 Q1005.3469,603.3516 1005.4688,603.3516 Q1005.6656,603.3516 1005.8156,603.5109 Q1005.975,603.6609 1005.975,603.8672 Q1005.975,604.0734 1005.7688,604.3172 Q1005.4688,604.6641 1004.9906,604.8609 Q1004.3438,605.1328 1003.5656,605.1328 Q1002.6563,605.1328 1001.9344,604.7578 Q1001.3438,604.4578 1000.9313,603.8203 Q1000.5188,603.1734 1000.5188,602.4047 L1000.5188,601.7109 Q1000.5188,600.9141 1000.8844,600.2297 Q1001.2594,599.5359 1001.9156,599.1703 Q1002.5719,598.7953 1003.3125,598.7953 Q1003.7531,598.7953 1004.1375,598.8984 Q1004.5313,598.9922 1004.8594,599.2078 Z " fill="#000000"/><text fill="#000000" font-family="sans-serif" font-size="7.2" font-style="italic" lengthAdjust="spacing" textLength="23.2066" x="1070.2544" y="599.0777">&#171;DTO&#187;</text><text fill="#000000" font-family="sans-serif" font-size="8.4" lengthAdjust="spacing" textLength="140.5154" x="1011.6" y="609.9492">SystemUserDetailsForRepresentative</text><line style="stroke:#181818;stroke-width:0.3;" x1="994.8" x2="1153.3154" y1="615.0574" y2="615.0574"/><ellipse cx="1000.8" cy="623.9438" fill="none" rx="1.8" ry="1.8" style="stroke:#038048;stroke-width:0.6;"/><text fill="#000000" font-family="sans-serif" font-size="8.4" lengthAdjust="spacing" textLength="63.9639" x="1006.2" y="626.5219">username: String</text><ellipse cx="1000.8" cy="635.1164" fill="none" rx="1.8" ry="1.8" style="stroke:#038048;stroke-width:0.6;"/><text fill="#000000" font-family="sans-serif" font-size="8.4" lengthAdjust="spacing" textLength="62.5611" x="1006.2" y="637.6945">password: String</text><ellipse cx="1000.8" cy="646.2891" fill="none" rx="1.8" ry="1.8" style="stroke:#038048;stroke-width:0.6;"/><text fill="#000000" font-family="sans-serif" font-size="8.4" lengthAdjust="spacing" textLength="62.5488" x="1006.2" y="648.8672">firstName: String</text><ellipse cx="1000.8" cy="657.4617" fill="none" rx="1.8" ry="1.8" style="stroke:#038048;stroke-width:0.6;"/><text fill="#000000" font-family="sans-serif" font-size="8.4" lengthAdjust="spacing" textLength="62.0895" x="1006.2" y="660.0398">lastName: String</text><ellipse cx="1000.8" cy="668.6344" fill="none" rx="1.8" ry="1.8" style="stroke:#038048;stroke-width:0.6;"/><text fill="#000000" font-family="sans-serif" font-size="8.4" lengthAdjust="spacing" textLength="74.2178" x="1006.2" y="671.2125">systemEmail: String</text><ellipse cx="1000.8" cy="679.807" fill="none" rx="1.8" ry="1.8" style="stroke:#038048;stroke-width:0.6;"/><text fill="#000000" font-family="sans-serif" font-size="8.4" lengthAdjust="spacing" textLength="134.0063" x="1006.2" y="682.3852">representativePhoneNumber: String</text><ellipse cx="1000.8" cy="690.9797" fill="none" rx="1.8" ry="1.8" style="stroke:#038048;stroke-width:0.6;"/><text fill="#000000" font-family="sans-serif" font-size="8.4" lengthAdjust="spacing" textLength="136.7953" x="1006.2" y="693.5578">representativeCompanyEmail: String</text></g><!--class AddUserAdminUI--><g id="elem_AddUserAdminUI"><rect codeLine="124" fill="#F1F1F1" height="62.318" id="AddUserAdminUI" rx="1.5" ry="1.5" style="stroke:#181818;stroke-width:0.3;" width="230.3865" x="1615.2" y="38.4082"/><ellipse cx="1695.3979" cy="48.0082" fill="#ADD1B2" rx="6.6" ry="6.6" style="stroke:#181818;stroke-width:0.6;"/><path d="M1697.0572,45.5332 Q1697.151,45.402 1697.2635,45.3363 Q1697.376,45.2707 1697.5072,45.2707 Q1697.7322,45.2707 1697.8729,45.4301 Q1698.0135,45.5801 1698.0135,45.9457 L1698.0135,46.8176 Q1698.0135,47.1832 1697.8729,47.3426 Q1697.7322,47.502 1697.5072,47.502 Q1697.301,47.502 1697.1791,47.3801 Q1697.0572,47.2676 1696.9916,46.9582 Q1696.9635,46.7426 1696.851,46.6301 Q1696.6541,46.4051 1696.2885,46.2738 Q1695.9229,46.1426 1695.5479,46.1426 Q1695.0885,46.1426 1694.7041,46.3395 Q1694.3291,46.5363 1694.0291,46.9863 Q1693.7385,47.4363 1693.7385,48.0551 L1693.7385,48.7113 Q1693.7385,49.452 1694.2729,49.9488 Q1694.8072,50.4363 1695.7635,50.4363 Q1696.326,50.4363 1696.7197,50.2863 Q1696.9541,50.1926 1697.2072,49.9301 Q1697.3666,49.7707 1697.451,49.7238 Q1697.5447,49.677 1697.6666,49.677 Q1697.8635,49.677 1698.0135,49.8363 Q1698.1729,49.9863 1698.1729,50.1926 Q1698.1729,50.3988 1697.9666,50.6426 Q1697.6666,50.9895 1697.1885,51.1863 Q1696.5416,51.4582 1695.7635,51.4582 Q1694.8541,51.4582 1694.1322,51.0832 Q1693.5416,50.7832 1693.1291,50.1457 Q1692.7166,49.4988 1692.7166,48.7301 L1692.7166,48.0363 Q1692.7166,47.2395 1693.0822,46.5551 Q1693.4572,45.8613 1694.1135,45.4957 Q1694.7697,45.1207 1695.5104,45.1207 Q1695.951,45.1207 1696.3354,45.2238 Q1696.7291,45.3176 1697.0572,45.5332 Z " fill="#000000"/><text fill="#000000" font-family="sans-serif" font-size="8.4" lengthAdjust="spacing" textLength="64.8908" x="1707.6979" y="51.4863">AddUserAdminUI</text><line style="stroke:#181818;stroke-width:0.3;" x1="1615.8" x2="1844.9865" y1="57.6082" y2="57.6082"/><rect fill="none" height="3.6" style="stroke:#C82930;stroke-width:0.6;" width="3.6" x="1620" y="64.6945"/><text fill="#000000" font-family="sans-serif" font-size="8.4" lengthAdjust="spacing" textLength="149.8588" x="1627.2" y="69.0727">theController: AddSystemUserController</text><rect fill="none" height="3.6" style="stroke:#C82930;stroke-width:0.6;" width="3.6" x="1620" y="75.8672"/><text fill="#000000" font-family="sans-serif" font-size="8.4" lengthAdjust="spacing" textLength="214.7865" x="1627.2" y="80.2453">addShodroneUserController: AddShodroneUserController</text><line style="stroke:#181818;stroke-width:0.6;" x1="1615.8" x2="1844.9865" y1="84.7535" y2="84.7535"/><ellipse cx="1621.8" cy="93.6398" fill="#84BE84" rx="1.8" ry="1.8" style="stroke:#038048;stroke-width:0.6;"/><text fill="#000000" font-family="sans-serif" font-size="8.4" lengthAdjust="spacing" textLength="35.9502" x="1627.2" y="96.218">doShow()</text></g><!--class AddUserManagerUI--><g id="elem_AddUserManagerUI"><rect codeLine="131" fill="#F1F1F1" height="62.318" id="AddUserManagerUI" rx="1.5" ry="1.5" style="stroke:#181818;stroke-width:0.3;" width="230.3865" x="1866.6" y="38.4082"/><ellipse cx="1942.1262" cy="48.0082" fill="#ADD1B2" rx="6.6" ry="6.6" style="stroke:#181818;stroke-width:0.6;"/><path d="M1943.7855,45.5332 Q1943.8793,45.402 1943.9918,45.3363 Q1944.1043,45.2707 1944.2355,45.2707 Q1944.4605,45.2707 1944.6012,45.4301 Q1944.7418,45.5801 1944.7418,45.9457 L1944.7418,46.8176 Q1944.7418,47.1832 1944.6012,47.3426 Q1944.4605,47.502 1944.2355,47.502 Q1944.0293,47.502 1943.9074,47.3801 Q1943.7855,47.2676 1943.7199,46.9582 Q1943.6918,46.7426 1943.5793,46.6301 Q1943.3824,46.4051 1943.0168,46.2738 Q1942.6512,46.1426 1942.2762,46.1426 Q1941.8168,46.1426 1941.4324,46.3395 Q1941.0574,46.5363 1940.7574,46.9863 Q1940.4668,47.4363 1940.4668,48.0551 L1940.4668,48.7113 Q1940.4668,49.452 1941.0012,49.9488 Q1941.5355,50.4363 1942.4918,50.4363 Q1943.0543,50.4363 1943.448,50.2863 Q1943.6824,50.1926 1943.9355,49.9301 Q1944.0949,49.7707 1944.1793,49.7238 Q1944.273,49.677 1944.3949,49.677 Q1944.5918,49.677 1944.7418,49.8363 Q1944.9012,49.9863 1944.9012,50.1926 Q1944.9012,50.3988 1944.6949,50.6426 Q1944.3949,50.9895 1943.9168,51.1863 Q1943.2699,51.4582 1942.4918,51.4582 Q1941.5824,51.4582 1940.8605,51.0832 Q1940.2699,50.7832 1939.8574,50.1457 Q1939.4449,49.4988 1939.4449,48.7301 L1939.4449,48.0363 Q1939.4449,47.2395 1939.8105,46.5551 Q1940.1855,45.8613 1940.8418,45.4957 Q1941.498,45.1207 1942.2387,45.1207 Q1942.6793,45.1207 1943.0637,45.2238 Q1943.4574,45.3176 1943.7855,45.5332 Z " fill="#000000"/><text fill="#000000" font-family="sans-serif" font-size="8.4" lengthAdjust="spacing" textLength="74.2342" x="1954.4262" y="51.4863">AddUserManagerUI</text><line style="stroke:#181818;stroke-width:0.3;" x1="1867.2" x2="2096.3865" y1="57.6082" y2="57.6082"/><rect fill="none" height="3.6" style="stroke:#C82930;stroke-width:0.6;" width="3.6" x="1871.4" y="64.6945"/><text fill="#000000" font-family="sans-serif" font-size="8.4" lengthAdjust="spacing" textLength="149.8588" x="1878.6" y="69.0727">theController: AddSystemUserController</text><rect fill="none" height="3.6" style="stroke:#C82930;stroke-width:0.6;" width="3.6" x="1871.4" y="75.8672"/><text fill="#000000" font-family="sans-serif" font-size="8.4" lengthAdjust="spacing" textLength="214.7865" x="1878.6" y="80.2453">addShodroneUserController: AddShodroneUserController</text><line style="stroke:#181818;stroke-width:0.6;" x1="1867.2" x2="2096.3865" y1="84.7535" y2="84.7535"/><ellipse cx="1873.2" cy="93.6398" fill="#84BE84" rx="1.8" ry="1.8" style="stroke:#038048;stroke-width:0.6;"/><text fill="#000000" font-family="sans-serif" font-size="8.4" lengthAdjust="spacing" textLength="35.9502" x="1878.6" y="96.218">doShow()</text></g><!--link SystemUser to Role--><g id="link_SystemUser_Role"><path codeLine="142" d="M1359.6,711.7162 C1359.6,736.3942 1359.6,762.4942 1359.6,779.9962 " fill="none" id="SystemUser-Role" style="stroke:#181818;stroke-width:0.6;"/><text fill="#000000" font-family="sans-serif" font-size="7.8" lengthAdjust="spacing" textLength="12.576" x="1360.2" y="738.6252">has</text><text fill="#000000" font-family="sans-serif" font-size="7.8" lengthAdjust="spacing" textLength="4.338" x="1355.2673" y="724.851">1</text><text fill="#000000" font-family="sans-serif" font-size="7.8" lengthAdjust="spacing" textLength="11.7076" x="1347.1393" y="773.1834">1..*</text></g><!--reverse link UserManagementService to AddSystemUserController--><g id="link_UserManagementService_AddSystemUserController"><path codeLine="145" d="M1708.665,668.1461 C1714.437,692.1101 1723.218,728.5642 1730.55,758.9902 " fill="none" id="UserManagementService-backto-AddSystemUserController" style="stroke:#181818;stroke-width:0.6;"/><polygon fill="#181818" points="1707.822,664.6462,1706.7532,670.4581,1708.5245,667.5628,1711.4198,669.3341,1707.822,664.6462" style="stroke:#181818;stroke-width:0.6;"/><polygon fill="#000000" points="1727.8974,732.4789,1727.4541,738.168,1730.8827,737.3421,1727.8974,732.4789" style="stroke:#000000;stroke-width:0.6;"/><text fill="#000000" font-family="sans-serif" font-size="7.8" lengthAdjust="spacing" textLength="16.476" x="1734" y="738.6252">uses</text></g><!--link AddShodroneUserController to UserManagementService--><g id="link_AddShodroneUserController_UserManagementService"><path codeLine="146" d="M621.138,262.8502 C825.33,276.5122 1242.84,310.7362 1375.8,369.0082 C1514.952,429.9922 1638.8503,566.3105 1683.4243,619.0565 " fill="none" id="AddShodroneUserController-to-UserManagementService" style="stroke:#181818;stroke-width:0.6;"/><polygon fill="#181818" points="1685.748,621.8062,1684.0956,616.1326,1683.8116,619.5148,1680.4294,619.2308,1685.748,621.8062" style="stroke:#181818;stroke-width:0.6;"/><polygon fill="#000000" points="1580.2443,455.8493,1575.6595,452.452,1574.5383,455.7958,1580.2443,455.8493" style="stroke:#000000;stroke-width:0.6;"/><text fill="#000000" font-family="sans-serif" font-size="7.8" lengthAdjust="spacing" textLength="16.476" x="1582.8" y="458.1252">uses</text></g><!--link ShodroneUser to SystemUser--><g id="link_ShodroneUser_SystemUser"><path codeLine="149" d="M370.806,332.3902 C374.214,333.2482 377.616,334.0582 381,334.8082 C470.568,354.6922 1127.802,321.0262 1206,369.0082 C1280.058,414.4462 1321.458,509.4742 1342.146,574.6582 " fill="none" id="ShodroneUser-SystemUser" style="stroke:#181818;stroke-width:0.6;"/><polygon fill="#000000" points="1323.5108,455.6215,1318.6718,452.5972,1317.8184,456.0191,1323.5108,455.6215" style="stroke:#000000;stroke-width:0.6;"/><text fill="#000000" font-family="sans-serif" font-size="7.8" lengthAdjust="spacing" textLength="44.6596" x="1326" y="458.1252">composed of</text><text fill="#000000" font-family="sans-serif" font-size="7.8" lengthAdjust="spacing" textLength="4.338" x="375.6104" y="342.9892">1</text><text fill="#000000" font-family="sans-serif" font-size="7.8" lengthAdjust="spacing" textLength="4.338" x="1336.6951" y="568.1593">1</text></g><!--link ShodroneUser to VATNumber--><g id="link_ShodroneUser_VATNumber"><path codeLine="150" d="M189.132,334.8502 C187.974,366.7162 186.714,401.4802 185.85,425.2342 " fill="none" id="ShodroneUser-VATNumber" style="stroke:#181818;stroke-width:0.6;"/><polygon fill="#000000" points="191.2911,361.5935,193.2503,356.234,189.7259,356.1061,191.2911,361.5935" style="stroke:#000000;stroke-width:0.6;"/><text fill="#000000" font-family="sans-serif" font-size="7.8" lengthAdjust="spacing" textLength="41.6279" x="196.8" y="361.8252">identified by</text><text fill="#000000" font-family="sans-serif" font-size="7.8" lengthAdjust="spacing" textLength="4.338" x="184.6427" y="348.1584">1</text><text fill="#000000" font-family="sans-serif" font-size="7.8" lengthAdjust="spacing" textLength="4.338" x="181.5144" y="418.5949">1</text></g><!--link ShodroneUser to PhoneNumber--><g id="link_ShodroneUser_PhoneNumber"><path codeLine="151" d="M248.13,334.8502 C270.786,366.7162 295.512,401.4802 312.396,425.2342 " fill="none" id="ShodroneUser-PhoneNumber" style="stroke:#181818;stroke-width:0.6;"/><polygon fill="#000000" points="271.7384,361.0405,270.0307,355.5957,267.1565,357.6393,271.7384,361.0405" style="stroke:#000000;stroke-width:0.6;"/><text fill="#000000" font-family="sans-serif" font-size="7.8" lengthAdjust="spacing" textLength="12.576" x="275.4" y="361.8252">has</text><text fill="#000000" font-family="sans-serif" font-size="7.8" lengthAdjust="spacing" textLength="4.338" x="247.0515" y="348.1584">1</text><text fill="#000000" font-family="sans-serif" font-size="7.8" lengthAdjust="spacing" textLength="4.338" x="305.0045" y="418.5949">1</text></g><!--link ShodroneUser to Address--><g id="link_ShodroneUser_Address"><path codeLine="152" d="M350.832,334.8262 C370.578,345.8062 390.258,357.3382 408.6,369.0082 C429.99,382.6162 452.418,399.2302 471.51,414.1582 " fill="none" id="ShodroneUser-Address" style="stroke:#181818;stroke-width:0.6;"/><polygon fill="#000000" points="403.3068,360.2435,399.7406,355.7888,397.8033,358.7358,403.3068,360.2435" style="stroke:#000000;stroke-width:0.6;"/><text fill="#000000" font-family="sans-serif" font-size="7.8" lengthAdjust="spacing" textLength="12.576" x="406.2" y="361.8252">has</text><text fill="#000000" font-family="sans-serif" font-size="7.8" lengthAdjust="spacing" textLength="4.338" x="356.1807" y="348.3974">1</text><text fill="#000000" font-family="sans-serif" font-size="7.8" lengthAdjust="spacing" textLength="4.338" x="462.0649" y="407.6642">1</text></g><!--link ShodroneUser to CustomerRepresentative--><g id="link_ShodroneUser_CustomerRepresentative"><path codeLine="153" d="M370.872,332.1082 C374.262,333.0562 377.64,333.9562 381,334.8082 C489.54,362.3002 525.558,330.2302 630.6,369.0082 C659.37,379.6282 689.466,394.3462 715.806,408.5662 " fill="none" id="ShodroneUser-CustomerRepresentative" style="stroke:#181818;stroke-width:0.6;"/><polygon fill="#000000" points="618.5289,359.2447,613.6121,356.3487,612.8489,359.7918,618.5289,359.2447" style="stroke:#000000;stroke-width:0.6;"/><text fill="#000000" font-family="sans-serif" font-size="7.8" lengthAdjust="spacing" textLength="12.576" x="621" y="361.8252">has</text><text fill="#000000" font-family="sans-serif" font-size="7.8" lengthAdjust="spacing" textLength="4.338" x="375.6781" y="332.2287">1</text><text fill="#000000" font-family="sans-serif" font-size="7.8" lengthAdjust="spacing" textLength="11.7076" x="696.5533" y="401.9069">0..*</text></g><!--link CustomerRepresentative to SystemUser--><g id="link_CustomerRepresentative_SystemUser"><path codeLine="156" d="M907.392,501.0682 C918.756,504.4462 930.222,507.4162 941.4,509.7082 C1016.226,525.0322 1037.232,509.3482 1113,519.0082 C1138.368,522.2422 1144.176,526.2082 1169.4,530.4082 C1185.582,533.1022 1190.706,529.2682 1206,535.2082 C1230.948,544.8922 1255.722,559.4422 1277.856,574.7302 " fill="none" id="CustomerRepresentative-SystemUser" style="stroke:#181818;stroke-width:0.6;"/><polygon fill="#000000" points="1175.3424,525.3806,1170.3634,522.5927,1169.6757,526.0517,1175.3424,525.3806" style="stroke:#000000;stroke-width:0.6;"/><text fill="#000000" font-family="sans-serif" font-size="7.8" lengthAdjust="spacing" textLength="44.6596" x="1177.8" y="528.0252">composed of</text><text fill="#000000" font-family="sans-serif" font-size="7.8" lengthAdjust="spacing" textLength="4.338" x="913.2304" y="514.0756">1</text><text fill="#000000" font-family="sans-serif" font-size="7.8" lengthAdjust="spacing" textLength="4.338" x="1268.0246" y="568.0061">1</text></g><!--link CustomerRepresentative to PhoneNumber--><g id="link_CustomerRepresentative_PhoneNumber"><path codeLine="157" d="M718.122,408.5302 C691.518,394.4842 660.666,380.9062 630.6,373.8082 C582.588,362.4742 453.846,354.1462 408.6,373.8082 C384.432,384.3142 364.476,406.7722 351.15,425.3782 " fill="none" id="CustomerRepresentative-PhoneNumber" style="stroke:#181818;stroke-width:0.6;"/><polygon fill="#000000" points="533.7032,358.7331,539.2054,360.2457,539.0436,356.7227,533.7032,358.7331" style="stroke:#000000;stroke-width:0.6;"/><text fill="#000000" font-family="sans-serif" font-size="7.8" lengthAdjust="spacing" textLength="12.576" x="542.1" y="361.8252">has</text><text fill="#000000" font-family="sans-serif" font-size="7.8" lengthAdjust="spacing" textLength="4.338" x="711.2254" y="401.8675">1</text><text fill="#000000" font-family="sans-serif" font-size="7.8" lengthAdjust="spacing" textLength="4.338" x="349.3087" y="418.5442">1</text></g><!--link CustomerRepresentative to CompanyEmail--><g id="link_CustomerRepresentative_CompanyEmail"><path codeLine="158" d="M792.6,501.2002 C792.6,536.2702 792.6,583.5862 792.6,613.5982 " fill="none" id="CustomerRepresentative-CompanyEmail" style="stroke:#181818;stroke-width:0.6;"/><polygon fill="#000000" points="795.6,527.7955,797.3634,522.3685,793.8366,522.3685,795.6,527.7955" style="stroke:#000000;stroke-width:0.6;"/><text fill="#000000" font-family="sans-serif" font-size="7.8" lengthAdjust="spacing" textLength="12.576" x="801" y="528.0252">has</text><text fill="#000000" font-family="sans-serif" font-size="7.8" lengthAdjust="spacing" textLength="4.338" x="788.2212" y="514.0578">1</text><text fill="#000000" font-family="sans-serif" font-size="7.8" lengthAdjust="spacing" textLength="4.338" x="788.1208" y="606.9538">1</text></g><!--link AddShodroneUserController to CustomerRepresentativeDefaultValues--><g id="link_AddShodroneUserController_CustomerRepresentativeDefaultValues"><path codeLine="160" d="M621.024,275.5162 C710.556,293.2342 836.802,323.5762 940.8,369.0082 C973.752,383.4022 1004.9241,403.2997 1030.3761,421.3237 " fill="none" id="AddShodroneUserController-to-CustomerRepresentativeDefaultValues" style="stroke:#181818;stroke-width:0.6;stroke-dasharray:7.0,7.0;"/><polygon fill="#181818" points="1033.314,423.4042,1030.2941,418.3248,1030.8657,421.6704,1027.5201,422.2421,1033.314,423.4042" style="stroke:#181818;stroke-width:0.6;"/><polygon fill="#000000" points="924.4261,359.6021,919.9053,356.12,918.722,359.4423,924.4261,359.6021" style="stroke:#000000;stroke-width:0.6;"/><text fill="#000000" font-family="sans-serif" font-size="7.8" lengthAdjust="spacing" textLength="16.476" x="927" y="361.8252">uses</text></g><!--link CustomerRepresentativeDefaultValues to SystemUserDetailsForRepresentative--><g id="link_CustomerRepresentativeDefaultValues_SystemUserDetailsForRepresentative"><path codeLine="161" d="M1074,486.1102 C1074,513.7522 1074,551.4202 1074,584.6362 " fill="none" id="CustomerRepresentativeDefaultValues-to-SystemUserDetailsForRepresentative" style="stroke:#181818;stroke-width:0.6;stroke-dasharray:7.0,7.0;"/><polygon fill="#181818" points="1074,588.2362,1076.4,582.8362,1074,585.2362,1071.6,582.8362,1074,588.2362" style="stroke:#181818;stroke-width:0.6;"/><polygon fill="#000000" points="1077,527.7955,1078.7634,522.3685,1075.2366,522.3685,1077,527.7955" style="stroke:#000000;stroke-width:0.6;"/><text fill="#000000" font-family="sans-serif" font-size="7.8" lengthAdjust="spacing" textLength="25.5785" x="1082.4" y="528.0252">creates</text></g><!--link AddUserAdminUI to AddSystemUserController--><g id="link_AddUserAdminUI_AddSystemUserController"><path codeLine="164" d="M1800.06,100.8262 C1856.676,130.9762 1927.2,182.9362 1927.2,254.7082 C1927.2,254.7082 1927.2,254.7082 1927.2,643.8082 C1927.2,675.8122 1926.03,687.8662 1905.6,712.5082 C1890.048,731.2642 1872.5687,744.796 1851.2147,757.108 " fill="none" id="AddUserAdminUI-to-AddSystemUserController" style="stroke:#181818;stroke-width:0.6;stroke-dasharray:7.0,7.0;"/><polygon fill="#181818" points="1848.096,758.9062,1853.9729,758.2881,1850.695,757.4077,1851.5753,754.1298,1848.096,758.9062" style="stroke:#181818;stroke-width:0.6;"/><polygon fill="#000000" points="1930.4331,457.8864,1931.7694,452.3388,1928.2534,452.6128,1930.4331,457.8864" style="stroke:#000000;stroke-width:0.6;"/><text fill="#000000" font-family="sans-serif" font-size="7.8" lengthAdjust="spacing" textLength="16.476" x="1935.6" y="458.1252">uses</text></g><!--link AddUserAdminUI to AddShodroneUserController--><g id="link_AddUserAdminUI_AddShodroneUserController"><path codeLine="165" d="M1614.972,87.6082 C1381.23,122.8402 857.9418,201.7197 624.7398,236.8677 " fill="none" id="AddUserAdminUI-to-AddShodroneUserController" style="stroke:#181818;stroke-width:0.6;stroke-dasharray:7.0,7.0;"/><polygon fill="#181818" points="621.18,237.4042,626.8774,238.9726,624.1465,236.9571,626.162,234.2262,621.18,237.4042" style="stroke:#181818;stroke-width:0.6;"/><polygon fill="#000000" points="1369.2335,126.2427,1374.8628,127.1774,1374.3371,123.6901,1369.2335,126.2427" style="stroke:#000000;stroke-width:0.6;"/><text fill="#000000" font-family="sans-serif" font-size="7.8" lengthAdjust="spacing" textLength="16.476" x="1377.6" y="129.0252">uses</text></g><!--link AddUserManagerUI to AddSystemUserController--><g id="link_AddUserManagerUI_AddSystemUserController"><path codeLine="166" d="M1986.972,100.9582 C1992.66,137.4982 2001,200.3662 2001,254.7082 C2001,254.7082 2001,254.7082 2001,643.8082 C2001,702.7882 1954.7008,738.7842 1898.7808,762.1902 " fill="none" id="AddUserManagerUI-to-AddSystemUserController" style="stroke:#181818;stroke-width:0.6;stroke-dasharray:7.0,7.0;"/><polygon fill="#181818" points="1895.46,763.5802,1901.3679,763.7091,1898.2274,762.4219,1899.5146,759.2813,1895.46,763.5802" style="stroke:#181818;stroke-width:0.6;"/><polygon fill="#000000" points="2003.6034,457.8692,2006.0687,452.7229,2002.573,452.2566,2003.6034,457.8692" style="stroke:#000000;stroke-width:0.6;"/><text fill="#000000" font-family="sans-serif" font-size="7.8" lengthAdjust="spacing" textLength="16.476" x="2009.4" y="458.1252">uses</text></g><!--link AddUserManagerUI to AddShodroneUserController--><g id="link_AddUserManagerUI_AddShodroneUserController"><path codeLine="167" d="M1905.576,100.8622 C1889.544,106.3702 1872.582,111.5242 1856.4,115.2082 C1406.808,217.5202 859.3303,244.8173 624.6223,252.0533 " fill="none" id="AddUserManagerUI-to-AddShodroneUserController" style="stroke:#181818;stroke-width:0.6;stroke-dasharray:7.0,7.0;"/><polygon fill="#181818" points="621.024,252.1642,626.4954,254.3967,624.0226,252.0718,626.3475,249.5989,621.024,252.1642" style="stroke:#181818;stroke-width:0.6;"/><polygon fill="#000000" points="1820.4207,126.1472,1826.017,127.2622,1825.6036,123.7598,1820.4207,126.1472" style="stroke:#000000;stroke-width:0.6;"/><text fill="#000000" font-family="sans-serif" font-size="7.8" lengthAdjust="spacing" textLength="16.476" x="1828.8" y="129.0252">uses</text></g><!--SRC=[pLZTR-es57_dhx3wi8KrhRRNg4NAfUcAHW4Hg7GVJMAer-14iKF5lU9_tt4-dSI1K6tIyj0wESVd-_nyp3lr2IBxI1pHdkmt9EQ3mQ_eyV4HkT_TbVEAfiwRCqLhrrcYLtjc_-cyEhELP1X4sFl0Eu9krfp4w1KpUDaJ9f3X7haWUpGb1n8CRz3FmG31umMOSvJHqYqF3yyntfFFCFv03XDK74SZO4RvSuSIu6B0OQ5rlbA84KY3hRw55lbA8MQxPl0N6LiQSo6N9W8BqjLGOILxJ0CBEVAVxVinuLoXnc50k8LS8XwMi1mf92ycM11_pYmqnW5XFeuLAlO4FO0Dcn2sOLPHxihbBSA-Bpqp2aVDqYiJQSmsCsFDpAgX8eWmdiJ4JiGx981wqYuf-0LpcntdMqFPS5Ap8NsgvU4D1mcPR_ucdgWbunOTKihMS4LCsMvefNjLYPG94c-nHz9iLVNWalX0lRgQ_5j3HKns5AeZdf7FhuV5h183HbRbrdOUibsHno4Ji3-0kbHB44D8VrX8HZQCwGyiQCXounk5wXuyI-_vVv7xbcUPq1qHCYshOqIuxUyfCu1p0Y75cu0qAhZEFGlPkGsdmQa4XfVvqt8-S-xSXJEUF4_6vz71VG_zE6HPLTHWmewYGDOgX1Iv4V7ebdejkCXtvu1XxtPG993TPHYA1beSi9Wb4i8iz6QliYLicJoDrAwDta5QmRUeNjISPoXWeJOSy3BesWG0A2HSX7iIBqa4My5DB640P4sXiX_6Mkf8No2gwqQbs5HTC2klpS9kiyi85J0gUKPNBPMI9KSPKOL1iKEow89vMnWb6PhXlEqoL39VZ5UhbPLmTJHptpP5N945kaDEHHWVhLfAgk_wz76wOqbqRNkN0igdJCE4HOam4HSn8S8kSWr621oCGnz4U724QYGeUSfbb0Yfm8dYMZk-QaDr7H6r3inE2NraMYT9lRXgYfMYEgkwrjPNAM-MRREkP9ZFggubfArSoP26A5FMp-0BUM_qbuBNuxMxchy2GY-TnT9n0Q3jrUJDwGJiekbGlUiKw6vWjBvB8MRQeOx2n3ODsQuDpHV1jGTsU-4-mkpeP4FTM7dJHrTlUpVSgl8ryvIgy6pHrEsygc1RJfqk9-E9R74IYDGUhXgYQlh99RDtGfk41dvJW01rtAYXIm7VwnBZYY_F5S8LdwOvqYaIQYTFhk4vR9ZUTl7o7WZzqshUc2whsqGZtBVANQ95Ah5QGol0MqFA2aYVNZdegjOkpc1NatVSLJTAmwydQ6f_XuOtljdZl-RFCA8vmyQL3LZm4NhS-0QVmkrM3kXmQd8u3PeZc9qDgkbq2FlKAeRhHdNKMbq3TNsqqf_JLlSHhYzMFmJkJsEenUpgV8__jnQNwLewKm3a-SnzcIpSD4r0oA_GwTYx944w9FE1SddkUcx-k4aLm-B-_hURx8RNyLZe7QVt_SfqZdufBcTyq7L1Kfwx9BeRmN_zbQ-b3tgGez6WUroh17z1h8oRUb_0p4_H4jwPWEYfj8lHamjqBk1M2k8X9puAjw3z2-AhiKeddlhoCh-be61p_9e2TNpIPlzhOekngBEehXNxUrgh7OE4AbKMgvuheEo33yw8q3fplgEQARvM-hdmLpvTAxKsP7HAxTDaz_UooVgC35MJzU6MSdkSqcc0qwj8dbe0w_HN9FdZcSIxnj6ZUp8NUY1L7NxwYxqGmhROwk3vLwtj9xQ_jVy0]--></g></svg>