<?xml version="1.0" encoding="UTF-8" standalone="no"?><svg xmlns="http://www.w3.org/2000/svg" xmlns:xlink="http://www.w3.org/1999/xlink" contentStyleType="text/css" height="510px" preserveAspectRatio="none" style="width:877px;height:510px;background:#FFFFFF;" version="1.1" viewBox="0 0 877 510" width="877px" zoomAndPan="magnify"><defs/><g><!--cluster Show Proposal--><g id="cluster_Show Proposal"><path d="M8.5,6.7188 L160.5,6.7188 A3.75,3.75 0 0 1 163,9.2188 L170,36.2734 L867.5,36.2734 A2.5,2.5 0 0 1 870,38.7734 L870,500.8787 A2.5,2.5 0 0 1 867.5,503.3787 L8.5,503.3787 A2.5,2.5 0 0 1 6,500.8787 L6,9.2188 A2.5,2.5 0 0 1 8.5,6.7188 " fill="#9BC8FF" style="stroke:#000000;stroke-width:1.5;"/><line style="stroke:#000000;stroke-width:1.5;" x1="6" x2="170" y1="36.2734" y2="36.2734"/><text fill="#000000" font-family="sans-serif" font-size="20" font-weight="bold" lengthAdjust="spacing" textLength="151" x="10" y="28.0547">Show Proposal</text></g><g id="elem_ShowProposal"><rect fill="#F1F1F1" height="153.3281" style="stroke:#181818;stroke-width:0.5;" width="332" x="22" y="48.7187"/><text fill="#000000" font-family="sans-serif" font-size="20" font-style="italic" lengthAdjust="spacing" textLength="73" x="151.5" y="68.0547">«Entity»</text><text fill="#000000" font-family="sans-serif" font-size="20" font-style="italic" lengthAdjust="spacing" textLength="64" x="156" y="91.6094">«Root»</text><text fill="#000000" font-family="sans-serif" font-size="20" lengthAdjust="spacing" textLength="133" x="121.5" y="117.1641">ShowProposal</text><line style="stroke:#181818;stroke-width:0.5;" x1="23" x2="353" y1="123.3828" y2="123.3828"/><rect fill="none" height="6" style="stroke:#C82930;stroke-width:1.0;" width="6" x="30" y="137.6602"/><text fill="#000000" font-family="sans-serif" font-size="20" lengthAdjust="spacing" textLength="178" x="43" y="146.7187">Description :String</text><rect fill="none" height="6" style="stroke:#C82930;stroke-width:1.0;" width="6" x="30" y="161.2148"/><text fill="#000000" font-family="sans-serif" font-size="20" lengthAdjust="spacing" textLength="305" x="43" y="170.2734">AcceptanceEmailContent :String</text><rect fill="none" height="6" style="stroke:#C82930;stroke-width:1.0;" width="6" x="30" y="184.7695"/><text fill="#000000" font-family="sans-serif" font-size="20" lengthAdjust="spacing" textLength="221" x="43" y="193.8281">AcceptanceDate :String</text></g><g id="elem_SimulationReport"><rect fill="#F1F1F1" height="153.3281" style="stroke:#181818;stroke-width:0.5;" width="208" x="389" y="48.7187"/><text fill="#000000" font-family="sans-serif" font-size="20" font-style="italic" lengthAdjust="spacing" textLength="73" x="456.5" y="68.0547">«Entity»</text><text fill="#000000" font-family="sans-serif" font-size="20" lengthAdjust="spacing" textLength="166" x="410" y="93.6094">SimulationReport</text><line style="stroke:#181818;stroke-width:0.5;" x1="390" x2="596" y1="99.8281" y2="99.8281"/><rect fill="none" height="6" style="stroke:#C82930;stroke-width:1.0;" width="6" x="397" y="114.1055"/><text fill="#000000" font-family="sans-serif" font-size="20" lengthAdjust="spacing" textLength="127" x="410" y="123.1641">Result :String</text><rect fill="none" height="6" style="stroke:#C82930;stroke-width:1.0;" width="6" x="397" y="137.6602"/><text fill="#000000" font-family="sans-serif" font-size="20" lengthAdjust="spacing" textLength="178" x="410" y="146.7187">Description :String</text><rect fill="none" height="6" style="stroke:#C82930;stroke-width:1.0;" width="6" x="397" y="161.2148"/><text fill="#000000" font-family="sans-serif" font-size="20" lengthAdjust="spacing" textLength="181" x="410" y="170.2734">PreviewLink :String</text><rect fill="none" height="6" style="stroke:#C82930;stroke-width:1.0;" width="6" x="397" y="184.7695"/><text fill="#000000" font-family="sans-serif" font-size="20" lengthAdjust="spacing" textLength="100" x="410" y="193.8281">Date :Date</text></g><g id="elem_ProposalCreationDate"><rect fill="#F1F1F1" height="82.6641" style="stroke:#181818;stroke-width:0.5;" width="222" x="632" y="84.0587"/><text fill="#000000" font-family="sans-serif" font-size="20" font-style="italic" lengthAdjust="spacing" textLength="142" x="672" y="103.3947">«Value Object»</text><text fill="#000000" font-family="sans-serif" font-size="20" lengthAdjust="spacing" textLength="208" x="639" y="128.9494">ProposalCreationDate</text><line style="stroke:#181818;stroke-width:0.5;" x1="633" x2="853" y1="135.1681" y2="135.1681"/><rect fill="none" height="6" style="stroke:#C82930;stroke-width:1.0;" width="6" x="640" y="149.4455"/><text fill="#000000" font-family="sans-serif" font-size="20" lengthAdjust="spacing" textLength="100" x="653" y="158.5041">Date :Date</text></g><g id="elem_ProposedShowDate"><rect fill="#F1F1F1" height="82.6641" style="stroke:#181818;stroke-width:0.5;" width="198" x="89" y="262.0488"/><text fill="#000000" font-family="sans-serif" font-size="20" font-style="italic" lengthAdjust="spacing" textLength="142" x="117" y="281.3847">«Value Object»</text><text fill="#000000" font-family="sans-serif" font-size="20" lengthAdjust="spacing" textLength="184" x="96" y="306.9394">ProposedShowDate</text><line style="stroke:#181818;stroke-width:0.5;" x1="90" x2="286" y1="313.1581" y2="313.1581"/><rect fill="none" height="6" style="stroke:#C82930;stroke-width:1.0;" width="6" x="97" y="327.4355"/><text fill="#000000" font-family="sans-serif" font-size="20" lengthAdjust="spacing" textLength="100" x="110" y="336.4941">Date :Date</text></g><g id="elem_ProposedDuration"><rect fill="#F1F1F1" height="82.6641" style="stroke:#181818;stroke-width:0.5;" width="187" x="321.5" y="262.0488"/><text fill="#000000" font-family="sans-serif" font-size="20" font-style="italic" lengthAdjust="spacing" textLength="142" x="344" y="281.3847">«Value Object»</text><text fill="#000000" font-family="sans-serif" font-size="20" lengthAdjust="spacing" textLength="173" x="328.5" y="306.9394">ProposedDuration</text><line style="stroke:#181818;stroke-width:0.5;" x1="322.5" x2="507.5" y1="313.1581" y2="313.1581"/><rect fill="none" height="6" style="stroke:#C82930;stroke-width:1.0;" width="6" x="329.5" y="327.4355"/><text fill="#000000" font-family="sans-serif" font-size="20" lengthAdjust="spacing" textLength="120" x="342.5" y="336.4941">Duration :int</text></g><g id="elem_ProposedNDrones"><rect fill="#F1F1F1" height="82.6641" style="stroke:#181818;stroke-width:0.5;" width="187" x="543.5" y="262.0488"/><text fill="#000000" font-family="sans-serif" font-size="20" font-style="italic" lengthAdjust="spacing" textLength="142" x="566" y="281.3847">«Value Object»</text><text fill="#000000" font-family="sans-serif" font-size="20" lengthAdjust="spacing" textLength="173" x="550.5" y="306.9394">ProposedNDrones</text><line style="stroke:#181818;stroke-width:0.5;" x1="544.5" x2="729.5" y1="313.1581" y2="313.1581"/><rect fill="none" height="6" style="stroke:#C82930;stroke-width:1.0;" width="6" x="551.5" y="327.4355"/><text fill="#000000" font-family="sans-serif" font-size="20" lengthAdjust="spacing" textLength="115" x="564.5" y="336.4941">Number :int</text></g><g id="elem_ProposedPlace"><rect fill="#F1F1F1" height="82.6641" style="stroke:#181818;stroke-width:0.5;" width="153" x="111.5" y="404.7188"/><text fill="#000000" font-family="sans-serif" font-size="20" font-style="italic" lengthAdjust="spacing" textLength="142" x="117" y="424.0547">«Value Object»</text><text fill="#000000" font-family="sans-serif" font-size="20" lengthAdjust="spacing" textLength="139" x="118.5" y="449.6094">ProposedPlace</text><line style="stroke:#181818;stroke-width:0.5;" x1="112.5" x2="263.5" y1="455.8281" y2="455.8281"/><rect fill="none" height="6" style="stroke:#C82930;stroke-width:1.0;" width="6" x="119.5" y="470.1055"/><text fill="#000000" font-family="sans-serif" font-size="20" lengthAdjust="spacing" textLength="117" x="132.5" y="479.1641">Place :String</text></g><g id="elem_ProposalStatus"><rect fill="#F1F1F1" height="82.6641" style="stroke:#181818;stroke-width:0.5;" width="155" x="299.5" y="404.7188"/><text fill="#000000" font-family="sans-serif" font-size="20" font-style="italic" lengthAdjust="spacing" textLength="142" x="306" y="424.0547">«Value Object»</text><text fill="#000000" font-family="sans-serif" font-size="20" lengthAdjust="spacing" textLength="141" x="306.5" y="449.6094">ProposalStatus</text><line style="stroke:#181818;stroke-width:0.5;" x1="300.5" x2="453.5" y1="455.8281" y2="455.8281"/><rect fill="none" height="6" style="stroke:#C82930;stroke-width:1.0;" width="6" x="307.5" y="470.1055"/><text fill="#000000" font-family="sans-serif" font-size="20" lengthAdjust="spacing" textLength="126" x="320.5" y="479.1641">Status :String</text></g><!--SRC=[hP11Jy8m68Rl_HKD7ZmXnfEIPObXU398MEBze_k0kgvjsgyI9Fntrusf45ays4FJvdtxvEddIwajEAYK4IKMlC0L14LFHbCkFv3VtRBh3P7ruz78Aj0KAdKZJ3KI2hmV5XBMzMF6VCVXIcgadKLkZTh52sCMH0bhv8DyOxPyxemr7jI0NpqinVrgjMTc-OQ2U8oxb2V9L9EaNPhMnuKnbAPxnkirpD0B9or9e_au9oVrkWqUXK1Be0LEAv1gKdy2DLtgP43ubHrOZ3iFMGK5aRz0QnnzgnmD5kZh8Ps2BrhD7RvBt3vBNPwzQ0JYtjnRXSwXcyF4OMCIQqdo2YeWVsagdSrVMLZ4-Vu79mkkSUhZ72jyB3Nre6QPCnfz3saMgYMwdvnVC7C5ekzRJNuo_QFE-RXp0WezEWsjBPtWMkA1VG80]--></g></svg>