<?xml version="1.0" encoding="UTF-8" standalone="no"?><svg xmlns="http://www.w3.org/2000/svg" xmlns:xlink="http://www.w3.org/1999/xlink" contentStyleType="text/css" height="1891px" preserveAspectRatio="none" style="width:4251px;height:1891px;background:#FFFFFF;" version="1.1" viewBox="0 0 4251 1891" width="4251px" zoomAndPan="magnify"><defs/><g><text fill="#000000" font-family="FG Virgil" font-size="20" font-weight="bold" lengthAdjust="spacing" textLength="494" x="1877.5" y="34.3359">Sequence Diagram US230: Create Show Request</text><rect fill="#FFFFFF" height="1642.4063" style="stroke:#181818;stroke-width:1.0;" width="10" x="88" y="143.1094"/><rect fill="#FFFFFF" height="1612.8516" style="stroke:#181818;stroke-width:1.0;" width="10" x="1133" y="172.6641"/><rect fill="#FFFFFF" height="187.7734" style="stroke:#181818;stroke-width:1.0;" width="10" x="1393.5" y="210.2188"/><rect fill="#FFFFFF" height="112.6641" style="stroke:#181818;stroke-width:1.0;" width="10" x="1393.5" y="660.875"/><rect fill="#FFFFFF" height="187.7734" style="stroke:#181818;stroke-width:1.0;" width="10" x="1859" y="435.5469"/><rect fill="#FFFFFF" height="763.0938" style="stroke:#181818;stroke-width:1.0;" width="10" x="1859" y="984.8672"/><rect fill="#FFFFFF" height="37.5547" style="stroke:#181818;stroke-width:1.0;" width="10" x="2214" y="247.7734"/><rect fill="#FFFFFF" height="37.5547" style="stroke:#181818;stroke-width:1.0;" width="10" x="2214" y="473.1016"/><rect fill="#FFFFFF" height="75.1094" style="stroke:#181818;stroke-width:1.0;" width="10" x="2414.5" y="322.8828"/><rect fill="#FFFFFF" height="75.1094" style="stroke:#181818;stroke-width:1.0;" width="10" x="2414.5" y="548.2109"/><rect fill="#FFFFFF" height="37.5547" style="stroke:#181818;stroke-width:1.0;" width="10" x="2683.5" y="698.4297"/><rect fill="#FFFFFF" height="37.5547" style="stroke:#181818;stroke-width:1.0;" width="10" x="2894.5" y="1672.8516"/><rect fill="#FFFFFF" height="37.5547" style="stroke:#181818;stroke-width:1.0;" width="10" x="3096.5" y="1496.6328"/><rect fill="#FFFFFF" height="37.5547" style="stroke:#181818;stroke-width:1.0;" width="10" x="3239" y="1022.4219"/><rect fill="#FFFFFF" height="37.5547" style="stroke:#181818;stroke-width:1.0;" width="10" x="3381" y="1097.5313"/><rect fill="#FFFFFF" height="37.5547" style="stroke:#181818;stroke-width:1.0;" width="10" x="3569" y="1172.6406"/><rect fill="#FFFFFF" height="37.5547" style="stroke:#181818;stroke-width:1.0;" width="10" x="3779.5" y="1247.75"/><rect fill="#FFFFFF" height="37.5547" style="stroke:#181818;stroke-width:1.0;" width="10" x="3969" y="1322.8594"/><rect fill="#FFFFFF" height="37.5547" style="stroke:#181818;stroke-width:1.0;" width="10" x="4153" y="1397.9688"/><line style="stroke:#181818;stroke-width:0.5;stroke-dasharray:5.0,5.0;" x1="93" x2="93" y1="133.1094" y2="1803.5156"/><line style="stroke:#181818;stroke-width:0.5;stroke-dasharray:5.0,5.0;" x1="1137.5" x2="1137.5" y1="133.1094" y2="1803.5156"/><line style="stroke:#181818;stroke-width:0.5;stroke-dasharray:5.0,5.0;" x1="1398.5" x2="1398.5" y1="133.1094" y2="1803.5156"/><line style="stroke:#181818;stroke-width:0.5;stroke-dasharray:5.0,5.0;" x1="1863.5" x2="1863.5" y1="133.1094" y2="1803.5156"/><line style="stroke:#181818;stroke-width:0.5;stroke-dasharray:5.0,5.0;" x1="2219" x2="2219" y1="133.1094" y2="1803.5156"/><line style="stroke:#181818;stroke-width:0.5;stroke-dasharray:5.0,5.0;" x1="2419" x2="2419" y1="133.1094" y2="1803.5156"/><line style="stroke:#181818;stroke-width:0.5;stroke-dasharray:5.0,5.0;" x1="2688" x2="2688" y1="133.1094" y2="1803.5156"/><line style="stroke:#181818;stroke-width:0.5;stroke-dasharray:5.0,5.0;" x1="2899" x2="2899" y1="133.1094" y2="1803.5156"/><line style="stroke:#181818;stroke-width:0.5;stroke-dasharray:5.0,5.0;" x1="3101" x2="3101" y1="133.1094" y2="1803.5156"/><line style="stroke:#181818;stroke-width:0.5;stroke-dasharray:5.0,5.0;" x1="3244" x2="3244" y1="133.1094" y2="1803.5156"/><line style="stroke:#181818;stroke-width:0.5;stroke-dasharray:5.0,5.0;" x1="3386" x2="3386" y1="133.1094" y2="1803.5156"/><line style="stroke:#181818;stroke-width:0.5;stroke-dasharray:5.0,5.0;" x1="3574" x2="3574" y1="133.1094" y2="1803.5156"/><line style="stroke:#181818;stroke-width:0.5;stroke-dasharray:5.0,5.0;" x1="3784" x2="3784" y1="133.1094" y2="1803.5156"/><line style="stroke:#181818;stroke-width:0.5;stroke-dasharray:5.0,5.0;" x1="3974" x2="3974" y1="133.1094" y2="1803.5156"/><line style="stroke:#181818;stroke-width:0.5;stroke-dasharray:5.0,5.0;" x1="4158" x2="4158" y1="133.1094" y2="1803.5156"/><text fill="#000000" font-family="FG Virgil" font-size="20" lengthAdjust="spacing" textLength="170" x="5" y="128.8906">CRM Collaborator</text><ellipse cx="93" cy="58.0547" fill="#E3E3E3" rx="8" ry="8" style="stroke:#181818;stroke-width:0.5;"/><path d="M93,66.0547 L93,93.0547 M80,74.0547 L106,74.0547 M93,93.0547 L80,108.0547 M93,93.0547 L106,108.0547 " fill="none" style="stroke:#181818;stroke-width:0.5;"/><text fill="#000000" font-family="FG Virgil" font-size="20" lengthAdjust="spacing" textLength="170" x="5" y="1821.8516">CRM Collaborator</text><ellipse cx="93" cy="1834.5703" fill="#E3E3E3" rx="8" ry="8" style="stroke:#181818;stroke-width:0.5;"/><path d="M93,1842.5703 L93,1869.5703 M80,1850.5703 L106,1850.5703 M93,1869.5703 L80,1884.5703 M93,1869.5703 L106,1884.5703 " fill="none" style="stroke:#181818;stroke-width:0.5;"/><rect fill="#E3E3E3" height="61.1094" rx="2.5" ry="2.5" style="stroke:#181818;stroke-width:0.5;" width="207" x="1034.5" y="71"/><text fill="#000000" font-family="FG Virgil" font-size="20" font-style="italic" lengthAdjust="spacing" textLength="140" x="1068" y="97.3359">«presentation»</text><text fill="#000000" font-family="FG Virgil" font-size="20" lengthAdjust="spacing" textLength="193" x="1041.5" y="120.8906">:AddShowRequestUI</text><rect fill="#E3E3E3" height="61.1094" rx="2.5" ry="2.5" style="stroke:#181818;stroke-width:0.5;" width="207" x="1034.5" y="1802.5156"/><text fill="#000000" font-family="FG Virgil" font-size="20" font-style="italic" lengthAdjust="spacing" textLength="140" x="1068" y="1828.8516">«presentation»</text><text fill="#000000" font-family="FG Virgil" font-size="20" lengthAdjust="spacing" textLength="193" x="1041.5" y="1852.4063">:AddShowRequestUI</text><rect fill="#E3E3E3" height="61.1094" rx="2.5" ry="2.5" style="stroke:#181818;stroke-width:0.5;" width="294" x="1251.5" y="71"/><text fill="#000000" font-family="FG Virgil" font-size="20" font-style="italic" lengthAdjust="spacing" textLength="127" x="1335" y="97.3359">«application»</text><text fill="#000000" font-family="FG Virgil" font-size="20" lengthAdjust="spacing" textLength="280" x="1258.5" y="120.8906">:ListShodroneUsersController</text><rect fill="#E3E3E3" height="61.1094" rx="2.5" ry="2.5" style="stroke:#181818;stroke-width:0.5;" width="294" x="1251.5" y="1802.5156"/><text fill="#000000" font-family="FG Virgil" font-size="20" font-style="italic" lengthAdjust="spacing" textLength="127" x="1335" y="1828.8516">«application»</text><text fill="#000000" font-family="FG Virgil" font-size="20" lengthAdjust="spacing" textLength="280" x="1258.5" y="1852.4063">:ListShodroneUsersController</text><rect fill="#E3E3E3" height="61.1094" rx="2.5" ry="2.5" style="stroke:#181818;stroke-width:0.5;" width="321" x="1703.5" y="71"/><text fill="#000000" font-family="FG Virgil" font-size="20" font-style="italic" lengthAdjust="spacing" textLength="127" x="1800.5" y="97.3359">«application»</text><text fill="#000000" font-family="FG Virgil" font-size="20" lengthAdjust="spacing" textLength="307" x="1710.5" y="120.8906">:RegisterShowRequestController</text><rect fill="#E3E3E3" height="61.1094" rx="2.5" ry="2.5" style="stroke:#181818;stroke-width:0.5;" width="321" x="1703.5" y="1802.5156"/><text fill="#000000" font-family="FG Virgil" font-size="20" font-style="italic" lengthAdjust="spacing" textLength="127" x="1800.5" y="1828.8516">«application»</text><text fill="#000000" font-family="FG Virgil" font-size="20" lengthAdjust="spacing" textLength="307" x="1710.5" y="1852.4063">:RegisterShowRequestController</text><rect fill="#E3E3E3" height="61.1094" rx="2.5" ry="2.5" style="stroke:#181818;stroke-width:0.5;" width="196" x="2121" y="71"/><text fill="#000000" font-family="FG Virgil" font-size="20" font-style="italic" lengthAdjust="spacing" textLength="71" x="2183.5" y="97.3359">«static»</text><text fill="#000000" font-family="FG Virgil" font-size="20" lengthAdjust="spacing" textLength="182" x="2128" y="120.8906">PersistenceContext</text><rect fill="#E3E3E3" height="61.1094" rx="2.5" ry="2.5" style="stroke:#181818;stroke-width:0.5;" width="196" x="2121" y="1802.5156"/><text fill="#000000" font-family="FG Virgil" font-size="20" font-style="italic" lengthAdjust="spacing" textLength="71" x="2183.5" y="1828.8516">«static»</text><text fill="#000000" font-family="FG Virgil" font-size="20" lengthAdjust="spacing" textLength="182" x="2128" y="1852.4063">PersistenceContext</text><rect fill="#E3E3E3" height="61.1094" rx="2.5" ry="2.5" style="stroke:#181818;stroke-width:0.5;" width="185" x="2327" y="71"/><text fill="#000000" font-family="FG Virgil" font-size="20" font-style="italic" lengthAdjust="spacing" textLength="123" x="2358" y="97.3359">«framework»</text><text fill="#000000" font-family="FG Virgil" font-size="20" lengthAdjust="spacing" textLength="171" x="2334" y="120.8906">RepositoryFactory</text><rect fill="#E3E3E3" height="61.1094" rx="2.5" ry="2.5" style="stroke:#181818;stroke-width:0.5;" width="185" x="2327" y="1802.5156"/><text fill="#000000" font-family="FG Virgil" font-size="20" font-style="italic" lengthAdjust="spacing" textLength="123" x="2358" y="1828.8516">«framework»</text><text fill="#000000" font-family="FG Virgil" font-size="20" lengthAdjust="spacing" textLength="171" x="2334" y="1852.4063">RepositoryFactory</text><rect fill="#E3E3E3" height="61.1094" rx="2.5" ry="2.5" style="stroke:#181818;stroke-width:0.5;" width="159" x="2609" y="71"/><text fill="#000000" font-family="FG Virgil" font-size="20" font-style="italic" lengthAdjust="spacing" textLength="117" x="2630" y="97.3359">«repository»</text><text fill="#000000" font-family="FG Virgil" font-size="20" lengthAdjust="spacing" textLength="145" x="2616" y="120.8906">UserRepository</text><rect fill="#E3E3E3" height="61.1094" rx="2.5" ry="2.5" style="stroke:#181818;stroke-width:0.5;" width="159" x="2609" y="1802.5156"/><text fill="#000000" font-family="FG Virgil" font-size="20" font-style="italic" lengthAdjust="spacing" textLength="117" x="2630" y="1828.8516">«repository»</text><text fill="#000000" font-family="FG Virgil" font-size="20" lengthAdjust="spacing" textLength="145" x="2616" y="1852.4063">UserRepository</text><rect fill="#E3E3E3" height="61.1094" rx="2.5" ry="2.5" style="stroke:#181818;stroke-width:0.5;" width="243" x="2778" y="71"/><text fill="#000000" font-family="FG Virgil" font-size="20" font-style="italic" lengthAdjust="spacing" textLength="117" x="2841" y="97.3359">«repository»</text><text fill="#000000" font-family="FG Virgil" font-size="20" lengthAdjust="spacing" textLength="229" x="2785" y="120.8906">ShowRequestRepository</text><rect fill="#E3E3E3" height="61.1094" rx="2.5" ry="2.5" style="stroke:#181818;stroke-width:0.5;" width="243" x="2778" y="1802.5156"/><text fill="#000000" font-family="FG Virgil" font-size="20" font-style="italic" lengthAdjust="spacing" textLength="117" x="2841" y="1828.8516">«repository»</text><text fill="#000000" font-family="FG Virgil" font-size="20" lengthAdjust="spacing" textLength="229" x="2785" y="1852.4063">ShowRequestRepository</text><rect fill="#E3E3E3" height="61.1094" rx="2.5" ry="2.5" style="stroke:#181818;stroke-width:0.5;" width="141" x="3031" y="71"/><text fill="#000000" font-family="FG Virgil" font-size="20" font-style="italic" lengthAdjust="spacing" textLength="93" x="3055" y="97.3359">«domain»</text><text fill="#000000" font-family="FG Virgil" font-size="20" lengthAdjust="spacing" textLength="127" x="3038" y="120.8906">ShowRequest</text><rect fill="#E3E3E3" height="61.1094" rx="2.5" ry="2.5" style="stroke:#181818;stroke-width:0.5;" width="141" x="3031" y="1802.5156"/><text fill="#000000" font-family="FG Virgil" font-size="20" font-style="italic" lengthAdjust="spacing" textLength="93" x="3055" y="1828.8516">«domain»</text><text fill="#000000" font-family="FG Virgil" font-size="20" lengthAdjust="spacing" textLength="127" x="3038" y="1852.4063">ShowRequest</text><rect fill="#E3E3E3" height="61.1094" rx="2.5" ry="2.5" style="stroke:#181818;stroke-width:0.5;" width="124" x="3182" y="71"/><text fill="#000000" font-family="FG Virgil" font-size="20" font-style="italic" lengthAdjust="spacing" textLength="93" x="3197.5" y="97.3359">«domain»</text><text fill="#000000" font-family="FG Virgil" font-size="20" lengthAdjust="spacing" textLength="110" x="3189" y="120.8906">Description</text><rect fill="#E3E3E3" height="61.1094" rx="2.5" ry="2.5" style="stroke:#181818;stroke-width:0.5;" width="124" x="3182" y="1802.5156"/><text fill="#000000" font-family="FG Virgil" font-size="20" font-style="italic" lengthAdjust="spacing" textLength="93" x="3197.5" y="1828.8516">«domain»</text><text fill="#000000" font-family="FG Virgil" font-size="20" lengthAdjust="spacing" textLength="110" x="3189" y="1852.4063">Description</text><rect fill="#E3E3E3" height="61.1094" rx="2.5" ry="2.5" style="stroke:#181818;stroke-width:0.5;" width="140" x="3316" y="71"/><text fill="#000000" font-family="FG Virgil" font-size="20" font-style="italic" lengthAdjust="spacing" textLength="93" x="3339.5" y="97.3359">«domain»</text><text fill="#000000" font-family="FG Virgil" font-size="20" lengthAdjust="spacing" textLength="126" x="3323" y="120.8906">RequestPlace</text><rect fill="#E3E3E3" height="61.1094" rx="2.5" ry="2.5" style="stroke:#181818;stroke-width:0.5;" width="140" x="3316" y="1802.5156"/><text fill="#000000" font-family="FG Virgil" font-size="20" font-style="italic" lengthAdjust="spacing" textLength="93" x="3339.5" y="1828.8516">«domain»</text><text fill="#000000" font-family="FG Virgil" font-size="20" lengthAdjust="spacing" textLength="126" x="3323" y="1852.4063">RequestPlace</text><rect fill="#E3E3E3" height="61.1094" rx="2.5" ry="2.5" style="stroke:#181818;stroke-width:0.5;" width="216" x="3466" y="71"/><text fill="#000000" font-family="FG Virgil" font-size="20" font-style="italic" lengthAdjust="spacing" textLength="93" x="3527.5" y="97.3359">«domain»</text><text fill="#000000" font-family="FG Virgil" font-size="20" lengthAdjust="spacing" textLength="202" x="3473" y="120.8906">RequestCreationDate</text><rect fill="#E3E3E3" height="61.1094" rx="2.5" ry="2.5" style="stroke:#181818;stroke-width:0.5;" width="216" x="3466" y="1802.5156"/><text fill="#000000" font-family="FG Virgil" font-size="20" font-style="italic" lengthAdjust="spacing" textLength="93" x="3527.5" y="1828.8516">«domain»</text><text fill="#000000" font-family="FG Virgil" font-size="20" lengthAdjust="spacing" textLength="202" x="3473" y="1852.4063">RequestCreationDate</text><rect fill="#E3E3E3" height="61.1094" rx="2.5" ry="2.5" style="stroke:#181818;stroke-width:0.5;" width="185" x="3692" y="71"/><text fill="#000000" font-family="FG Virgil" font-size="20" font-style="italic" lengthAdjust="spacing" textLength="93" x="3738" y="97.3359">«domain»</text><text fill="#000000" font-family="FG Virgil" font-size="20" lengthAdjust="spacing" textLength="171" x="3699" y="120.8906">RequestShowDate</text><rect fill="#E3E3E3" height="61.1094" rx="2.5" ry="2.5" style="stroke:#181818;stroke-width:0.5;" width="185" x="3692" y="1802.5156"/><text fill="#000000" font-family="FG Virgil" font-size="20" font-style="italic" lengthAdjust="spacing" textLength="93" x="3738" y="1828.8516">«domain»</text><text fill="#000000" font-family="FG Virgil" font-size="20" lengthAdjust="spacing" textLength="171" x="3699" y="1852.4063">RequestShowDate</text><rect fill="#E3E3E3" height="61.1094" rx="2.5" ry="2.5" style="stroke:#181818;stroke-width:0.5;" width="174" x="3887" y="71"/><text fill="#000000" font-family="FG Virgil" font-size="20" font-style="italic" lengthAdjust="spacing" textLength="93" x="3927.5" y="97.3359">«domain»</text><text fill="#000000" font-family="FG Virgil" font-size="20" lengthAdjust="spacing" textLength="160" x="3894" y="120.8906">RequestDuration</text><rect fill="#E3E3E3" height="61.1094" rx="2.5" ry="2.5" style="stroke:#181818;stroke-width:0.5;" width="174" x="3887" y="1802.5156"/><text fill="#000000" font-family="FG Virgil" font-size="20" font-style="italic" lengthAdjust="spacing" textLength="93" x="3927.5" y="1828.8516">«domain»</text><text fill="#000000" font-family="FG Virgil" font-size="20" lengthAdjust="spacing" textLength="160" x="3894" y="1852.4063">RequestDuration</text><rect fill="#E3E3E3" height="61.1094" rx="2.5" ry="2.5" style="stroke:#181818;stroke-width:0.5;" width="174" x="4071" y="71"/><text fill="#000000" font-family="FG Virgil" font-size="20" font-style="italic" lengthAdjust="spacing" textLength="93" x="4111.5" y="97.3359">«domain»</text><text fill="#000000" font-family="FG Virgil" font-size="20" lengthAdjust="spacing" textLength="160" x="4078" y="120.8906">RequestNDrones</text><rect fill="#E3E3E3" height="61.1094" rx="2.5" ry="2.5" style="stroke:#181818;stroke-width:0.5;" width="174" x="4071" y="1802.5156"/><text fill="#000000" font-family="FG Virgil" font-size="20" font-style="italic" lengthAdjust="spacing" textLength="93" x="4111.5" y="1828.8516">«domain»</text><text fill="#000000" font-family="FG Virgil" font-size="20" lengthAdjust="spacing" textLength="160" x="4078" y="1852.4063">RequestNDrones</text><rect fill="#FFFFFF" height="1642.4063" style="stroke:#181818;stroke-width:1.0;" width="10" x="88" y="143.1094"/><rect fill="#FFFFFF" height="1612.8516" style="stroke:#181818;stroke-width:1.0;" width="10" x="1133" y="172.6641"/><rect fill="#FFFFFF" height="187.7734" style="stroke:#181818;stroke-width:1.0;" width="10" x="1393.5" y="210.2188"/><rect fill="#FFFFFF" height="112.6641" style="stroke:#181818;stroke-width:1.0;" width="10" x="1393.5" y="660.875"/><rect fill="#FFFFFF" height="187.7734" style="stroke:#181818;stroke-width:1.0;" width="10" x="1859" y="435.5469"/><rect fill="#FFFFFF" height="763.0938" style="stroke:#181818;stroke-width:1.0;" width="10" x="1859" y="984.8672"/><rect fill="#FFFFFF" height="37.5547" style="stroke:#181818;stroke-width:1.0;" width="10" x="2214" y="247.7734"/><rect fill="#FFFFFF" height="37.5547" style="stroke:#181818;stroke-width:1.0;" width="10" x="2214" y="473.1016"/><rect fill="#FFFFFF" height="75.1094" style="stroke:#181818;stroke-width:1.0;" width="10" x="2414.5" y="322.8828"/><rect fill="#FFFFFF" height="75.1094" style="stroke:#181818;stroke-width:1.0;" width="10" x="2414.5" y="548.2109"/><rect fill="#FFFFFF" height="37.5547" style="stroke:#181818;stroke-width:1.0;" width="10" x="2683.5" y="698.4297"/><rect fill="#FFFFFF" height="37.5547" style="stroke:#181818;stroke-width:1.0;" width="10" x="2894.5" y="1672.8516"/><rect fill="#FFFFFF" height="37.5547" style="stroke:#181818;stroke-width:1.0;" width="10" x="3096.5" y="1496.6328"/><rect fill="#FFFFFF" height="37.5547" style="stroke:#181818;stroke-width:1.0;" width="10" x="3239" y="1022.4219"/><rect fill="#FFFFFF" height="37.5547" style="stroke:#181818;stroke-width:1.0;" width="10" x="3381" y="1097.5313"/><rect fill="#FFFFFF" height="37.5547" style="stroke:#181818;stroke-width:1.0;" width="10" x="3569" y="1172.6406"/><rect fill="#FFFFFF" height="37.5547" style="stroke:#181818;stroke-width:1.0;" width="10" x="3779.5" y="1247.75"/><rect fill="#FFFFFF" height="37.5547" style="stroke:#181818;stroke-width:1.0;" width="10" x="3969" y="1322.8594"/><rect fill="#FFFFFF" height="37.5547" style="stroke:#181818;stroke-width:1.0;" width="10" x="4153" y="1397.9688"/><polygon fill="#181818" points="1121,168.6641,1131,172.6641,1121,176.6641,1125,172.6641" style="stroke:#181818;stroke-width:1.0;"/><line style="stroke:#181818;stroke-width:1.0;" x1="98" x2="1127" y1="172.6641" y2="172.6641"/><text fill="#000000" font-family="FG Virgil" font-size="20" lengthAdjust="spacing" textLength="329" x="105" y="166.4453">Asks to create a new show request</text><polygon fill="#1D1D1D" points="1381.5,206.2188,1391.5,210.2188,1381.5,214.2188,1385.5,210.2188" style="stroke:#1D1D1D;stroke-width:1.0;"/><line style="stroke:#1D1D1D;stroke-width:1.0;" x1="1143" x2="1387.5" y1="210.2188" y2="210.2188"/><text fill="#000000" font-family="FG Virgil" font-size="20" lengthAdjust="spacing" textLength="78" x="1150" y="204">«create»</text><polygon fill="#1D1D1D" points="2202,243.7734,2212,247.7734,2202,251.7734,2206,247.7734" style="stroke:#1D1D1D;stroke-width:1.0;"/><line style="stroke:#1D1D1D;stroke-width:1.0;" x1="1403.5" x2="2208" y1="247.7734" y2="247.7734"/><text fill="#000000" font-family="FG Virgil" font-size="20" lengthAdjust="spacing" textLength="128" x="1410.5" y="241.5547">repositories()</text><polygon fill="#1D1D1D" points="1414.5,281.3281,1404.5,285.3281,1414.5,289.3281,1410.5,285.3281" style="stroke:#1D1D1D;stroke-width:1.0;"/><line style="stroke:#1D1D1D;stroke-width:1.0;stroke-dasharray:2.0,2.0;" x1="1408.5" x2="2218" y1="285.3281" y2="285.3281"/><text fill="#000000" font-family="FG Virgil" font-size="20" lengthAdjust="spacing" textLength="166" x="1420.5" y="279.1094">repositoryFactory</text><polygon fill="#1D1D1D" points="2402.5,318.8828,2412.5,322.8828,2402.5,326.8828,2406.5,322.8828" style="stroke:#1D1D1D;stroke-width:1.0;"/><line style="stroke:#1D1D1D;stroke-width:1.0;" x1="1403.5" x2="2408.5" y1="322.8828" y2="322.8828"/><text fill="#000000" font-family="FG Virgil" font-size="20" lengthAdjust="spacing" textLength="600" x="1410.5" y="316.6641">userRepository() ' Assumed method name for user repo access</text><polygon fill="#1D1D1D" points="2676.5,356.4375,2686.5,360.4375,2676.5,364.4375,2680.5,360.4375" style="stroke:#1D1D1D;stroke-width:1.0;"/><line style="stroke:#1D1D1D;stroke-width:1.0;" x1="2424.5" x2="2682.5" y1="360.4375" y2="360.4375"/><text fill="#000000" font-family="FG Virgil" font-size="20" lengthAdjust="spacing" textLength="240" x="2431.5" y="354.2188">«create» ' Or get instance</text><polygon fill="#1D1D1D" points="1409.5,393.9922,1399.5,397.9922,1409.5,401.9922,1405.5,397.9922" style="stroke:#1D1D1D;stroke-width:1.0;"/><line style="stroke:#1D1D1D;stroke-width:1.0;stroke-dasharray:2.0,2.0;" x1="1403.5" x2="2418.5" y1="397.9922" y2="397.9922"/><text fill="#000000" font-family="FG Virgil" font-size="20" lengthAdjust="spacing" textLength="143" x="1415.5" y="391.7734">userRepository</text><polygon fill="#1D1D1D" points="1847,431.5469,1857,435.5469,1847,439.5469,1851,435.5469" style="stroke:#1D1D1D;stroke-width:1.0;"/><line style="stroke:#1D1D1D;stroke-width:1.0;" x1="1143" x2="1853" y1="435.5469" y2="435.5469"/><text fill="#000000" font-family="FG Virgil" font-size="20" lengthAdjust="spacing" textLength="78" x="1150" y="429.3281">«create»</text><polygon fill="#1D1D1D" points="2202,469.1016,2212,473.1016,2202,477.1016,2206,473.1016" style="stroke:#1D1D1D;stroke-width:1.0;"/><line style="stroke:#1D1D1D;stroke-width:1.0;" x1="1869" x2="2208" y1="473.1016" y2="473.1016"/><text fill="#000000" font-family="FG Virgil" font-size="20" lengthAdjust="spacing" textLength="128" x="1876" y="466.8828">repositories()</text><polygon fill="#1D1D1D" points="1880,506.6563,1870,510.6563,1880,514.6563,1876,510.6563" style="stroke:#1D1D1D;stroke-width:1.0;"/><line style="stroke:#1D1D1D;stroke-width:1.0;stroke-dasharray:2.0,2.0;" x1="1874" x2="2218" y1="510.6563" y2="510.6563"/><text fill="#000000" font-family="FG Virgil" font-size="20" lengthAdjust="spacing" textLength="166" x="1886" y="504.4375">repositoryFactory</text><polygon fill="#1D1D1D" points="2402.5,544.2109,2412.5,548.2109,2402.5,552.2109,2406.5,548.2109" style="stroke:#1D1D1D;stroke-width:1.0;"/><line style="stroke:#1D1D1D;stroke-width:1.0;" x1="1869" x2="2408.5" y1="548.2109" y2="548.2109"/><text fill="#000000" font-family="FG Virgil" font-size="20" lengthAdjust="spacing" textLength="497" x="1876" y="541.9922">showRequestCatalogue() ' Actual method from code</text><polygon fill="#1D1D1D" points="2887.5,581.7656,2897.5,585.7656,2887.5,589.7656,2891.5,585.7656" style="stroke:#1D1D1D;stroke-width:1.0;"/><line style="stroke:#1D1D1D;stroke-width:1.0;" x1="2424.5" x2="2893.5" y1="585.7656" y2="585.7656"/><text fill="#000000" font-family="FG Virgil" font-size="20" lengthAdjust="spacing" textLength="240" x="2431.5" y="579.5469">«create» ' Or get instance</text><polygon fill="#1D1D1D" points="1875,619.3203,1865,623.3203,1875,627.3203,1871,623.3203" style="stroke:#1D1D1D;stroke-width:1.0;"/><line style="stroke:#1D1D1D;stroke-width:1.0;stroke-dasharray:2.0,2.0;" x1="1869" x2="2418.5" y1="623.3203" y2="623.3203"/><text fill="#000000" font-family="FG Virgil" font-size="20" lengthAdjust="spacing" textLength="228" x="1881" y="617.1016">showRequestRepository</text><polygon fill="#181818" points="1381.5,656.875,1391.5,660.875,1381.5,664.875,1385.5,660.875" style="stroke:#181818;stroke-width:1.0;"/><line style="stroke:#181818;stroke-width:1.0;" x1="1143" x2="1387.5" y1="660.875" y2="660.875"/><text fill="#000000" font-family="FG Virgil" font-size="20" lengthAdjust="spacing" textLength="187" x="1150" y="654.6563">listShodroneUsers()</text><polygon fill="#181818" points="2671.5,694.4297,2681.5,698.4297,2671.5,702.4297,2675.5,698.4297" style="stroke:#181818;stroke-width:1.0;"/><line style="stroke:#181818;stroke-width:1.0;" x1="1403.5" x2="2677.5" y1="698.4297" y2="698.4297"/><text fill="#000000" font-family="FG Virgil" font-size="20" lengthAdjust="spacing" textLength="452" x="1410.5" y="692.2109">findAll() ' Or a similar method to fetch all users</text><polygon fill="#181818" points="1414.5,731.9844,1404.5,735.9844,1414.5,739.9844,1410.5,735.9844" style="stroke:#181818;stroke-width:1.0;"/><line style="stroke:#181818;stroke-width:1.0;stroke-dasharray:2.0,2.0;" x1="1408.5" x2="2687.5" y1="735.9844" y2="735.9844"/><text fill="#000000" font-family="FG Virgil" font-size="20" lengthAdjust="spacing" textLength="426" x="1420.5" y="729.7656">allShodroneUsers (Iterable&lt;ShodroneUser&gt;)</text><polygon fill="#181818" points="1154,769.5391,1144,773.5391,1154,777.5391,1150,773.5391" style="stroke:#181818;stroke-width:1.0;"/><line style="stroke:#181818;stroke-width:1.0;stroke-dasharray:2.0,2.0;" x1="1148" x2="1397.5" y1="773.5391" y2="773.5391"/><text fill="#000000" font-family="FG Virgil" font-size="20" lengthAdjust="spacing" textLength="167" x="1160" y="767.3203">allShodroneUsers</text><polygon fill="#181818" points="109,807.0938,99,811.0938,109,815.0938,105,811.0938" style="stroke:#181818;stroke-width:1.0;"/><line style="stroke:#181818;stroke-width:1.0;stroke-dasharray:2.0,2.0;" x1="103" x2="1132" y1="811.0938" y2="811.0938"/><text fill="#000000" font-family="FG Virgil" font-size="20" lengthAdjust="spacing" textLength="349" x="115" y="804.875">Shows list of customers for selection</text><polygon fill="#181818" points="1121,844.6484,1131,848.6484,1121,852.6484,1125,848.6484" style="stroke:#181818;stroke-width:1.0;"/><line style="stroke:#181818;stroke-width:1.0;" x1="98" x2="1127" y1="848.6484" y2="848.6484"/><text fill="#000000" font-family="FG Virgil" font-size="20" lengthAdjust="spacing" textLength="466" x="105" y="842.4297">Selects a customer (selectedUser: ShodroneUser)</text><polygon fill="#181818" points="109,882.2031,99,886.2031,109,890.2031,105,886.2031" style="stroke:#181818;stroke-width:1.0;"/><line style="stroke:#181818;stroke-width:1.0;stroke-dasharray:2.0,2.0;" x1="103" x2="1132" y1="886.2031" y2="886.2031"/><text fill="#000000" font-family="FG Virgil" font-size="20" lengthAdjust="spacing" textLength="765" x="115" y="879.9844">Ask for Show Request details (Description, Place, ShowDate, Duration, NDrones)</text><polygon fill="#181818" points="1121,919.7578,1131,923.7578,1121,927.7578,1125,923.7578" style="stroke:#181818;stroke-width:1.0;"/><line style="stroke:#181818;stroke-width:1.0;" x1="98" x2="1127" y1="923.7578" y2="923.7578"/><text fill="#000000" font-family="FG Virgil" font-size="20" lengthAdjust="spacing" textLength="1011" x="105" y="917.5391">Provides Show Request details (descriptionText, placeText, requestShowDateCal, durationInt, nDronesInt)</text><polygon fill="#181818" points="1847,980.8672,1857,984.8672,1847,988.8672,1851,984.8672" style="stroke:#181818;stroke-width:1.0;"/><line style="stroke:#181818;stroke-width:1.0;" x1="1143" x2="1853" y1="984.8672" y2="984.8672"/><text fill="#000000" font-family="FG Virgil" font-size="20" lengthAdjust="spacing" textLength="691" x="1150" y="955.0938">registerShowRequest(descriptionText, placeText, requestCreateDateCal,</text><text fill="#000000" font-family="FG Virgil" font-size="20" lengthAdjust="spacing" textLength="573" x="1156" y="978.6484">requestShowDateCal, durationInt, nDronesInt, selectedUser)</text><polygon fill="#181818" points="3227,1018.4219,3237,1022.4219,3227,1026.4219,3231,1022.4219" style="stroke:#181818;stroke-width:1.0;"/><line style="stroke:#181818;stroke-width:1.0;" x1="1869" x2="3233" y1="1022.4219" y2="1022.4219"/><text fill="#000000" font-family="FG Virgil" font-size="20" lengthAdjust="spacing" textLength="238" x="1876" y="1016.2031">valueOf(descriptionText)</text><polygon fill="#181818" points="1880,1055.9766,1870,1059.9766,1880,1063.9766,1876,1059.9766" style="stroke:#181818;stroke-width:1.0;"/><line style="stroke:#181818;stroke-width:1.0;stroke-dasharray:2.0,2.0;" x1="1874" x2="3243" y1="1059.9766" y2="1059.9766"/><text fill="#000000" font-family="FG Virgil" font-size="20" lengthAdjust="spacing" textLength="224" x="1886" y="1053.7578">descriptionValueObject</text><polygon fill="#181818" points="3369,1093.5313,3379,1097.5313,3369,1101.5313,3373,1097.5313" style="stroke:#181818;stroke-width:1.0;"/><line style="stroke:#181818;stroke-width:1.0;" x1="1869" x2="3375" y1="1097.5313" y2="1097.5313"/><text fill="#000000" font-family="FG Virgil" font-size="20" lengthAdjust="spacing" textLength="181" x="1876" y="1091.3125">valueOf(placeText)</text><polygon fill="#181818" points="1880,1131.0859,1870,1135.0859,1880,1139.0859,1876,1135.0859" style="stroke:#181818;stroke-width:1.0;"/><line style="stroke:#181818;stroke-width:1.0;stroke-dasharray:2.0,2.0;" x1="1874" x2="3385" y1="1135.0859" y2="1135.0859"/><text fill="#000000" font-family="FG Virgil" font-size="20" lengthAdjust="spacing" textLength="167" x="1886" y="1128.8672">placeValueObject</text><polygon fill="#181818" points="3557,1168.6406,3567,1172.6406,3557,1176.6406,3561,1172.6406" style="stroke:#181818;stroke-width:1.0;"/><line style="stroke:#181818;stroke-width:1.0;" x1="1869" x2="3563" y1="1172.6406" y2="1172.6406"/><text fill="#000000" font-family="FG Virgil" font-size="20" lengthAdjust="spacing" textLength="344" x="1876" y="1166.4219">valueOf(formattedCreateDateString)</text><polygon fill="#181818" points="1880,1206.1953,1870,1210.1953,1880,1214.1953,1876,1210.1953" style="stroke:#181818;stroke-width:1.0;"/><line style="stroke:#181818;stroke-width:1.0;stroke-dasharray:2.0,2.0;" x1="1874" x2="3573" y1="1210.1953" y2="1210.1953"/><text fill="#000000" font-family="FG Virgil" font-size="20" lengthAdjust="spacing" textLength="218" x="1886" y="1203.9766">createDateValueObject</text><polygon fill="#181818" points="3767.5,1243.75,3777.5,1247.75,3767.5,1251.75,3771.5,1247.75" style="stroke:#181818;stroke-width:1.0;"/><line style="stroke:#181818;stroke-width:1.0;" x1="1869" x2="3773.5" y1="1247.75" y2="1247.75"/><text fill="#000000" font-family="FG Virgil" font-size="20" lengthAdjust="spacing" textLength="598" x="1876" y="1241.5313">valueOf(formattedShowDateString) ' from requestShowDateCal</text><polygon fill="#181818" points="1880,1281.3047,1870,1285.3047,1880,1289.3047,1876,1285.3047" style="stroke:#181818;stroke-width:1.0;"/><line style="stroke:#181818;stroke-width:1.0;stroke-dasharray:2.0,2.0;" x1="1874" x2="3783.5" y1="1285.3047" y2="1285.3047"/><text fill="#000000" font-family="FG Virgil" font-size="20" lengthAdjust="spacing" textLength="209" x="1886" y="1279.0859">showDateValueObject</text><polygon fill="#181818" points="3957,1318.8594,3967,1322.8594,3957,1326.8594,3961,1322.8594" style="stroke:#181818;stroke-width:1.0;"/><line style="stroke:#181818;stroke-width:1.0;" x1="1869" x2="3963" y1="1322.8594" y2="1322.8594"/><text fill="#000000" font-family="FG Virgil" font-size="20" lengthAdjust="spacing" textLength="193" x="1876" y="1316.6406">valueOf(durationInt)</text><polygon fill="#181818" points="1880,1356.4141,1870,1360.4141,1880,1364.4141,1876,1360.4141" style="stroke:#181818;stroke-width:1.0;"/><line style="stroke:#181818;stroke-width:1.0;stroke-dasharray:2.0,2.0;" x1="1874" x2="3973" y1="1360.4141" y2="1360.4141"/><text fill="#000000" font-family="FG Virgil" font-size="20" lengthAdjust="spacing" textLength="197" x="1886" y="1354.1953">durationValueObject</text><polygon fill="#181818" points="4141,1393.9688,4151,1397.9688,4141,1401.9688,4145,1397.9688" style="stroke:#181818;stroke-width:1.0;"/><line style="stroke:#181818;stroke-width:1.0;" x1="1869" x2="4147" y1="1397.9688" y2="1397.9688"/><text fill="#000000" font-family="FG Virgil" font-size="20" lengthAdjust="spacing" textLength="192" x="1876" y="1391.75">valueOf(nDronesInt)</text><polygon fill="#181818" points="1880,1431.5234,1870,1435.5234,1880,1439.5234,1876,1435.5234" style="stroke:#181818;stroke-width:1.0;"/><line style="stroke:#181818;stroke-width:1.0;stroke-dasharray:2.0,2.0;" x1="1874" x2="4157" y1="1435.5234" y2="1435.5234"/><text fill="#000000" font-family="FG Virgil" font-size="20" lengthAdjust="spacing" textLength="196" x="1886" y="1429.3047">nDronesValueObject</text><polygon fill="#181818" points="3084.5,1492.6328,3094.5,1496.6328,3084.5,1500.6328,3088.5,1496.6328" style="stroke:#181818;stroke-width:1.0;"/><line style="stroke:#181818;stroke-width:1.0;" x1="1869" x2="3090.5" y1="1496.6328" y2="1496.6328"/><text fill="#000000" font-family="FG Virgil" font-size="20" lengthAdjust="spacing" textLength="730" x="1876" y="1466.8594">«create» (descriptionValueObject, placeValueObject, createDateValueObject,</text><text fill="#000000" font-family="FG Virgil" font-size="20" lengthAdjust="spacing" textLength="767" x="1882" y="1490.4141">showDateValueObject, durationValueObject, nDronesValueObject, selectedUser)</text><polygon fill="#181818" points="1880,1530.1875,1870,1534.1875,1880,1538.1875,1876,1534.1875" style="stroke:#181818;stroke-width:1.0;"/><line style="stroke:#181818;stroke-width:1.0;stroke-dasharray:2.0,2.0;" x1="1874" x2="3100.5" y1="1534.1875" y2="1534.1875"/><text fill="#000000" font-family="FG Virgil" font-size="20" lengthAdjust="spacing" textLength="165" x="1886" y="1527.9688">newShowRequest</text><line style="stroke:#181818;stroke-width:1.0;" x1="1869" x2="1911" y1="1571.7422" y2="1571.7422"/><line style="stroke:#181818;stroke-width:1.0;" x1="1911" x2="1911" y1="1571.7422" y2="1584.7422"/><line style="stroke:#181818;stroke-width:1.0;" x1="1870" x2="1911" y1="1584.7422" y2="1584.7422"/><polygon fill="#181818" points="1880,1580.7422,1870,1584.7422,1880,1588.7422,1876,1584.7422" style="stroke:#181818;stroke-width:1.0;"/><text fill="#000000" font-family="FG Virgil" font-size="20" lengthAdjust="spacing" textLength="245" x="1876" y="1565.5234">isCustomer(selectedUser)</text><line style="stroke:#181818;stroke-width:1.0;stroke-dasharray:2.0,2.0;" x1="1869" x2="1911" y1="1622.2969" y2="1622.2969"/><line style="stroke:#181818;stroke-width:1.0;stroke-dasharray:2.0,2.0;" x1="1911" x2="1911" y1="1622.2969" y2="1635.2969"/><line style="stroke:#181818;stroke-width:1.0;stroke-dasharray:2.0,2.0;" x1="1870" x2="1911" y1="1635.2969" y2="1635.2969"/><polygon fill="#181818" points="1880,1631.2969,1870,1635.2969,1880,1639.2969,1876,1635.2969" style="stroke:#181818;stroke-width:1.0;"/><text fill="#000000" font-family="FG Virgil" font-size="20" lengthAdjust="spacing" textLength="331" x="1876" y="1616.0781">true ' Assuming user is a customer</text><polygon fill="#181818" points="2882.5,1668.8516,2892.5,1672.8516,2882.5,1676.8516,2886.5,1672.8516" style="stroke:#181818;stroke-width:1.0;"/><line style="stroke:#181818;stroke-width:1.0;" x1="1869" x2="2888.5" y1="1672.8516" y2="1672.8516"/><text fill="#000000" font-family="FG Virgil" font-size="20" lengthAdjust="spacing" textLength="221" x="1876" y="1666.6328">save(newShowRequest)</text><polygon fill="#181818" points="1880,1706.4063,1870,1710.4063,1880,1714.4063,1876,1710.4063" style="stroke:#181818;stroke-width:1.0;"/><line style="stroke:#181818;stroke-width:1.0;stroke-dasharray:2.0,2.0;" x1="1874" x2="2898.5" y1="1710.4063" y2="1710.4063"/><text fill="#000000" font-family="FG Virgil" font-size="20" lengthAdjust="spacing" textLength="522" x="1886" y="1704.1875">savedShowRequest ' The persisted ShowRequest entity</text><polygon fill="#181818" points="1154,1743.9609,1144,1747.9609,1154,1751.9609,1150,1747.9609" style="stroke:#181818;stroke-width:1.0;"/><line style="stroke:#181818;stroke-width:1.0;stroke-dasharray:2.0,2.0;" x1="1148" x2="1863" y1="1747.9609" y2="1747.9609"/><text fill="#000000" font-family="FG Virgil" font-size="20" lengthAdjust="spacing" textLength="418" x="1160" y="1741.7422">savedShowRequest ' Or confirmation/status</text><polygon fill="#181818" points="104,1781.5156,94,1785.5156,104,1789.5156,100,1785.5156" style="stroke:#181818;stroke-width:1.0;"/><line style="stroke:#181818;stroke-width:1.0;stroke-dasharray:2.0,2.0;" x1="98" x2="1137" y1="1785.5156" y2="1785.5156"/><text fill="#000000" font-family="FG Virgil" font-size="20" lengthAdjust="spacing" textLength="780" x="110" y="1779.2969">Success message and displays created Show Request (or its ID) / Failure message</text><!--SRC=[hLZTRzis47_tNt7e7c83ZjkbRrvgm7EIma3N17RJFMp3m4XdcuiiUIJbn5ttl-z8weEKA3ijbeV04dbtl_k-atpawOu9jasow15ZY775yaJTPAbQyYy85szwFSLLWd0fwNbyyMQonBzpJ2E4AyxMH0dtouktRyOm4yWKmdAJFS52tv7gyhKcclHwiXG3sopDeet8jWXAvEYSx5ZqoDQuL0UI9Z1Ipfa3woCZqflty9cBDK-SEtB3uko9fsjOiKHYhySYbGbuDLly0hCiITX39XYzUGLCmbIVzOXGyOZlMAhWrNWQnnfyWVr-RYxUp-7oSYTGOggOubawcJJ8Fd2fY2uMMOht4eMS4Kf10j6AqkVslH89CMExNSAZCAy5hkas2WT7WnlTA0vFixiZePeTEKjpmMTbMDpDY4ngRQ8cnG9tcUHaciEDiTx1ohmXWXNP69yoyTYaqRhLTDPenIiY4zL9ayxHiK5Ud7mB1vTEFr-d5BK7eewpBUCjoroXZ0JVQQCPIlty-RRpUi7qBc4HMXFgNwS9J4gGZ2jA34DdSqG_dYRMsbI4vSDfigjSi5gluk4qsSSh7R_IK1M_VIAJJtolKzmcZ_aFvnDAaJ5CvQC4bK5aYm2359ye8waK2Ck_fhwVztf0VsTGXpRCKwuuI_WN0nVwwh2Ze4wI0smem36LyBJ1L6SZbuMGU63OqAlpttvuI7ByO-BdsfZWswi4Nr-j87ZNp945vATgzg18zJgQRH32dZDePnQmD8PM-bIyVSuruBlP6Ae0voZxWugaGditgzvHwfvtQYiwfSSOOjQ5QN4pXjpJkJyWuqobpBVK8hQegDf1gklmYY90NpMo2N64KhOLMDnKxwYKr89AmxgE8a6t0jQeW4ol61dOe-rKtWSSqhn0uRpnmw0TJNwjxGud_vuJJurYNGPKiF9zNrmr9FnFWTLK_5iZgnEL3Ytfz3QcM9AjSxG15gcS9MLyhMX6W2YByUNnvFIDxmgffjeovAUNXLOW9CxWcbpPMVFAehXKk8CVnx34X6OWcELIqR0agkXiHNxId3yALn-fTetCTpDnnTDucYJ68MGr1f9lUS94wHQgyIjKqGQeE9kaaxwmafF5Myu1vstOHE-XXlwS1X_saE2b-tuoQ9hMaz3GfEX6JTulIFmpRTmLJvI6OlJIgkgWYGeF44AoW4Huuce3D5N-ERlzy67wy-rY-kbs0UHK7DIib6vNnTmezHCHrfo8DRsoZTGKKMcyRLeVZjQZ8K7GawmDWbzvJ43gTaTQ6ignYNXf8W2obSFVOsdel6vjsKhoRaa2VNiTOsqNmxWoty0BpOinl6S4NdYJFarGLDiI6S18eu71ursFxNNeEvFOq8vLmshO6LRpox2SIGPjPUv4jkSnoWu1SItW4zNJ8Uoq4FjJ-9FMZ2L3Y0kHyvGkf5Og_IvT-p5JE2u9wt5EZoL4ZcdCn8YSDIyg3UMH3XUU6d-JOGXtNG8ymxuTGpd-UweucT-kowrruINwrh2Dnh-dtsA88RYHCdXX9tJAtWu5XSDMKZKszGzYwWAmfq8O5yDVcbDjYJOOFKg2h-iktoEa-VQ1OdkexoFPCIPUL8b60qVCzJFRxX9o45-rF0_lte7X_FKhD8v6Il1jVp3YydgxKpJk3E0VSfWW9-WvTawurooPYZKDGAcwVexGaFP7ez7W9_Yt5rRKzXy9dncr5xXz-Clad4u57Gjsi0OqYqfdvvmKgybO6oZ7srLJgq1RjnJL-sAtEG_4ZyFBWBGOGnsku7a4Px4IrK2hk0jD7lPoFNuK-rG8fE5p0bx9pt54ADPrbjQRHJXV7HPpTMRyjMMAmbqNxIK52fLbKzpfCR3cWQDLsqZk_bTRgX9H7rj10Skv7AfJRwqCsJ2gBnmtfCV-Y2BrFXfGepmib21Bcc6kNMJQwjLygpDdzGsf9ilZuuevZ8ybMxKlEmbNry5GibKKTSBLItSmwShZ4nbNCpu2k5hLQxpDdkN1hUvNH_Mo7m9RC3k1jUPwl1BgkkVqgXVNmDQ77M-yxuVBsB1LEORXF30TC116mv2hXW6JX5fYAwez_5vm-v-iWbx09-TYLtZx4ZeyORggReykP5qNtLbmepzLTG-uOISrGNDPxYxzi7dEuDE6wp5WdoLxb6CFqaWUQBBPwf_Kc0dGD3tqowbqGL3ag8cm6rm0dVxuN7xKq2KzRvcXmuAIxGEHRCTrJlrTj3V5pe2sAvVcsFTTt1r3rURZH4-rOhLg8t5slsaRawEUmCnNXjXJeP65xU2gH0VCgmVnW3JQ8ACiNN7T62YFNkklphayiIo7zfpSV5gY9LHAjaRpKIJcaXByK7qEzEV_FerPsXtpgm6yXXlQ1NA19NtFNIVdxfFzjFaV]--></g></svg>