<svg xmlns="http://www.w3.org/2000/svg" xmlns:xlink="http://www.w3.org/1999/xlink" contentStyleType="text/css" height="759px" preserveAspectRatio="none" style="width:2623px;height:759px;background:#FFFFFF;" version="1.1" viewBox="0 0 2623 759" width="2623px" zoomAndPan="magnify"><defs/><g><!--cluster Domain Model (Authentication & Authorization)--><g id="cluster_Domain Model (Authentication &amp; Authorization)"><path d="M1245.5,6.0137 L1561.4727,6.0137 A3.75,3.75 0 0 1 1563.9727,8.5137 L1570.9727,30.6348 L2613.5,30.6348 A2.5,2.5 0 0 1 2616,33.1348 L2616,749.5137 A2.5,2.5 0 0 1 2613.5,752.0137 L1245.5,752.0137 A2.5,2.5 0 0 1 1243,749.5137 L1243,8.5137 A2.5,2.5 0 0 1 1245.5,6.0137 " fill="none" style="stroke:#000000;stroke-width:1.5;"/><line style="stroke:#000000;stroke-width:1.5;" x1="1243" x2="1570.9727" y1="30.6348" y2="30.6348"/><text fill="#000000" font-family="sans-serif" font-size="14" font-weight="bold" lengthAdjust="spacing" textLength="314.9727" x="1247" y="23.1211">Domain Model (Authentication &amp; Authorization)</text></g><!--cluster Application/Infrastructure Services--><g id="cluster_Application/Infrastructure Services"><path d="M8.5,294.5137 L242.127,294.5137 A3.75,3.75 0 0 1 244.627,297.0137 L251.627,319.1348 L1216.5,319.1348 A2.5,2.5 0 0 1 1219,321.6348 L1219,749.5137 A2.5,2.5 0 0 1 1216.5,752.0137 L8.5,752.0137 A2.5,2.5 0 0 1 6,749.5137 L6,297.0137 A2.5,2.5 0 0 1 8.5,294.5137 " fill="none" style="stroke:#000000;stroke-width:1.5;"/><line style="stroke:#000000;stroke-width:1.5;" x1="6" x2="251.627" y1="319.1348" y2="319.1348"/><text fill="#000000" font-family="sans-serif" font-size="14" font-weight="bold" lengthAdjust="spacing" textLength="232.627" x="10" y="311.6211">Application/Infrastructure Services</text></g><!--class SystemUser--><g id="elem_SystemUser"><rect codeLine="15" fill="#F5DEB3" height="284.0352" id="SystemUser" rx="2.5" ry="2.5" style="stroke:#181818;stroke-width:0.5;" width="455.4541" x="1767.5" y="257.0137"/><ellipse cx="1952.8599" cy="279.3047" fill="#ADD1B2" rx="11" ry="11" style="stroke:#181818;stroke-width:1.0;"/><path d="M1955.6255,275.1797 Q1955.7817,274.9609 1955.9692,274.8516 Q1956.1567,274.7422 1956.3755,274.7422 Q1956.7505,274.7422 1956.9849,275.0078 Q1957.2192,275.2578 1957.2192,275.8672 L1957.2192,277.3203 Q1957.2192,277.9297 1956.9849,278.1953 Q1956.7505,278.4609 1956.3755,278.4609 Q1956.0317,278.4609 1955.8286,278.2578 Q1955.6255,278.0703 1955.5161,277.5547 Q1955.4692,277.1953 1955.2817,277.0078 Q1954.9536,276.6328 1954.3442,276.4141 Q1953.7349,276.1953 1953.1099,276.1953 Q1952.3442,276.1953 1951.7036,276.5234 Q1951.0786,276.8516 1950.5786,277.6016 Q1950.0942,278.3516 1950.0942,279.3828 L1950.0942,280.4766 Q1950.0942,281.7109 1950.9849,282.5391 Q1951.8755,283.3516 1953.4692,283.3516 Q1954.4067,283.3516 1955.063,283.1016 Q1955.4536,282.9453 1955.8755,282.5078 Q1956.1411,282.2422 1956.2817,282.1641 Q1956.438,282.0859 1956.6411,282.0859 Q1956.9692,282.0859 1957.2192,282.3516 Q1957.4849,282.6016 1957.4849,282.9453 Q1957.4849,283.2891 1957.1411,283.6953 Q1956.6411,284.2734 1955.8442,284.6016 Q1954.7661,285.0547 1953.4692,285.0547 Q1951.9536,285.0547 1950.7505,284.4297 Q1949.7661,283.9297 1949.0786,282.8672 Q1948.3911,281.7891 1948.3911,280.5078 L1948.3911,279.3516 Q1948.3911,278.0234 1949.0005,276.8828 Q1949.6255,275.7266 1950.7192,275.1172 Q1951.813,274.4922 1953.0474,274.4922 Q1953.7817,274.4922 1954.4224,274.6641 Q1955.0786,274.8203 1955.6255,275.1797 Z " fill="#000000"/><text fill="#000000" font-family="sans-serif" font-size="12" font-style="italic" lengthAdjust="spacing" textLength="43.3594" x="1989.7974" y="274.9629">&#171;Entity&#187;</text><text fill="#000000" font-family="sans-serif" font-size="14" lengthAdjust="spacing" textLength="76.2344" x="1973.3599" y="293.082">SystemUser</text><line style="stroke:#181818;stroke-width:0.5;" x1="1768.5" x2="2221.9541" y1="301.5957" y2="301.5957"/><ellipse cx="1778.5" cy="316.4063" fill="none" rx="3" ry="3" style="stroke:#038048;stroke-width:1.0;"/><text fill="#000000" font-family="sans-serif" font-size="14" lengthAdjust="spacing" textLength="134.6133" x="1787.5" y="320.7031">username: Username</text><ellipse cx="1778.5" cy="335.0273" fill="none" rx="3" ry="3" style="stroke:#038048;stroke-width:1.0;"/><text fill="#000000" font-family="sans-serif" font-size="14" lengthAdjust="spacing" textLength="129.165" x="1787.5" y="339.3242">password: Password</text><ellipse cx="1778.5" cy="353.6484" fill="none" rx="3" ry="3" style="stroke:#038048;stroke-width:1.0;"/><text fill="#000000" font-family="sans-serif" font-size="14" lengthAdjust="spacing" textLength="102.7031" x="1787.5" y="357.9453">name: FullName</text><ellipse cx="1778.5" cy="372.2695" fill="none" rx="3" ry="3" style="stroke:#038048;stroke-width:1.0;"/><text fill="#000000" font-family="sans-serif" font-size="14" lengthAdjust="spacing" textLength="127.5996" x="1787.5" y="376.5664">email: EmailAddress</text><ellipse cx="1778.5" cy="390.8906" fill="none" rx="3" ry="3" style="stroke:#038048;stroke-width:1.0;"/><text fill="#000000" font-family="sans-serif" font-size="14" lengthAdjust="spacing" textLength="94.1787" x="1787.5" y="395.1875">active: boolean</text><ellipse cx="1778.5" cy="409.5117" fill="none" rx="3" ry="3" style="stroke:#038048;stroke-width:1.0;"/><text fill="#000000" font-family="sans-serif" font-size="14" lengthAdjust="spacing" textLength="129.9648" x="1787.5" y="413.8086">createdOn: Calendar</text><ellipse cx="1778.5" cy="428.1328" fill="none" rx="3" ry="3" style="stroke:#038048;stroke-width:1.0;"/><text fill="#000000" font-family="sans-serif" font-size="14" lengthAdjust="spacing" textLength="154.875" x="1787.5" y="432.4297">deactivatedOn: Calendar</text><line style="stroke:#181818;stroke-width:1.0;" x1="1768.5" x2="2221.9541" y1="439.9434" y2="439.9434"/><ellipse cx="1778.5" cy="454.7539" fill="#84BE84" rx="3" ry="3" style="stroke:#038048;stroke-width:1.0;"/><text fill="#000000" font-family="sans-serif" font-size="14" lengthAdjust="spacing" textLength="429.4541" x="1787.5" y="459.0508">SystemUser(username, password, firstName, lastName, email, roles)</text><ellipse cx="1778.5" cy="473.375" fill="#84BE84" rx="3" ry="3" style="stroke:#038048;stroke-width:1.0;"/><text fill="#000000" font-family="sans-serif" font-size="14" lengthAdjust="spacing" textLength="263.7852" x="1787.5" y="477.6719">passwordMatches(rawPassword): boolean</text><ellipse cx="1778.5" cy="491.9961" fill="#84BE84" rx="3" ry="3" style="stroke:#038048;stroke-width:1.0;"/><text fill="#000000" font-family="sans-serif" font-size="14" lengthAdjust="spacing" textLength="115.165" x="1787.5" y="496.293">isActive(): boolean</text><ellipse cx="1778.5" cy="510.6172" fill="#84BE84" rx="3" ry="3" style="stroke:#038048;stroke-width:1.0;"/><text fill="#000000" font-family="sans-serif" font-size="14" lengthAdjust="spacing" textLength="113.6064" x="1787.5" y="514.9141">roles(): Set&lt;Role&gt;</text><ellipse cx="1778.5" cy="529.2383" fill="#84BE84" rx="3" ry="3" style="stroke:#038048;stroke-width:1.0;"/><text fill="#000000" font-family="sans-serif" font-size="14" lengthAdjust="spacing" textLength="143.9717" x="1787.5" y="533.5352">hasAny(roles): boolean</text></g><!--class Role--><g id="elem_Role"><rect codeLine="31" fill="#ADD8E6" height="97.8242" id="Role" rx="2.5" ry="2.5" style="stroke:#181818;stroke-width:0.5;" width="191.7305" x="2408" y="629.0137"/><ellipse cx="2460.5879" cy="651.3047" fill="#ADD1B2" rx="11" ry="11" style="stroke:#181818;stroke-width:1.0;"/><path d="M2463.3535,647.1797 Q2463.5098,646.9609 2463.6973,646.8516 Q2463.8848,646.7422 2464.1035,646.7422 Q2464.4785,646.7422 2464.7129,647.0078 Q2464.9473,647.2578 2464.9473,647.8672 L2464.9473,649.3203 Q2464.9473,649.9297 2464.7129,650.1953 Q2464.4785,650.4609 2464.1035,650.4609 Q2463.7598,650.4609 2463.5566,650.2578 Q2463.3535,650.0703 2463.2441,649.5547 Q2463.1973,649.1953 2463.0098,649.0078 Q2462.6816,648.6328 2462.0723,648.4141 Q2461.4629,648.1953 2460.8379,648.1953 Q2460.0723,648.1953 2459.4316,648.5234 Q2458.8066,648.8516 2458.3066,649.6016 Q2457.8223,650.3516 2457.8223,651.3828 L2457.8223,652.4766 Q2457.8223,653.7109 2458.7129,654.5391 Q2459.6035,655.3516 2461.1973,655.3516 Q2462.1348,655.3516 2462.791,655.1016 Q2463.1816,654.9453 2463.6035,654.5078 Q2463.8691,654.2422 2464.0098,654.1641 Q2464.166,654.0859 2464.3691,654.0859 Q2464.6973,654.0859 2464.9473,654.3516 Q2465.2129,654.6016 2465.2129,654.9453 Q2465.2129,655.2891 2464.8691,655.6953 Q2464.3691,656.2734 2463.5723,656.6016 Q2462.4941,657.0547 2461.1973,657.0547 Q2459.6816,657.0547 2458.4785,656.4297 Q2457.4941,655.9297 2456.8066,654.8672 Q2456.1191,653.7891 2456.1191,652.5078 L2456.1191,651.3516 Q2456.1191,650.0234 2456.7285,648.8828 Q2457.3535,647.7266 2458.4473,647.1172 Q2459.541,646.4922 2460.7754,646.4922 Q2461.5098,646.4922 2462.1504,646.6641 Q2462.8066,646.8203 2463.3535,647.1797 Z " fill="#000000"/><text fill="#000000" font-family="sans-serif" font-size="12" font-style="italic" lengthAdjust="spacing" textLength="82.0547" x="2479.0879" y="646.9629">&#171;Value Object&#187;</text><text fill="#000000" font-family="sans-serif" font-size="14" lengthAdjust="spacing" textLength="28.793" x="2505.7188" y="665.082">Role</text><line style="stroke:#181818;stroke-width:0.5;" x1="2409" x2="2598.7305" y1="673.5957" y2="673.5957"/><ellipse cx="2419" cy="688.4063" fill="none" rx="3" ry="3" style="stroke:#038048;stroke-width:1.0;"/><text fill="#000000" font-family="sans-serif" font-size="14" lengthAdjust="spacing" textLength="79.3721" x="2428" y="692.7031">name: String</text><line style="stroke:#181818;stroke-width:1.0;" x1="2409" x2="2598.7305" y1="700.2168" y2="700.2168"/><ellipse cx="2419" cy="715.0273" fill="#84BE84" rx="3" ry="3" style="stroke:#038048;stroke-width:1.0;"/><text fill="#000000" font-family="sans-serif" font-size="14" lengthAdjust="spacing" textLength="165.7305" x="2428" y="719.3242">static valueOf(name): Role</text></g><!--class Username--><g id="elem_Username"><rect codeLine="39" fill="#ADD8E6" height="79.2031" id="Username" rx="2.5" ry="2.5" style="stroke:#181818;stroke-width:0.5;" width="110.0547" x="1940" y="638.5137"/><ellipse cx="1955" cy="660.8047" fill="#ADD1B2" rx="11" ry="11" style="stroke:#181818;stroke-width:1.0;"/><path d="M1957.7656,656.6797 Q1957.9219,656.4609 1958.1094,656.3516 Q1958.2969,656.2422 1958.5156,656.2422 Q1958.8906,656.2422 1959.125,656.5078 Q1959.3594,656.7578 1959.3594,657.3672 L1959.3594,658.8203 Q1959.3594,659.4297 1959.125,659.6953 Q1958.8906,659.9609 1958.5156,659.9609 Q1958.1719,659.9609 1957.9688,659.7578 Q1957.7656,659.5703 1957.6563,659.0547 Q1957.6094,658.6953 1957.4219,658.5078 Q1957.0938,658.1328 1956.4844,657.9141 Q1955.875,657.6953 1955.25,657.6953 Q1954.4844,657.6953 1953.8438,658.0234 Q1953.2188,658.3516 1952.7188,659.1016 Q1952.2344,659.8516 1952.2344,660.8828 L1952.2344,661.9766 Q1952.2344,663.2109 1953.125,664.0391 Q1954.0156,664.8516 1955.6094,664.8516 Q1956.5469,664.8516 1957.2031,664.6016 Q1957.5938,664.4453 1958.0156,664.0078 Q1958.2813,663.7422 1958.4219,663.6641 Q1958.5781,663.5859 1958.7813,663.5859 Q1959.1094,663.5859 1959.3594,663.8516 Q1959.625,664.1016 1959.625,664.4453 Q1959.625,664.7891 1959.2813,665.1953 Q1958.7813,665.7734 1957.9844,666.1016 Q1956.9063,666.5547 1955.6094,666.5547 Q1954.0938,666.5547 1952.8906,665.9297 Q1951.9063,665.4297 1951.2188,664.3672 Q1950.5313,663.2891 1950.5313,662.0078 L1950.5313,660.8516 Q1950.5313,659.5234 1951.1406,658.3828 Q1951.7656,657.2266 1952.8594,656.6172 Q1953.9531,655.9922 1955.1875,655.9922 Q1955.9219,655.9922 1956.5625,656.1641 Q1957.2188,656.3203 1957.7656,656.6797 Z " fill="#000000"/><text fill="#000000" font-family="sans-serif" font-size="12" font-style="italic" lengthAdjust="spacing" textLength="82.0547" x="1967" y="656.4629">&#171;Value Object&#187;</text><text fill="#000000" font-family="sans-serif" font-size="14" lengthAdjust="spacing" textLength="64.5791" x="1975.7378" y="674.582">Username</text><line style="stroke:#181818;stroke-width:0.5;" x1="1941" x2="2049.0547" y1="683.0957" y2="683.0957"/><ellipse cx="1951" cy="697.9063" fill="none" rx="3" ry="3" style="stroke:#038048;stroke-width:1.0;"/><text fill="#000000" font-family="sans-serif" font-size="14" lengthAdjust="spacing" textLength="77.8203" x="1960" y="702.2031">value: String</text><line style="stroke:#181818;stroke-width:0.5;" x1="1941" x2="2049.0547" y1="709.7168" y2="709.7168"/></g><!--class Password--><g id="elem_Password"><rect codeLine="44" fill="#ADD8E6" height="116.4453" id="Password" rx="2.5" ry="2.5" style="stroke:#181818;stroke-width:0.5;" width="288.2402" x="2085" y="620.0137"/><ellipse cx="2185.8428" cy="642.3047" fill="#ADD1B2" rx="11" ry="11" style="stroke:#181818;stroke-width:1.0;"/><path d="M2188.6084,638.1797 Q2188.7646,637.9609 2188.9521,637.8516 Q2189.1396,637.7422 2189.3584,637.7422 Q2189.7334,637.7422 2189.9678,638.0078 Q2190.2021,638.2578 2190.2021,638.8672 L2190.2021,640.3203 Q2190.2021,640.9297 2189.9678,641.1953 Q2189.7334,641.4609 2189.3584,641.4609 Q2189.0146,641.4609 2188.8115,641.2578 Q2188.6084,641.0703 2188.499,640.5547 Q2188.4521,640.1953 2188.2646,640.0078 Q2187.9365,639.6328 2187.3271,639.4141 Q2186.7178,639.1953 2186.0928,639.1953 Q2185.3271,639.1953 2184.6865,639.5234 Q2184.0615,639.8516 2183.5615,640.6016 Q2183.0771,641.3516 2183.0771,642.3828 L2183.0771,643.4766 Q2183.0771,644.7109 2183.9678,645.5391 Q2184.8584,646.3516 2186.4521,646.3516 Q2187.3896,646.3516 2188.0459,646.1016 Q2188.4365,645.9453 2188.8584,645.5078 Q2189.124,645.2422 2189.2646,645.1641 Q2189.4209,645.0859 2189.624,645.0859 Q2189.9521,645.0859 2190.2021,645.3516 Q2190.4678,645.6016 2190.4678,645.9453 Q2190.4678,646.2891 2190.124,646.6953 Q2189.624,647.2734 2188.8271,647.6016 Q2187.749,648.0547 2186.4521,648.0547 Q2184.9365,648.0547 2183.7334,647.4297 Q2182.749,646.9297 2182.0615,645.8672 Q2181.374,644.7891 2181.374,643.5078 L2181.374,642.3516 Q2181.374,641.0234 2181.9834,639.8828 Q2182.6084,638.7266 2183.7021,638.1172 Q2184.7959,637.4922 2186.0303,637.4922 Q2186.7646,637.4922 2187.4053,637.6641 Q2188.0615,637.8203 2188.6084,638.1797 Z " fill="#000000"/><text fill="#000000" font-family="sans-serif" font-size="12" font-style="italic" lengthAdjust="spacing" textLength="82.0547" x="2204.3428" y="637.9629">&#171;Value Object&#187;</text><text fill="#000000" font-family="sans-serif" font-size="14" lengthAdjust="spacing" textLength="61.4688" x="2214.6357" y="656.082">Password</text><line style="stroke:#181818;stroke-width:0.5;" x1="2086" x2="2372.2402" y1="664.5957" y2="664.5957"/><rect fill="none" height="6" style="stroke:#C82930;stroke-width:1.0;" width="6" x="2093" y="676.4063"/><text fill="#000000" font-family="sans-serif" font-size="14" lengthAdjust="spacing" textLength="151.751" x="2105" y="683.7031">hashedPassword: String</text><line style="stroke:#181818;stroke-width:1.0;" x1="2086" x2="2372.2402" y1="691.2168" y2="691.2168"/><ellipse cx="2096" cy="706.0273" fill="#84BE84" rx="3" ry="3" style="stroke:#038048;stroke-width:1.0;"/><text fill="#000000" font-family="sans-serif" font-size="14" lengthAdjust="spacing" textLength="178.1924" x="2105" y="710.3242">Password(hashedPassword)</text><ellipse cx="2096" cy="724.6484" fill="#84BE84" rx="3" ry="3" style="stroke:#038048;stroke-width:1.0;"/><text fill="#000000" font-family="sans-serif" font-size="14" lengthAdjust="spacing" textLength="262.2402" x="2105" y="728.9453">matches(rawPassword, encoder): boolean</text></g><!--class ShodronePasswordPolicy--><g id="elem_ShodronePasswordPolicy"><rect codeLine="52" fill="#F5DEB3" height="79.2031" id="ShodronePasswordPolicy" rx="2.5" ry="2.5" style="stroke:#181818;stroke-width:0.5;" width="257.1025" x="1259.5" y="359.5137"/><ellipse cx="1304.0361" cy="381.8047" fill="#ADD1B2" rx="11" ry="11" style="stroke:#181818;stroke-width:1.0;"/><path d="M1306.8018,377.6797 Q1306.958,377.4609 1307.1455,377.3516 Q1307.333,377.2422 1307.5518,377.2422 Q1307.9268,377.2422 1308.1611,377.5078 Q1308.3955,377.7578 1308.3955,378.3672 L1308.3955,379.8203 Q1308.3955,380.4297 1308.1611,380.6953 Q1307.9268,380.9609 1307.5518,380.9609 Q1307.208,380.9609 1307.0049,380.7578 Q1306.8018,380.5703 1306.6924,380.0547 Q1306.6455,379.6953 1306.458,379.5078 Q1306.1299,379.1328 1305.5205,378.9141 Q1304.9111,378.6953 1304.2861,378.6953 Q1303.5205,378.6953 1302.8799,379.0234 Q1302.2549,379.3516 1301.7549,380.1016 Q1301.2705,380.8516 1301.2705,381.8828 L1301.2705,382.9766 Q1301.2705,384.2109 1302.1611,385.0391 Q1303.0518,385.8516 1304.6455,385.8516 Q1305.583,385.8516 1306.2393,385.6016 Q1306.6299,385.4453 1307.0518,385.0078 Q1307.3174,384.7422 1307.458,384.6641 Q1307.6143,384.5859 1307.8174,384.5859 Q1308.1455,384.5859 1308.3955,384.8516 Q1308.6611,385.1016 1308.6611,385.4453 Q1308.6611,385.7891 1308.3174,386.1953 Q1307.8174,386.7734 1307.0205,387.1016 Q1305.9424,387.5547 1304.6455,387.5547 Q1303.1299,387.5547 1301.9268,386.9297 Q1300.9424,386.4297 1300.2549,385.3672 Q1299.5674,384.2891 1299.5674,383.0078 L1299.5674,381.8516 Q1299.5674,380.5234 1300.1768,379.3828 Q1300.8018,378.2266 1301.8955,377.6172 Q1302.9893,376.9922 1304.2236,376.9922 Q1304.958,376.9922 1305.5986,377.1641 Q1306.2549,377.3203 1306.8018,377.6797 Z " fill="#000000"/><text fill="#000000" font-family="sans-serif" font-size="12" font-style="italic" lengthAdjust="spacing" textLength="43.3594" x="1382.6216" y="377.4629">&#171;Entity&#187;</text><text fill="#000000" font-family="sans-serif" font-size="14" lengthAdjust="spacing" textLength="159.5303" x="1324.5361" y="395.582">ShodronePasswordPolicy</text><line style="stroke:#181818;stroke-width:0.5;" x1="1260.5" x2="1515.6025" y1="404.0957" y2="404.0957"/><line style="stroke:#181818;stroke-width:0.5;" x1="1260.5" x2="1515.6025" y1="412.0957" y2="412.0957"/><ellipse cx="1270.5" cy="426.9063" fill="#84BE84" rx="3" ry="3" style="stroke:#038048;stroke-width:1.0;"/><text fill="#000000" font-family="sans-serif" font-size="14" lengthAdjust="spacing" textLength="231.1025" x="1279.5" y="431.2031">isSatisfiedBy(rawPassword): boolean</text></g><!--class PasswordPolicy--><g id="elem_PasswordPolicy"><rect codeLine="57" fill="#F0E68C" height="79.2031" id="PasswordPolicy" rx="2.5" ry="2.5" style="stroke:#181818;stroke-width:0.5;" width="257.1025" x="1259.5" y="638.5137"/><ellipse cx="1334.3945" cy="660.8047" fill="#B4A7E5" rx="11" ry="11" style="stroke:#181818;stroke-width:1.0;"/><path d="M1335.3477,657.4453 L1335.3477,664.1016 L1337.0664,664.1016 Q1337.6758,664.1016 1337.9414,664.3359 Q1338.207,664.5703 1338.207,664.9609 Q1338.207,665.3359 1337.9414,665.5703 Q1337.6758,665.8047 1337.0664,665.8047 L1331.9258,665.8047 Q1331.3164,665.8047 1331.0508,665.5703 Q1330.7852,665.3359 1330.7852,664.9453 Q1330.7852,664.5703 1331.0508,664.3359 Q1331.3164,664.1016 1331.9258,664.1016 L1333.6445,664.1016 L1333.6445,657.4453 L1331.9258,657.4453 Q1331.3164,657.4453 1331.0508,657.2109 Q1330.7852,656.9766 1330.7852,656.5859 Q1330.7852,656.2109 1331.0508,655.9766 Q1331.3164,655.7422 1331.9258,655.7422 L1337.0664,655.7422 Q1337.6758,655.7422 1337.9414,655.9766 Q1338.207,656.2109 1338.207,656.5859 Q1338.207,656.9766 1337.9414,657.2109 Q1337.6758,657.4453 1337.0664,657.4453 L1335.3477,657.4453 Z " fill="#000000"/><text fill="#000000" font-family="sans-serif" font-size="12" font-style="italic" lengthAdjust="spacing" textLength="60.041" x="1374.2808" y="656.4629">&#171;Interface&#187;</text><text fill="#000000" font-family="sans-serif" font-size="14" font-style="italic" lengthAdjust="spacing" textLength="98.8135" x="1354.8945" y="674.582">PasswordPolicy</text><line style="stroke:#181818;stroke-width:0.5;" x1="1260.5" x2="1515.6025" y1="683.0957" y2="683.0957"/><line style="stroke:#181818;stroke-width:0.5;" x1="1260.5" x2="1515.6025" y1="691.0957" y2="691.0957"/><ellipse cx="1270.5" cy="705.9063" fill="#84BE84" rx="3" ry="3" style="stroke:#038048;stroke-width:1.0;"/><text fill="#000000" font-family="sans-serif" font-size="14" lengthAdjust="spacing" textLength="231.1025" x="1279.5" y="710.2031">isSatisfiedBy(rawPassword): boolean</text></g><!--class PasswordEncoder--><g id="elem_PasswordEncoder"><rect codeLine="61" fill="#F0E68C" height="97.8242" id="PasswordEncoder" rx="2.5" ry="2.5" style="stroke:#181818;stroke-width:0.5;" width="352.833" x="1551.5" y="629.0137"/><ellipse cx="1666.8599" cy="651.3047" fill="#B4A7E5" rx="11" ry="11" style="stroke:#181818;stroke-width:1.0;"/><path d="M1667.813,647.9453 L1667.813,654.6016 L1669.5317,654.6016 Q1670.1411,654.6016 1670.4067,654.8359 Q1670.6724,655.0703 1670.6724,655.4609 Q1670.6724,655.8359 1670.4067,656.0703 Q1670.1411,656.3047 1669.5317,656.3047 L1664.3911,656.3047 Q1663.7817,656.3047 1663.5161,656.0703 Q1663.2505,655.8359 1663.2505,655.4453 Q1663.2505,655.0703 1663.5161,654.8359 Q1663.7817,654.6016 1664.3911,654.6016 L1666.1099,654.6016 L1666.1099,647.9453 L1664.3911,647.9453 Q1663.7817,647.9453 1663.5161,647.7109 Q1663.2505,647.4766 1663.2505,647.0859 Q1663.2505,646.7109 1663.5161,646.4766 Q1663.7817,646.2422 1664.3911,646.2422 L1669.5317,646.2422 Q1670.1411,646.2422 1670.4067,646.4766 Q1670.6724,646.7109 1670.6724,647.0859 Q1670.6724,647.4766 1670.4067,647.7109 Q1670.1411,647.9453 1669.5317,647.9453 L1667.813,647.9453 Z " fill="#000000"/><text fill="#000000" font-family="sans-serif" font-size="12" font-style="italic" lengthAdjust="spacing" textLength="60.041" x="1714.146" y="646.9629">&#171;Interface&#187;</text><text fill="#000000" font-family="sans-serif" font-size="14" font-style="italic" lengthAdjust="spacing" textLength="113.6133" x="1687.3599" y="665.082">PasswordEncoder</text><line style="stroke:#181818;stroke-width:0.5;" x1="1552.5" x2="1903.333" y1="673.5957" y2="673.5957"/><line style="stroke:#181818;stroke-width:0.5;" x1="1552.5" x2="1903.333" y1="681.5957" y2="681.5957"/><ellipse cx="1562.5" cy="696.4063" fill="#84BE84" rx="3" ry="3" style="stroke:#038048;stroke-width:1.0;"/><text fill="#000000" font-family="sans-serif" font-size="14" lengthAdjust="spacing" textLength="183.6338" x="1571.5" y="700.7031">encode(rawPassword): String</text><ellipse cx="1562.5" cy="715.0273" fill="#84BE84" rx="3" ry="3" style="stroke:#038048;stroke-width:1.0;"/><text fill="#000000" font-family="sans-serif" font-size="14" lengthAdjust="spacing" textLength="326.833" x="1571.5" y="719.3242">matches(rawPassword, encodedPassword): boolean</text></g><!--class ShodroneUser--><g id="elem_ShodroneUser"><rect codeLine="66" fill="#90EE90" height="135.0664" id="ShodroneUser" rx="2.5" ry="2.5" style="stroke:#181818;stroke-width:0.5;" width="212.7783" x="2017.5" y="43.0137"/><ellipse cx="2072.936" cy="65.3047" fill="#ADD1B2" rx="11" ry="11" style="stroke:#181818;stroke-width:1.0;"/><path d="M2075.7017,61.1797 Q2075.8579,60.9609 2076.0454,60.8516 Q2076.2329,60.7422 2076.4517,60.7422 Q2076.8267,60.7422 2077.061,61.0078 Q2077.2954,61.2578 2077.2954,61.8672 L2077.2954,63.3203 Q2077.2954,63.9297 2077.061,64.1953 Q2076.8267,64.4609 2076.4517,64.4609 Q2076.1079,64.4609 2075.9048,64.2578 Q2075.7017,64.0703 2075.5923,63.5547 Q2075.5454,63.1953 2075.3579,63.0078 Q2075.0298,62.6328 2074.4204,62.4141 Q2073.811,62.1953 2073.186,62.1953 Q2072.4204,62.1953 2071.7798,62.5234 Q2071.1548,62.8516 2070.6548,63.6016 Q2070.1704,64.3516 2070.1704,65.3828 L2070.1704,66.4766 Q2070.1704,67.7109 2071.061,68.5391 Q2071.9517,69.3516 2073.5454,69.3516 Q2074.4829,69.3516 2075.1392,69.1016 Q2075.5298,68.9453 2075.9517,68.5078 Q2076.2173,68.2422 2076.3579,68.1641 Q2076.5142,68.0859 2076.7173,68.0859 Q2077.0454,68.0859 2077.2954,68.3516 Q2077.561,68.6016 2077.561,68.9453 Q2077.561,69.2891 2077.2173,69.6953 Q2076.7173,70.2734 2075.9204,70.6016 Q2074.8423,71.0547 2073.5454,71.0547 Q2072.0298,71.0547 2070.8267,70.4297 Q2069.8423,69.9297 2069.1548,68.8672 Q2068.4673,67.7891 2068.4673,66.5078 L2068.4673,65.3516 Q2068.4673,64.0234 2069.0767,62.8828 Q2069.7017,61.7266 2070.7954,61.1172 Q2071.8892,60.4922 2073.1235,60.4922 Q2073.8579,60.4922 2074.4985,60.6641 Q2075.1548,60.8203 2075.7017,61.1797 Z " fill="#000000"/><text fill="#000000" font-family="sans-serif" font-size="12" font-style="italic" lengthAdjust="spacing" textLength="97.4063" x="2091.436" y="60.9629">&#171;Aggregate Root&#187;</text><text fill="#000000" font-family="sans-serif" font-size="14" lengthAdjust="spacing" textLength="90.2754" x="2095.0015" y="79.082">ShodroneUser</text><line style="stroke:#181818;stroke-width:0.5;" x1="2018.5" x2="2229.2783" y1="87.5957" y2="87.5957"/><ellipse cx="2028.5" cy="102.4063" fill="none" rx="3" ry="3" style="stroke:#038048;stroke-width:1.0;"/><text fill="#000000" font-family="sans-serif" font-size="14" lengthAdjust="spacing" textLength="153.2686" x="2037.5" y="106.7031">vatNumber: VATNumber</text><ellipse cx="2028.5" cy="121.0273" fill="none" rx="3" ry="3" style="stroke:#038048;stroke-width:1.0;"/><text fill="#000000" font-family="sans-serif" font-size="14" lengthAdjust="spacing" textLength="186.7783" x="2037.5" y="125.3242">phoneNumber: PhoneNumber</text><ellipse cx="2028.5" cy="139.6484" fill="none" rx="3" ry="3" style="stroke:#038048;stroke-width:1.0;"/><text fill="#000000" font-family="sans-serif" font-size="14" lengthAdjust="spacing" textLength="108.9443" x="2037.5" y="143.9453">address: Address</text><line style="stroke:#181818;stroke-width:1.0;" x1="2018.5" x2="2229.2783" y1="151.459" y2="151.459"/><ellipse cx="2028.5" cy="166.2695" fill="#84BE84" rx="3" ry="3" style="stroke:#038048;stroke-width:1.0;"/><text fill="#000000" font-family="sans-serif" font-size="14" lengthAdjust="spacing" textLength="167.2344" x="2037.5" y="170.5664">systemUser(): SystemUser</text></g><!--class UserSession--><g id="elem_UserSession"><rect codeLine="75" fill="#ADD8E6" height="116.4453" id="UserSession" rx="2.5" ry="2.5" style="stroke:#181818;stroke-width:0.5;" width="232.9648" x="1749.5" y="52.5137"/><ellipse cx="1822.0498" cy="74.8047" fill="#ADD1B2" rx="11" ry="11" style="stroke:#181818;stroke-width:1.0;"/><path d="M1824.8154,70.6797 Q1824.9717,70.4609 1825.1592,70.3516 Q1825.3467,70.2422 1825.5654,70.2422 Q1825.9404,70.2422 1826.1748,70.5078 Q1826.4092,70.7578 1826.4092,71.3672 L1826.4092,72.8203 Q1826.4092,73.4297 1826.1748,73.6953 Q1825.9404,73.9609 1825.5654,73.9609 Q1825.2217,73.9609 1825.0186,73.7578 Q1824.8154,73.5703 1824.7061,73.0547 Q1824.6592,72.6953 1824.4717,72.5078 Q1824.1436,72.1328 1823.5342,71.9141 Q1822.9248,71.6953 1822.2998,71.6953 Q1821.5342,71.6953 1820.8936,72.0234 Q1820.2686,72.3516 1819.7686,73.1016 Q1819.2842,73.8516 1819.2842,74.8828 L1819.2842,75.9766 Q1819.2842,77.2109 1820.1748,78.0391 Q1821.0654,78.8516 1822.6592,78.8516 Q1823.5967,78.8516 1824.2529,78.6016 Q1824.6436,78.4453 1825.0654,78.0078 Q1825.3311,77.7422 1825.4717,77.6641 Q1825.6279,77.5859 1825.8311,77.5859 Q1826.1592,77.5859 1826.4092,77.8516 Q1826.6748,78.1016 1826.6748,78.4453 Q1826.6748,78.7891 1826.3311,79.1953 Q1825.8311,79.7734 1825.0342,80.1016 Q1823.9561,80.5547 1822.6592,80.5547 Q1821.1436,80.5547 1819.9404,79.9297 Q1818.9561,79.4297 1818.2686,78.3672 Q1817.5811,77.2891 1817.5811,76.0078 L1817.5811,74.8516 Q1817.5811,73.5234 1818.1904,72.3828 Q1818.8154,71.2266 1819.9092,70.6172 Q1821.0029,69.9922 1822.2373,69.9922 Q1822.9717,69.9922 1823.6123,70.1641 Q1824.2686,70.3203 1824.8154,70.6797 Z " fill="#000000"/><text fill="#000000" font-family="sans-serif" font-size="12" font-style="italic" lengthAdjust="spacing" textLength="82.0547" x="1841.2051" y="70.4629">&#171;Value Object&#187;</text><text fill="#000000" font-family="sans-serif" font-size="14" lengthAdjust="spacing" textLength="79.3652" x="1842.5498" y="88.582">UserSession</text><line style="stroke:#181818;stroke-width:0.5;" x1="1750.5" x2="1981.4648" y1="97.0957" y2="97.0957"/><line style="stroke:#181818;stroke-width:0.5;" x1="1750.5" x2="1981.4648" y1="105.0957" y2="105.0957"/><ellipse cx="1760.5" cy="119.9063" fill="#84BE84" rx="3" ry="3" style="stroke:#038048;stroke-width:1.0;"/><text fill="#000000" font-family="sans-serif" font-size="14" lengthAdjust="spacing" textLength="206.9648" x="1769.5" y="124.2031">authenticatedUser(): SystemUser</text><ellipse cx="1760.5" cy="138.5273" fill="#84BE84" rx="3" ry="3" style="stroke:#038048;stroke-width:1.0;"/><text fill="#000000" font-family="sans-serif" font-size="14" lengthAdjust="spacing" textLength="140.0547" x="1769.5" y="142.8242">sessionToken(): String</text><ellipse cx="1760.5" cy="157.1484" fill="#84BE84" rx="3" ry="3" style="stroke:#038048;stroke-width:1.0;"/><text fill="#000000" font-family="sans-serif" font-size="14" lengthAdjust="spacing" textLength="134.6064" x="1769.5" y="161.4453">loginTime(): Calendar</text></g><!--class AuthenticationService--><g id="elem_AuthenticationService"><rect codeLine="86" fill="#D3D3D3" height="97.8242" id="AuthenticationService" rx="2.5" ry="2.5" style="stroke:#181818;stroke-width:0.5;" width="435.3223" x="767.5" y="350.0137"/><ellipse cx="913.2046" cy="372.3047" fill="#ADD1B2" rx="11" ry="11" style="stroke:#181818;stroke-width:1.0;"/><path d="M915.9702,368.1797 Q916.1265,367.9609 916.314,367.8516 Q916.5015,367.7422 916.7202,367.7422 Q917.0952,367.7422 917.3296,368.0078 Q917.564,368.2578 917.564,368.8672 L917.564,370.3203 Q917.564,370.9297 917.3296,371.1953 Q917.0952,371.4609 916.7202,371.4609 Q916.3765,371.4609 916.1733,371.2578 Q915.9702,371.0703 915.8608,370.5547 Q915.814,370.1953 915.6265,370.0078 Q915.2983,369.6328 914.689,369.4141 Q914.0796,369.1953 913.4546,369.1953 Q912.689,369.1953 912.0483,369.5234 Q911.4233,369.8516 910.9233,370.6016 Q910.439,371.3516 910.439,372.3828 L910.439,373.4766 Q910.439,374.7109 911.3296,375.5391 Q912.2202,376.3516 913.814,376.3516 Q914.7515,376.3516 915.4077,376.1016 Q915.7983,375.9453 916.2202,375.5078 Q916.4858,375.2422 916.6265,375.1641 Q916.7827,375.0859 916.9858,375.0859 Q917.314,375.0859 917.564,375.3516 Q917.8296,375.6016 917.8296,375.9453 Q917.8296,376.2891 917.4858,376.6953 Q916.9858,377.2734 916.189,377.6016 Q915.1108,378.0547 913.814,378.0547 Q912.2983,378.0547 911.0952,377.4297 Q910.1108,376.9297 909.4233,375.8672 Q908.7358,374.7891 908.7358,373.5078 L908.7358,372.3516 Q908.7358,371.0234 909.3452,369.8828 Q909.9702,368.7266 911.064,368.1172 Q912.1577,367.4922 913.3921,367.4922 Q914.1265,367.4922 914.7671,367.6641 Q915.4233,367.8203 915.9702,368.1797 Z " fill="#000000"/><text fill="#000000" font-family="sans-serif" font-size="12" font-style="italic" lengthAdjust="spacing" textLength="53.3613" x="974.7305" y="367.9629">&#171;Service&#187;</text><text fill="#000000" font-family="sans-serif" font-size="14" lengthAdjust="spacing" textLength="135.4131" x="933.7046" y="386.082">AuthenticationService</text><line style="stroke:#181818;stroke-width:0.5;" x1="768.5" x2="1201.8223" y1="394.5957" y2="394.5957"/><line style="stroke:#181818;stroke-width:0.5;" x1="768.5" x2="1201.8223" y1="402.5957" y2="402.5957"/><ellipse cx="778.5" cy="417.4063" fill="#84BE84" rx="3" ry="3" style="stroke:#038048;stroke-width:1.0;"/><text fill="#000000" font-family="sans-serif" font-size="14" lengthAdjust="spacing" textLength="409.3223" x="787.5" y="421.7031">authenticate(username, password, roles): Optional&lt;UserSession&gt;</text><ellipse cx="778.5" cy="436.0273" fill="#84BE84" rx="3" ry="3" style="stroke:#038048;stroke-width:1.0;"/><text fill="#000000" font-family="sans-serif" font-size="14" lengthAdjust="spacing" textLength="349.4121" x="787.5" y="440.3242">changePassword(oldPassword, newPassword): boolean</text></g><!--class AuthorizationService--><g id="elem_AuthorizationService"><rect codeLine="91" fill="#D3D3D3" height="116.4453" id="AuthorizationService" rx="2.5" ry="2.5" style="stroke:#181818;stroke-width:0.5;" width="320.916" x="411.5" y="341.0137"/><ellipse cx="503.5083" cy="363.3047" fill="#ADD1B2" rx="11" ry="11" style="stroke:#181818;stroke-width:1.0;"/><path d="M506.2739,359.1797 Q506.4302,358.9609 506.6177,358.8516 Q506.8052,358.7422 507.0239,358.7422 Q507.3989,358.7422 507.6333,359.0078 Q507.8677,359.2578 507.8677,359.8672 L507.8677,361.3203 Q507.8677,361.9297 507.6333,362.1953 Q507.3989,362.4609 507.0239,362.4609 Q506.6802,362.4609 506.4771,362.2578 Q506.2739,362.0703 506.1646,361.5547 Q506.1177,361.1953 505.9302,361.0078 Q505.6021,360.6328 504.9927,360.4141 Q504.3833,360.1953 503.7583,360.1953 Q502.9927,360.1953 502.3521,360.5234 Q501.7271,360.8516 501.2271,361.6016 Q500.7427,362.3516 500.7427,363.3828 L500.7427,364.4766 Q500.7427,365.7109 501.6333,366.5391 Q502.5239,367.3516 504.1177,367.3516 Q505.0552,367.3516 505.7114,367.1016 Q506.1021,366.9453 506.5239,366.5078 Q506.7896,366.2422 506.9302,366.1641 Q507.0864,366.0859 507.2896,366.0859 Q507.6177,366.0859 507.8677,366.3516 Q508.1333,366.6016 508.1333,366.9453 Q508.1333,367.2891 507.7896,367.6953 Q507.2896,368.2734 506.4927,368.6016 Q505.4146,369.0547 504.1177,369.0547 Q502.6021,369.0547 501.3989,368.4297 Q500.4146,367.9297 499.7271,366.8672 Q499.0396,365.7891 499.0396,364.5078 L499.0396,363.3516 Q499.0396,362.0234 499.6489,360.8828 Q500.2739,359.7266 501.3677,359.1172 Q502.4614,358.4922 503.6958,358.4922 Q504.4302,358.4922 505.0708,358.6641 Q505.7271,358.8203 506.2739,359.1797 Z " fill="#000000"/><text fill="#000000" font-family="sans-serif" font-size="12" font-style="italic" lengthAdjust="spacing" textLength="53.3613" x="561.5273" y="358.9629">&#171;Service&#187;</text><text fill="#000000" font-family="sans-serif" font-size="14" lengthAdjust="spacing" textLength="128.3994" x="524.0083" y="377.082">AuthorizationService</text><line style="stroke:#181818;stroke-width:0.5;" x1="412.5" x2="731.416" y1="385.5957" y2="385.5957"/><line style="stroke:#181818;stroke-width:0.5;" x1="412.5" x2="731.416" y1="393.5957" y2="393.5957"/><ellipse cx="422.5" cy="408.4063" fill="#84BE84" rx="3" ry="3" style="stroke:#038048;stroke-width:1.0;"/><text fill="#000000" font-family="sans-serif" font-size="14" lengthAdjust="spacing" textLength="294.916" x="431.5" y="412.7031">ensureAuthenticatedUserHasAnyOf(roles): void</text><ellipse cx="422.5" cy="427.0273" fill="#84BE84" rx="3" ry="3" style="stroke:#038048;stroke-width:1.0;"/><text fill="#000000" font-family="sans-serif" font-size="14" lengthAdjust="spacing" textLength="139.3096" x="431.5" y="431.3242">hasSession(): boolean</text><ellipse cx="422.5" cy="445.6484" fill="#84BE84" rx="3" ry="3" style="stroke:#038048;stroke-width:1.0;"/><text fill="#000000" font-family="sans-serif" font-size="14" lengthAdjust="spacing" textLength="212.4336" x="431.5" y="449.9453">session(): Optional&lt;UserSession&gt;</text></g><!--class UserRepository--><g id="elem_UserRepository"><rect codeLine="97" fill="#D3D3D3" height="116.4453" id="UserRepository" rx="2.5" ry="2.5" style="stroke:#181818;stroke-width:0.5;" width="306.9023" x="831.5" y="620.0137"/><ellipse cx="932.4634" cy="642.3047" fill="#ADD1B2" rx="11" ry="11" style="stroke:#181818;stroke-width:1.0;"/><path d="M935.229,638.1797 Q935.3853,637.9609 935.5728,637.8516 Q935.7603,637.7422 935.979,637.7422 Q936.354,637.7422 936.5884,638.0078 Q936.8228,638.2578 936.8228,638.8672 L936.8228,640.3203 Q936.8228,640.9297 936.5884,641.1953 Q936.354,641.4609 935.979,641.4609 Q935.6353,641.4609 935.4321,641.2578 Q935.229,641.0703 935.1196,640.5547 Q935.0728,640.1953 934.8853,640.0078 Q934.5571,639.6328 933.9478,639.4141 Q933.3384,639.1953 932.7134,639.1953 Q931.9478,639.1953 931.3071,639.5234 Q930.6821,639.8516 930.1821,640.6016 Q929.6978,641.3516 929.6978,642.3828 L929.6978,643.4766 Q929.6978,644.7109 930.5884,645.5391 Q931.479,646.3516 933.0728,646.3516 Q934.0103,646.3516 934.6665,646.1016 Q935.0571,645.9453 935.479,645.5078 Q935.7446,645.2422 935.8853,645.1641 Q936.0415,645.0859 936.2446,645.0859 Q936.5728,645.0859 936.8228,645.3516 Q937.0884,645.6016 937.0884,645.9453 Q937.0884,646.2891 936.7446,646.6953 Q936.2446,647.2734 935.4478,647.6016 Q934.3696,648.0547 933.0728,648.0547 Q931.5571,648.0547 930.354,647.4297 Q929.3696,646.9297 928.6821,645.8672 Q927.9946,644.7891 927.9946,643.5078 L927.9946,642.3516 Q927.9946,641.0234 928.604,639.8828 Q929.229,638.7266 930.3228,638.1172 Q931.4165,637.4922 932.6509,637.4922 Q933.3853,637.4922 934.0259,637.6641 Q934.6821,637.8203 935.229,638.1797 Z " fill="#000000"/><text fill="#000000" font-family="sans-serif" font-size="12" font-style="italic" lengthAdjust="spacing" textLength="70.7051" x="965.8486" y="637.9629">&#171;Repository&#187;</text><text fill="#000000" font-family="sans-serif" font-size="14" lengthAdjust="spacing" textLength="96.4756" x="952.9634" y="656.082">UserRepository</text><line style="stroke:#181818;stroke-width:0.5;" x1="832.5" x2="1137.4023" y1="664.5957" y2="664.5957"/><line style="stroke:#181818;stroke-width:0.5;" x1="832.5" x2="1137.4023" y1="672.5957" y2="672.5957"/><ellipse cx="842.5" cy="687.4063" fill="#84BE84" rx="3" ry="3" style="stroke:#038048;stroke-width:1.0;"/><text fill="#000000" font-family="sans-serif" font-size="14" lengthAdjust="spacing" textLength="280.9023" x="851.5" y="691.7031">ofIdentity(username): Optional&lt;SystemUser&gt;</text><ellipse cx="842.5" cy="706.0273" fill="#84BE84" rx="3" ry="3" style="stroke:#038048;stroke-width:1.0;"/><text fill="#000000" font-family="sans-serif" font-size="14" lengthAdjust="spacing" textLength="150.1445" x="851.5" y="710.3242">save(user): SystemUser</text><ellipse cx="842.5" cy="724.6484" fill="#84BE84" rx="3" ry="3" style="stroke:#038048;stroke-width:1.0;"/><text fill="#000000" font-family="sans-serif" font-size="14" lengthAdjust="spacing" textLength="194.5166" x="851.5" y="728.9453">findAll(): Iterable&lt;SystemUser&gt;</text></g><!--class AuthzRegistry--><g id="elem_AuthzRegistry"><rect codeLine="103" fill="#D3D3D3" height="135.0664" id="AuthzRegistry" rx="2.5" ry="2.5" style="stroke:#181818;stroke-width:0.5;" width="354.3779" x="22" y="331.5137"/><ellipse cx="151.3667" cy="353.8047" fill="#ADD1B2" rx="11" ry="11" style="stroke:#181818;stroke-width:1.0;"/><path d="M154.1323,349.6797 Q154.2886,349.4609 154.4761,349.3516 Q154.6636,349.2422 154.8823,349.2422 Q155.2573,349.2422 155.4917,349.5078 Q155.7261,349.7578 155.7261,350.3672 L155.7261,351.8203 Q155.7261,352.4297 155.4917,352.6953 Q155.2573,352.9609 154.8823,352.9609 Q154.5386,352.9609 154.3354,352.7578 Q154.1323,352.5703 154.0229,352.0547 Q153.9761,351.6953 153.7886,351.5078 Q153.4604,351.1328 152.8511,350.9141 Q152.2417,350.6953 151.6167,350.6953 Q150.8511,350.6953 150.2104,351.0234 Q149.5854,351.3516 149.0854,352.1016 Q148.6011,352.8516 148.6011,353.8828 L148.6011,354.9766 Q148.6011,356.2109 149.4917,357.0391 Q150.3823,357.8516 151.9761,357.8516 Q152.9136,357.8516 153.5698,357.6016 Q153.9604,357.4453 154.3823,357.0078 Q154.6479,356.7422 154.7886,356.6641 Q154.9448,356.5859 155.1479,356.5859 Q155.4761,356.5859 155.7261,356.8516 Q155.9917,357.1016 155.9917,357.4453 Q155.9917,357.7891 155.6479,358.1953 Q155.1479,358.7734 154.3511,359.1016 Q153.2729,359.5547 151.9761,359.5547 Q150.4604,359.5547 149.2573,358.9297 Q148.2729,358.4297 147.5854,357.3672 Q146.8979,356.2891 146.8979,355.0078 L146.8979,353.8516 Q146.8979,352.5234 147.5073,351.3828 Q148.1323,350.2266 149.2261,349.6172 Q150.3198,348.9922 151.5542,348.9922 Q152.2886,348.9922 152.9292,349.1641 Q153.5854,349.3203 154.1323,349.6797 Z " fill="#000000"/><text fill="#000000" font-family="sans-serif" font-size="12" font-style="italic" lengthAdjust="spacing" textLength="57.3574" x="186.7603" y="349.4629">&#171;Registry&#187;</text><text fill="#000000" font-family="sans-serif" font-size="14" lengthAdjust="spacing" textLength="87.1445" x="171.8667" y="367.582">AuthzRegistry</text><line style="stroke:#181818;stroke-width:0.5;" x1="23" x2="375.3779" y1="376.0957" y2="376.0957"/><line style="stroke:#181818;stroke-width:0.5;" x1="23" x2="375.3779" y1="384.0957" y2="384.0957"/><ellipse cx="33" cy="398.9063" fill="#84BE84" rx="3" ry="3" style="stroke:#038048;stroke-width:1.0;"/><text fill="#000000" font-family="sans-serif" font-size="14" lengthAdjust="spacing" textLength="322.9434" x="42" y="403.2031">static authenticationService(): AuthenticationService</text><ellipse cx="33" cy="417.5273" fill="#84BE84" rx="3" ry="3" style="stroke:#038048;stroke-width:1.0;"/><text fill="#000000" font-family="sans-serif" font-size="14" lengthAdjust="spacing" textLength="308.916" x="42" y="421.8242">static authorizationService(): AuthorizationService</text><ellipse cx="33" cy="436.1484" fill="#84BE84" rx="3" ry="3" style="stroke:#038048;stroke-width:1.0;"/><text fill="#000000" font-family="sans-serif" font-size="14" lengthAdjust="spacing" textLength="285.5439" x="42" y="440.4453">static userService(): UserManagementService</text><ellipse cx="33" cy="454.7695" fill="#84BE84" rx="3" ry="3" style="stroke:#038048;stroke-width:1.0;"/><text fill="#000000" font-family="sans-serif" font-size="14" lengthAdjust="spacing" textLength="328.3779" x="42" y="459.0664">static configure(userRepo, passPolicy, passEncoder)</text></g><!--link SystemUser to Role--><g id="link_SystemUser_Role"><path codeLine="37" d="M2222.7,523.9337 C2291.13,561.1637 2362.16,599.8237 2415.73,628.9737 " fill="none" id="SystemUser-Role" style="stroke:#181818;stroke-width:1.0;"/><text fill="#000000" font-family="sans-serif" font-size="13" lengthAdjust="spacing" textLength="20.96" x="2340" y="586.042">has</text><text fill="#000000" font-family="sans-serif" font-size="13" lengthAdjust="spacing" textLength="7.23" x="2231.0047" y="525.1504">1</text><text fill="#000000" font-family="sans-serif" font-size="13" lengthAdjust="spacing" textLength="19.5127" x="2382.4275" y="617.5851">0..*</text></g><!--link SystemUser to Username--><g id="link_SystemUser_Username"><path codeLine="42" d="M1995,541.3537 C1995,577.1037 1995,606.5937 1995,632.3037 " fill="none" id="SystemUser-to-Username" style="stroke:#181818;stroke-width:1.0;"/><polygon fill="#181818" points="1995,638.3037,1999,629.3037,1995,633.3037,1991,629.3037,1995,638.3037" style="stroke:#181818;stroke-width:1.0;"/><text fill="#000000" font-family="sans-serif" font-size="13" lengthAdjust="spacing" textLength="57.8081" x="1996" y="586.042">username</text></g><!--link SystemUser to Password--><g id="link_SystemUser_Password"><path codeLine="50" d="M2114.4,541.3537 C2137.95,569.2337 2157.4983,592.37 2176.9683,615.42 " fill="none" id="SystemUser-to-Password" style="stroke:#181818;stroke-width:1.0;"/><polygon fill="#181818" points="2180.84,620.0037,2178.0882,610.5471,2177.6136,616.184,2171.9766,615.7094,2180.84,620.0037" style="stroke:#181818;stroke-width:1.0;"/><text fill="#000000" font-family="sans-serif" font-size="13" lengthAdjust="spacing" textLength="55.6372" x="2154" y="586.042">password</text></g><!--link ShodronePasswordPolicy to PasswordPolicy--><g id="link_ShodronePasswordPolicy_PasswordPolicy"><path codeLine="55" d="M1388,438.5337 C1388,491.3037 1388,567.5437 1388,620.3837 " fill="none" id="ShodronePasswordPolicy-to-PasswordPolicy" style="stroke:#181818;stroke-width:1.0;stroke-dasharray:7.0,7.0;"/><polygon fill="none" points="1388,638.3837,1394,620.3837,1382,620.3837,1388,638.3837" style="stroke:#181818;stroke-width:1.0;"/></g><!--link ShodroneUser to SystemUser--><g id="link_ShodroneUser_SystemUser"><path codeLine="73" d="M2093.92,178.3237 C2083.27,201.9637 2070.86,229.5437 2058.49,257.0037 " fill="none" id="ShodroneUser-SystemUser" style="stroke:#181818;stroke-width:1.0;"/><polygon fill="#000000" points="2080.947,222.2183,2087.3407,215.1775,2081.9811,212.7641,2080.947,222.2183" style="stroke:#000000;stroke-width:1.0;"/><text fill="#000000" font-family="sans-serif" font-size="13" lengthAdjust="spacing" textLength="27.46" x="2092" y="223.042">uses</text><text fill="#000000" font-family="sans-serif" font-size="13" lengthAdjust="spacing" textLength="7.23" x="2083.4804" y="200.233">1</text><text fill="#000000" font-family="sans-serif" font-size="13" lengthAdjust="spacing" textLength="7.23" x="2054.7646" y="245.808">1</text></g><!--link UserSession to SystemUser--><g id="link_UserSession_SystemUser"><path codeLine="81" d="M1891.8,168.8037 C1903.3,194.3537 1914.957,220.2325 1929.007,251.4425 " fill="none" id="UserSession-to-SystemUser" style="stroke:#181818;stroke-width:1.0;"/><polygon fill="#181818" points="1931.47,256.9137,1931.423,247.0649,1929.4175,252.3544,1924.1281,250.3489,1931.47,256.9137" style="stroke:#181818;stroke-width:1.0;"/><text fill="#000000" font-family="sans-serif" font-size="13" lengthAdjust="spacing" textLength="105.5107" x="1916" y="223.042">authenticatedUser</text></g><!--link AuthenticationService to UserRepository--><g id="link_AuthenticationService_UserRepository"><path codeLine="112" d="M985,448.2637 C985,496.0037 985,563.0837 985,613.7437 " fill="none" id="AuthenticationService-to-UserRepository" style="stroke:#181818;stroke-width:1.0;"/><polygon fill="#181818" points="985,619.7437,989,610.7437,985,614.7437,981,610.7437,985,619.7437" style="stroke:#181818;stroke-width:1.0;"/><text fill="#000000" font-family="sans-serif" font-size="13" lengthAdjust="spacing" textLength="27.46" x="986" y="586.042">uses</text></g><!--link AuthenticationService to PasswordEncoder--><g id="link_AuthenticationService_PasswordEncoder"><path codeLine="113" d="M1061.7,448.1637 C1111.83,478.0437 1179.55,515.4737 1243,541.0137 C1367.32,591.0537 1405.04,583.5637 1534,620.0137 C1544.22,622.9037 1548.9639,624.2446 1559.5639,627.2946 " fill="none" id="AuthenticationService-to-PasswordEncoder" style="stroke:#181818;stroke-width:1.0;"/><polygon fill="#181818" points="1565.33,628.9537,1557.787,622.621,1560.525,627.5711,1555.5749,630.3091,1565.33,628.9537" style="stroke:#181818;stroke-width:1.0;"/><text fill="#000000" font-family="sans-serif" font-size="13" lengthAdjust="spacing" textLength="27.46" x="1407" y="586.042">uses</text></g><!--link AuthenticationService to PasswordPolicy--><g id="link_AuthenticationService_PasswordPolicy"><path codeLine="114" d="M1039.02,448.0237 C1085.87,488.4337 1156.42,546.4437 1223,590.0137 C1249.56,607.3937 1274.6285,621.4614 1302.0385,635.6114 " fill="none" id="AuthenticationService-to-PasswordPolicy" style="stroke:#181818;stroke-width:1.0;"/><polygon fill="#181818" points="1307.37,638.3637,1301.2076,630.6809,1302.9271,636.0701,1297.5379,637.7895,1307.37,638.3637" style="stroke:#181818;stroke-width:1.0;"/><text fill="#000000" font-family="sans-serif" font-size="13" lengthAdjust="spacing" textLength="27.46" x="1224" y="586.042">uses</text></g><!--link SystemUser to PasswordPolicy--><g id="link_SystemUser_PasswordPolicy"><path codeLine="115" d="M1767.25,503.9437 C1664.14,551.0037 1554.0284,601.2424 1477.8684,636.0024 " fill="none" id="SystemUser-to-PasswordPolicy" style="stroke:#181818;stroke-width:1.0;"/><polygon fill="#181818" points="1472.41,638.4937,1482.2584,638.3957,1476.9586,636.4176,1478.9367,631.1179,1472.41,638.4937" style="stroke:#181818;stroke-width:1.0;"/><text fill="#000000" font-family="sans-serif" font-size="13" lengthAdjust="spacing" textLength="127.8735" x="1620" y="586.042">password must satisfy</text></g><!--link SystemUser to PasswordEncoder--><g id="link_SystemUser_PasswordEncoder"><path codeLine="116" d="M1858.76,541.3537 C1828.29,572.9637 1802.173,600.0528 1778.443,624.6828 " fill="none" id="SystemUser-to-PasswordEncoder" style="stroke:#181818;stroke-width:1.0;"/><polygon fill="#181818" points="1774.28,629.0037,1783.405,625.2977,1777.7491,625.403,1777.6439,619.7471,1774.28,629.0037" style="stroke:#181818;stroke-width:1.0;"/><text fill="#000000" font-family="sans-serif" font-size="13" lengthAdjust="spacing" textLength="139.4707" x="1830" y="586.042">password is encoded by</text></g><!--SRC=[bLPBR-Cs4BxxLmnyw2fjdBPN8p2WxAPjqEQ1EBizqz9OOYEH0aavq6RptpkaIBqiPzkJ978Utxo-qGVuX7ik47OiUSwKh4KAYIoaqh2N2hH1XT8q5Ug5VkQYOegLa1HCQtXT05nrMX-jqkNbjJ3SD9iD_9qZCtCINrXH8zpl_i74aDnVFClD5HtDoSPPfZ1Z1k5HoaxwTuKeviItg0uymO5SCoTs8oYgFNE2V-RicSy9FM8bDJTIDTypzuWPrsOYzxPOL2J8CeJb9raoBk1MfbX05DScHyfImWoN0du0Uo0L_-g-pvQKL_BIfdZRK07ApneL359h4m_m4zHqBbY9Q_Zit_n5HRelKgLhUF1l_gAL_gqkYhjU6WbTiOPh-uZJLA7M_eObXXz8OITbWKpuqqHHPJ6z5sluo0eKALF-9aMdCNkxMdcXFgOe173U8Jw7FLVQtBb3Ie5_Sn3FGH4CVJO9yfQP94STAVOIeZsRGkOwTg54HpVEf3tUehbyf8-DlyYPZaKJjIw7MczzUQmy77NqwoZPMwEuoCOfq8PgdS31wjtl8oj8BgorO7zG-EMlIzA4vIyN5pykMvThYww74Qf_6ehpDC3oDdQnMcrw8-kkhteF8R6dFAmie1pJXwxnvi8Ejz5OE1IqF2uaLLuaD3PgKe4Zz1t0TTSNWodAPQgam23q80kUD7CJnVMMAgFt7DEhvcH7EV_pDYykllLWsZEBWmV6WICCGpBwlp1cBL-t6JjXkitdnEQWME-M8JsDOvnfprX7zDttexchonsgDNo9dzhNCDOvwOVBX_uZK59BK6iOCbK_M3stsB2whqdHHdD5Zq4pkUxNi1bFrvOyMR8-EM2i9tLCP_qxUAsP9_cC8fhclP0P5q-yT2Gre4wNtY48s-yZn4VEHzidhgh2BvkVRyHU4QcgEZ6rGl3xKezspdW_UH4OBjUve6UvF93dVMLDiU9o44RWsIHd8kl6A995sdUTm9VlTTneURu75eMcaEDfglvmD4ya7B0U94_x5U317kyDtL-SYkvjt4Fz3mLC_Yu2HBc_IT5HKfVDeVc-vY5tcXtQnCyr6_tLfN5HM8Gtn0DiL-34n2IDNyEF38p-QLx7IulDjOTrCjitnxhJOWNLwVbOitQfxHHi1BTCK7-Nv79M8v5YppCgkKkGpNVRcItnjk-UAizSBYWR7y940AFVu1Ghca5YlWOK5WwRpdcb5_CJ4fReeCujcRmZF-Ni_wpWruUNFx4CEw4maL3Msb3NsDtIdDBgiNHgN8S50BjcyIy0]--></g></svg>