<svg xmlns="http://www.w3.org/2000/svg" xmlns:xlink="http://www.w3.org/1999/xlink" contentStyleType="text/css" height="1042px" preserveAspectRatio="none" style="width:1278px;height:1042px;background:#FFFFFF;" version="1.1" viewBox="0 0 1278 1042" width="1278px" zoomAndPan="magnify"><defs/><g><rect fill="#FFFFFF" height="856.207" style="stroke:#181818;stroke-width:1.0;" width="10" x="32.7793" y="93.6211"/><rect fill="#FFFFFF" height="832.916" style="stroke:#181818;stroke-width:1.0;" width="10" x="403.3584" y="116.9121"/><rect fill="#FFFFFF" height="93.873" style="stroke:#181818;stroke-width:1.0;" width="10" x="713" y="148.2031"/><rect fill="#FFFFFF" height="93.873" style="stroke:#181818;stroke-width:1.0;" width="10" x="713" y="652.8691"/><rect fill="#FFFFFF" height="31.291" style="stroke:#181818;stroke-width:1.0;" width="10" x="918.6416" y="179.4941"/><rect fill="#FFFFFF" height="31.291" style="stroke:#181818;stroke-width:1.0;" width="10" x="918.6416" y="684.1602"/><rect fill="#FFFFFF" height="31.291" style="stroke:#181818;stroke-width:1.0;" width="10" x="1197.3716" y="453.7832"/><rect fill="none" height="610.8398" style="stroke:#000000;stroke-width:1.5;" width="1261.1265" x="10" y="331.9883"/><rect fill="none" height="19.291" style="stroke:#000000;stroke-width:1.5;" width="84.6899" x="30" y="916.5371"/><line style="stroke:#181818;stroke-width:0.5;stroke-dasharray:5.0,5.0;" x1="37" x2="37" y1="83.6211" y2="959.8281"/><line style="stroke:#181818;stroke-width:0.5;stroke-dasharray:5.0,5.0;" x1="408.1172" x2="408.1172" y1="83.6211" y2="959.8281"/><line style="stroke:#181818;stroke-width:0.5;stroke-dasharray:5.0,5.0;" x1="717.9761" x2="717.9761" y1="83.6211" y2="959.8281"/><line style="stroke:#181818;stroke-width:0.5;stroke-dasharray:5.0,5.0;" x1="923.397" x2="923.397" y1="83.6211" y2="959.8281"/><line style="stroke:#181818;stroke-width:0.5;stroke-dasharray:5.0,5.0;" x1="1063.8862" x2="1063.8862" y1="281.8867" y2="959.8281"/><line style="stroke:#181818;stroke-width:0.5;stroke-dasharray:5.0,5.0;" x1="1201.6167" x2="1201.6167" y1="83.6211" y2="959.8281"/><text fill="#000000" font-family="sans-serif" font-size="14" lengthAdjust="spacing" textLength="29.5586" x="20" y="80.1074">User</text><ellipse cx="37.7793" cy="13.5" fill="#E2E2F0" rx="8" ry="8" style="stroke:#181818;stroke-width:0.5;"/><path d="M37.7793,21.5 L37.7793,48.5 M24.7793,29.5 L50.7793,29.5 M37.7793,48.5 L24.7793,63.5 M37.7793,48.5 L50.7793,63.5 " fill="none" style="stroke:#181818;stroke-width:0.5;"/><text fill="#000000" font-family="sans-serif" font-size="14" lengthAdjust="spacing" textLength="29.5586" x="20" y="973.9355">User</text><ellipse cx="37.7793" cy="985.9492" fill="#E2E2F0" rx="8" ry="8" style="stroke:#181818;stroke-width:0.5;"/><path d="M37.7793,993.9492 L37.7793,1020.9492 M24.7793,1001.9492 L50.7793,1001.9492 M37.7793,1020.9492 L24.7793,1035.9492 M37.7793,1020.9492 L50.7793,1035.9492 " fill="none" style="stroke:#181818;stroke-width:0.5;"/><rect fill="#E2E2F0" height="32.6211" rx="2.5" ry="2.5" style="stroke:#181818;stroke-width:0.5;" width="138.4824" x="339.1172" y="50"/><text fill="#000000" font-family="sans-serif" font-size="14" lengthAdjust="spacing" textLength="124.4824" x="346.1172" y="72.1074">:ListActiveFiguresUI</text><rect fill="#E2E2F0" height="32.6211" rx="2.5" ry="2.5" style="stroke:#181818;stroke-width:0.5;" width="138.4824" x="339.1172" y="958.8281"/><text fill="#000000" font-family="sans-serif" font-size="14" lengthAdjust="spacing" textLength="124.4824" x="346.1172" y="980.9355">:ListActiveFiguresUI</text><rect fill="#E2E2F0" height="32.6211" rx="2.5" ry="2.5" style="stroke:#181818;stroke-width:0.5;" width="140.0479" x="647.9761" y="50"/><text fill="#000000" font-family="sans-serif" font-size="14" lengthAdjust="spacing" textLength="126.0479" x="654.9761" y="72.1074">:ListFigureController</text><rect fill="#E2E2F0" height="32.6211" rx="2.5" ry="2.5" style="stroke:#181818;stroke-width:0.5;" width="140.0479" x="647.9761" y="958.8281"/><text fill="#000000" font-family="sans-serif" font-size="14" lengthAdjust="spacing" textLength="126.0479" x="654.9761" y="980.9355">:ListFigureController</text><rect fill="#E2E2F0" height="32.6211" rx="2.5" ry="2.5" style="stroke:#181818;stroke-width:0.5;" width="124.4893" x="861.397" y="50"/><text fill="#000000" font-family="sans-serif" font-size="14" lengthAdjust="spacing" textLength="110.4893" x="868.397" y="72.1074">:FigureRepository</text><rect fill="#E2E2F0" height="32.6211" rx="2.5" ry="2.5" style="stroke:#181818;stroke-width:0.5;" width="124.4893" x="861.397" y="958.8281"/><text fill="#000000" font-family="sans-serif" font-size="14" lengthAdjust="spacing" textLength="110.4893" x="868.397" y="980.9355">:FigureRepository</text><rect fill="#E2E2F0" height="32.6211" rx="2.5" ry="2.5" style="stroke:#181818;stroke-width:0.5;" width="137.7305" x="995.8862" y="958.8281"/><text fill="#000000" font-family="sans-serif" font-size="14" lengthAdjust="spacing" textLength="123.7305" x="1002.8862" y="980.9355">figures:List&lt;Figure&gt;</text><rect fill="#E2E2F0" height="32.6211" rx="2.5" ry="2.5" style="stroke:#181818;stroke-width:0.5;" width="117.5098" x="1143.6167" y="50"/><text fill="#000000" font-family="sans-serif" font-size="14" lengthAdjust="spacing" textLength="103.5098" x="1150.6167" y="72.1074">console:Console</text><rect fill="#E2E2F0" height="32.6211" rx="2.5" ry="2.5" style="stroke:#181818;stroke-width:0.5;" width="117.5098" x="1143.6167" y="958.8281"/><text fill="#000000" font-family="sans-serif" font-size="14" lengthAdjust="spacing" textLength="103.5098" x="1150.6167" y="980.9355">console:Console</text><rect fill="#FFFFFF" height="856.207" style="stroke:#181818;stroke-width:1.0;" width="10" x="32.7793" y="93.6211"/><rect fill="#FFFFFF" height="832.916" style="stroke:#181818;stroke-width:1.0;" width="10" x="403.3584" y="116.9121"/><rect fill="#FFFFFF" height="93.873" style="stroke:#181818;stroke-width:1.0;" width="10" x="713" y="148.2031"/><rect fill="#FFFFFF" height="93.873" style="stroke:#181818;stroke-width:1.0;" width="10" x="713" y="652.8691"/><rect fill="#FFFFFF" height="31.291" style="stroke:#181818;stroke-width:1.0;" width="10" x="918.6416" y="179.4941"/><rect fill="#FFFFFF" height="31.291" style="stroke:#181818;stroke-width:1.0;" width="10" x="918.6416" y="684.1602"/><rect fill="#FFFFFF" height="31.291" style="stroke:#181818;stroke-width:1.0;" width="10" x="1197.3716" y="453.7832"/><polygon fill="#181818" points="391.3584,112.9121,401.3584,116.9121,391.3584,120.9121,395.3584,116.9121" style="stroke:#181818;stroke-width:1.0;"/><line style="stroke:#181818;stroke-width:1.0;" x1="42.7793" x2="397.3584" y1="116.9121" y2="116.9121"/><text fill="#000000" font-family="sans-serif" font-size="13" font-weight="bold" lengthAdjust="spacing" textLength="7.23" x="49.7793" y="111.6494">1</text><text fill="#000000" font-family="sans-serif" font-size="13" lengthAdjust="spacing" textLength="143.7808" x="61.0093" y="111.6494">initiates list active figures</text><polygon fill="#181818" points="701,144.2031,711,148.2031,701,152.2031,705,148.2031" style="stroke:#181818;stroke-width:1.0;"/><line style="stroke:#181818;stroke-width:1.0;" x1="413.3584" x2="707" y1="148.2031" y2="148.2031"/><text fill="#000000" font-family="sans-serif" font-size="13" font-weight="bold" lengthAdjust="spacing" textLength="7.23" x="420.3584" y="142.9404">2</text><text fill="#000000" font-family="sans-serif" font-size="13" lengthAdjust="spacing" textLength="103.2954" x="431.5884" y="142.9404">listActiveFigures()</text><polygon fill="#181818" points="906.6416,175.4941,916.6416,179.4941,906.6416,183.4941,910.6416,179.4941" style="stroke:#181818;stroke-width:1.0;"/><line style="stroke:#181818;stroke-width:1.0;" x1="723" x2="912.6416" y1="179.4941" y2="179.4941"/><text fill="#000000" font-family="sans-serif" font-size="13" font-weight="bold" lengthAdjust="spacing" textLength="7.23" x="730" y="174.2314">3</text><text fill="#000000" font-family="sans-serif" font-size="13" lengthAdjust="spacing" textLength="100.4136" x="741.23" y="174.2314">allActiveFigures()</text><polygon fill="#181818" points="734,206.7852,724,210.7852,734,214.7852,730,210.7852" style="stroke:#181818;stroke-width:1.0;"/><line style="stroke:#181818;stroke-width:1.0;stroke-dasharray:2.0,2.0;" x1="728" x2="922.6416" y1="210.7852" y2="210.7852"/><text fill="#000000" font-family="sans-serif" font-size="13" font-weight="bold" lengthAdjust="spacing" textLength="7.23" x="740" y="205.5225">4</text><text fill="#000000" font-family="sans-serif" font-size="13" lengthAdjust="spacing" textLength="153.1816" x="751.23" y="205.5225">activeFigures:List&lt;Figure&gt;</text><polygon fill="#181818" points="424.3584,238.0762,414.3584,242.0762,424.3584,246.0762,420.3584,242.0762" style="stroke:#181818;stroke-width:1.0;"/><line style="stroke:#181818;stroke-width:1.0;stroke-dasharray:2.0,2.0;" x1="418.3584" x2="717" y1="242.0762" y2="242.0762"/><text fill="#000000" font-family="sans-serif" font-size="13" font-weight="bold" lengthAdjust="spacing" textLength="7.23" x="430.3584" y="236.8135">5</text><text fill="#000000" font-family="sans-serif" font-size="13" lengthAdjust="spacing" textLength="114.8926" x="441.5884" y="236.8135">figures:List&lt;Figure&gt;</text><polygon fill="#181818" points="983.8862,269.3672,993.8862,273.3672,983.8862,277.3672,987.8862,273.3672" style="stroke:#181818;stroke-width:1.0;"/><line style="stroke:#181818;stroke-width:1.0;" x1="413.3584" x2="989.8862" y1="273.3672" y2="273.3672"/><text fill="#000000" font-family="sans-serif" font-size="13" font-weight="bold" lengthAdjust="spacing" textLength="7.23" x="420.3584" y="268.1045">6</text><text fill="#000000" font-family="sans-serif" font-size="13" lengthAdjust="spacing" textLength="71.5254" x="431.5884" y="268.1045">new(figures)</text><rect fill="#E2E2F0" height="32.6211" rx="2.5" ry="2.5" style="stroke:#181818;stroke-width:0.5;" width="137.7305" x="995.8862" y="250.0762"/><text fill="#000000" font-family="sans-serif" font-size="14" lengthAdjust="spacing" textLength="123.7305" x="1002.8862" y="272.1836">figures:List&lt;Figure&gt;</text><polygon fill="#181818" points="53.7793,312.9883,43.7793,316.9883,53.7793,320.9883,49.7793,316.9883" style="stroke:#181818;stroke-width:1.0;"/><line style="stroke:#181818;stroke-width:1.0;stroke-dasharray:2.0,2.0;" x1="47.7793" x2="402.3584" y1="316.9883" y2="316.9883"/><text fill="#000000" font-family="sans-serif" font-size="13" font-weight="bold" lengthAdjust="spacing" textLength="7.23" x="59.7793" y="311.7256">7</text><text fill="#000000" font-family="sans-serif" font-size="13" lengthAdjust="spacing" textLength="156.0508" x="71.0093" y="311.7256">displayFigures(FiguresList)</text><path d="M10,331.9883 L82.4346,331.9883 L82.4346,341.2793 L72.4346,351.2793 L10,351.2793 L10,331.9883 " fill="#EEEEEE" style="stroke:#000000;stroke-width:1.5;"/><rect fill="none" height="610.8398" style="stroke:#000000;stroke-width:1.5;" width="1261.1265" x="10" y="331.9883"/><text fill="#000000" font-family="sans-serif" font-size="13" font-weight="bold" lengthAdjust="spacing" textLength="27.4346" x="25" y="347.0166">loop</text><text fill="#000000" font-family="sans-serif" font-size="11" font-weight="bold" lengthAdjust="spacing" textLength="158.3184" x="97.4346" y="345.8584">[while User wishes to interact]</text><polygon fill="#181818" points="53.7793,370.5703,43.7793,374.5703,53.7793,378.5703,49.7793,374.5703" style="stroke:#181818;stroke-width:1.0;"/><line style="stroke:#181818;stroke-width:1.0;stroke-dasharray:2.0,2.0;" x1="47.7793" x2="402.3584" y1="374.5703" y2="374.5703"/><text fill="#000000" font-family="sans-serif" font-size="13" font-weight="bold" lengthAdjust="spacing" textLength="7.23" x="59.7793" y="369.3076">8</text><text fill="#000000" font-family="sans-serif" font-size="13" lengthAdjust="spacing" textLength="325.3491" x="71.0093" y="369.3076">displayOptions ("Decommission", "Search/Reset", "Exit")</text><polygon fill="#181818" points="391.3584,401.8613,401.3584,405.8613,391.3584,409.8613,395.3584,405.8613" style="stroke:#181818;stroke-width:1.0;"/><line style="stroke:#181818;stroke-width:1.0;" x1="42.7793" x2="397.3584" y1="405.8613" y2="405.8613"/><text fill="#000000" font-family="sans-serif" font-size="13" font-weight="bold" lengthAdjust="spacing" textLength="7.23" x="49.7793" y="400.5986">9</text><text fill="#000000" font-family="sans-serif" font-size="13" lengthAdjust="spacing" textLength="122.8398" x="61.0093" y="400.5986">selectsOption(option)</text><line style="stroke:#000000;stroke-width:1.0;stroke-dasharray:2.0,2.0;" x1="10" x2="1271.1265" y1="414.8613" y2="414.8613"/><text fill="#000000" font-family="sans-serif" font-size="11" font-weight="bold" lengthAdjust="spacing" textLength="229.249" x="15" y="426.7314">[option is "Search by description/keyword"]</text><polygon fill="#181818" points="1185.3716,449.7832,1195.3716,453.7832,1185.3716,457.7832,1189.3716,453.7832" style="stroke:#181818;stroke-width:1.0;"/><line style="stroke:#181818;stroke-width:1.0;" x1="413.3584" x2="1191.3716" y1="453.7832" y2="453.7832"/><text fill="#000000" font-family="sans-serif" font-size="13" font-weight="bold" lengthAdjust="spacing" textLength="14.46" x="420.3584" y="448.5205">10</text><text fill="#000000" font-family="sans-serif" font-size="13" lengthAdjust="spacing" textLength="175.4111" x="438.8184" y="448.5205">readLine("Enter search term:")</text><polygon fill="#181818" points="424.3584,481.0742,414.3584,485.0742,424.3584,489.0742,420.3584,485.0742" style="stroke:#181818;stroke-width:1.0;"/><line style="stroke:#181818;stroke-width:1.0;stroke-dasharray:2.0,2.0;" x1="418.3584" x2="1201.3716" y1="485.0742" y2="485.0742"/><text fill="#000000" font-family="sans-serif" font-size="13" font-weight="bold" lengthAdjust="spacing" textLength="14.46" x="430.3584" y="479.8115">11</text><text fill="#000000" font-family="sans-serif" font-size="13" lengthAdjust="spacing" textLength="106.9199" x="448.8184" y="479.8115">searchTerm:String</text><line style="stroke:#181818;stroke-width:1.0;" x1="413.3584" x2="455.3584" y1="516.3652" y2="516.3652"/><line style="stroke:#181818;stroke-width:1.0;" x1="455.3584" x2="455.3584" y1="516.3652" y2="529.3652"/><line style="stroke:#181818;stroke-width:1.0;" x1="414.3584" x2="455.3584" y1="529.3652" y2="529.3652"/><polygon fill="#181818" points="424.3584,525.3652,414.3584,529.3652,424.3584,533.3652,420.3584,529.3652" style="stroke:#181818;stroke-width:1.0;"/><text fill="#000000" font-family="sans-serif" font-size="13" font-weight="bold" lengthAdjust="spacing" textLength="14.46" x="420.3584" y="511.1025">12</text><text fill="#000000" font-family="sans-serif" font-size="13" lengthAdjust="spacing" textLength="257.1816" x="438.8184" y="511.1025">filterFiguresLocally(FiguresList, searchTerm)</text><polygon fill="#181818" points="53.7793,556.6563,43.7793,560.6563,53.7793,564.6563,49.7793,560.6563" style="stroke:#181818;stroke-width:1.0;"/><line style="stroke:#181818;stroke-width:1.0;stroke-dasharray:2.0,2.0;" x1="47.7793" x2="402.3584" y1="560.6563" y2="560.6563"/><text fill="#000000" font-family="sans-serif" font-size="13" font-weight="bold" lengthAdjust="spacing" textLength="14.46" x="59.7793" y="555.3936">13</text><text fill="#000000" font-family="sans-serif" font-size="13" lengthAdjust="spacing" textLength="195.0698" x="78.2393" y="555.3936">displayFigures(filteredFiguresList)</text><line style="stroke:#181818;stroke-width:1.0;" x1="413.3584" x2="455.3584" y1="591.9473" y2="591.9473"/><line style="stroke:#181818;stroke-width:1.0;" x1="455.3584" x2="455.3584" y1="591.9473" y2="604.9473"/><line style="stroke:#181818;stroke-width:1.0;" x1="414.3584" x2="455.3584" y1="604.9473" y2="604.9473"/><polygon fill="#181818" points="424.3584,600.9473,414.3584,604.9473,424.3584,608.9473,420.3584,604.9473" style="stroke:#181818;stroke-width:1.0;"/><text fill="#000000" font-family="sans-serif" font-size="13" font-weight="bold" lengthAdjust="spacing" textLength="14.46" x="420.3584" y="586.6846">14</text><text fill="#000000" font-family="sans-serif" font-size="13" lengthAdjust="spacing" textLength="129.3398" x="438.8184" y="586.6846">setSearchedFlag(true)</text><line style="stroke:#000000;stroke-width:1.0;stroke-dasharray:2.0,2.0;" x1="10" x2="1271.1265" y1="613.9473" y2="613.9473"/><text fill="#000000" font-family="sans-serif" font-size="11" font-weight="bold" lengthAdjust="spacing" textLength="290.9844" x="15" y="625.8174">[option is "Reset List" (assuming searchedFlag is true)]</text><polygon fill="#181818" points="701,648.8691,711,652.8691,701,656.8691,705,652.8691" style="stroke:#181818;stroke-width:1.0;"/><line style="stroke:#181818;stroke-width:1.0;" x1="413.3584" x2="707" y1="652.8691" y2="652.8691"/><text fill="#000000" font-family="sans-serif" font-size="13" font-weight="bold" lengthAdjust="spacing" textLength="14.46" x="420.3584" y="647.6064">15</text><text fill="#000000" font-family="sans-serif" font-size="13" lengthAdjust="spacing" textLength="103.2954" x="438.8184" y="647.6064">listActiveFigures()</text><polygon fill="#181818" points="906.6416,680.1602,916.6416,684.1602,906.6416,688.1602,910.6416,684.1602" style="stroke:#181818;stroke-width:1.0;"/><line style="stroke:#181818;stroke-width:1.0;" x1="723" x2="912.6416" y1="684.1602" y2="684.1602"/><text fill="#000000" font-family="sans-serif" font-size="13" font-weight="bold" lengthAdjust="spacing" textLength="14.46" x="730" y="678.8975">16</text><text fill="#000000" font-family="sans-serif" font-size="13" lengthAdjust="spacing" textLength="100.4136" x="748.46" y="678.8975">allActiveFigures()</text><polygon fill="#181818" points="734,711.4512,724,715.4512,734,719.4512,730,715.4512" style="stroke:#181818;stroke-width:1.0;"/><line style="stroke:#181818;stroke-width:1.0;stroke-dasharray:2.0,2.0;" x1="728" x2="922.6416" y1="715.4512" y2="715.4512"/><text fill="#000000" font-family="sans-serif" font-size="13" font-weight="bold" lengthAdjust="spacing" textLength="14.46" x="740" y="710.1885">17</text><text fill="#000000" font-family="sans-serif" font-size="13" lengthAdjust="spacing" textLength="153.1816" x="758.46" y="710.1885">activeFigures:List&lt;Figure&gt;</text><polygon fill="#181818" points="424.3584,742.7422,414.3584,746.7422,424.3584,750.7422,420.3584,746.7422" style="stroke:#181818;stroke-width:1.0;"/><line style="stroke:#181818;stroke-width:1.0;stroke-dasharray:2.0,2.0;" x1="418.3584" x2="717" y1="746.7422" y2="746.7422"/><text fill="#000000" font-family="sans-serif" font-size="13" font-weight="bold" lengthAdjust="spacing" textLength="14.46" x="430.3584" y="741.4795">18</text><text fill="#000000" font-family="sans-serif" font-size="13" lengthAdjust="spacing" textLength="114.8926" x="448.8184" y="741.4795">figures:List&lt;Figure&gt;</text><polygon fill="#181818" points="1052.7515,774.0332,1062.7515,778.0332,1052.7515,782.0332,1056.7515,778.0332" style="stroke:#181818;stroke-width:1.0;"/><line style="stroke:#181818;stroke-width:1.0;" x1="413.3584" x2="1058.7515" y1="778.0332" y2="778.0332"/><text fill="#000000" font-family="sans-serif" font-size="13" font-weight="bold" lengthAdjust="spacing" textLength="14.46" x="420.3584" y="772.7705">19</text><text fill="#000000" font-family="sans-serif" font-size="13" lengthAdjust="spacing" textLength="87.439" x="438.8184" y="772.7705">update(figures)</text><polygon fill="#181818" points="53.7793,805.3242,43.7793,809.3242,53.7793,813.3242,49.7793,809.3242" style="stroke:#181818;stroke-width:1.0;"/><line style="stroke:#181818;stroke-width:1.0;stroke-dasharray:2.0,2.0;" x1="47.7793" x2="402.3584" y1="809.3242" y2="809.3242"/><text fill="#000000" font-family="sans-serif" font-size="13" font-weight="bold" lengthAdjust="spacing" textLength="14.46" x="59.7793" y="804.0615">20</text><text fill="#000000" font-family="sans-serif" font-size="13" lengthAdjust="spacing" textLength="156.0508" x="78.2393" y="804.0615">displayFigures(FiguresList)</text><line style="stroke:#181818;stroke-width:1.0;" x1="413.3584" x2="455.3584" y1="840.6152" y2="840.6152"/><line style="stroke:#181818;stroke-width:1.0;" x1="455.3584" x2="455.3584" y1="840.6152" y2="853.6152"/><line style="stroke:#181818;stroke-width:1.0;" x1="414.3584" x2="455.3584" y1="853.6152" y2="853.6152"/><polygon fill="#181818" points="424.3584,849.6152,414.3584,853.6152,424.3584,857.6152,420.3584,853.6152" style="stroke:#181818;stroke-width:1.0;"/><text fill="#000000" font-family="sans-serif" font-size="13" font-weight="bold" lengthAdjust="spacing" textLength="14.46" x="420.3584" y="835.3525">21</text><text fill="#000000" font-family="sans-serif" font-size="13" lengthAdjust="spacing" textLength="134.3989" x="438.8184" y="835.3525">setSearchedFlag(false)</text><line style="stroke:#000000;stroke-width:1.0;stroke-dasharray:2.0,2.0;" x1="10" x2="1271.1265" y1="862.6152" y2="862.6152"/><text fill="#000000" font-family="sans-serif" font-size="11" font-weight="bold" lengthAdjust="spacing" textLength="86.813" x="15" y="874.4854">[option is "Exit"]</text><polygon fill="#181818" points="53.7793,897.5371,43.7793,901.5371,53.7793,905.5371,49.7793,901.5371" style="stroke:#181818;stroke-width:1.0;"/><line style="stroke:#181818;stroke-width:1.0;stroke-dasharray:2.0,2.0;" x1="47.7793" x2="402.3584" y1="901.5371" y2="901.5371"/><text fill="#000000" font-family="sans-serif" font-size="13" font-weight="bold" lengthAdjust="spacing" textLength="14.46" x="59.7793" y="896.2744">22</text><text fill="#000000" font-family="sans-serif" font-size="13" lengthAdjust="spacing" textLength="129.3271" x="78.2393" y="896.2744">exiting list figures view</text><path d="M30,916.5371 L109.6899,916.5371 L109.6899,925.8281 L99.6899,935.8281 L30,935.8281 L30,916.5371 " fill="#EEEEEE" style="stroke:#000000;stroke-width:1.5;"/><rect fill="none" height="19.291" style="stroke:#000000;stroke-width:1.5;" width="84.6899" x="30" y="916.5371"/><text fill="#000000" font-family="sans-serif" font-size="13" font-weight="bold" lengthAdjust="spacing" textLength="34.6899" x="45" y="931.5654">break</text><!--SRC=[bLLTY-8m57tFhxZqgSB8lCiWBEui20CBC-iFYEqTlKniIfBg-E_t9caqhHKSGTicvvpxSNAhx9nkkiCMZP2LqmQAZKLJWBJWRuHefN5KKIiR1yNYZQpxLJawuX_QTGRjPXsnwmbWXAnquunMgbTTEQD6s8XxnrPRuXJE0SUBVcK8_On1W_fBf2qJsc_uTJ7AkTADrGeNgtYDISJxZICbVDrqb0vZmVu7vakk21P03JdYBGkAbI4W4VeiCk9Q2COporV7F3LkKpcxeaC7W3y1pAI-LEP9fSOq3xnGKrFyOcBDhs5bpXqqAJ1gl16AAQHofzehCbR8N5G6UubBosFnsGgBDNWgUy5P0FWelhaBgCcsIfvJaHbl9eJIkeNJdbGq14vazso0q-o6GyF9Y53DfEJVrX5x2sNn6ojzE92r_5myGV61qbJxvtUqwFppwpUv8hPtOBb5XPMpKQZKuJAB4L5PXBW2P9CaRC_SMLiP2ZlFNtW-QLCNWP8INUP7ZgDm2-itQh0iNdrH73L8yUrXqMSrC3u_i6apLvnVq_T2_xpEXpFKx2xmtCS9jPXbVmmK9v9SqHMVodDkqbCMPJOGk6jnbCHwOFL4Q3OdTfMXIkvAPpgyq_tW97Yb0affRNVWQllC8jl3ei38Ylj3UjluDAoNhZywj3TI-V2cpy-7UCBEiV03GprrAF9AfmQwQsl6NMVw8UD_QlYdP9llE1v6zavOv3tlVtXFzod2aV1qmMzvvhvwuQOM_fk_s_WTdZ_vluB_]--></g></svg>