<svg xmlns="http://www.w3.org/2000/svg" xmlns:xlink="http://www.w3.org/1999/xlink" contentStyleType="text/css" height="578px" preserveAspectRatio="none" style="width:973px;height:578px;background:#FFFFFF;" version="1.1" viewBox="0 0 973 578" width="973px" zoomAndPan="magnify"><title>&lt;size:20&gt;Sequence Diagram US240 - Drone Model Creation&lt;/size&gt;</title><defs/><g><text fill="#000000" font-family="FG Virgil" font-size="20" font-weight="bold" lengthAdjust="spacing" textLength="472.3438" x="249.5027" y="36.582">Sequence Diagram US240 - Drone Model Creation</text><rect fill="#FFFFFF" height="336.2012" style="stroke:#181818;stroke-width:1.0;" width="10" x="37.6274" y="141.2227"/><rect fill="#FFFFFF" height="312.9102" style="stroke:#181818;stroke-width:1.0;" width="10" x="426.417" y="164.5137"/><rect fill="#FFFFFF" height="250.3281" style="stroke:#181818;stroke-width:1.0;" width="10" x="613.5986" y="195.8047"/><rect fill="#FFFFFF" height="31.291" style="stroke:#181818;stroke-width:1.0;" width="10" x="748.0947" y="320.9688"/><rect fill="#FFFFFF" height="31.291" style="stroke:#181818;stroke-width:1.0;" width="10" x="883.7598" y="383.5508"/><line style="stroke:#181818;stroke-width:0.5;stroke-dasharray:5.0,5.0;" x1="42" x2="42" y1="131.2227" y2="495.4238"/><line style="stroke:#181818;stroke-width:0.5;stroke-dasharray:5.0,5.0;" x1="431.3311" x2="431.3311" y1="131.2227" y2="495.4238"/><line style="stroke:#181818;stroke-width:0.5;stroke-dasharray:5.0,5.0;" x1="618.1782" x2="618.1782" y1="131.2227" y2="495.4238"/><line style="stroke:#181818;stroke-width:0.5;stroke-dasharray:5.0,5.0;" x1="753.019" x2="753.019" y1="131.2227" y2="495.4238"/><line style="stroke:#181818;stroke-width:0.5;stroke-dasharray:5.0,5.0;" x1="888.1704" x2="888.1704" y1="131.2227" y2="495.4238"/><text fill="#000000" font-family="FG Virgil" font-size="14" lengthAdjust="spacing" textLength="69.2549" x="5" y="127.709">DroneTech</text><ellipse cx="42.6274" cy="61.1016" fill="#E3E3E3" rx="8" ry="8" style="stroke:#181818;stroke-width:0.5;"/><path d="M42.6274,69.1016 L42.6274,96.1016 M29.6274,77.1016 L55.6274,77.1016 M42.6274,96.1016 L29.6274,111.1016 M42.6274,96.1016 L55.6274,111.1016 " fill="none" style="stroke:#181818;stroke-width:0.5;"/><text fill="#000000" font-family="FG Virgil" font-size="14" lengthAdjust="spacing" textLength="69.2549" x="5" y="509.5313">DroneTech</text><ellipse cx="42.6274" cy="521.5449" fill="#E3E3E3" rx="8" ry="8" style="stroke:#181818;stroke-width:0.5;"/><path d="M42.6274,529.5449 L42.6274,556.5449 M29.6274,537.5449 L55.6274,537.5449 M42.6274,556.5449 L29.6274,571.5449 M42.6274,556.5449 L55.6274,571.5449 " fill="none" style="stroke:#181818;stroke-width:0.5;"/><rect fill="#E3E3E3" height="51.2422" rx="2.5" ry="2.5" style="stroke:#181818;stroke-width:0.5;" width="150.1719" x="356.3311" y="78.9805"/><text fill="#000000" font-family="FG Virgil" font-size="14" font-style="italic" lengthAdjust="spacing" textLength="92.627" x="385.1035" y="101.0879">&#171;presentation&#187;</text><text fill="#000000" font-family="FG Virgil" font-size="14" lengthAdjust="spacing" textLength="136.1719" x="363.3311" y="119.709">:CreateDroneModelUI</text><rect fill="#E3E3E3" height="51.2422" rx="2.5" ry="2.5" style="stroke:#181818;stroke-width:0.5;" width="150.1719" x="356.3311" y="494.4238"/><text fill="#000000" font-family="FG Virgil" font-size="14" font-style="italic" lengthAdjust="spacing" textLength="92.627" x="385.1035" y="516.5313">&#171;presentation&#187;</text><text fill="#000000" font-family="FG Virgil" font-size="14" lengthAdjust="spacing" textLength="136.1719" x="363.3311" y="535.1523">:CreateDroneModelUI</text><rect fill="#E3E3E3" height="51.2422" rx="2.5" ry="2.5" style="stroke:#181818;stroke-width:0.5;" width="154.8408" x="541.1782" y="78.9805"/><text fill="#000000" font-family="FG Virgil" font-size="14" font-style="italic" lengthAdjust="spacing" textLength="82.5098" x="577.3438" y="101.0879">&#171;application&#187;</text><text fill="#000000" font-family="FG Virgil" font-size="14" lengthAdjust="spacing" textLength="140.8408" x="548.1782" y="119.709">:DroneModelController</text><rect fill="#E3E3E3" height="51.2422" rx="2.5" ry="2.5" style="stroke:#181818;stroke-width:0.5;" width="154.8408" x="541.1782" y="494.4238"/><text fill="#000000" font-family="FG Virgil" font-size="14" font-style="italic" lengthAdjust="spacing" textLength="82.5098" x="577.3438" y="516.5313">&#171;application&#187;</text><text fill="#000000" font-family="FG Virgil" font-size="14" lengthAdjust="spacing" textLength="140.8408" x="548.1782" y="535.1523">:DroneModelController</text><rect fill="#E3E3E3" height="51.2422" rx="2.5" ry="2.5" style="stroke:#181818;stroke-width:0.5;" width="94.1514" x="706.019" y="78.9805"/><text fill="#000000" font-family="FG Virgil" font-size="14" font-style="italic" lengthAdjust="spacing" textLength="61.4893" x="722.3501" y="101.0879">&#171;domain&#187;</text><text fill="#000000" font-family="FG Virgil" font-size="14" lengthAdjust="spacing" textLength="80.1514" x="713.019" y="119.709">:DroneModel</text><rect fill="#E3E3E3" height="51.2422" rx="2.5" ry="2.5" style="stroke:#181818;stroke-width:0.5;" width="94.1514" x="706.019" y="494.4238"/><text fill="#000000" font-family="FG Virgil" font-size="14" font-style="italic" lengthAdjust="spacing" textLength="61.4893" x="722.3501" y="516.5313">&#171;domain&#187;</text><text fill="#000000" font-family="FG Virgil" font-size="14" lengthAdjust="spacing" textLength="80.1514" x="713.019" y="535.1523">:DroneModel</text><rect fill="#E3E3E3" height="51.2422" rx="2.5" ry="2.5" style="stroke:#181818;stroke-width:0.5;" width="157.1787" x="810.1704" y="78.9805"/><text fill="#000000" font-family="FG Virgil" font-size="14" font-style="italic" lengthAdjust="spacing" textLength="77.041" x="850.2393" y="101.0879">&#171;repository&#187;</text><text fill="#000000" font-family="FG Virgil" font-size="14" lengthAdjust="spacing" textLength="143.1787" x="817.1704" y="119.709">DroneModelRepository</text><rect fill="#E3E3E3" height="51.2422" rx="2.5" ry="2.5" style="stroke:#181818;stroke-width:0.5;" width="157.1787" x="810.1704" y="494.4238"/><text fill="#000000" font-family="FG Virgil" font-size="14" font-style="italic" lengthAdjust="spacing" textLength="77.041" x="850.2393" y="516.5313">&#171;repository&#187;</text><text fill="#000000" font-family="FG Virgil" font-size="14" lengthAdjust="spacing" textLength="143.1787" x="817.1704" y="535.1523">DroneModelRepository</text><rect fill="#FFFFFF" height="336.2012" style="stroke:#181818;stroke-width:1.0;" width="10" x="37.6274" y="141.2227"/><rect fill="#FFFFFF" height="312.9102" style="stroke:#181818;stroke-width:1.0;" width="10" x="426.417" y="164.5137"/><rect fill="#FFFFFF" height="250.3281" style="stroke:#181818;stroke-width:1.0;" width="10" x="613.5986" y="195.8047"/><rect fill="#FFFFFF" height="31.291" style="stroke:#181818;stroke-width:1.0;" width="10" x="748.0947" y="320.9688"/><rect fill="#FFFFFF" height="31.291" style="stroke:#181818;stroke-width:1.0;" width="10" x="883.7598" y="383.5508"/><polygon fill="#181818" points="414.417,160.5137,424.417,164.5137,414.417,168.5137,418.417,164.5137" style="stroke:#181818;stroke-width:1.0;"/><line style="stroke:#181818;stroke-width:1.0;" x1="47.6274" x2="420.417" y1="164.5137" y2="164.5137"/><text fill="#000000" font-family="FG Virgil" font-size="13" lengthAdjust="spacing" textLength="195.8379" x="54.6274" y="159.251">Requests to create a drone model</text><polygon fill="#181818" points="601.5986,191.8047,611.5986,195.8047,601.5986,199.8047,605.5986,195.8047" style="stroke:#181818;stroke-width:1.0;"/><line style="stroke:#181818;stroke-width:1.0;" x1="436.417" x2="607.5986" y1="195.8047" y2="195.8047"/><text fill="#000000" font-family="FG Virgil" font-size="13" lengthAdjust="spacing" textLength="36.1309" x="443.417" y="190.542">create</text><polygon fill="#181818" points="58.6274,223.0957,48.6274,227.0957,58.6274,231.0957,54.6274,227.0957" style="stroke:#181818;stroke-width:1.0;"/><line style="stroke:#181818;stroke-width:1.0;stroke-dasharray:2.0,2.0;" x1="52.6274" x2="425.417" y1="227.0957" y2="227.0957"/><text fill="#000000" font-family="FG Virgil" font-size="13" lengthAdjust="spacing" textLength="354.7896" x="64.6274" y="221.833">Ask for drone model details (name, behavior under wind, etc.)</text><polygon fill="#181818" points="414.417,254.3867,424.417,258.3867,414.417,262.3867,418.417,258.3867" style="stroke:#181818;stroke-width:1.0;"/><line style="stroke:#181818;stroke-width:1.0;" x1="47.6274" x2="420.417" y1="258.3867" y2="258.3867"/><text fill="#000000" font-family="FG Virgil" font-size="13" lengthAdjust="spacing" textLength="167.6479" x="54.6274" y="253.124">Provides drone model details</text><polygon fill="#181818" points="601.5986,285.6777,611.5986,289.6777,601.5986,293.6777,605.5986,289.6777" style="stroke:#181818;stroke-width:1.0;"/><line style="stroke:#181818;stroke-width:1.0;" x1="436.417" x2="607.5986" y1="289.6777" y2="289.6777"/><text fill="#000000" font-family="FG Virgil" font-size="13" lengthAdjust="spacing" textLength="153.1816" x="443.417" y="284.415">createDroneModel(details)</text><polygon fill="#181818" points="736.0947,316.9688,746.0947,320.9688,736.0947,324.9688,740.0947,320.9688" style="stroke:#181818;stroke-width:1.0;"/><line style="stroke:#181818;stroke-width:1.0;" x1="623.5986" x2="742.0947" y1="320.9688" y2="320.9688"/><text fill="#000000" font-family="FG Virgil" font-size="13" lengthAdjust="spacing" textLength="70.0845" x="630.5986" y="315.7061">new(details)</text><polygon fill="#181818" points="634.5986,348.2598,624.5986,352.2598,634.5986,356.2598,630.5986,352.2598" style="stroke:#181818;stroke-width:1.0;"/><line style="stroke:#181818;stroke-width:1.0;stroke-dasharray:2.0,2.0;" x1="628.5986" x2="752.0947" y1="352.2598" y2="352.2598"/><text fill="#000000" font-family="FG Virgil" font-size="13" lengthAdjust="spacing" textLength="94.6626" x="640.5986" y="346.9971">newDroneModel</text><polygon fill="#181818" points="871.7598,379.5508,881.7598,383.5508,871.7598,387.5508,875.7598,383.5508" style="stroke:#181818;stroke-width:1.0;"/><line style="stroke:#181818;stroke-width:1.0;" x1="623.5986" x2="877.7598" y1="383.5508" y2="383.5508"/><text fill="#000000" font-family="FG Virgil" font-size="13" lengthAdjust="spacing" textLength="130.7808" x="630.5986" y="378.2881">save(newDroneModel)</text><polygon fill="#181818" points="634.5986,410.8418,624.5986,414.8418,634.5986,418.8418,630.5986,414.8418" style="stroke:#181818;stroke-width:1.0;"/><line style="stroke:#181818;stroke-width:1.0;stroke-dasharray:2.0,2.0;" x1="628.5986" x2="887.7598" y1="414.8418" y2="414.8418"/><text fill="#000000" font-family="FG Virgil" font-size="13" lengthAdjust="spacing" textLength="105.5044" x="640.5986" y="409.5791">savedDroneModel</text><polygon fill="#181818" points="447.417,442.1328,437.417,446.1328,447.417,450.1328,443.417,446.1328" style="stroke:#181818;stroke-width:1.0;"/><line style="stroke:#181818;stroke-width:1.0;stroke-dasharray:2.0,2.0;" x1="441.417" x2="617.5986" y1="446.1328" y2="446.1328"/><text fill="#000000" font-family="FG Virgil" font-size="13" lengthAdjust="spacing" textLength="105.5044" x="453.417" y="440.8701">savedDroneModel</text><polygon fill="#181818" points="53.6274,473.4238,43.6274,477.4238,53.6274,481.4238,49.6274,477.4238" style="stroke:#181818;stroke-width:1.0;"/><line style="stroke:#181818;stroke-width:1.0;stroke-dasharray:2.0,2.0;" x1="47.6274" x2="430.417" y1="477.4238" y2="477.4238"/><text fill="#000000" font-family="FG Virgil" font-size="13" lengthAdjust="spacing" textLength="327.3486" x="59.6274" y="472.1611">Success confirmation and details of created drone model</text><!--SRC=[XLD1Rjim4Bpp5OkSN21kWw0dmH0Gn4ZXGuiYhdlVaYkRC4Mg9EKWVNrNb23AgfheO9ZYpEmCXuew6e9Dq7-ekByhz_Ix9Ii9jXgF7ciuxEy_ty4QjjvPWgzEaO57JnYrivjF7QqK8forRR23ryuwUVAk9eY-fSbEW_ACHzh7LvxdISR9dg8AMnEVd8tVaAbFN-2dzaTj9fXmGkLUj3r2XIQG42YZyxsl7oHFW04UkbU2yL5BtQ2DS5CaivHWoVrXTzD13plOR1fFWMnCOSfoHioKH_RbdJ7a4pKlMGARncZvdaBYRLsDsZ97fJypU0O_K-E2vYIlZFNZWl5TPdtXE4FIz0lhajCKyDnL5sA0w42cq82WKcrr9vl9XvqGm0-V0NDpd6BWfSqHdVSpYsbfTW4FuGmLcvWCuZeZQXDWPRdCM_X59xnenhHMyPbnX-eMACgF7vBULOZltbsqeh2azxRfV7wh0T_BTy-aCURsFHHWwULVw1YxHutlX_BMizciaGUFO4LpcVzPMIYzW80NMbqfB_bRe6QtIvTfxhqRezvnlpH4p7CCtItfJRJUlaVxLaeA0QIpbVPr-g00hHelawk6ejNLfHQJ2Nol9wl-4_aB]--></g></svg>