<?xml version="1.0" encoding="UTF-8" standalone="no"?><svg xmlns="http://www.w3.org/2000/svg" xmlns:xlink="http://www.w3.org/1999/xlink" contentStyleType="text/css" height="2508px" preserveAspectRatio="none" style="width:4892px;height:2508px;background:#FFFFFF;" version="1.1" viewBox="0 0 4892 2508" width="4892px" zoomAndPan="magnify"><defs/><g><text fill="#000000" font-family="FG Virgil" font-size="20" font-weight="bold" lengthAdjust="spacing" textLength="467" x="2213.75" y="34.3359">Sequence Diagram US236: Edit Show Request</text><rect fill="#FFFFFF" height="2267.2813" style="stroke:#181818;stroke-width:1.0;" width="10" x="115" y="143.1094"/><rect fill="#FFFFFF" height="2237.7266" style="stroke:#181818;stroke-width:1.0;" width="10" x="976" y="172.6641"/><rect fill="#FFFFFF" height="150.2188" style="stroke:#181818;stroke-width:1.0;" width="10" x="1409" y="210.2188"/><rect fill="#FFFFFF" height="112.6641" style="stroke:#181818;stroke-width:1.0;" width="10" x="1409" y="728.4297"/><rect fill="#FFFFFF" height="30" style="stroke:#181818;stroke-width:1.0;" width="10" x="1708.5" y="585.7656"/><rect fill="#FFFFFF" height="112.6641" style="stroke:#181818;stroke-width:1.0;" width="10" x="1708.5" y="1134.6406"/><rect fill="#FFFFFF" height="150.2188" style="stroke:#181818;stroke-width:1.0;" width="10" x="2318" y="397.9922"/><rect fill="#FFFFFF" height="81.1094" style="stroke:#181818;stroke-width:1.0;" width="10" x="3130" y="1843.1797"/><rect fill="#FFFFFF" height="14" style="stroke:#181818;stroke-width:1.0;" width="10" x="3130" y="1961.8438"/><rect fill="#FFFFFF" height="14" style="stroke:#181818;stroke-width:1.0;" width="10" x="3130" y="2013.3984"/><rect fill="#FFFFFF" height="14" style="stroke:#181818;stroke-width:1.0;" width="10" x="3130" y="2064.9531"/><rect fill="#FFFFFF" height="14" style="stroke:#181818;stroke-width:1.0;" width="10" x="3130" y="2116.5078"/><rect fill="#FFFFFF" height="14" style="stroke:#181818;stroke-width:1.0;" width="10" x="3130" y="2168.0625"/><rect fill="#FFFFFF" height="37.5547" style="stroke:#181818;stroke-width:1.0;" width="10" x="3308.5" y="247.7734"/><rect fill="#FFFFFF" height="37.5547" style="stroke:#181818;stroke-width:1.0;" width="10" x="3308.5" y="435.5469"/><rect fill="#FFFFFF" height="37.5547" style="stroke:#181818;stroke-width:1.0;" width="10" x="3509" y="322.8828"/><rect fill="#FFFFFF" height="37.5547" style="stroke:#181818;stroke-width:1.0;" width="10" x="3509" y="510.6563"/><rect fill="#FFFFFF" height="37.5547" style="stroke:#181818;stroke-width:1.0;" width="10" x="3733" y="765.9844"/><rect fill="#FFFFFF" height="37.5547" style="stroke:#181818;stroke-width:1.0;" width="10" x="3733" y="2219.6172"/><rect fill="#FFFFFF" height="37.5547" style="stroke:#181818;stroke-width:1.0;" width="10" x="3944" y="1172.1953"/><rect fill="#FFFFFF" height="37.5547" style="stroke:#181818;stroke-width:1.0;" width="10" x="4095.5" y="1467.6328"/><rect fill="#FFFFFF" height="37.5547" style="stroke:#181818;stroke-width:1.0;" width="10" x="4237.5" y="1542.7422"/><rect fill="#FFFFFF" height="37.5547" style="stroke:#181818;stroke-width:1.0;" width="10" x="4410" y="1617.8516"/><rect fill="#FFFFFF" height="37.5547" style="stroke:#181818;stroke-width:1.0;" width="10" x="4599.5" y="1692.9609"/><rect fill="#FFFFFF" height="37.5547" style="stroke:#181818;stroke-width:1.0;" width="10" x="4783.5" y="1768.0703"/><rect fill="none" height="1547.2969" style="stroke:#000000;stroke-width:1.5;" width="4875.5" x="10" y="856.0938"/><rect fill="none" height="360.1016" style="stroke:#000000;stroke-width:1.5;" width="4018.5" x="20" y="1070.9766"/><line style="stroke:#181818;stroke-width:0.5;stroke-dasharray:5.0,5.0;" x1="120" x2="120" y1="133.1094" y2="2420.3906"/><line style="stroke:#181818;stroke-width:0.5;stroke-dasharray:5.0,5.0;" x1="981" x2="981" y1="133.1094" y2="2420.3906"/><line style="stroke:#181818;stroke-width:0.5;stroke-dasharray:5.0,5.0;" x1="1413.5" x2="1413.5" y1="133.1094" y2="2420.3906"/><line style="stroke:#181818;stroke-width:0.5;stroke-dasharray:5.0,5.0;" x1="1713.5" x2="1713.5" y1="133.1094" y2="2420.3906"/><line style="stroke:#181818;stroke-width:0.5;stroke-dasharray:5.0,5.0;" x1="2323" x2="2323" y1="133.1094" y2="2420.3906"/><line style="stroke:#181818;stroke-width:0.5;stroke-dasharray:5.0,5.0;" x1="3134.5" x2="3134.5" y1="133.1094" y2="2420.3906"/><line style="stroke:#181818;stroke-width:0.5;stroke-dasharray:5.0,5.0;" x1="3313.5" x2="3313.5" y1="133.1094" y2="2420.3906"/><line style="stroke:#181818;stroke-width:0.5;stroke-dasharray:5.0,5.0;" x1="3513.5" x2="3513.5" y1="133.1094" y2="2420.3906"/><line style="stroke:#181818;stroke-width:0.5;stroke-dasharray:5.0,5.0;" x1="3737.5" x2="3737.5" y1="133.1094" y2="2420.3906"/><line style="stroke:#181818;stroke-width:0.5;stroke-dasharray:5.0,5.0;" x1="3948.5" x2="3948.5" y1="133.1094" y2="2420.3906"/><line style="stroke:#181818;stroke-width:0.5;stroke-dasharray:5.0,5.0;" x1="4100.5" x2="4100.5" y1="133.1094" y2="2420.3906"/><line style="stroke:#181818;stroke-width:0.5;stroke-dasharray:5.0,5.0;" x1="4242.5" x2="4242.5" y1="133.1094" y2="2420.3906"/><line style="stroke:#181818;stroke-width:0.5;stroke-dasharray:5.0,5.0;" x1="4414.5" x2="4414.5" y1="133.1094" y2="2420.3906"/><line style="stroke:#181818;stroke-width:0.5;stroke-dasharray:5.0,5.0;" x1="4604.5" x2="4604.5" y1="133.1094" y2="2420.3906"/><line style="stroke:#181818;stroke-width:0.5;stroke-dasharray:5.0,5.0;" x1="4788.5" x2="4788.5" y1="133.1094" y2="2420.3906"/><text fill="#000000" font-family="FG Virgil" font-size="20" lengthAdjust="spacing" textLength="174" x="30" y="128.8906">CRM_Collaborator</text><ellipse cx="120" cy="58.0547" fill="#E3E3E3" rx="8" ry="8" style="stroke:#181818;stroke-width:0.5;"/><path d="M120,66.0547 L120,93.0547 M107,74.0547 L133,74.0547 M120,93.0547 L107,108.0547 M120,93.0547 L133,108.0547 " fill="none" style="stroke:#181818;stroke-width:0.5;"/><text fill="#000000" font-family="FG Virgil" font-size="20" lengthAdjust="spacing" textLength="174" x="30" y="2438.7266">CRM_Collaborator</text><ellipse cx="120" cy="2451.4453" fill="#E3E3E3" rx="8" ry="8" style="stroke:#181818;stroke-width:0.5;"/><path d="M120,2459.4453 L120,2486.4453 M107,2467.4453 L133,2467.4453 M120,2486.4453 L107,2501.4453 M120,2486.4453 L133,2501.4453 " fill="none" style="stroke:#181818;stroke-width:0.5;"/><rect fill="#E3E3E3" height="61.1094" rx="2.5" ry="2.5" style="stroke:#181818;stroke-width:0.5;" width="204" x="879" y="71"/><text fill="#000000" font-family="FG Virgil" font-size="20" font-style="italic" lengthAdjust="spacing" textLength="140" x="911" y="97.3359">«presentation»</text><text fill="#000000" font-family="FG Virgil" font-size="20" lengthAdjust="spacing" textLength="190" x="886" y="120.8906">:EditShowRequestUI</text><rect fill="#E3E3E3" height="61.1094" rx="2.5" ry="2.5" style="stroke:#181818;stroke-width:0.5;" width="204" x="879" y="2419.3906"/><text fill="#000000" font-family="FG Virgil" font-size="20" font-style="italic" lengthAdjust="spacing" textLength="140" x="911" y="2445.7266">«presentation»</text><text fill="#000000" font-family="FG Virgil" font-size="20" lengthAdjust="spacing" textLength="190" x="886" y="2469.2813">:EditShowRequestUI</text><rect fill="#E3E3E3" height="61.1094" rx="2.5" ry="2.5" style="stroke:#181818;stroke-width:0.5;" width="285" x="1271.5" y="71"/><text fill="#000000" font-family="FG Virgil" font-size="20" font-style="italic" lengthAdjust="spacing" textLength="127" x="1350.5" y="97.3359">«application»</text><text fill="#000000" font-family="FG Virgil" font-size="20" lengthAdjust="spacing" textLength="271" x="1278.5" y="120.8906">:FindShowRequestController</text><rect fill="#E3E3E3" height="61.1094" rx="2.5" ry="2.5" style="stroke:#181818;stroke-width:0.5;" width="285" x="1271.5" y="2419.3906"/><text fill="#000000" font-family="FG Virgil" font-size="20" font-style="italic" lengthAdjust="spacing" textLength="127" x="1350.5" y="2445.7266">«application»</text><text fill="#000000" font-family="FG Virgil" font-size="20" lengthAdjust="spacing" textLength="271" x="1278.5" y="2469.2813">:FindShowRequestController</text><rect fill="#E3E3E3" height="61.1094" rx="2.5" ry="2.5" style="stroke:#181818;stroke-width:0.5;" width="294" x="1566.5" y="71"/><text fill="#000000" font-family="FG Virgil" font-size="20" font-style="italic" lengthAdjust="spacing" textLength="127" x="1650" y="97.3359">«application»</text><text fill="#000000" font-family="FG Virgil" font-size="20" lengthAdjust="spacing" textLength="280" x="1573.5" y="120.8906">:ListShodroneUsersController</text><rect fill="#E3E3E3" height="61.1094" rx="2.5" ry="2.5" style="stroke:#181818;stroke-width:0.5;" width="294" x="1566.5" y="2419.3906"/><text fill="#000000" font-family="FG Virgil" font-size="20" font-style="italic" lengthAdjust="spacing" textLength="127" x="1650" y="2445.7266">«application»</text><text fill="#000000" font-family="FG Virgil" font-size="20" lengthAdjust="spacing" textLength="280" x="1573.5" y="2469.2813">:ListShodroneUsersController</text><rect fill="#E3E3E3" height="61.1094" rx="2.5" ry="2.5" style="stroke:#181818;stroke-width:0.5;" width="280" x="2183" y="71"/><text fill="#000000" font-family="FG Virgil" font-size="20" font-style="italic" lengthAdjust="spacing" textLength="127" x="2259.5" y="97.3359">«application»</text><text fill="#000000" font-family="FG Virgil" font-size="20" lengthAdjust="spacing" textLength="266" x="2190" y="120.8906">:EditShowRequestController</text><rect fill="#E3E3E3" height="61.1094" rx="2.5" ry="2.5" style="stroke:#181818;stroke-width:0.5;" width="280" x="2183" y="2419.3906"/><text fill="#000000" font-family="FG Virgil" font-size="20" font-style="italic" lengthAdjust="spacing" textLength="127" x="2259.5" y="2445.7266">«application»</text><text fill="#000000" font-family="FG Virgil" font-size="20" lengthAdjust="spacing" textLength="266" x="2190" y="2469.2813">:EditShowRequestController</text><rect fill="#E3E3E3" height="61.1094" rx="2.5" ry="2.5" style="stroke:#181818;stroke-width:0.5;" width="141" x="3064.5" y="71"/><text fill="#000000" font-family="FG Virgil" font-size="20" font-style="italic" lengthAdjust="spacing" textLength="93" x="3088.5" y="97.3359">«domain»</text><text fill="#000000" font-family="FG Virgil" font-size="20" lengthAdjust="spacing" textLength="127" x="3071.5" y="120.8906">ShowRequest</text><rect fill="#E3E3E3" height="61.1094" rx="2.5" ry="2.5" style="stroke:#181818;stroke-width:0.5;" width="141" x="3064.5" y="2419.3906"/><text fill="#000000" font-family="FG Virgil" font-size="20" font-style="italic" lengthAdjust="spacing" textLength="93" x="3088.5" y="2445.7266">«domain»</text><text fill="#000000" font-family="FG Virgil" font-size="20" lengthAdjust="spacing" textLength="127" x="3071.5" y="2469.2813">ShowRequest</text><rect fill="#E3E3E3" height="61.1094" rx="2.5" ry="2.5" style="stroke:#181818;stroke-width:0.5;" width="196" x="3215.5" y="71"/><text fill="#000000" font-family="FG Virgil" font-size="20" font-style="italic" lengthAdjust="spacing" textLength="71" x="3278" y="97.3359">«static»</text><text fill="#000000" font-family="FG Virgil" font-size="20" lengthAdjust="spacing" textLength="182" x="3222.5" y="120.8906">PersistenceContext</text><rect fill="#E3E3E3" height="61.1094" rx="2.5" ry="2.5" style="stroke:#181818;stroke-width:0.5;" width="196" x="3215.5" y="2419.3906"/><text fill="#000000" font-family="FG Virgil" font-size="20" font-style="italic" lengthAdjust="spacing" textLength="71" x="3278" y="2445.7266">«static»</text><text fill="#000000" font-family="FG Virgil" font-size="20" lengthAdjust="spacing" textLength="182" x="3222.5" y="2469.2813">PersistenceContext</text><rect fill="#E3E3E3" height="61.1094" rx="2.5" ry="2.5" style="stroke:#181818;stroke-width:0.5;" width="185" x="3421.5" y="71"/><text fill="#000000" font-family="FG Virgil" font-size="20" font-style="italic" lengthAdjust="spacing" textLength="123" x="3452.5" y="97.3359">«framework»</text><text fill="#000000" font-family="FG Virgil" font-size="20" lengthAdjust="spacing" textLength="171" x="3428.5" y="120.8906">RepositoryFactory</text><rect fill="#E3E3E3" height="61.1094" rx="2.5" ry="2.5" style="stroke:#181818;stroke-width:0.5;" width="185" x="3421.5" y="2419.3906"/><text fill="#000000" font-family="FG Virgil" font-size="20" font-style="italic" lengthAdjust="spacing" textLength="123" x="3452.5" y="2445.7266">«framework»</text><text fill="#000000" font-family="FG Virgil" font-size="20" lengthAdjust="spacing" textLength="171" x="3428.5" y="2469.2813">RepositoryFactory</text><rect fill="#E3E3E3" height="61.1094" rx="2.5" ry="2.5" style="stroke:#181818;stroke-width:0.5;" width="243" x="3616.5" y="71"/><text fill="#000000" font-family="FG Virgil" font-size="20" font-style="italic" lengthAdjust="spacing" textLength="117" x="3679.5" y="97.3359">«repository»</text><text fill="#000000" font-family="FG Virgil" font-size="20" lengthAdjust="spacing" textLength="229" x="3623.5" y="120.8906">ShowRequestRepository</text><rect fill="#E3E3E3" height="61.1094" rx="2.5" ry="2.5" style="stroke:#181818;stroke-width:0.5;" width="243" x="3616.5" y="2419.3906"/><text fill="#000000" font-family="FG Virgil" font-size="20" font-style="italic" lengthAdjust="spacing" textLength="117" x="3679.5" y="2445.7266">«repository»</text><text fill="#000000" font-family="FG Virgil" font-size="20" lengthAdjust="spacing" textLength="229" x="3623.5" y="2469.2813">ShowRequestRepository</text><rect fill="#E3E3E3" height="61.1094" rx="2.5" ry="2.5" style="stroke:#181818;stroke-width:0.5;" width="159" x="3869.5" y="71"/><text fill="#000000" font-family="FG Virgil" font-size="20" font-style="italic" lengthAdjust="spacing" textLength="117" x="3890.5" y="97.3359">«repository»</text><text fill="#000000" font-family="FG Virgil" font-size="20" lengthAdjust="spacing" textLength="145" x="3876.5" y="120.8906">UserRepository</text><rect fill="#E3E3E3" height="61.1094" rx="2.5" ry="2.5" style="stroke:#181818;stroke-width:0.5;" width="159" x="3869.5" y="2419.3906"/><text fill="#000000" font-family="FG Virgil" font-size="20" font-style="italic" lengthAdjust="spacing" textLength="117" x="3890.5" y="2445.7266">«repository»</text><text fill="#000000" font-family="FG Virgil" font-size="20" lengthAdjust="spacing" textLength="145" x="3876.5" y="2469.2813">UserRepository</text><rect fill="#E3E3E3" height="61.1094" rx="2.5" ry="2.5" style="stroke:#181818;stroke-width:0.5;" width="124" x="4038.5" y="71"/><text fill="#000000" font-family="FG Virgil" font-size="20" font-style="italic" lengthAdjust="spacing" textLength="93" x="4054" y="97.3359">«domain»</text><text fill="#000000" font-family="FG Virgil" font-size="20" lengthAdjust="spacing" textLength="110" x="4045.5" y="120.8906">Description</text><rect fill="#E3E3E3" height="61.1094" rx="2.5" ry="2.5" style="stroke:#181818;stroke-width:0.5;" width="124" x="4038.5" y="2419.3906"/><text fill="#000000" font-family="FG Virgil" font-size="20" font-style="italic" lengthAdjust="spacing" textLength="93" x="4054" y="2445.7266">«domain»</text><text fill="#000000" font-family="FG Virgil" font-size="20" lengthAdjust="spacing" textLength="110" x="4045.5" y="2469.2813">Description</text><rect fill="#E3E3E3" height="61.1094" rx="2.5" ry="2.5" style="stroke:#181818;stroke-width:0.5;" width="140" x="4172.5" y="71"/><text fill="#000000" font-family="FG Virgil" font-size="20" font-style="italic" lengthAdjust="spacing" textLength="93" x="4196" y="97.3359">«domain»</text><text fill="#000000" font-family="FG Virgil" font-size="20" lengthAdjust="spacing" textLength="126" x="4179.5" y="120.8906">RequestPlace</text><rect fill="#E3E3E3" height="61.1094" rx="2.5" ry="2.5" style="stroke:#181818;stroke-width:0.5;" width="140" x="4172.5" y="2419.3906"/><text fill="#000000" font-family="FG Virgil" font-size="20" font-style="italic" lengthAdjust="spacing" textLength="93" x="4196" y="2445.7266">«domain»</text><text fill="#000000" font-family="FG Virgil" font-size="20" lengthAdjust="spacing" textLength="126" x="4179.5" y="2469.2813">RequestPlace</text><rect fill="#E3E3E3" height="61.1094" rx="2.5" ry="2.5" style="stroke:#181818;stroke-width:0.5;" width="185" x="4322.5" y="71"/><text fill="#000000" font-family="FG Virgil" font-size="20" font-style="italic" lengthAdjust="spacing" textLength="93" x="4368.5" y="97.3359">«domain»</text><text fill="#000000" font-family="FG Virgil" font-size="20" lengthAdjust="spacing" textLength="171" x="4329.5" y="120.8906">RequestShowDate</text><rect fill="#E3E3E3" height="61.1094" rx="2.5" ry="2.5" style="stroke:#181818;stroke-width:0.5;" width="185" x="4322.5" y="2419.3906"/><text fill="#000000" font-family="FG Virgil" font-size="20" font-style="italic" lengthAdjust="spacing" textLength="93" x="4368.5" y="2445.7266">«domain»</text><text fill="#000000" font-family="FG Virgil" font-size="20" lengthAdjust="spacing" textLength="171" x="4329.5" y="2469.2813">RequestShowDate</text><rect fill="#E3E3E3" height="61.1094" rx="2.5" ry="2.5" style="stroke:#181818;stroke-width:0.5;" width="174" x="4517.5" y="71"/><text fill="#000000" font-family="FG Virgil" font-size="20" font-style="italic" lengthAdjust="spacing" textLength="93" x="4558" y="97.3359">«domain»</text><text fill="#000000" font-family="FG Virgil" font-size="20" lengthAdjust="spacing" textLength="160" x="4524.5" y="120.8906">RequestDuration</text><rect fill="#E3E3E3" height="61.1094" rx="2.5" ry="2.5" style="stroke:#181818;stroke-width:0.5;" width="174" x="4517.5" y="2419.3906"/><text fill="#000000" font-family="FG Virgil" font-size="20" font-style="italic" lengthAdjust="spacing" textLength="93" x="4558" y="2445.7266">«domain»</text><text fill="#000000" font-family="FG Virgil" font-size="20" lengthAdjust="spacing" textLength="160" x="4524.5" y="2469.2813">RequestDuration</text><rect fill="#E3E3E3" height="61.1094" rx="2.5" ry="2.5" style="stroke:#181818;stroke-width:0.5;" width="174" x="4701.5" y="71"/><text fill="#000000" font-family="FG Virgil" font-size="20" font-style="italic" lengthAdjust="spacing" textLength="93" x="4742" y="97.3359">«domain»</text><text fill="#000000" font-family="FG Virgil" font-size="20" lengthAdjust="spacing" textLength="160" x="4708.5" y="120.8906">RequestNDrones</text><rect fill="#E3E3E3" height="61.1094" rx="2.5" ry="2.5" style="stroke:#181818;stroke-width:0.5;" width="174" x="4701.5" y="2419.3906"/><text fill="#000000" font-family="FG Virgil" font-size="20" font-style="italic" lengthAdjust="spacing" textLength="93" x="4742" y="2445.7266">«domain»</text><text fill="#000000" font-family="FG Virgil" font-size="20" lengthAdjust="spacing" textLength="160" x="4708.5" y="2469.2813">RequestNDrones</text><rect fill="#FFFFFF" height="2267.2813" style="stroke:#181818;stroke-width:1.0;" width="10" x="115" y="143.1094"/><rect fill="#FFFFFF" height="2237.7266" style="stroke:#181818;stroke-width:1.0;" width="10" x="976" y="172.6641"/><rect fill="#FFFFFF" height="150.2188" style="stroke:#181818;stroke-width:1.0;" width="10" x="1409" y="210.2188"/><rect fill="#FFFFFF" height="112.6641" style="stroke:#181818;stroke-width:1.0;" width="10" x="1409" y="728.4297"/><rect fill="#FFFFFF" height="30" style="stroke:#181818;stroke-width:1.0;" width="10" x="1708.5" y="585.7656"/><rect fill="#FFFFFF" height="112.6641" style="stroke:#181818;stroke-width:1.0;" width="10" x="1708.5" y="1134.6406"/><rect fill="#FFFFFF" height="150.2188" style="stroke:#181818;stroke-width:1.0;" width="10" x="2318" y="397.9922"/><rect fill="#FFFFFF" height="81.1094" style="stroke:#181818;stroke-width:1.0;" width="10" x="3130" y="1843.1797"/><rect fill="#FFFFFF" height="14" style="stroke:#181818;stroke-width:1.0;" width="10" x="3130" y="1961.8438"/><rect fill="#FFFFFF" height="14" style="stroke:#181818;stroke-width:1.0;" width="10" x="3130" y="2013.3984"/><rect fill="#FFFFFF" height="14" style="stroke:#181818;stroke-width:1.0;" width="10" x="3130" y="2064.9531"/><rect fill="#FFFFFF" height="14" style="stroke:#181818;stroke-width:1.0;" width="10" x="3130" y="2116.5078"/><rect fill="#FFFFFF" height="14" style="stroke:#181818;stroke-width:1.0;" width="10" x="3130" y="2168.0625"/><rect fill="#FFFFFF" height="37.5547" style="stroke:#181818;stroke-width:1.0;" width="10" x="3308.5" y="247.7734"/><rect fill="#FFFFFF" height="37.5547" style="stroke:#181818;stroke-width:1.0;" width="10" x="3308.5" y="435.5469"/><rect fill="#FFFFFF" height="37.5547" style="stroke:#181818;stroke-width:1.0;" width="10" x="3509" y="322.8828"/><rect fill="#FFFFFF" height="37.5547" style="stroke:#181818;stroke-width:1.0;" width="10" x="3509" y="510.6563"/><rect fill="#FFFFFF" height="37.5547" style="stroke:#181818;stroke-width:1.0;" width="10" x="3733" y="765.9844"/><rect fill="#FFFFFF" height="37.5547" style="stroke:#181818;stroke-width:1.0;" width="10" x="3733" y="2219.6172"/><rect fill="#FFFFFF" height="37.5547" style="stroke:#181818;stroke-width:1.0;" width="10" x="3944" y="1172.1953"/><rect fill="#FFFFFF" height="37.5547" style="stroke:#181818;stroke-width:1.0;" width="10" x="4095.5" y="1467.6328"/><rect fill="#FFFFFF" height="37.5547" style="stroke:#181818;stroke-width:1.0;" width="10" x="4237.5" y="1542.7422"/><rect fill="#FFFFFF" height="37.5547" style="stroke:#181818;stroke-width:1.0;" width="10" x="4410" y="1617.8516"/><rect fill="#FFFFFF" height="37.5547" style="stroke:#181818;stroke-width:1.0;" width="10" x="4599.5" y="1692.9609"/><rect fill="#FFFFFF" height="37.5547" style="stroke:#181818;stroke-width:1.0;" width="10" x="4783.5" y="1768.0703"/><polygon fill="#181818" points="964,168.6641,974,172.6641,964,176.6641,968,172.6641" style="stroke:#181818;stroke-width:1.0;"/><line style="stroke:#181818;stroke-width:1.0;" x1="125" x2="970" y1="172.6641" y2="172.6641"/><text fill="#000000" font-family="FG Virgil" font-size="20" lengthAdjust="spacing" textLength="264" x="418.5" y="166.4453">Asks to edit a show request</text><polygon fill="#1D1D1D" points="1397,206.2188,1407,210.2188,1397,214.2188,1401,210.2188" style="stroke:#1D1D1D;stroke-width:1.0;"/><line style="stroke:#1D1D1D;stroke-width:1.0;" x1="986" x2="1403" y1="210.2188" y2="210.2188"/><text fill="#000000" font-family="FG Virgil" font-size="20" lengthAdjust="spacing" textLength="78" x="1158.5" y="204">«create»</text><polygon fill="#1D1D1D" points="3296.5,243.7734,3306.5,247.7734,3296.5,251.7734,3300.5,247.7734" style="stroke:#1D1D1D;stroke-width:1.0;"/><line style="stroke:#1D1D1D;stroke-width:1.0;" x1="1419" x2="3302.5" y1="247.7734" y2="247.7734"/><text fill="#000000" font-family="FG Virgil" font-size="20" lengthAdjust="spacing" textLength="128" x="2299.75" y="241.5547">repositories()</text><polygon fill="#1D1D1D" points="1430,281.3281,1420,285.3281,1430,289.3281,1426,285.3281" style="stroke:#1D1D1D;stroke-width:1.0;"/><line style="stroke:#1D1D1D;stroke-width:1.0;stroke-dasharray:2.0,2.0;" x1="1424" x2="3312.5" y1="285.3281" y2="285.3281"/><text fill="#000000" font-family="FG Virgil" font-size="20" lengthAdjust="spacing" textLength="113" x="2309.75" y="279.1094">repoFactory</text><polygon fill="#1D1D1D" points="3497,318.8828,3507,322.8828,3497,326.8828,3501,322.8828" style="stroke:#1D1D1D;stroke-width:1.0;"/><line style="stroke:#1D1D1D;stroke-width:1.0;" x1="1419" x2="3503" y1="322.8828" y2="322.8828"/><text fill="#000000" font-family="FG Virgil" font-size="20" lengthAdjust="spacing" textLength="236" x="2346" y="316.6641">showRequestCatalogue()</text><polygon fill="#1D1D1D" points="1425,356.4375,1415,360.4375,1425,364.4375,1421,360.4375" style="stroke:#1D1D1D;stroke-width:1.0;"/><line style="stroke:#1D1D1D;stroke-width:1.0;stroke-dasharray:2.0,2.0;" x1="1419" x2="3513" y1="360.4375" y2="360.4375"/><text fill="#000000" font-family="FG Virgil" font-size="20" lengthAdjust="spacing" textLength="228" x="2350" y="354.2188">showRequestRepository</text><polygon fill="#1D1D1D" points="2306,393.9922,2316,397.9922,2306,401.9922,2310,397.9922" style="stroke:#1D1D1D;stroke-width:1.0;"/><line style="stroke:#1D1D1D;stroke-width:1.0;" x1="986" x2="2312" y1="397.9922" y2="397.9922"/><text fill="#000000" font-family="FG Virgil" font-size="20" lengthAdjust="spacing" textLength="78" x="1613" y="391.7734">«create»</text><polygon fill="#1D1D1D" points="3296.5,431.5469,3306.5,435.5469,3296.5,439.5469,3300.5,435.5469" style="stroke:#1D1D1D;stroke-width:1.0;"/><line style="stroke:#1D1D1D;stroke-width:1.0;" x1="2328" x2="3302.5" y1="435.5469" y2="435.5469"/><text fill="#000000" font-family="FG Virgil" font-size="20" lengthAdjust="spacing" textLength="128" x="2754.25" y="429.3281">repositories()</text><polygon fill="#1D1D1D" points="2339,469.1016,2329,473.1016,2339,477.1016,2335,473.1016" style="stroke:#1D1D1D;stroke-width:1.0;"/><line style="stroke:#1D1D1D;stroke-width:1.0;stroke-dasharray:2.0,2.0;" x1="2333" x2="3312.5" y1="473.1016" y2="473.1016"/><text fill="#000000" font-family="FG Virgil" font-size="20" lengthAdjust="spacing" textLength="113" x="2764.25" y="466.8828">repoFactory</text><polygon fill="#1D1D1D" points="3497,506.6563,3507,510.6563,3497,514.6563,3501,510.6563" style="stroke:#1D1D1D;stroke-width:1.0;"/><line style="stroke:#1D1D1D;stroke-width:1.0;" x1="2328" x2="3503" y1="510.6563" y2="510.6563"/><text fill="#000000" font-family="FG Virgil" font-size="20" lengthAdjust="spacing" textLength="236" x="2800.5" y="504.4375">showRequestCatalogue()</text><polygon fill="#1D1D1D" points="2334,544.2109,2324,548.2109,2334,552.2109,2330,548.2109" style="stroke:#1D1D1D;stroke-width:1.0;"/><line style="stroke:#1D1D1D;stroke-width:1.0;stroke-dasharray:2.0,2.0;" x1="2328" x2="3513" y1="548.2109" y2="548.2109"/><text fill="#000000" font-family="FG Virgil" font-size="20" lengthAdjust="spacing" textLength="228" x="2804.5" y="541.9922">showRequestRepository</text><polygon fill="#1D1D1D" points="1696.5,581.7656,1706.5,585.7656,1696.5,589.7656,1700.5,585.7656" style="stroke:#1D1D1D;stroke-width:1.0;"/><line style="stroke:#1D1D1D;stroke-width:1.0;" x1="986" x2="1702.5" y1="585.7656" y2="585.7656"/><text fill="#000000" font-family="FG Virgil" font-size="20" lengthAdjust="spacing" textLength="386" x="1154.25" y="579.5469">«create» ' If customer change is possible</text><polygon fill="#181818" points="136,649.3203,126,653.3203,136,657.3203,132,653.3203" style="stroke:#181818;stroke-width:1.0;"/><line style="stroke:#181818;stroke-width:1.0;stroke-dasharray:2.0,2.0;" x1="130" x2="975" y1="653.3203" y2="653.3203"/><text fill="#000000" font-family="FG Virgil" font-size="20" lengthAdjust="spacing" textLength="349" x="376" y="647.1016">Asks for the Show Request ID to edit</text><polygon fill="#181818" points="964,686.875,974,690.875,964,694.875,968,690.875" style="stroke:#181818;stroke-width:1.0;"/><line style="stroke:#181818;stroke-width:1.0;" x1="125" x2="970" y1="690.875" y2="690.875"/><text fill="#000000" font-family="FG Virgil" font-size="20" lengthAdjust="spacing" textLength="412" x="344.5" y="684.6563">Provides Show Request ID (showRequestId)</text><polygon fill="#181818" points="1397,724.4297,1407,728.4297,1397,732.4297,1401,728.4297" style="stroke:#181818;stroke-width:1.0;"/><line style="stroke:#181818;stroke-width:1.0;" x1="986" x2="1403" y1="728.4297" y2="728.4297"/><text fill="#000000" font-family="FG Virgil" font-size="20" lengthAdjust="spacing" textLength="365" x="1015" y="722.2109">findShowRequestById(showRequestId)</text><polygon fill="#181818" points="3721,761.9844,3731,765.9844,3721,769.9844,3725,765.9844" style="stroke:#181818;stroke-width:1.0;"/><line style="stroke:#181818;stroke-width:1.0;" x1="1419" x2="3727" y1="765.9844" y2="765.9844"/><text fill="#000000" font-family="FG Virgil" font-size="20" lengthAdjust="spacing" textLength="250" x="2451" y="759.7656">ofIdentity(showRequestId)</text><polygon fill="#181818" points="1430,799.5391,1420,803.5391,1430,807.5391,1426,803.5391" style="stroke:#181818;stroke-width:1.0;"/><line style="stroke:#181818;stroke-width:1.0;stroke-dasharray:2.0,2.0;" x1="1424" x2="3737" y1="803.5391" y2="803.5391"/><text fill="#000000" font-family="FG Virgil" font-size="20" lengthAdjust="spacing" textLength="418" x="2369.5" y="797.3203">optShowRequest ' Optional&lt;ShowRequest&gt;</text><polygon fill="#181818" points="997,837.0938,987,841.0938,997,845.0938,993,841.0938" style="stroke:#181818;stroke-width:1.0;"/><line style="stroke:#181818;stroke-width:1.0;stroke-dasharray:2.0,2.0;" x1="991" x2="1413" y1="841.0938" y2="841.0938"/><text fill="#000000" font-family="FG Virgil" font-size="20" lengthAdjust="spacing" textLength="399" x="1000.5" y="834.875">showRequestToEdit ' (or null if not found)</text><path d="M10,856.0938 L82,856.0938 L82,871.6484 L72,881.6484 L10,881.6484 L10,856.0938 " fill="#EEEEEE" style="stroke:#000000;stroke-width:1.5;"/><rect fill="none" height="1547.2969" style="stroke:#000000;stroke-width:1.5;" width="4875.5" x="10" y="856.0938"/><text fill="#000000" font-family="FG Virgil" font-size="20" font-weight="bold" lengthAdjust="spacing" textLength="27" x="25" y="876.4297">alt</text><text fill="#000000" font-family="FG Virgil" font-size="20" font-weight="bold" lengthAdjust="spacing" textLength="331" x="97" y="877.4297">[showRequestToEdit is not null]</text><polygon fill="#181818" points="136,939.3125,126,943.3125,136,947.3125,132,943.3125" style="stroke:#181818;stroke-width:1.0;"/><line style="stroke:#181818;stroke-width:1.0;stroke-dasharray:2.0,2.0;" x1="130" x2="975" y1="943.3125" y2="943.3125"/><text fill="#000000" font-family="FG Virgil" font-size="20" lengthAdjust="spacing" textLength="701" x="197" y="913.5391">Displays current details (from showRequestToEdit) and asks for new data</text><text fill="#000000" font-family="FG Virgil" font-size="20" lengthAdjust="spacing" textLength="410" x="345.5" y="937.0938">(description, place, date, duration, drones)</text><polygon fill="#181818" points="964,976.8672,974,980.8672,964,984.8672,968,980.8672" style="stroke:#181818;stroke-width:1.0;"/><line style="stroke:#181818;stroke-width:1.0;" x1="125" x2="970" y1="980.8672" y2="980.8672"/><text fill="#000000" font-family="FG Virgil" font-size="20" lengthAdjust="spacing" textLength="827" x="137" y="974.6484">Enters updated details (newDescription, newPlace, newDate, newDuration, newDrones)</text><polygon fill="#181818" points="136,1014.4219,126,1018.4219,136,1022.4219,132,1018.4219" style="stroke:#181818;stroke-width:1.0;"/><line style="stroke:#181818;stroke-width:1.0;stroke-dasharray:2.0,2.0;" x1="130" x2="975" y1="1018.4219" y2="1018.4219"/><text fill="#000000" font-family="FG Virgil" font-size="20" lengthAdjust="spacing" textLength="422" x="339.5" y="1012.2031">"Do you want to change the customer? (y/n)"</text><polygon fill="#181818" points="964,1051.9766,974,1055.9766,964,1059.9766,968,1055.9766" style="stroke:#181818;stroke-width:1.0;"/><line style="stroke:#181818;stroke-width:1.0;" x1="125" x2="970" y1="1055.9766" y2="1055.9766"/><text fill="#000000" font-family="FG Virgil" font-size="20" lengthAdjust="spacing" textLength="289" x="406" y="1049.7578">Provides choice (e.g., 'y' or 'n')</text><path d="M20,1070.9766 L99,1070.9766 L99,1086.5313 L89,1096.5313 L20,1096.5313 L20,1070.9766 " fill="#EEEEEE" style="stroke:#000000;stroke-width:1.5;"/><rect fill="none" height="360.1016" style="stroke:#000000;stroke-width:1.5;" width="4018.5" x="20" y="1070.9766"/><text fill="#000000" font-family="FG Virgil" font-size="20" font-weight="bold" lengthAdjust="spacing" textLength="34" x="35" y="1091.3125">opt</text><text fill="#000000" font-family="FG Virgil" font-size="20" font-weight="bold" lengthAdjust="spacing" textLength="341" x="114" y="1092.3125">[User wants to change customer]</text><polygon fill="#181818" points="1696.5,1130.6406,1706.5,1134.6406,1696.5,1138.6406,1700.5,1134.6406" style="stroke:#181818;stroke-width:1.0;"/><line style="stroke:#181818;stroke-width:1.0;" x1="986" x2="1702.5" y1="1134.6406" y2="1134.6406"/><text fill="#000000" font-family="FG Virgil" font-size="20" lengthAdjust="spacing" textLength="187" x="1253.75" y="1128.4219">listShodroneUsers()</text><polygon fill="#181818" points="3932,1168.1953,3942,1172.1953,3932,1176.1953,3936,1172.1953" style="stroke:#181818;stroke-width:1.0;"/><line style="stroke:#181818;stroke-width:1.0;" x1="1718.5" x2="3938" y1="1172.1953" y2="1172.1953"/><text fill="#000000" font-family="FG Virgil" font-size="20" lengthAdjust="spacing" textLength="187" x="2737.75" y="1165.9766">findAll() ' or similar</text><polygon fill="#181818" points="1729.5,1205.75,1719.5,1209.75,1729.5,1213.75,1725.5,1209.75" style="stroke:#181818;stroke-width:1.0;"/><line style="stroke:#181818;stroke-width:1.0;stroke-dasharray:2.0,2.0;" x1="1723.5" x2="3948" y1="1209.75" y2="1209.75"/><text fill="#000000" font-family="FG Virgil" font-size="20" lengthAdjust="spacing" textLength="167" x="2750.25" y="1203.5313">allShodroneUsers</text><polygon fill="#181818" points="997,1243.3047,987,1247.3047,997,1251.3047,993,1247.3047" style="stroke:#181818;stroke-width:1.0;"/><line style="stroke:#181818;stroke-width:1.0;stroke-dasharray:2.0,2.0;" x1="991" x2="1712.5" y1="1247.3047" y2="1247.3047"/><text fill="#000000" font-family="FG Virgil" font-size="20" lengthAdjust="spacing" textLength="167" x="1266.25" y="1241.0859">allShodroneUsers</text><polygon fill="#181818" points="136,1280.8594,126,1284.8594,136,1288.8594,132,1284.8594" style="stroke:#181818;stroke-width:1.0;"/><line style="stroke:#181818;stroke-width:1.0;stroke-dasharray:2.0,2.0;" x1="130" x2="975" y1="1284.8594" y2="1284.8594"/><text fill="#000000" font-family="FG Virgil" font-size="20" lengthAdjust="spacing" textLength="349" x="376" y="1278.6406">Shows list of customers for selection</text><polygon fill="#181818" points="964,1318.4141,974,1322.4141,964,1326.4141,968,1322.4141" style="stroke:#181818;stroke-width:1.0;"/><line style="stroke:#181818;stroke-width:1.0;" x1="125" x2="970" y1="1322.4141" y2="1322.4141"/><text fill="#000000" font-family="FG Virgil" font-size="20" lengthAdjust="spacing" textLength="453" x="324" y="1316.1953">Selects a new customer (newSelectedCustomer)</text><polygon fill="#181818" points="2311,1355.9688,2321,1359.9688,2311,1363.9688,2315,1359.9688" style="stroke:#181818;stroke-width:1.0;"/><line style="stroke:#181818;stroke-width:1.0;" x1="986" x2="2317" y1="1359.9688" y2="1359.9688"/><text fill="#000000" font-family="FG Virgil" font-size="20" lengthAdjust="spacing" textLength="1193" x="1058" y="1353.75">editShowRequest(showRequestToEdit, newDescription, newDate, newDuration, newPlace, newDrones, newSelectedCustomer)</text><line style="stroke:#000000;stroke-width:1.0;stroke-dasharray:2.0,2.0;" x1="20" x2="4038.5" y1="1368.9688" y2="1368.9688"/><text fill="#000000" font-family="FG Virgil" font-size="20" font-weight="bold" lengthAdjust="spacing" textLength="248" x="25" y="1388.3047">[Customer not changed]</text><polygon fill="#181818" points="2311,1419.0781,2321,1423.0781,2311,1427.0781,2315,1423.0781" style="stroke:#181818;stroke-width:1.0;"/><line style="stroke:#181818;stroke-width:1.0;" x1="986" x2="2317" y1="1423.0781" y2="1423.0781"/><text fill="#000000" font-family="FG Virgil" font-size="20" lengthAdjust="spacing" textLength="1313" x="998" y="1416.8594">editShowRequest(showRequestToEdit, newDescription, newDate, newDuration, newPlace, newDrones, showRequestToEdit.getCustomer())</text><polygon fill="#181818" points="4083.5,1463.6328,4093.5,1467.6328,4083.5,1471.6328,4087.5,1467.6328" style="stroke:#181818;stroke-width:1.0;"/><line style="stroke:#181818;stroke-width:1.0;" x1="2323" x2="4089.5" y1="1467.6328" y2="1467.6328"/><text fill="#000000" font-family="FG Virgil" font-size="20" lengthAdjust="spacing" textLength="235" x="3091.75" y="1461.4141">valueOf(newDescription)</text><polygon fill="#181818" points="2334,1501.1875,2324,1505.1875,2334,1509.1875,2330,1505.1875" style="stroke:#181818;stroke-width:1.0;"/><line style="stroke:#181818;stroke-width:1.0;stroke-dasharray:2.0,2.0;" x1="2328" x2="4099.5" y1="1505.1875" y2="1505.1875"/><text fill="#000000" font-family="FG Virgil" font-size="20" lengthAdjust="spacing" textLength="113" x="3155.25" y="1498.9688">newDescVO</text><polygon fill="#181818" points="4225.5,1538.7422,4235.5,1542.7422,4225.5,1546.7422,4229.5,1542.7422" style="stroke:#181818;stroke-width:1.0;"/><line style="stroke:#181818;stroke-width:1.0;" x1="2323" x2="4231.5" y1="1542.7422" y2="1542.7422"/><text fill="#000000" font-family="FG Virgil" font-size="20" lengthAdjust="spacing" textLength="174" x="3193.25" y="1536.5234">valueOf(newPlace)</text><polygon fill="#181818" points="2334,1576.2969,2324,1580.2969,2334,1584.2969,2330,1580.2969" style="stroke:#181818;stroke-width:1.0;"/><line style="stroke:#181818;stroke-width:1.0;stroke-dasharray:2.0,2.0;" x1="2328" x2="4241.5" y1="1580.2969" y2="1580.2969"/><text fill="#000000" font-family="FG Virgil" font-size="20" lengthAdjust="spacing" textLength="116" x="3224.75" y="1574.0781">newPlaceVO</text><polygon fill="#181818" points="4398,1613.8516,4408,1617.8516,4398,1621.8516,4402,1617.8516" style="stroke:#181818;stroke-width:1.0;"/><line style="stroke:#181818;stroke-width:1.0;" x1="2323" x2="4404" y1="1617.8516" y2="1617.8516"/><text fill="#000000" font-family="FG Virgil" font-size="20" lengthAdjust="spacing" textLength="317" x="3208" y="1611.6328">valueOf(formattedNewShowDate)</text><polygon fill="#181818" points="2334,1651.4063,2324,1655.4063,2334,1659.4063,2330,1655.4063" style="stroke:#181818;stroke-width:1.0;"/><line style="stroke:#181818;stroke-width:1.0;stroke-dasharray:2.0,2.0;" x1="2328" x2="4414" y1="1655.4063" y2="1655.4063"/><text fill="#000000" font-family="FG Virgil" font-size="20" lengthAdjust="spacing" textLength="161" x="3288.5" y="1649.1875">newShowDateVO</text><polygon fill="#181818" points="4587.5,1688.9609,4597.5,1692.9609,4587.5,1696.9609,4591.5,1692.9609" style="stroke:#181818;stroke-width:1.0;"/><line style="stroke:#181818;stroke-width:1.0;" x1="2323" x2="4593.5" y1="1692.9609" y2="1692.9609"/><text fill="#000000" font-family="FG Virgil" font-size="20" lengthAdjust="spacing" textLength="208" x="3357.25" y="1686.7422">valueOf(newDuration)</text><polygon fill="#181818" points="2334,1726.5156,2324,1730.5156,2334,1734.5156,2330,1730.5156" style="stroke:#181818;stroke-width:1.0;"/><line style="stroke:#181818;stroke-width:1.0;stroke-dasharray:2.0,2.0;" x1="2328" x2="4603.5" y1="1730.5156" y2="1730.5156"/><text fill="#000000" font-family="FG Virgil" font-size="20" lengthAdjust="spacing" textLength="150" x="3388.75" y="1724.2969">newDurationVO</text><polygon fill="#181818" points="4771.5,1764.0703,4781.5,1768.0703,4771.5,1772.0703,4775.5,1768.0703" style="stroke:#181818;stroke-width:1.0;"/><line style="stroke:#181818;stroke-width:1.0;" x1="2323" x2="4777.5" y1="1768.0703" y2="1768.0703"/><text fill="#000000" font-family="FG Virgil" font-size="20" lengthAdjust="spacing" textLength="193" x="3456.75" y="1761.8516">valueOf(newDrones)</text><polygon fill="#181818" points="2334,1801.625,2324,1805.625,2334,1809.625,2330,1805.625" style="stroke:#181818;stroke-width:1.0;"/><line style="stroke:#181818;stroke-width:1.0;stroke-dasharray:2.0,2.0;" x1="2328" x2="4787.5" y1="1805.625" y2="1805.625"/><text fill="#000000" font-family="FG Virgil" font-size="20" lengthAdjust="spacing" textLength="150" x="3480.75" y="1799.4063">newNDronesVO</text><polygon fill="#181818" points="3118,1839.1797,3128,1843.1797,3118,1847.1797,3122,1843.1797" style="stroke:#181818;stroke-width:1.0;"/><line style="stroke:#181818;stroke-width:1.0;" x1="2323" x2="3124" y1="1843.1797" y2="1843.1797"/><text fill="#000000" font-family="FG Virgil" font-size="20" lengthAdjust="spacing" textLength="354" x="2549.5" y="1836.9609">updateShowDescription(newDescVO)</text><path d="M3145,1856.1797 L3145,1913.1797 L3449,1913.1797 L3449,1866.1797 L3439,1856.1797 L3145,1856.1797 " fill="#FAFAFA" style="stroke:#181818;stroke-width:0.5;"/><path d="M3439,1856.1797 L3439,1866.1797 L3449,1866.1797 L3439,1856.1797 " fill="#FAFAFA" style="stroke:#181818;stroke-width:0.5;"/><text fill="#000000" font-family="FG Virgil" font-size="20" lengthAdjust="spacing" textLength="211" x="3151" y="1880.5156">Methods called on the</text><text fill="#000000" font-family="FG Virgil" font-size="20" lengthAdjust="spacing" textLength="283" x="3151" y="1904.0703">'showRequestToEdit' instance</text><polygon fill="#181818" points="2334,1920.2891,2324,1924.2891,2334,1928.2891,2330,1924.2891" style="stroke:#181818;stroke-width:1.0;"/><line style="stroke:#181818;stroke-width:1.0;stroke-dasharray:2.0,2.0;" x1="2328" x2="3134" y1="1924.2891" y2="1924.2891"/><polygon fill="#181818" points="3118,1957.8438,3128,1961.8438,3118,1965.8438,3122,1961.8438" style="stroke:#181818;stroke-width:1.0;"/><line style="stroke:#181818;stroke-width:1.0;" x1="2323" x2="3124" y1="1961.8438" y2="1961.8438"/><text fill="#000000" font-family="FG Virgil" font-size="20" lengthAdjust="spacing" textLength="296" x="2578.5" y="1955.625">updateShowPlace(newPlaceVO)</text><polygon fill="#181818" points="2334,1971.8438,2324,1975.8438,2334,1979.8438,2330,1975.8438" style="stroke:#181818;stroke-width:1.0;"/><line style="stroke:#181818;stroke-width:1.0;stroke-dasharray:2.0,2.0;" x1="2328" x2="3134" y1="1975.8438" y2="1975.8438"/><polygon fill="#181818" points="3118,2009.3984,3128,2013.3984,3118,2017.3984,3122,2013.3984" style="stroke:#181818;stroke-width:1.0;"/><line style="stroke:#181818;stroke-width:1.0;" x1="2323" x2="3124" y1="2013.3984" y2="2013.3984"/><text fill="#000000" font-family="FG Virgil" font-size="20" lengthAdjust="spacing" textLength="336" x="2558.5" y="2007.1797">updateShowDate(newShowDateVO)</text><polygon fill="#181818" points="2334,2023.3984,2324,2027.3984,2334,2031.3984,2330,2027.3984" style="stroke:#181818;stroke-width:1.0;"/><line style="stroke:#181818;stroke-width:1.0;stroke-dasharray:2.0,2.0;" x1="2328" x2="3134" y1="2027.3984" y2="2027.3984"/><polygon fill="#181818" points="3118,2060.9531,3128,2064.9531,3118,2068.9531,3122,2064.9531" style="stroke:#181818;stroke-width:1.0;"/><line style="stroke:#181818;stroke-width:1.0;" x1="2323" x2="3124" y1="2064.9531" y2="2064.9531"/><text fill="#000000" font-family="FG Virgil" font-size="20" lengthAdjust="spacing" textLength="364" x="2544.5" y="2058.7344">updateShowDuration(newDurationVO)</text><polygon fill="#181818" points="2334,2074.9531,2324,2078.9531,2334,2082.9531,2330,2078.9531" style="stroke:#181818;stroke-width:1.0;"/><line style="stroke:#181818;stroke-width:1.0;stroke-dasharray:2.0,2.0;" x1="2328" x2="3134" y1="2078.9531" y2="2078.9531"/><polygon fill="#181818" points="3118,2112.5078,3128,2116.5078,3118,2120.5078,3122,2116.5078" style="stroke:#181818;stroke-width:1.0;"/><line style="stroke:#181818;stroke-width:1.0;" x1="2323" x2="3124" y1="2116.5078" y2="2116.5078"/><text fill="#000000" font-family="FG Virgil" font-size="20" lengthAdjust="spacing" textLength="364" x="2544.5" y="2110.2891">updateShowNDrones(newNDronesVO)</text><polygon fill="#181818" points="2334,2126.5078,2324,2130.5078,2334,2134.5078,2330,2130.5078" style="stroke:#181818;stroke-width:1.0;"/><line style="stroke:#181818;stroke-width:1.0;stroke-dasharray:2.0,2.0;" x1="2328" x2="3134" y1="2130.5078" y2="2130.5078"/><polygon fill="#181818" points="3118,2164.0625,3128,2168.0625,3118,2172.0625,3122,2168.0625" style="stroke:#181818;stroke-width:1.0;"/><line style="stroke:#181818;stroke-width:1.0;" x1="2323" x2="3124" y1="2168.0625" y2="2168.0625"/><text fill="#000000" font-family="FG Virgil" font-size="20" lengthAdjust="spacing" textLength="788" x="2332.5" y="2161.8438">updateShowCustomer(newCustomerForUpdate) ' newSelectedCustomer or original</text><polygon fill="#181818" points="2334,2178.0625,2324,2182.0625,2334,2186.0625,2330,2182.0625" style="stroke:#181818;stroke-width:1.0;"/><line style="stroke:#181818;stroke-width:1.0;stroke-dasharray:2.0,2.0;" x1="2328" x2="3134" y1="2182.0625" y2="2182.0625"/><polygon fill="#181818" points="3721,2215.6172,3731,2219.6172,3721,2223.6172,3725,2219.6172" style="stroke:#181818;stroke-width:1.0;"/><line style="stroke:#181818;stroke-width:1.0;" x1="2323" x2="3727" y1="2219.6172" y2="2219.6172"/><text fill="#000000" font-family="FG Virgil" font-size="20" lengthAdjust="spacing" textLength="510" x="2773" y="2213.3984">save(showRequestToEdit) ' Pass the updated instance</text><polygon fill="#181818" points="2334,2253.1719,2324,2257.1719,2334,2261.1719,2330,2257.1719" style="stroke:#181818;stroke-width:1.0;"/><line style="stroke:#181818;stroke-width:1.0;stroke-dasharray:2.0,2.0;" x1="2328" x2="3737" y1="2257.1719" y2="2257.1719"/><text fill="#000000" font-family="FG Virgil" font-size="20" lengthAdjust="spacing" textLength="539" x="2761" y="2250.9531">savedShowRequest ' The updated ShowRequest instance</text><polygon fill="#181818" points="997,2290.7266,987,2294.7266,997,2298.7266,993,2294.7266" style="stroke:#181818;stroke-width:1.0;"/><line style="stroke:#181818;stroke-width:1.0;stroke-dasharray:2.0,2.0;" x1="991" x2="2322" y1="2294.7266" y2="2294.7266"/><text fill="#000000" font-family="FG Virgil" font-size="20" lengthAdjust="spacing" textLength="361" x="1474" y="2288.5078">savedShowRequest ' (or confirmation)</text><polygon fill="#181818" points="136,2328.2813,126,2332.2813,136,2336.2813,132,2332.2813" style="stroke:#181818;stroke-width:1.0;"/><line style="stroke:#181818;stroke-width:1.0;stroke-dasharray:2.0,2.0;" x1="130" x2="975" y1="2332.2813" y2="2332.2813"/><text fill="#000000" font-family="FG Virgil" font-size="20" lengthAdjust="spacing" textLength="449" x="326" y="2326.0625">Displays Success message and updated details</text><line style="stroke:#000000;stroke-width:1.0;stroke-dasharray:2.0,2.0;" x1="10" x2="4885.5" y1="2341.2813" y2="2341.2813"/><text fill="#000000" font-family="FG Virgil" font-size="20" font-weight="bold" lengthAdjust="spacing" textLength="266" x="15" y="2360.6172">[Show Request not found]</text><polygon fill="#181818" points="136,2391.3906,126,2395.3906,136,2399.3906,132,2395.3906" style="stroke:#181818;stroke-width:1.0;"/><line style="stroke:#181818;stroke-width:1.0;stroke-dasharray:2.0,2.0;" x1="130" x2="975" y1="2395.3906" y2="2395.3906"/><text fill="#000000" font-family="FG Virgil" font-size="20" lengthAdjust="spacing" textLength="423" x="339" y="2389.1719">Displays "Show Request not found" message</text><!--SRC=[rLdVRzis47xNNt787Ym3Zbjqm1wCm4Dcnvk1jJ7YfY_hC30IRNEXHK-aaZf__OuK9PBwOHVTW2rz22oItzrtnxlZaPMFB3kGdEovI1vf2YdTa8AhXSZKchrGUFSsYXHJdCALnE_9kxVJDVshe5b2OSx85f5mltxt_GyJk4cPWlLEFCETNY7LrHiDcKQHh9J0NcGYsULYJq7b1VLc3YHv95kwLaVKbTD4UNCUgGy4eOkVuHFBjunxQ-IEfEAPPLlO42vzoTBoVK-bH0tNd6qpI6YcQ1v5954YXulPtVi_Pe9pyY1oWYCNG2HSwxa8XIYMi0F955nCj97QHclY_TAil5_2rTKXfnAb4iL4DfqsS0kMfHvkXgRag8-MclJiJEKSfP33WREaMyYlJ6hbQIuoUYzfBXjYz7mvVbvMmv2693rxNeY7DoZl-oR3g3aYF1Lxmbh85P94idfRj6RwfHImcY52QXScJSGTFGZ9S4EE2xDdHmEuMo1WWxjCdqN-U8AVW_jCzIWAoEl9fWJjpGQq6Zg9crEPvEoWdMP0-llJRQyxBCaL9maj7Q5_dGTeC-P4qTec_N4UDYzougZPZ_Em3tCTUDAWxEyGfBE9FI45cphcBrnECJycS2qV9IW1L9S9WlcAXI8l1JlS_JAA0FyDm0KaB3Ec6E7inV2K44ksnvZSCAnN6rJmaDCd3BOHx31MAIuGcSx89AS6C3GISU3oj-yUU45_dzRvDa7sPXb5zdfLJQHQOKR19QYJiPfDe0u0HcKyj6jh6QkP7S6mlknIhk4scktAbBRH7Rhl5XFZm2fvYI9SR0lQvd2ti2EOAPqSP5UEjDbOETv8xQ6sUwlgqU_UQeLLL9URVy6zJldNkRT3zpzsh-FmpUwjFTHsRr3cVHzZsYmta1HIuG6RGx8ZsPO2au2A9NlWDDo4G8xbD6WS8bkg933bobvf0M0ACavoVcpoRWiTm4sMdiXdPo5M2bCoRB7GkQrsDEWfO3clYeY11ILcbOidbbBPGiJUDYpJeTFePy8cFA9_EYxJ9gw_HBWadVg7omJ4PfbISnYU5EPXp8H_G5q6DCN1FxVHkxVcc27yoXkUDhUbAT_njRxpo7qKffKRG8okpGhEWMqW4metfCWiyTv2GBZga8Kng0LeOJRGcZi-P_B0oL5Y-EOvEWmrAC8uLliDjejjaKCW65MaYfECFaEAUGgVipXrX-y83lea7Uav_TUUTVZB75_3camGHpUwDvHG73GgTKnGoToNZT-hKhoUCHhqZrg9_h1wUgo-c0iuYWAUzJcBSMrJLaTzbSO_GdnyamqlkgdM8P_i1CEUFARZxNW4W-C0SD4W6tYgCN9C6XjjqbDNgQfNklHer1hUx43ZOG0wMLlAVs5zqMROob9cu3NdyH0CUrjZkXLKg91prPjTjgaJpWFc0T0Bvqx13TBM-LyhCdH6oyik77IMIkDah1lrjfGHBYd7Mn76LO0FWc5jbaZihdGwrEU0ZjjoYgOpEpZis6jtQj7mSX2tig-CxKOkT6U0bo4c5ypFVZeKBszG3PkYKGPf-XyIRaaRux5OSOo77daiIPXbRelx6fxgiBqkr0xRc_8aH4jfyeXXXOClOsnaYvpg1VhuI7GbqZ7q2v7NsV5s4u_7us53sahVTodMBdZ2upKrGgF6cfdf5U0JmLu2RX_-D05ZIcnLGWE0wuwczX8pqS8BYWn2Z_OKWX8KpDdBq6MmWrPOOwcNH1sp0q0dL6K24ap7CbNixMdaNOb6tZrdvDrUK42llLPCOB0Pwp7LhWycgujSozYknNvxQgTxoJdJ73-qVKyK1ie7p30xtyFLmODvxmxPOjm3QJGPTaL_4DNR40QI7UwBeXeLHfAxkxQZgHlYHvHRqKktZfIGRQDx2BZMa63QXLoBQJV08-eMDCB_tdGefbsWN_3KqCzVxKSObab5ieIUZAK0Ch6zZzbGb-9ndQIXwLYbAUHikpF7LeUqznJBN2fDYc93XQLEK_wS3LgLTT3Djjd7Ek6jy0rjzvrzAcn3cT_cAPEpiSljuUipGMTl7EJwQpJ2vdKSL85NQ8ZD-zYl4Q_GZBfJGZkgtmkHbyLBz_eT3Q7k_x4nsZAysFvlB1x0cZnHMtNJu9NXd6VA2uv4UDnnbTMjcvIcA5QNpgygWwrxIlFPm7k8GjLf-73mqLFdptIgFl6M49fSlIUqzUddX4Ha6wQxbE2ixthtElDCi2wIXABFzkN_wfZNWCQ5FQhl4y5xKFsISKx5HJViej8PsPO_YlphuzB_Aj_1_mO0]--></g></svg>