<svg xmlns="http://www.w3.org/2000/svg" xmlns:xlink="http://www.w3.org/1999/xlink" contentStyleType="text/css" height="882px" preserveAspectRatio="none" style="width:543px;height:882px;background:#FFFFFF;" version="1.1" viewBox="0 0 543 882" width="543px" zoomAndPan="magnify"><title>&lt;size:20&gt;System Sequence Diagram US312&lt;/size&gt;</title><defs/><g><text fill="#000000" font-family="FG Virgil" font-size="20" font-weight="bold" lengthAdjust="spacing" textLength="323.4863" x="111.2617" y="36.582">System Sequence Diagram US312</text><rect fill="#FFFFFF" height="649.4219" style="stroke:#181818;stroke-width:1.0;" width="10" x="82.0723" y="141.2227"/><rect fill="#FFFFFF" height="626.1309" style="stroke:#181818;stroke-width:1.0;" width="10" x="481.6719" y="164.5137"/><rect fill="none" height="571.8398" style="stroke:#000000;stroke-width:1.5;" width="527.0098" x="10" y="210.8047"/><rect fill="none" height="507.2578" style="stroke:#000000;stroke-width:1.5;" width="507.0098" x="20" y="268.3867"/><line style="stroke:#181818;stroke-width:0.5;stroke-dasharray:5.0,5.0;" x1="87" x2="87" y1="131.2227" y2="799.6445"/><line style="stroke:#181818;stroke-width:0.5;stroke-dasharray:5.0,5.0;" x1="486.334" x2="486.334" y1="131.2227" y2="799.6445"/><text fill="#000000" font-family="FG Virgil" font-size="14" lengthAdjust="spacing" textLength="108.1445" x="30" y="127.709">CRMCollaborator</text><ellipse cx="87.0723" cy="61.1016" fill="#E3E3E3" rx="8" ry="8" style="stroke:#181818;stroke-width:0.5;"/><path d="M87.0723,69.1016 L87.0723,96.1016 M74.0723,77.1016 L100.0723,77.1016 M87.0723,96.1016 L74.0723,111.1016 M87.0723,96.1016 L100.0723,111.1016 " fill="none" style="stroke:#181818;stroke-width:0.5;"/><text fill="#000000" font-family="FG Virgil" font-size="14" lengthAdjust="spacing" textLength="108.1445" x="30" y="813.752">CRMCollaborator</text><ellipse cx="87.0723" cy="825.7656" fill="#E3E3E3" rx="8" ry="8" style="stroke:#181818;stroke-width:0.5;"/><path d="M87.0723,833.7656 L87.0723,860.7656 M74.0723,841.7656 L100.0723,841.7656 M87.0723,860.7656 L74.0723,875.7656 M87.0723,860.7656 L100.0723,875.7656 " fill="none" style="stroke:#181818;stroke-width:0.5;"/><rect fill="#E3E3E3" height="32.6211" rx="2.5" ry="2.5" style="stroke:#181818;stroke-width:0.5;" width="60.6758" x="456.334" y="97.6016"/><text fill="#000000" font-family="FG Virgil" font-size="14" lengthAdjust="spacing" textLength="46.6758" x="463.334" y="119.709">System</text><rect fill="#E3E3E3" height="32.6211" rx="2.5" ry="2.5" style="stroke:#181818;stroke-width:0.5;" width="60.6758" x="456.334" y="798.6445"/><text fill="#000000" font-family="FG Virgil" font-size="14" lengthAdjust="spacing" textLength="46.6758" x="463.334" y="820.752">System</text><rect fill="#FFFFFF" height="649.4219" style="stroke:#181818;stroke-width:1.0;" width="10" x="82.0723" y="141.2227"/><rect fill="#FFFFFF" height="626.1309" style="stroke:#181818;stroke-width:1.0;" width="10" x="481.6719" y="164.5137"/><polygon fill="#181818" points="469.6719,160.5137,479.6719,164.5137,469.6719,168.5137,473.6719,164.5137" style="stroke:#181818;stroke-width:1.0;"/><line style="stroke:#181818;stroke-width:1.0;" x1="92.0723" x2="475.6719" y1="164.5137" y2="164.5137"/><text fill="#000000" font-family="FG Virgil" font-size="13" lengthAdjust="spacing" textLength="184.0884" x="99.0723" y="159.251">starts "Add Figures to Proposal"</text><line style="stroke:#181818;stroke-width:1.0;" x1="93.0723" x2="103.0723" y1="195.8047" y2="191.8047"/><line style="stroke:#181818;stroke-width:1.0;" x1="93.0723" x2="103.0723" y1="195.8047" y2="199.8047"/><line style="stroke:#181818;stroke-width:1.0;stroke-dasharray:2.0,2.0;" x1="92.0723" x2="480.6719" y1="195.8047" y2="195.8047"/><text fill="#000000" font-family="FG Virgil" font-size="13" lengthAdjust="spacing" textLength="310.7178" x="109.0723" y="190.542">displays current figures in proposal &amp; available figures</text><path d="M10,210.8047 L82.4346,210.8047 L82.4346,220.0957 L72.4346,230.0957 L10,230.0957 L10,210.8047 " fill="#EEEEEE" style="stroke:#000000;stroke-width:1.5;"/><rect fill="none" height="571.8398" style="stroke:#000000;stroke-width:1.5;" width="527.0098" x="10" y="210.8047"/><text fill="#000000" font-family="FG Virgil" font-size="13" font-weight="bold" lengthAdjust="spacing" textLength="27.4346" x="25" y="225.833">loop</text><text fill="#000000" font-family="FG Virgil" font-size="11" font-weight="bold" lengthAdjust="spacing" textLength="98.3931" x="97.4346" y="224.6748">[until user is done]</text><polygon fill="#181818" points="469.6719,249.3867,479.6719,253.3867,469.6719,257.3867,473.6719,253.3867" style="stroke:#181818;stroke-width:1.0;"/><line style="stroke:#181818;stroke-width:1.0;" x1="92.0723" x2="475.6719" y1="253.3867" y2="253.3867"/><text fill="#000000" font-family="FG Virgil" font-size="13" lengthAdjust="spacing" textLength="243.5151" x="99.0723" y="248.124">selects an option (add/remove/order/save)</text><path d="M20,268.3867 L80.1709,268.3867 L80.1709,277.6777 L70.1709,287.6777 L20,287.6777 L20,268.3867 " fill="#EEEEEE" style="stroke:#000000;stroke-width:1.5;"/><rect fill="none" height="507.2578" style="stroke:#000000;stroke-width:1.5;" width="507.0098" x="20" y="268.3867"/><text fill="#000000" font-family="FG Virgil" font-size="13" font-weight="bold" lengthAdjust="spacing" textLength="15.1709" x="35" y="283.415">alt</text><text fill="#000000" font-family="FG Virgil" font-size="11" font-weight="bold" lengthAdjust="spacing" textLength="65.377" x="95.1709" y="282.2568">[Add Figure]</text><polygon fill="#181818" points="469.6719,306.9688,479.6719,310.9688,469.6719,314.9688,473.6719,310.9688" style="stroke:#181818;stroke-width:1.0;"/><line style="stroke:#181818;stroke-width:1.0;" x1="92.0723" x2="475.6719" y1="310.9688" y2="310.9688"/><text fill="#000000" font-family="FG Virgil" font-size="13" lengthAdjust="spacing" textLength="135.1479" x="99.0723" y="305.7061">chooses to add a figure</text><line style="stroke:#181818;stroke-width:1.0;" x1="93.0723" x2="103.0723" y1="342.2598" y2="338.2598"/><line style="stroke:#181818;stroke-width:1.0;" x1="93.0723" x2="103.0723" y1="342.2598" y2="346.2598"/><line style="stroke:#181818;stroke-width:1.0;stroke-dasharray:2.0,2.0;" x1="92.0723" x2="480.6719" y1="342.2598" y2="342.2598"/><text fill="#000000" font-family="FG Virgil" font-size="13" lengthAdjust="spacing" textLength="365.5996" x="109.0723" y="336.9971">displays list of available figures (public &amp; exclusive to customer)</text><polygon fill="#181818" points="469.6719,369.5508,479.6719,373.5508,469.6719,377.5508,473.6719,373.5508" style="stroke:#181818;stroke-width:1.0;"/><line style="stroke:#181818;stroke-width:1.0;" x1="92.0723" x2="475.6719" y1="373.5508" y2="373.5508"/><text fill="#000000" font-family="FG Virgil" font-size="13" lengthAdjust="spacing" textLength="87.4326" x="99.0723" y="368.2881">selects a figure</text><line style="stroke:#181818;stroke-width:1.0;" x1="93.0723" x2="103.0723" y1="404.8418" y2="400.8418"/><line style="stroke:#181818;stroke-width:1.0;" x1="93.0723" x2="103.0723" y1="404.8418" y2="408.8418"/><line style="stroke:#181818;stroke-width:1.0;stroke-dasharray:2.0,2.0;" x1="92.0723" x2="480.6719" y1="404.8418" y2="404.8418"/><text fill="#000000" font-family="FG Virgil" font-size="13" lengthAdjust="spacing" textLength="218.2261" x="109.0723" y="399.5791">updates current selection &amp; displays it</text><line style="stroke:#000000;stroke-width:1.0;stroke-dasharray:2.0,2.0;" x1="20" x2="527.0098" y1="413.8418" y2="413.8418"/><text fill="#000000" font-family="FG Virgil" font-size="11" font-weight="bold" lengthAdjust="spacing" textLength="86.7915" x="25" y="425.7119">[Remove Figure]</text><polygon fill="#181818" points="469.6719,448.7637,479.6719,452.7637,469.6719,456.7637,473.6719,452.7637" style="stroke:#181818;stroke-width:1.0;"/><line style="stroke:#181818;stroke-width:1.0;" x1="92.0723" x2="475.6719" y1="452.7637" y2="452.7637"/><text fill="#000000" font-family="FG Virgil" font-size="13" lengthAdjust="spacing" textLength="156.8062" x="99.0723" y="447.501">chooses to remove a figure</text><line style="stroke:#181818;stroke-width:1.0;" x1="93.0723" x2="103.0723" y1="484.0547" y2="480.0547"/><line style="stroke:#181818;stroke-width:1.0;" x1="93.0723" x2="103.0723" y1="484.0547" y2="488.0547"/><line style="stroke:#181818;stroke-width:1.0;stroke-dasharray:2.0,2.0;" x1="92.0723" x2="480.6719" y1="484.0547" y2="484.0547"/><text fill="#000000" font-family="FG Virgil" font-size="13" lengthAdjust="spacing" textLength="229.0425" x="109.0723" y="478.792">displays list of currently selected figures</text><polygon fill="#181818" points="469.6719,511.3457,479.6719,515.3457,469.6719,519.3457,473.6719,515.3457" style="stroke:#181818;stroke-width:1.0;"/><line style="stroke:#181818;stroke-width:1.0;" x1="92.0723" x2="475.6719" y1="515.3457" y2="515.3457"/><text fill="#000000" font-family="FG Virgil" font-size="13" lengthAdjust="spacing" textLength="148.8462" x="99.0723" y="510.083">selects a figure to remove</text><line style="stroke:#181818;stroke-width:1.0;" x1="93.0723" x2="103.0723" y1="546.6367" y2="542.6367"/><line style="stroke:#181818;stroke-width:1.0;" x1="93.0723" x2="103.0723" y1="546.6367" y2="550.6367"/><line style="stroke:#181818;stroke-width:1.0;stroke-dasharray:2.0,2.0;" x1="92.0723" x2="480.6719" y1="546.6367" y2="546.6367"/><text fill="#000000" font-family="FG Virgil" font-size="13" lengthAdjust="spacing" textLength="218.2261" x="109.0723" y="541.374">updates current selection &amp; displays it</text><line style="stroke:#000000;stroke-width:1.0;stroke-dasharray:2.0,2.0;" x1="20" x2="527.0098" y1="555.6367" y2="555.6367"/><text fill="#000000" font-family="FG Virgil" font-size="11" font-weight="bold" lengthAdjust="spacing" textLength="80.0669" x="25" y="567.5068">[Order Figures]</text><polygon fill="#181818" points="469.6719,590.5586,479.6719,594.5586,469.6719,598.5586,473.6719,594.5586" style="stroke:#181818;stroke-width:1.0;"/><line style="stroke:#181818;stroke-width:1.0;" x1="92.0723" x2="475.6719" y1="594.5586" y2="594.5586"/><text fill="#000000" font-family="FG Virgil" font-size="13" lengthAdjust="spacing" textLength="139.4644" x="99.0723" y="589.2959">chooses to order figures</text><line style="stroke:#181818;stroke-width:1.0;" x1="93.0723" x2="103.0723" y1="625.8496" y2="621.8496"/><line style="stroke:#181818;stroke-width:1.0;" x1="93.0723" x2="103.0723" y1="625.8496" y2="629.8496"/><line style="stroke:#181818;stroke-width:1.0;stroke-dasharray:2.0,2.0;" x1="92.0723" x2="480.6719" y1="625.8496" y2="625.8496"/><text fill="#000000" font-family="FG Virgil" font-size="13" lengthAdjust="spacing" textLength="286.8569" x="109.0723" y="620.5869">displays current selection with indices for ordering</text><polygon fill="#181818" points="469.6719,653.1406,479.6719,657.1406,469.6719,661.1406,473.6719,657.1406" style="stroke:#181818;stroke-width:1.0;"/><line style="stroke:#181818;stroke-width:1.0;" x1="92.0723" x2="475.6719" y1="657.1406" y2="657.1406"/><text fill="#000000" font-family="FG Virgil" font-size="13" lengthAdjust="spacing" textLength="231.918" x="99.0723" y="651.8779">provides desired order (e.g., (F1,F3,F2))</text><line style="stroke:#181818;stroke-width:1.0;" x1="93.0723" x2="103.0723" y1="688.4316" y2="684.4316"/><line style="stroke:#181818;stroke-width:1.0;" x1="93.0723" x2="103.0723" y1="688.4316" y2="692.4316"/><line style="stroke:#181818;stroke-width:1.0;stroke-dasharray:2.0,2.0;" x1="92.0723" x2="480.6719" y1="688.4316" y2="688.4316"/><text fill="#000000" font-family="FG Virgil" font-size="13" lengthAdjust="spacing" textLength="200.8906" x="109.0723" y="683.1689">updates current selection internally</text><line style="stroke:#000000;stroke-width:1.0;stroke-dasharray:2.0,2.0;" x1="20" x2="527.0098" y1="697.4316" y2="697.4316"/><text fill="#000000" font-family="FG Virgil" font-size="11" font-weight="bold" lengthAdjust="spacing" textLength="198.6553" x="25" y="709.3018">[Define Figures Order and Save (Exit)]</text><polygon fill="#181818" points="469.6719,732.3535,479.6719,736.3535,469.6719,740.3535,473.6719,736.3535" style="stroke:#181818;stroke-width:1.0;"/><line style="stroke:#181818;stroke-width:1.0;" x1="92.0723" x2="475.6719" y1="736.3535" y2="736.3535"/><text fill="#000000" font-family="FG Virgil" font-size="13" lengthAdjust="spacing" textLength="192.2388" x="99.0723" y="731.0908">chooses to define order and save</text><line style="stroke:#181818;stroke-width:1.0;" x1="93.0723" x2="103.0723" y1="767.6445" y2="763.6445"/><line style="stroke:#181818;stroke-width:1.0;" x1="93.0723" x2="103.0723" y1="767.6445" y2="771.6445"/><line style="stroke:#181818;stroke-width:1.0;stroke-dasharray:2.0,2.0;" x1="92.0723" x2="480.6719" y1="767.6445" y2="767.6445"/><text fill="#000000" font-family="FG Virgil" font-size="13" lengthAdjust="spacing" textLength="208.1016" x="109.0723" y="762.3818">displays confirmation of saved order</text><!--SRC=[jPHDRzim38Rl_XL43qK29CsQte8YmD3EE-q33RexAz49KLdo9Dbjzkj7sPwTjLsN5PW00x8aldhvc7JaQ0Wk0_-WrVBTUhCFaKhOqFUQh2AuPjnwBE5sSt6-l5oaO-ki7U6UROLfhtJMgPrt9K7qDHtiLAZkSKkRk9SxFAbuiAUfmDh4tDdu6IKq_mZVs6_P79m9EzJkWUqM2ZI1iWnLT1wkRZvTEMFmpdbCxnZWDf3F92YouWfjX2wHB0CP4iKDHkfEfPKqcVV9hY142Gnmybvho7bRUmeG7Nprhd81pSaJbLuwhNNJ-NozJeehq1mgW_i0glQUn4RHox65gfU3Ky06MUmBb7w_ky4uLq5j8nkeHGuuW7QMshqNN9CHeW7GWgiYEmiJr7hXgNGDBPpNv1S16vfcWm2Q26EIm_9pRRLpBdGKH1Emz_bRn1zpDnmYkE9vbZ2fwZl3IWZGep9ru8RI5QeEKQh7JrznD6HxZ9MwqlAXng_G1IT4fwDDZYCOakg2cvRSFy7fOB-HJ-_Ex7j_f8ToE9x3wE8_4FcIYkXNInn7fAsx5_FuQw-CdXuuxgHbD2iHBQJ3MrNv3xpYGTghOItdvM4lB3id4phRdirWaf_FyejPlfnEtyY9RIHlqPZz4qZNLB2buSVHCKEhOIFD1vCFZnodnx7JdP8R55Bx7idGsO9zYQrLgQqKsICOtLhTMMydCdu2]--></g></svg>