<svg xmlns="http://www.w3.org/2000/svg" xmlns:xlink="http://www.w3.org/1999/xlink" contentStyleType="text/css" height="1518px" preserveAspectRatio="none" style="width:1762px;height:1518px;background:#FFFFFF;" version="1.1" viewBox="0 0 1762 1518" width="1762px" zoomAndPan="magnify"><defs/><g><rect fill="#FFFFFF" height="1331.2813" style="stroke:#181818;stroke-width:1.0;" width="10" x="52.7793" y="93.6211"/><rect fill="#FFFFFF" height="1307.9902" style="stroke:#181818;stroke-width:1.0;" width="10" x="511.1274" y="116.9121"/><rect fill="#FFFFFF" height="93.873" style="stroke:#181818;stroke-width:1.0;" width="10" x="820.769" y="148.2031"/><rect fill="#FFFFFF" height="155.1641" style="stroke:#181818;stroke-width:1.0;" width="10" x="820.769" y="608.2676"/><rect fill="#FFFFFF" height="93.873" style="stroke:#181818;stroke-width:1.0;" width="10" x="820.769" y="1127.9434"/><rect fill="#FFFFFF" height="31.291" style="stroke:#181818;stroke-width:1.0;" width="10" x="1026.4106" y="179.4941"/><rect fill="#FFFFFF" height="31.291" style="stroke:#181818;stroke-width:1.0;" width="10" x="1026.4106" y="700.8496"/><rect fill="#FFFFFF" height="31.291" style="stroke:#181818;stroke-width:1.0;" width="10" x="1026.4106" y="1159.2344"/><rect fill="#FFFFFF" height="30" style="stroke:#181818;stroke-width:1.0;" width="10" x="1323.0234" y="639.5586"/><rect fill="#FFFFFF" height="33.6211" style="stroke:#181818;stroke-width:1.0;" width="10" x="1511.1953" y="473.4434"/><rect fill="#FFFFFF" height="31.291" style="stroke:#181818;stroke-width:1.0;" width="10" x="1681.4844" y="928.8574"/><rect fill="none" height="997.041" style="stroke:#000000;stroke-width:1.5;" width="1735.2393" x="20" y="420.8613"/><rect fill="none" height="359.8711" style="stroke:#000000;stroke-width:1.5;" width="1384.6611" x="30" y="522.0645"/><rect fill="none" height="19.291" style="stroke:#000000;stroke-width:1.5;" width="84.6899" x="50" y="1391.6113"/><line style="stroke:#181818;stroke-width:0.5;stroke-dasharray:5.0,5.0;" x1="57" x2="57" y1="83.6211" y2="1434.9023"/><line style="stroke:#181818;stroke-width:0.5;stroke-dasharray:5.0,5.0;" x1="515.8862" x2="515.8862" y1="83.6211" y2="1434.9023"/><line style="stroke:#181818;stroke-width:0.5;stroke-dasharray:5.0,5.0;" x1="825.7451" x2="825.7451" y1="83.6211" y2="1434.9023"/><line style="stroke:#181818;stroke-width:0.5;stroke-dasharray:5.0,5.0;" x1="1031.166" x2="1031.166" y1="83.6211" y2="1434.9023"/><line style="stroke:#181818;stroke-width:0.5;stroke-dasharray:5.0,5.0;" x1="1171.6553" x2="1171.6553" y1="281.8867" y2="1434.9023"/><line style="stroke:#181818;stroke-width:0.5;stroke-dasharray:5.0,5.0;" x1="1327.3857" x2="1327.3857" y1="573.166" y2="1434.9023"/><line style="stroke:#181818;stroke-width:0.5;stroke-dasharray:5.0,5.0;" x1="1515.6611" x2="1515.6611" y1="471.9629" y2="1434.9023"/><line style="stroke:#181818;stroke-width:0.5;stroke-dasharray:5.0,5.0;" x1="1685.7295" x2="1685.7295" y1="83.6211" y2="1434.9023"/><text fill="#000000" font-family="sans-serif" font-size="14" lengthAdjust="spacing" textLength="29.5586" x="40" y="80.1074">User</text><ellipse cx="57.7793" cy="13.5" fill="#E2E2F0" rx="8" ry="8" style="stroke:#181818;stroke-width:0.5;"/><path d="M57.7793,21.5 L57.7793,48.5 M44.7793,29.5 L70.7793,29.5 M57.7793,48.5 L44.7793,63.5 M57.7793,48.5 L70.7793,63.5 " fill="none" style="stroke:#181818;stroke-width:0.5;"/><text fill="#000000" font-family="sans-serif" font-size="14" lengthAdjust="spacing" textLength="29.5586" x="40" y="1449.0098">User</text><ellipse cx="57.7793" cy="1461.0234" fill="#E2E2F0" rx="8" ry="8" style="stroke:#181818;stroke-width:0.5;"/><path d="M57.7793,1469.0234 L57.7793,1496.0234 M44.7793,1477.0234 L70.7793,1477.0234 M57.7793,1496.0234 L44.7793,1511.0234 M57.7793,1496.0234 L70.7793,1511.0234 " fill="none" style="stroke:#181818;stroke-width:0.5;"/><rect fill="#E2E2F0" height="32.6211" rx="2.5" ry="2.5" style="stroke:#181818;stroke-width:0.5;" width="138.4824" x="446.8862" y="50"/><text fill="#000000" font-family="sans-serif" font-size="14" lengthAdjust="spacing" textLength="124.4824" x="453.8862" y="72.1074">:ListActiveFiguresUI</text><rect fill="#E2E2F0" height="32.6211" rx="2.5" ry="2.5" style="stroke:#181818;stroke-width:0.5;" width="138.4824" x="446.8862" y="1433.9023"/><text fill="#000000" font-family="sans-serif" font-size="14" lengthAdjust="spacing" textLength="124.4824" x="453.8862" y="1456.0098">:ListActiveFiguresUI</text><rect fill="#E2E2F0" height="32.6211" rx="2.5" ry="2.5" style="stroke:#181818;stroke-width:0.5;" width="140.0479" x="755.7451" y="50"/><text fill="#000000" font-family="sans-serif" font-size="14" lengthAdjust="spacing" textLength="126.0479" x="762.7451" y="72.1074">:ListFigureController</text><rect fill="#E2E2F0" height="32.6211" rx="2.5" ry="2.5" style="stroke:#181818;stroke-width:0.5;" width="140.0479" x="755.7451" y="1433.9023"/><text fill="#000000" font-family="sans-serif" font-size="14" lengthAdjust="spacing" textLength="126.0479" x="762.7451" y="1456.0098">:ListFigureController</text><rect fill="#E2E2F0" height="32.6211" rx="2.5" ry="2.5" style="stroke:#181818;stroke-width:0.5;" width="124.4893" x="969.166" y="50"/><text fill="#000000" font-family="sans-serif" font-size="14" lengthAdjust="spacing" textLength="110.4893" x="976.166" y="72.1074">:FigureRepository</text><rect fill="#E2E2F0" height="32.6211" rx="2.5" ry="2.5" style="stroke:#181818;stroke-width:0.5;" width="124.4893" x="969.166" y="1433.9023"/><text fill="#000000" font-family="sans-serif" font-size="14" lengthAdjust="spacing" textLength="110.4893" x="976.166" y="1456.0098">:FigureRepository</text><rect fill="#E2E2F0" height="32.6211" rx="2.5" ry="2.5" style="stroke:#181818;stroke-width:0.5;" width="137.7305" x="1103.6553" y="1433.9023"/><text fill="#000000" font-family="sans-serif" font-size="14" lengthAdjust="spacing" textLength="123.7305" x="1110.6553" y="1456.0098">figures:List&lt;Figure&gt;</text><rect fill="#E2E2F0" height="32.6211" rx="2.5" ry="2.5" style="stroke:#181818;stroke-width:0.5;" width="153.2754" x="1251.3857" y="1433.9023"/><text fill="#000000" font-family="sans-serif" font-size="14" lengthAdjust="spacing" textLength="139.2754" x="1258.3857" y="1456.0098">figureToDecom:Figure</text><rect fill="#E2E2F0" height="32.6211" rx="2.5" ry="2.5" style="stroke:#181818;stroke-width:0.5;" width="203.0684" x="1414.6611" y="1433.9023"/><text fill="#000000" font-family="sans-serif" font-size="14" lengthAdjust="spacing" textLength="189.0684" x="1421.6611" y="1456.0098">listPrompt:ListPrompt&lt;Figure&gt;</text><rect fill="#E2E2F0" height="32.6211" rx="2.5" ry="2.5" style="stroke:#181818;stroke-width:0.5;" width="117.5098" x="1627.7295" y="50"/><text fill="#000000" font-family="sans-serif" font-size="14" lengthAdjust="spacing" textLength="103.5098" x="1634.7295" y="72.1074">console:Console</text><rect fill="#E2E2F0" height="32.6211" rx="2.5" ry="2.5" style="stroke:#181818;stroke-width:0.5;" width="117.5098" x="1627.7295" y="1433.9023"/><text fill="#000000" font-family="sans-serif" font-size="14" lengthAdjust="spacing" textLength="103.5098" x="1634.7295" y="1456.0098">console:Console</text><rect fill="#FFFFFF" height="1331.2813" style="stroke:#181818;stroke-width:1.0;" width="10" x="52.7793" y="93.6211"/><rect fill="#FFFFFF" height="1307.9902" style="stroke:#181818;stroke-width:1.0;" width="10" x="511.1274" y="116.9121"/><rect fill="#FFFFFF" height="93.873" style="stroke:#181818;stroke-width:1.0;" width="10" x="820.769" y="148.2031"/><rect fill="#FFFFFF" height="155.1641" style="stroke:#181818;stroke-width:1.0;" width="10" x="820.769" y="608.2676"/><rect fill="#FFFFFF" height="93.873" style="stroke:#181818;stroke-width:1.0;" width="10" x="820.769" y="1127.9434"/><rect fill="#FFFFFF" height="31.291" style="stroke:#181818;stroke-width:1.0;" width="10" x="1026.4106" y="179.4941"/><rect fill="#FFFFFF" height="31.291" style="stroke:#181818;stroke-width:1.0;" width="10" x="1026.4106" y="700.8496"/><rect fill="#FFFFFF" height="31.291" style="stroke:#181818;stroke-width:1.0;" width="10" x="1026.4106" y="1159.2344"/><rect fill="#FFFFFF" height="30" style="stroke:#181818;stroke-width:1.0;" width="10" x="1323.0234" y="639.5586"/><rect fill="#FFFFFF" height="33.6211" style="stroke:#181818;stroke-width:1.0;" width="10" x="1511.1953" y="473.4434"/><rect fill="#FFFFFF" height="31.291" style="stroke:#181818;stroke-width:1.0;" width="10" x="1681.4844" y="928.8574"/><polygon fill="#181818" points="499.1274,112.9121,509.1274,116.9121,499.1274,120.9121,503.1274,116.9121" style="stroke:#181818;stroke-width:1.0;"/><line style="stroke:#181818;stroke-width:1.0;" x1="62.7793" x2="505.1274" y1="116.9121" y2="116.9121"/><text fill="#000000" font-family="sans-serif" font-size="13" font-weight="bold" lengthAdjust="spacing" textLength="7.23" x="69.7793" y="111.6494">1</text><text fill="#000000" font-family="sans-serif" font-size="13" lengthAdjust="spacing" textLength="143.7808" x="81.0093" y="111.6494">initiates list active figures</text><polygon fill="#181818" points="808.769,144.2031,818.769,148.2031,808.769,152.2031,812.769,148.2031" style="stroke:#181818;stroke-width:1.0;"/><line style="stroke:#181818;stroke-width:1.0;" x1="521.1274" x2="814.769" y1="148.2031" y2="148.2031"/><text fill="#000000" font-family="sans-serif" font-size="13" font-weight="bold" lengthAdjust="spacing" textLength="7.23" x="528.1274" y="142.9404">2</text><text fill="#000000" font-family="sans-serif" font-size="13" lengthAdjust="spacing" textLength="103.2954" x="539.3574" y="142.9404">listActiveFigures()</text><polygon fill="#181818" points="1014.4106,175.4941,1024.4106,179.4941,1014.4106,183.4941,1018.4106,179.4941" style="stroke:#181818;stroke-width:1.0;"/><line style="stroke:#181818;stroke-width:1.0;" x1="830.769" x2="1020.4106" y1="179.4941" y2="179.4941"/><text fill="#000000" font-family="sans-serif" font-size="13" font-weight="bold" lengthAdjust="spacing" textLength="7.23" x="837.769" y="174.2314">3</text><text fill="#000000" font-family="sans-serif" font-size="13" lengthAdjust="spacing" textLength="100.4136" x="848.999" y="174.2314">allActiveFigures()</text><polygon fill="#181818" points="841.769,206.7852,831.769,210.7852,841.769,214.7852,837.769,210.7852" style="stroke:#181818;stroke-width:1.0;"/><line style="stroke:#181818;stroke-width:1.0;stroke-dasharray:2.0,2.0;" x1="835.769" x2="1030.4106" y1="210.7852" y2="210.7852"/><text fill="#000000" font-family="sans-serif" font-size="13" font-weight="bold" lengthAdjust="spacing" textLength="7.23" x="847.769" y="205.5225">4</text><text fill="#000000" font-family="sans-serif" font-size="13" lengthAdjust="spacing" textLength="153.1816" x="858.999" y="205.5225">activeFigures:List&lt;Figure&gt;</text><polygon fill="#181818" points="532.1274,238.0762,522.1274,242.0762,532.1274,246.0762,528.1274,242.0762" style="stroke:#181818;stroke-width:1.0;"/><line style="stroke:#181818;stroke-width:1.0;stroke-dasharray:2.0,2.0;" x1="526.1274" x2="824.769" y1="242.0762" y2="242.0762"/><text fill="#000000" font-family="sans-serif" font-size="13" font-weight="bold" lengthAdjust="spacing" textLength="7.23" x="538.1274" y="236.8135">5</text><text fill="#000000" font-family="sans-serif" font-size="13" lengthAdjust="spacing" textLength="114.8926" x="549.3574" y="236.8135">figures:List&lt;Figure&gt;</text><polygon fill="#181818" points="1091.6553,269.3672,1101.6553,273.3672,1091.6553,277.3672,1095.6553,273.3672" style="stroke:#181818;stroke-width:1.0;"/><line style="stroke:#181818;stroke-width:1.0;" x1="521.1274" x2="1097.6553" y1="273.3672" y2="273.3672"/><text fill="#000000" font-family="sans-serif" font-size="13" font-weight="bold" lengthAdjust="spacing" textLength="7.23" x="528.1274" y="268.1045">6</text><text fill="#000000" font-family="sans-serif" font-size="13" lengthAdjust="spacing" textLength="71.5254" x="539.3574" y="268.1045">new(figures)</text><rect fill="#E2E2F0" height="32.6211" rx="2.5" ry="2.5" style="stroke:#181818;stroke-width:0.5;" width="137.7305" x="1103.6553" y="250.0762"/><text fill="#000000" font-family="sans-serif" font-size="14" lengthAdjust="spacing" textLength="123.7305" x="1110.6553" y="272.1836">figures:List&lt;Figure&gt;</text><polygon fill="#181818" points="73.7793,312.9883,63.7793,316.9883,73.7793,320.9883,69.7793,316.9883" style="stroke:#181818;stroke-width:1.0;"/><line style="stroke:#181818;stroke-width:1.0;stroke-dasharray:2.0,2.0;" x1="67.7793" x2="510.1274" y1="316.9883" y2="316.9883"/><text fill="#000000" font-family="sans-serif" font-size="13" font-weight="bold" lengthAdjust="spacing" textLength="7.23" x="79.7793" y="311.7256">7</text><text fill="#000000" font-family="sans-serif" font-size="13" lengthAdjust="spacing" textLength="156.0508" x="91.0093" y="311.7256">displayFigures(FiguresList)</text><polygon fill="#181818" points="73.7793,370.5703,63.7793,374.5703,73.7793,378.5703,69.7793,374.5703" style="stroke:#181818;stroke-width:1.0;"/><line style="stroke:#181818;stroke-width:1.0;stroke-dasharray:2.0,2.0;" x1="67.7793" x2="510.1274" y1="374.5703" y2="374.5703"/><text fill="#000000" font-family="sans-serif" font-size="13" font-weight="bold" lengthAdjust="spacing" textLength="7.23" x="79.7793" y="369.3076">8</text><text fill="#000000" font-family="sans-serif" font-size="13" lengthAdjust="spacing" textLength="325.3491" x="91.0093" y="369.3076">displayOptions ("Decommission", "Search/Reset", "Exit")</text><polygon fill="#181818" points="499.1274,401.8613,509.1274,405.8613,499.1274,409.8613,503.1274,405.8613" style="stroke:#181818;stroke-width:1.0;"/><line style="stroke:#181818;stroke-width:1.0;" x1="62.7793" x2="505.1274" y1="405.8613" y2="405.8613"/><text fill="#000000" font-family="sans-serif" font-size="13" font-weight="bold" lengthAdjust="spacing" textLength="7.23" x="69.7793" y="400.5986">9</text><text fill="#000000" font-family="sans-serif" font-size="13" lengthAdjust="spacing" textLength="122.8398" x="81.0093" y="400.5986">selectsOption(option)</text><path d="M20,420.8613 L80.1709,420.8613 L80.1709,430.1523 L70.1709,440.1523 L20,440.1523 L20,420.8613 " fill="#EEEEEE" style="stroke:#000000;stroke-width:1.5;"/><rect fill="none" height="997.041" style="stroke:#000000;stroke-width:1.5;" width="1735.2393" x="20" y="420.8613"/><text fill="#000000" font-family="sans-serif" font-size="13" font-weight="bold" lengthAdjust="spacing" textLength="15.1709" x="35" y="435.8896">alt</text><text fill="#000000" font-family="sans-serif" font-size="11" font-weight="bold" lengthAdjust="spacing" textLength="181.5537" x="95.1709" y="434.7314">[option is "Decommission Figure"]</text><polygon fill="#181818" points="1402.6611,459.4434,1412.6611,463.4434,1402.6611,467.4434,1406.6611,463.4434" style="stroke:#181818;stroke-width:1.0;"/><line style="stroke:#181818;stroke-width:1.0;" x1="521.1274" x2="1408.6611" y1="463.4434" y2="463.4434"/><text fill="#000000" font-family="sans-serif" font-size="13" font-weight="bold" lengthAdjust="spacing" textLength="14.46" x="528.1274" y="458.1807">10</text><text fill="#000000" font-family="sans-serif" font-size="13" lengthAdjust="spacing" textLength="207.9238" x="546.5874" y="458.1807">create("Select a figure", FiguresList)</text><rect fill="#E2E2F0" height="32.6211" rx="2.5" ry="2.5" style="stroke:#181818;stroke-width:0.5;" width="203.0684" x="1414.6611" y="440.1523"/><text fill="#000000" font-family="sans-serif" font-size="14" lengthAdjust="spacing" textLength="189.0684" x="1421.6611" y="462.2598">listPrompt:ListPrompt&lt;Figure&gt;</text><polygon fill="#181818" points="532.1274,503.0645,522.1274,507.0645,532.1274,511.0645,528.1274,507.0645" style="stroke:#181818;stroke-width:1.0;"/><line style="stroke:#181818;stroke-width:1.0;" x1="526.1274" x2="1515.1953" y1="507.0645" y2="507.0645"/><text fill="#000000" font-family="sans-serif" font-size="13" font-weight="bold" lengthAdjust="spacing" textLength="14.46" x="538.1274" y="501.8018">11</text><text fill="#000000" font-family="sans-serif" font-size="13" lengthAdjust="spacing" textLength="179.188" x="556.5874" y="501.8018">selectItem() : Optional&lt;Figure&gt;</text><path d="M30,522.0645 L90.1709,522.0645 L90.1709,531.3555 L80.1709,541.3555 L30,541.3555 L30,522.0645 " fill="#EEEEEE" style="stroke:#000000;stroke-width:1.5;"/><rect fill="none" height="359.8711" style="stroke:#000000;stroke-width:1.5;" width="1384.6611" x="30" y="522.0645"/><text fill="#000000" font-family="sans-serif" font-size="13" font-weight="bold" lengthAdjust="spacing" textLength="15.1709" x="45" y="537.0928">alt</text><text fill="#000000" font-family="sans-serif" font-size="11" font-weight="bold" lengthAdjust="spacing" textLength="97.1953" x="105.1709" y="535.9346">[figure is selected]</text><polygon fill="#181818" points="1239.3857,560.6465,1249.3857,564.6465,1239.3857,568.6465,1243.3857,564.6465" style="stroke:#181818;stroke-width:1.0;"/><line style="stroke:#181818;stroke-width:1.0;" x1="521.1274" x2="1245.3857" y1="564.6465" y2="564.6465"/><text fill="#000000" font-family="sans-serif" font-size="13" font-weight="bold" lengthAdjust="spacing" textLength="14.46" x="528.1274" y="559.3838">12</text><text fill="#000000" font-family="sans-serif" font-size="13" lengthAdjust="spacing" textLength="202.2871" x="546.5874" y="559.3838">create(selectedFigureFromPrompt)</text><rect fill="#E2E2F0" height="32.6211" rx="2.5" ry="2.5" style="stroke:#181818;stroke-width:0.5;" width="153.2754" x="1251.3857" y="541.3555"/><text fill="#000000" font-family="sans-serif" font-size="14" lengthAdjust="spacing" textLength="139.2754" x="1258.3857" y="563.4629">figureToDecom:Figure</text><polygon fill="#181818" points="808.769,604.2676,818.769,608.2676,808.769,612.2676,812.769,608.2676" style="stroke:#181818;stroke-width:1.0;"/><line style="stroke:#181818;stroke-width:1.0;" x1="521.1274" x2="814.769" y1="608.2676" y2="608.2676"/><text fill="#000000" font-family="sans-serif" font-size="13" font-weight="bold" lengthAdjust="spacing" textLength="14.46" x="528.1274" y="603.0049">13</text><text fill="#000000" font-family="sans-serif" font-size="13" lengthAdjust="spacing" textLength="192.1689" x="546.5874" y="603.0049">decomissionFigure(FigToDecom)</text><polygon fill="#181818" points="1311.0234,635.5586,1321.0234,639.5586,1311.0234,643.5586,1315.0234,639.5586" style="stroke:#181818;stroke-width:1.0;"/><line style="stroke:#181818;stroke-width:1.0;" x1="830.769" x2="1317.0234" y1="639.5586" y2="639.5586"/><text fill="#000000" font-family="sans-serif" font-size="13" font-weight="bold" lengthAdjust="spacing" textLength="14.46" x="837.769" y="634.2959">14</text><text fill="#000000" font-family="sans-serif" font-size="13" lengthAdjust="spacing" textLength="69.3608" x="856.229" y="634.2959">deActivate()</text><polygon fill="#181818" points="1014.4106,696.8496,1024.4106,700.8496,1014.4106,704.8496,1018.4106,700.8496" style="stroke:#181818;stroke-width:1.0;"/><line style="stroke:#181818;stroke-width:1.0;" x1="830.769" x2="1020.4106" y1="700.8496" y2="700.8496"/><text fill="#000000" font-family="sans-serif" font-size="13" font-weight="bold" lengthAdjust="spacing" textLength="14.46" x="837.769" y="695.5869">15</text><text fill="#000000" font-family="sans-serif" font-size="13" lengthAdjust="spacing" textLength="110.5254" x="856.229" y="695.5869">save(FigToDecom)</text><polygon fill="#181818" points="841.769,728.1406,831.769,732.1406,841.769,736.1406,837.769,732.1406" style="stroke:#181818;stroke-width:1.0;"/><line style="stroke:#181818;stroke-width:1.0;stroke-dasharray:2.0,2.0;" x1="835.769" x2="1030.4106" y1="732.1406" y2="732.1406"/><text fill="#000000" font-family="sans-serif" font-size="13" font-weight="bold" lengthAdjust="spacing" textLength="14.46" x="847.769" y="726.8779">16</text><text fill="#000000" font-family="sans-serif" font-size="13" lengthAdjust="spacing" textLength="111.998" x="866.229" y="726.8779">savedFigure:Figure</text><polygon fill="#181818" points="532.1274,759.4316,522.1274,763.4316,532.1274,767.4316,528.1274,763.4316" style="stroke:#181818;stroke-width:1.0;"/><line style="stroke:#181818;stroke-width:1.0;stroke-dasharray:2.0,2.0;" x1="526.1274" x2="824.769" y1="763.4316" y2="763.4316"/><text fill="#000000" font-family="sans-serif" font-size="13" font-weight="bold" lengthAdjust="spacing" textLength="14.46" x="538.1274" y="758.1689">17</text><text fill="#000000" font-family="sans-serif" font-size="13" lengthAdjust="spacing" textLength="124.2998" x="556.5874" y="758.1689">updatedFigure:Figure</text><polygon fill="#181818" points="1160.5205,790.7227,1170.5205,794.7227,1160.5205,798.7227,1164.5205,794.7227" style="stroke:#181818;stroke-width:1.0;"/><line style="stroke:#181818;stroke-width:1.0;" x1="521.1274" x2="1166.5205" y1="794.7227" y2="794.7227"/><text fill="#000000" font-family="sans-serif" font-size="13" font-weight="bold" lengthAdjust="spacing" textLength="14.46" x="528.1274" y="789.46">18</text><text fill="#000000" font-family="sans-serif" font-size="13" lengthAdjust="spacing" textLength="135.8462" x="546.5874" y="789.46">remove(updatedFigure)</text><polygon fill="#181818" points="73.7793,822.0137,63.7793,826.0137,73.7793,830.0137,69.7793,826.0137" style="stroke:#181818;stroke-width:1.0;"/><line style="stroke:#181818;stroke-width:1.0;stroke-dasharray:2.0,2.0;" x1="67.7793" x2="510.1274" y1="826.0137" y2="826.0137"/><text fill="#000000" font-family="sans-serif" font-size="13" font-weight="bold" lengthAdjust="spacing" textLength="14.46" x="79.7793" y="820.751">19</text><text fill="#000000" font-family="sans-serif" font-size="13" lengthAdjust="spacing" textLength="405.8882" x="98.2393" y="820.751">informs "Figure decommissioned", displayUpdatedFigures(FiguresList)</text><line style="stroke:#000000;stroke-width:1.0;stroke-dasharray:2.0,2.0;" x1="30" x2="1414.6611" y1="835.0137" y2="835.0137"/><text fill="#000000" font-family="sans-serif" font-size="11" font-weight="bold" lengthAdjust="spacing" textLength="101.46" x="35" y="846.8838">[no figure selected]</text><polygon fill="#181818" points="73.7793,869.9355,63.7793,873.9355,73.7793,877.9355,69.7793,873.9355" style="stroke:#181818;stroke-width:1.0;"/><line style="stroke:#181818;stroke-width:1.0;stroke-dasharray:2.0,2.0;" x1="67.7793" x2="510.1274" y1="873.9355" y2="873.9355"/><text fill="#000000" font-family="sans-serif" font-size="13" font-weight="bold" lengthAdjust="spacing" textLength="14.46" x="79.7793" y="868.6729">20</text><text fill="#000000" font-family="sans-serif" font-size="13" lengthAdjust="spacing" textLength="283.0674" x="98.2393" y="868.6729">informs "No figure selected for decommissioning"</text><line style="stroke:#000000;stroke-width:1.0;stroke-dasharray:2.0,2.0;" x1="20" x2="1755.2393" y1="889.9355" y2="889.9355"/><text fill="#000000" font-family="sans-serif" font-size="11" font-weight="bold" lengthAdjust="spacing" textLength="229.249" x="25" y="901.8057">[option is "Search by description/keyword"]</text><polygon fill="#181818" points="1669.4844,924.8574,1679.4844,928.8574,1669.4844,932.8574,1673.4844,928.8574" style="stroke:#181818;stroke-width:1.0;"/><line style="stroke:#181818;stroke-width:1.0;" x1="521.1274" x2="1675.4844" y1="928.8574" y2="928.8574"/><text fill="#000000" font-family="sans-serif" font-size="13" font-weight="bold" lengthAdjust="spacing" textLength="14.46" x="528.1274" y="923.5947">21</text><text fill="#000000" font-family="sans-serif" font-size="13" lengthAdjust="spacing" textLength="175.4111" x="546.5874" y="923.5947">readLine("Enter search term:")</text><polygon fill="#181818" points="532.1274,956.1484,522.1274,960.1484,532.1274,964.1484,528.1274,960.1484" style="stroke:#181818;stroke-width:1.0;"/><line style="stroke:#181818;stroke-width:1.0;stroke-dasharray:2.0,2.0;" x1="526.1274" x2="1685.4844" y1="960.1484" y2="960.1484"/><text fill="#000000" font-family="sans-serif" font-size="13" font-weight="bold" lengthAdjust="spacing" textLength="14.46" x="538.1274" y="954.8857">22</text><text fill="#000000" font-family="sans-serif" font-size="13" lengthAdjust="spacing" textLength="106.9199" x="556.5874" y="954.8857">searchTerm:String</text><line style="stroke:#181818;stroke-width:1.0;" x1="521.1274" x2="563.1274" y1="991.4395" y2="991.4395"/><line style="stroke:#181818;stroke-width:1.0;" x1="563.1274" x2="563.1274" y1="991.4395" y2="1004.4395"/><line style="stroke:#181818;stroke-width:1.0;" x1="522.1274" x2="563.1274" y1="1004.4395" y2="1004.4395"/><polygon fill="#181818" points="532.1274,1000.4395,522.1274,1004.4395,532.1274,1008.4395,528.1274,1004.4395" style="stroke:#181818;stroke-width:1.0;"/><text fill="#000000" font-family="sans-serif" font-size="13" font-weight="bold" lengthAdjust="spacing" textLength="14.46" x="528.1274" y="986.1768">23</text><text fill="#000000" font-family="sans-serif" font-size="13" lengthAdjust="spacing" textLength="257.1816" x="546.5874" y="986.1768">filterFiguresLocally(FiguresList, searchTerm)</text><polygon fill="#181818" points="73.7793,1031.7305,63.7793,1035.7305,73.7793,1039.7305,69.7793,1035.7305" style="stroke:#181818;stroke-width:1.0;"/><line style="stroke:#181818;stroke-width:1.0;stroke-dasharray:2.0,2.0;" x1="67.7793" x2="510.1274" y1="1035.7305" y2="1035.7305"/><text fill="#000000" font-family="sans-serif" font-size="13" font-weight="bold" lengthAdjust="spacing" textLength="14.46" x="79.7793" y="1030.4678">24</text><text fill="#000000" font-family="sans-serif" font-size="13" lengthAdjust="spacing" textLength="195.0698" x="98.2393" y="1030.4678">displayFigures(filteredFiguresList)</text><line style="stroke:#181818;stroke-width:1.0;" x1="521.1274" x2="563.1274" y1="1067.0215" y2="1067.0215"/><line style="stroke:#181818;stroke-width:1.0;" x1="563.1274" x2="563.1274" y1="1067.0215" y2="1080.0215"/><line style="stroke:#181818;stroke-width:1.0;" x1="522.1274" x2="563.1274" y1="1080.0215" y2="1080.0215"/><polygon fill="#181818" points="532.1274,1076.0215,522.1274,1080.0215,532.1274,1084.0215,528.1274,1080.0215" style="stroke:#181818;stroke-width:1.0;"/><text fill="#000000" font-family="sans-serif" font-size="13" font-weight="bold" lengthAdjust="spacing" textLength="14.46" x="528.1274" y="1061.7588">25</text><text fill="#000000" font-family="sans-serif" font-size="13" lengthAdjust="spacing" textLength="129.3398" x="546.5874" y="1061.7588">setSearchedFlag(true)</text><line style="stroke:#000000;stroke-width:1.0;stroke-dasharray:2.0,2.0;" x1="20" x2="1755.2393" y1="1089.0215" y2="1089.0215"/><text fill="#000000" font-family="sans-serif" font-size="11" font-weight="bold" lengthAdjust="spacing" textLength="290.9844" x="25" y="1100.8916">[option is "Reset List" (assuming searchedFlag is true)]</text><polygon fill="#181818" points="808.769,1123.9434,818.769,1127.9434,808.769,1131.9434,812.769,1127.9434" style="stroke:#181818;stroke-width:1.0;"/><line style="stroke:#181818;stroke-width:1.0;" x1="521.1274" x2="814.769" y1="1127.9434" y2="1127.9434"/><text fill="#000000" font-family="sans-serif" font-size="13" font-weight="bold" lengthAdjust="spacing" textLength="14.46" x="528.1274" y="1122.6807">26</text><text fill="#000000" font-family="sans-serif" font-size="13" lengthAdjust="spacing" textLength="103.2954" x="546.5874" y="1122.6807">listActiveFigures()</text><polygon fill="#181818" points="1014.4106,1155.2344,1024.4106,1159.2344,1014.4106,1163.2344,1018.4106,1159.2344" style="stroke:#181818;stroke-width:1.0;"/><line style="stroke:#181818;stroke-width:1.0;" x1="830.769" x2="1020.4106" y1="1159.2344" y2="1159.2344"/><text fill="#000000" font-family="sans-serif" font-size="13" font-weight="bold" lengthAdjust="spacing" textLength="14.46" x="837.769" y="1153.9717">27</text><text fill="#000000" font-family="sans-serif" font-size="13" lengthAdjust="spacing" textLength="100.4136" x="856.229" y="1153.9717">allActiveFigures()</text><polygon fill="#181818" points="841.769,1186.5254,831.769,1190.5254,841.769,1194.5254,837.769,1190.5254" style="stroke:#181818;stroke-width:1.0;"/><line style="stroke:#181818;stroke-width:1.0;stroke-dasharray:2.0,2.0;" x1="835.769" x2="1030.4106" y1="1190.5254" y2="1190.5254"/><text fill="#000000" font-family="sans-serif" font-size="13" font-weight="bold" lengthAdjust="spacing" textLength="14.46" x="847.769" y="1185.2627">28</text><text fill="#000000" font-family="sans-serif" font-size="13" lengthAdjust="spacing" textLength="153.1816" x="866.229" y="1185.2627">activeFigures:List&lt;Figure&gt;</text><polygon fill="#181818" points="532.1274,1217.8164,522.1274,1221.8164,532.1274,1225.8164,528.1274,1221.8164" style="stroke:#181818;stroke-width:1.0;"/><line style="stroke:#181818;stroke-width:1.0;stroke-dasharray:2.0,2.0;" x1="526.1274" x2="824.769" y1="1221.8164" y2="1221.8164"/><text fill="#000000" font-family="sans-serif" font-size="13" font-weight="bold" lengthAdjust="spacing" textLength="14.46" x="538.1274" y="1216.5537">29</text><text fill="#000000" font-family="sans-serif" font-size="13" lengthAdjust="spacing" textLength="114.8926" x="556.5874" y="1216.5537">figures:List&lt;Figure&gt;</text><polygon fill="#181818" points="1160.5205,1249.1074,1170.5205,1253.1074,1160.5205,1257.1074,1164.5205,1253.1074" style="stroke:#181818;stroke-width:1.0;"/><line style="stroke:#181818;stroke-width:1.0;" x1="521.1274" x2="1166.5205" y1="1253.1074" y2="1253.1074"/><text fill="#000000" font-family="sans-serif" font-size="13" font-weight="bold" lengthAdjust="spacing" textLength="14.46" x="528.1274" y="1247.8447">30</text><text fill="#000000" font-family="sans-serif" font-size="13" lengthAdjust="spacing" textLength="87.439" x="546.5874" y="1247.8447">update(figures)</text><polygon fill="#181818" points="73.7793,1280.3984,63.7793,1284.3984,73.7793,1288.3984,69.7793,1284.3984" style="stroke:#181818;stroke-width:1.0;"/><line style="stroke:#181818;stroke-width:1.0;stroke-dasharray:2.0,2.0;" x1="67.7793" x2="510.1274" y1="1284.3984" y2="1284.3984"/><text fill="#000000" font-family="sans-serif" font-size="13" font-weight="bold" lengthAdjust="spacing" textLength="14.46" x="79.7793" y="1279.1357">31</text><text fill="#000000" font-family="sans-serif" font-size="13" lengthAdjust="spacing" textLength="156.0508" x="98.2393" y="1279.1357">displayFigures(FiguresList)</text><line style="stroke:#181818;stroke-width:1.0;" x1="521.1274" x2="563.1274" y1="1315.6895" y2="1315.6895"/><line style="stroke:#181818;stroke-width:1.0;" x1="563.1274" x2="563.1274" y1="1315.6895" y2="1328.6895"/><line style="stroke:#181818;stroke-width:1.0;" x1="522.1274" x2="563.1274" y1="1328.6895" y2="1328.6895"/><polygon fill="#181818" points="532.1274,1324.6895,522.1274,1328.6895,532.1274,1332.6895,528.1274,1328.6895" style="stroke:#181818;stroke-width:1.0;"/><text fill="#000000" font-family="sans-serif" font-size="13" font-weight="bold" lengthAdjust="spacing" textLength="14.46" x="528.1274" y="1310.4268">32</text><text fill="#000000" font-family="sans-serif" font-size="13" lengthAdjust="spacing" textLength="134.3989" x="546.5874" y="1310.4268">setSearchedFlag(false)</text><line style="stroke:#000000;stroke-width:1.0;stroke-dasharray:2.0,2.0;" x1="20" x2="1755.2393" y1="1337.6895" y2="1337.6895"/><text fill="#000000" font-family="sans-serif" font-size="11" font-weight="bold" lengthAdjust="spacing" textLength="86.813" x="25" y="1349.5596">[option is "Exit"]</text><polygon fill="#181818" points="73.7793,1372.6113,63.7793,1376.6113,73.7793,1380.6113,69.7793,1376.6113" style="stroke:#181818;stroke-width:1.0;"/><line style="stroke:#181818;stroke-width:1.0;stroke-dasharray:2.0,2.0;" x1="67.7793" x2="510.1274" y1="1376.6113" y2="1376.6113"/><text fill="#000000" font-family="sans-serif" font-size="13" font-weight="bold" lengthAdjust="spacing" textLength="14.46" x="79.7793" y="1371.3486">33</text><text fill="#000000" font-family="sans-serif" font-size="13" lengthAdjust="spacing" textLength="129.3271" x="98.2393" y="1371.3486">exiting list figures view</text><path d="M50,1391.6113 L129.6899,1391.6113 L129.6899,1400.9023 L119.6899,1410.9023 L50,1410.9023 L50,1391.6113 " fill="#EEEEEE" style="stroke:#000000;stroke-width:1.5;"/><rect fill="none" height="19.291" style="stroke:#000000;stroke-width:1.5;" width="84.6899" x="50" y="1391.6113"/><text fill="#000000" font-family="sans-serif" font-size="13" font-weight="bold" lengthAdjust="spacing" textLength="34.6899" x="65" y="1406.6396">break</text><!--SRC=[bLRDJkCm4BxdAQoS4WJYNgsG40jI9RIx0le09Xd0meaZssstRxzZZvFOgRkK7jh4dk-R_vdohLNzjdi5NV36AitAZG5TCcwOUoYAWMih6Z7mth9ozIYClMsisC63UDzgC9iroQupWYHoftghbPI1zSvgkP0bkISOb15emi7BuQ4xIKNVIAbd_q6mcr7QNRZp7E95_OH6TK7JY0YdAK0YnH-jki5wBVIOw9gFDrOiV6bKRvI4rHtzaiVqx8LTaCMEMw3ekYzsTOFXOoicUc45NXdcR61U4bXmEGAkYmBb4UL2YJYvp4bLpz8-t0m_NXX18Qw8ur8kOKvmWeuPS8SZwcfMosDiaX6FQE68Y4mOtStbieXGtlAYqH0efloIyz49alMmhm9XxGMS5XVS5Mk56IG_Z4v6kBeef583sty8IGbXUs4-C05MOJOiQ3IcyDvaANyFLc1kMLNwEkg4CVXUNhBo6RXkFgwVm81rx_T_XIqfl4dA3KXeh26YIlcVcZHoQHaTC65OeY7uNdgvqRgRHLrUN20_HQz2UvmUnaFGqQGa32FF5Fj5YO_twV72YxM5hghnbRpXCYc7HKai5CmMeDTae_EQYA6TxsTlv_wDFHqHfFe1DP2MEiCGwhXr71HOGbKpTGexRghu4pLOG7losm2gwYD4t23ZB5hAf6rqIkgukGtVdNRaP9l7dqpBEz8GsZ1Alx3tY3WT0TkXvVP_ZCjna2s3Q0new1JwdV0UftvkPD6_ATrXUv4erK8e1cYnJKAdRsB2nGmPcK4QOBqQotUgtJEq_pf2CRn9h17zUpct0VIX9xpIQ4pGu66l1mIRHWj_S_q9XxtIxN9WH8l9nuwtZwB7QN7lHX-QugdmiLkLcHaHhxKflH7ZrJmU7D6Butcs6Xt93OGS6raPbeL4GyQugmPtro5EmsMafIxouLui0gASafecCrAD8voYYgAIlrTMRw7EHz_FUp_RIbPnOxOTUXii8xGJ8uBiBCgjyg-dpzch_QpU__wgFwFtprZzN_Lyhj-fqUVDVrRYlvlmDuvfFf5nlzXFg0MyS_dt_-Q2YMmdO3_9lsBFVGPYx6ZVrP7x-4ylVdD_6Fy1]--></g></svg>