<svg xmlns="http://www.w3.org/2000/svg" xmlns:xlink="http://www.w3.org/1999/xlink" contentStyleType="text/css" height="1070px" preserveAspectRatio="none" style="width:1557px;height:1070px;background:#FFFFFF;" version="1.1" viewBox="0 0 1557 1070" width="1557px" zoomAndPan="magnify"><defs/><g><rect fill="#FFFFFF" height="883.5273" style="stroke:#181818;stroke-width:1.0;" width="10" x="52.7793" y="93.6211"/><rect fill="#FFFFFF" height="860.2363" style="stroke:#181818;stroke-width:1.0;" width="10" x="511.1274" y="116.9121"/><rect fill="#FFFFFF" height="93.873" style="stroke:#181818;stroke-width:1.0;" width="10" x="750.7563" y="148.2031"/><rect fill="#FFFFFF" height="155.1641" style="stroke:#181818;stroke-width:1.0;" width="10" x="750.7563" y="608.2676"/><rect fill="#FFFFFF" height="31.291" style="stroke:#181818;stroke-width:1.0;" width="10" x="949.168" y="179.4941"/><rect fill="#FFFFFF" height="31.291" style="stroke:#181818;stroke-width:1.0;" width="10" x="949.168" y="700.8496"/><rect fill="#FFFFFF" height="30" style="stroke:#181818;stroke-width:1.0;" width="10" x="1245.7808" y="639.5586"/><rect fill="#FFFFFF" height="33.6211" style="stroke:#181818;stroke-width:1.0;" width="10" x="1433.9526" y="473.4434"/><rect fill="none" height="549.2871" style="stroke:#000000;stroke-width:1.5;" width="1530.4868" x="20" y="420.8613"/><rect fill="none" height="359.8711" style="stroke:#000000;stroke-width:1.5;" width="1307.4185" x="30" y="522.0645"/><rect fill="none" height="19.291" style="stroke:#000000;stroke-width:1.5;" width="84.6899" x="50" y="943.8574"/><line style="stroke:#181818;stroke-width:0.5;stroke-dasharray:5.0,5.0;" x1="57" x2="57" y1="83.6211" y2="987.1484"/><line style="stroke:#181818;stroke-width:0.5;stroke-dasharray:5.0,5.0;" x1="515.8862" x2="515.8862" y1="83.6211" y2="987.1484"/><line style="stroke:#181818;stroke-width:0.5;stroke-dasharray:5.0,5.0;" x1="755.7324" x2="755.7324" y1="83.6211" y2="987.1484"/><line style="stroke:#181818;stroke-width:0.5;stroke-dasharray:5.0,5.0;" x1="953.9233" x2="953.9233" y1="83.6211" y2="987.1484"/><line style="stroke:#181818;stroke-width:0.5;stroke-dasharray:5.0,5.0;" x1="1094.4126" x2="1094.4126" y1="281.8867" y2="987.1484"/><line style="stroke:#181818;stroke-width:0.5;stroke-dasharray:5.0,5.0;" x1="1250.1431" x2="1250.1431" y1="573.166" y2="987.1484"/><line style="stroke:#181818;stroke-width:0.5;stroke-dasharray:5.0,5.0;" x1="1438.4185" x2="1438.4185" y1="471.9629" y2="987.1484"/><text fill="#000000" font-family="sans-serif" font-size="14" lengthAdjust="spacing" textLength="29.5586" x="40" y="80.1074">User</text><ellipse cx="57.7793" cy="13.5" fill="#E2E2F0" rx="8" ry="8" style="stroke:#181818;stroke-width:0.5;"/><path d="M57.7793,21.5 L57.7793,48.5 M44.7793,29.5 L70.7793,29.5 M57.7793,48.5 L44.7793,63.5 M57.7793,48.5 L70.7793,63.5 " fill="none" style="stroke:#181818;stroke-width:0.5;"/><text fill="#000000" font-family="sans-serif" font-size="14" lengthAdjust="spacing" textLength="29.5586" x="40" y="1001.2559">User</text><ellipse cx="57.7793" cy="1013.2695" fill="#E2E2F0" rx="8" ry="8" style="stroke:#181818;stroke-width:0.5;"/><path d="M57.7793,1021.2695 L57.7793,1048.2695 M44.7793,1029.2695 L70.7793,1029.2695 M57.7793,1048.2695 L44.7793,1063.2695 M57.7793,1048.2695 L70.7793,1063.2695 " fill="none" style="stroke:#181818;stroke-width:0.5;"/><rect fill="#E2E2F0" height="32.6211" rx="2.5" ry="2.5" style="stroke:#181818;stroke-width:0.5;" width="138.4824" x="446.8862" y="50"/><text fill="#000000" font-family="sans-serif" font-size="14" lengthAdjust="spacing" textLength="124.4824" x="453.8862" y="72.1074">:ListActiveFiguresUI</text><rect fill="#E2E2F0" height="32.6211" rx="2.5" ry="2.5" style="stroke:#181818;stroke-width:0.5;" width="138.4824" x="446.8862" y="986.1484"/><text fill="#000000" font-family="sans-serif" font-size="14" lengthAdjust="spacing" textLength="124.4824" x="453.8862" y="1008.2559">:ListActiveFiguresUI</text><rect fill="#E2E2F0" height="32.6211" rx="2.5" ry="2.5" style="stroke:#181818;stroke-width:0.5;" width="140.0479" x="685.7324" y="50"/><text fill="#000000" font-family="sans-serif" font-size="14" lengthAdjust="spacing" textLength="126.0479" x="692.7324" y="72.1074">:ListFigureController</text><rect fill="#E2E2F0" height="32.6211" rx="2.5" ry="2.5" style="stroke:#181818;stroke-width:0.5;" width="140.0479" x="685.7324" y="986.1484"/><text fill="#000000" font-family="sans-serif" font-size="14" lengthAdjust="spacing" textLength="126.0479" x="692.7324" y="1008.2559">:ListFigureController</text><rect fill="#E2E2F0" height="32.6211" rx="2.5" ry="2.5" style="stroke:#181818;stroke-width:0.5;" width="124.4893" x="891.9233" y="50"/><text fill="#000000" font-family="sans-serif" font-size="14" lengthAdjust="spacing" textLength="110.4893" x="898.9233" y="72.1074">:FigureRepository</text><rect fill="#E2E2F0" height="32.6211" rx="2.5" ry="2.5" style="stroke:#181818;stroke-width:0.5;" width="124.4893" x="891.9233" y="986.1484"/><text fill="#000000" font-family="sans-serif" font-size="14" lengthAdjust="spacing" textLength="110.4893" x="898.9233" y="1008.2559">:FigureRepository</text><rect fill="#E2E2F0" height="32.6211" rx="2.5" ry="2.5" style="stroke:#181818;stroke-width:0.5;" width="137.7305" x="1026.4126" y="986.1484"/><text fill="#000000" font-family="sans-serif" font-size="14" lengthAdjust="spacing" textLength="123.7305" x="1033.4126" y="1008.2559">figures:List&lt;Figure&gt;</text><rect fill="#E2E2F0" height="32.6211" rx="2.5" ry="2.5" style="stroke:#181818;stroke-width:0.5;" width="153.2754" x="1174.1431" y="986.1484"/><text fill="#000000" font-family="sans-serif" font-size="14" lengthAdjust="spacing" textLength="139.2754" x="1181.1431" y="1008.2559">figureToDecom:Figure</text><rect fill="#E2E2F0" height="32.6211" rx="2.5" ry="2.5" style="stroke:#181818;stroke-width:0.5;" width="203.0684" x="1337.4185" y="986.1484"/><text fill="#000000" font-family="sans-serif" font-size="14" lengthAdjust="spacing" textLength="189.0684" x="1344.4185" y="1008.2559">listPrompt:ListPrompt&lt;Figure&gt;</text><rect fill="#FFFFFF" height="883.5273" style="stroke:#181818;stroke-width:1.0;" width="10" x="52.7793" y="93.6211"/><rect fill="#FFFFFF" height="860.2363" style="stroke:#181818;stroke-width:1.0;" width="10" x="511.1274" y="116.9121"/><rect fill="#FFFFFF" height="93.873" style="stroke:#181818;stroke-width:1.0;" width="10" x="750.7563" y="148.2031"/><rect fill="#FFFFFF" height="155.1641" style="stroke:#181818;stroke-width:1.0;" width="10" x="750.7563" y="608.2676"/><rect fill="#FFFFFF" height="31.291" style="stroke:#181818;stroke-width:1.0;" width="10" x="949.168" y="179.4941"/><rect fill="#FFFFFF" height="31.291" style="stroke:#181818;stroke-width:1.0;" width="10" x="949.168" y="700.8496"/><rect fill="#FFFFFF" height="30" style="stroke:#181818;stroke-width:1.0;" width="10" x="1245.7808" y="639.5586"/><rect fill="#FFFFFF" height="33.6211" style="stroke:#181818;stroke-width:1.0;" width="10" x="1433.9526" y="473.4434"/><polygon fill="#181818" points="499.1274,112.9121,509.1274,116.9121,499.1274,120.9121,503.1274,116.9121" style="stroke:#181818;stroke-width:1.0;"/><line style="stroke:#181818;stroke-width:1.0;" x1="62.7793" x2="505.1274" y1="116.9121" y2="116.9121"/><text fill="#000000" font-family="sans-serif" font-size="13" font-weight="bold" lengthAdjust="spacing" textLength="7.23" x="69.7793" y="111.6494">1</text><text fill="#000000" font-family="sans-serif" font-size="13" lengthAdjust="spacing" textLength="143.7808" x="81.0093" y="111.6494">initiates list active figures</text><polygon fill="#181818" points="738.7563,144.2031,748.7563,148.2031,738.7563,152.2031,742.7563,148.2031" style="stroke:#181818;stroke-width:1.0;"/><line style="stroke:#181818;stroke-width:1.0;" x1="521.1274" x2="744.7563" y1="148.2031" y2="148.2031"/><text fill="#000000" font-family="sans-serif" font-size="13" font-weight="bold" lengthAdjust="spacing" textLength="7.23" x="528.1274" y="142.9404">2</text><text fill="#000000" font-family="sans-serif" font-size="13" lengthAdjust="spacing" textLength="103.2954" x="539.3574" y="142.9404">listActiveFigures()</text><polygon fill="#181818" points="937.168,175.4941,947.168,179.4941,937.168,183.4941,941.168,179.4941" style="stroke:#181818;stroke-width:1.0;"/><line style="stroke:#181818;stroke-width:1.0;" x1="760.7563" x2="943.168" y1="179.4941" y2="179.4941"/><text fill="#000000" font-family="sans-serif" font-size="13" font-weight="bold" lengthAdjust="spacing" textLength="7.23" x="767.7563" y="174.2314">3</text><text fill="#000000" font-family="sans-serif" font-size="13" lengthAdjust="spacing" textLength="100.4136" x="778.9863" y="174.2314">allActiveFigures()</text><polygon fill="#181818" points="771.7563,206.7852,761.7563,210.7852,771.7563,214.7852,767.7563,210.7852" style="stroke:#181818;stroke-width:1.0;"/><line style="stroke:#181818;stroke-width:1.0;stroke-dasharray:2.0,2.0;" x1="765.7563" x2="953.168" y1="210.7852" y2="210.7852"/><text fill="#000000" font-family="sans-serif" font-size="13" font-weight="bold" lengthAdjust="spacing" textLength="7.23" x="777.7563" y="205.5225">4</text><text fill="#000000" font-family="sans-serif" font-size="13" lengthAdjust="spacing" textLength="153.1816" x="788.9863" y="205.5225">activeFigures:List&lt;Figure&gt;</text><polygon fill="#181818" points="532.1274,238.0762,522.1274,242.0762,532.1274,246.0762,528.1274,242.0762" style="stroke:#181818;stroke-width:1.0;"/><line style="stroke:#181818;stroke-width:1.0;stroke-dasharray:2.0,2.0;" x1="526.1274" x2="754.7563" y1="242.0762" y2="242.0762"/><text fill="#000000" font-family="sans-serif" font-size="13" font-weight="bold" lengthAdjust="spacing" textLength="7.23" x="538.1274" y="236.8135">5</text><text fill="#000000" font-family="sans-serif" font-size="13" lengthAdjust="spacing" textLength="114.8926" x="549.3574" y="236.8135">figures:List&lt;Figure&gt;</text><polygon fill="#181818" points="1014.4126,269.3672,1024.4126,273.3672,1014.4126,277.3672,1018.4126,273.3672" style="stroke:#181818;stroke-width:1.0;"/><line style="stroke:#181818;stroke-width:1.0;" x1="521.1274" x2="1020.4126" y1="273.3672" y2="273.3672"/><text fill="#000000" font-family="sans-serif" font-size="13" font-weight="bold" lengthAdjust="spacing" textLength="7.23" x="528.1274" y="268.1045">6</text><text fill="#000000" font-family="sans-serif" font-size="13" lengthAdjust="spacing" textLength="71.5254" x="539.3574" y="268.1045">new(figures)</text><rect fill="#E2E2F0" height="32.6211" rx="2.5" ry="2.5" style="stroke:#181818;stroke-width:0.5;" width="137.7305" x="1026.4126" y="250.0762"/><text fill="#000000" font-family="sans-serif" font-size="14" lengthAdjust="spacing" textLength="123.7305" x="1033.4126" y="272.1836">figures:List&lt;Figure&gt;</text><polygon fill="#181818" points="73.7793,312.9883,63.7793,316.9883,73.7793,320.9883,69.7793,316.9883" style="stroke:#181818;stroke-width:1.0;"/><line style="stroke:#181818;stroke-width:1.0;stroke-dasharray:2.0,2.0;" x1="67.7793" x2="510.1274" y1="316.9883" y2="316.9883"/><text fill="#000000" font-family="sans-serif" font-size="13" font-weight="bold" lengthAdjust="spacing" textLength="7.23" x="79.7793" y="311.7256">7</text><text fill="#000000" font-family="sans-serif" font-size="13" lengthAdjust="spacing" textLength="156.0508" x="91.0093" y="311.7256">displayFigures(FiguresList)</text><polygon fill="#181818" points="73.7793,370.5703,63.7793,374.5703,73.7793,378.5703,69.7793,374.5703" style="stroke:#181818;stroke-width:1.0;"/><line style="stroke:#181818;stroke-width:1.0;stroke-dasharray:2.0,2.0;" x1="67.7793" x2="510.1274" y1="374.5703" y2="374.5703"/><text fill="#000000" font-family="sans-serif" font-size="13" font-weight="bold" lengthAdjust="spacing" textLength="7.23" x="79.7793" y="369.3076">8</text><text fill="#000000" font-family="sans-serif" font-size="13" lengthAdjust="spacing" textLength="325.3491" x="91.0093" y="369.3076">displayOptions ("Decommission", "Search/Reset", "Exit")</text><polygon fill="#181818" points="499.1274,401.8613,509.1274,405.8613,499.1274,409.8613,503.1274,405.8613" style="stroke:#181818;stroke-width:1.0;"/><line style="stroke:#181818;stroke-width:1.0;" x1="62.7793" x2="505.1274" y1="405.8613" y2="405.8613"/><text fill="#000000" font-family="sans-serif" font-size="13" font-weight="bold" lengthAdjust="spacing" textLength="7.23" x="69.7793" y="400.5986">9</text><text fill="#000000" font-family="sans-serif" font-size="13" lengthAdjust="spacing" textLength="122.8398" x="81.0093" y="400.5986">selectsOption(option)</text><path d="M20,420.8613 L80.1709,420.8613 L80.1709,430.1523 L70.1709,440.1523 L20,440.1523 L20,420.8613 " fill="#EEEEEE" style="stroke:#000000;stroke-width:1.5;"/><rect fill="none" height="549.2871" style="stroke:#000000;stroke-width:1.5;" width="1530.4868" x="20" y="420.8613"/><text fill="#000000" font-family="sans-serif" font-size="13" font-weight="bold" lengthAdjust="spacing" textLength="15.1709" x="35" y="435.8896">alt</text><text fill="#000000" font-family="sans-serif" font-size="11" font-weight="bold" lengthAdjust="spacing" textLength="181.5537" x="95.1709" y="434.7314">[option is "Decommission Figure"]</text><polygon fill="#181818" points="1325.4185,459.4434,1335.4185,463.4434,1325.4185,467.4434,1329.4185,463.4434" style="stroke:#181818;stroke-width:1.0;"/><line style="stroke:#181818;stroke-width:1.0;" x1="521.1274" x2="1331.4185" y1="463.4434" y2="463.4434"/><text fill="#000000" font-family="sans-serif" font-size="13" font-weight="bold" lengthAdjust="spacing" textLength="14.46" x="528.1274" y="458.1807">10</text><text fill="#000000" font-family="sans-serif" font-size="13" lengthAdjust="spacing" textLength="207.9238" x="546.5874" y="458.1807">create("Select a figure", FiguresList)</text><rect fill="#E2E2F0" height="32.6211" rx="2.5" ry="2.5" style="stroke:#181818;stroke-width:0.5;" width="203.0684" x="1337.4185" y="440.1523"/><text fill="#000000" font-family="sans-serif" font-size="14" lengthAdjust="spacing" textLength="189.0684" x="1344.4185" y="462.2598">listPrompt:ListPrompt&lt;Figure&gt;</text><polygon fill="#181818" points="532.1274,503.0645,522.1274,507.0645,532.1274,511.0645,528.1274,507.0645" style="stroke:#181818;stroke-width:1.0;"/><line style="stroke:#181818;stroke-width:1.0;" x1="526.1274" x2="1437.9526" y1="507.0645" y2="507.0645"/><text fill="#000000" font-family="sans-serif" font-size="13" font-weight="bold" lengthAdjust="spacing" textLength="14.46" x="538.1274" y="501.8018">11</text><text fill="#000000" font-family="sans-serif" font-size="13" lengthAdjust="spacing" textLength="179.188" x="556.5874" y="501.8018">selectItem() : Optional&lt;Figure&gt;</text><path d="M30,522.0645 L90.1709,522.0645 L90.1709,531.3555 L80.1709,541.3555 L30,541.3555 L30,522.0645 " fill="#EEEEEE" style="stroke:#000000;stroke-width:1.5;"/><rect fill="none" height="359.8711" style="stroke:#000000;stroke-width:1.5;" width="1307.4185" x="30" y="522.0645"/><text fill="#000000" font-family="sans-serif" font-size="13" font-weight="bold" lengthAdjust="spacing" textLength="15.1709" x="45" y="537.0928">alt</text><text fill="#000000" font-family="sans-serif" font-size="11" font-weight="bold" lengthAdjust="spacing" textLength="97.1953" x="105.1709" y="535.9346">[figure is selected]</text><polygon fill="#181818" points="1162.1431,560.6465,1172.1431,564.6465,1162.1431,568.6465,1166.1431,564.6465" style="stroke:#181818;stroke-width:1.0;"/><line style="stroke:#181818;stroke-width:1.0;" x1="521.1274" x2="1168.1431" y1="564.6465" y2="564.6465"/><text fill="#000000" font-family="sans-serif" font-size="13" font-weight="bold" lengthAdjust="spacing" textLength="14.46" x="528.1274" y="559.3838">12</text><text fill="#000000" font-family="sans-serif" font-size="13" lengthAdjust="spacing" textLength="202.2871" x="546.5874" y="559.3838">create(selectedFigureFromPrompt)</text><rect fill="#E2E2F0" height="32.6211" rx="2.5" ry="2.5" style="stroke:#181818;stroke-width:0.5;" width="153.2754" x="1174.1431" y="541.3555"/><text fill="#000000" font-family="sans-serif" font-size="14" lengthAdjust="spacing" textLength="139.2754" x="1181.1431" y="563.4629">figureToDecom:Figure</text><polygon fill="#181818" points="738.7563,604.2676,748.7563,608.2676,738.7563,612.2676,742.7563,608.2676" style="stroke:#181818;stroke-width:1.0;"/><line style="stroke:#181818;stroke-width:1.0;" x1="521.1274" x2="744.7563" y1="608.2676" y2="608.2676"/><text fill="#000000" font-family="sans-serif" font-size="13" font-weight="bold" lengthAdjust="spacing" textLength="14.46" x="528.1274" y="603.0049">13</text><text fill="#000000" font-family="sans-serif" font-size="13" lengthAdjust="spacing" textLength="192.1689" x="546.5874" y="603.0049">decomissionFigure(FigToDecom)</text><polygon fill="#181818" points="1233.7808,635.5586,1243.7808,639.5586,1233.7808,643.5586,1237.7808,639.5586" style="stroke:#181818;stroke-width:1.0;"/><line style="stroke:#181818;stroke-width:1.0;" x1="760.7563" x2="1239.7808" y1="639.5586" y2="639.5586"/><text fill="#000000" font-family="sans-serif" font-size="13" font-weight="bold" lengthAdjust="spacing" textLength="14.46" x="767.7563" y="634.2959">14</text><text fill="#000000" font-family="sans-serif" font-size="13" lengthAdjust="spacing" textLength="69.3608" x="786.2163" y="634.2959">deActivate()</text><polygon fill="#181818" points="937.168,696.8496,947.168,700.8496,937.168,704.8496,941.168,700.8496" style="stroke:#181818;stroke-width:1.0;"/><line style="stroke:#181818;stroke-width:1.0;" x1="760.7563" x2="943.168" y1="700.8496" y2="700.8496"/><text fill="#000000" font-family="sans-serif" font-size="13" font-weight="bold" lengthAdjust="spacing" textLength="14.46" x="767.7563" y="695.5869">15</text><text fill="#000000" font-family="sans-serif" font-size="13" lengthAdjust="spacing" textLength="110.5254" x="786.2163" y="695.5869">save(FigToDecom)</text><polygon fill="#181818" points="771.7563,728.1406,761.7563,732.1406,771.7563,736.1406,767.7563,732.1406" style="stroke:#181818;stroke-width:1.0;"/><line style="stroke:#181818;stroke-width:1.0;stroke-dasharray:2.0,2.0;" x1="765.7563" x2="953.168" y1="732.1406" y2="732.1406"/><text fill="#000000" font-family="sans-serif" font-size="13" font-weight="bold" lengthAdjust="spacing" textLength="14.46" x="777.7563" y="726.8779">16</text><text fill="#000000" font-family="sans-serif" font-size="13" lengthAdjust="spacing" textLength="111.998" x="796.2163" y="726.8779">savedFigure:Figure</text><polygon fill="#181818" points="532.1274,759.4316,522.1274,763.4316,532.1274,767.4316,528.1274,763.4316" style="stroke:#181818;stroke-width:1.0;"/><line style="stroke:#181818;stroke-width:1.0;stroke-dasharray:2.0,2.0;" x1="526.1274" x2="754.7563" y1="763.4316" y2="763.4316"/><text fill="#000000" font-family="sans-serif" font-size="13" font-weight="bold" lengthAdjust="spacing" textLength="14.46" x="538.1274" y="758.1689">17</text><text fill="#000000" font-family="sans-serif" font-size="13" lengthAdjust="spacing" textLength="124.2998" x="556.5874" y="758.1689">updatedFigure:Figure</text><polygon fill="#181818" points="1083.2778,790.7227,1093.2778,794.7227,1083.2778,798.7227,1087.2778,794.7227" style="stroke:#181818;stroke-width:1.0;"/><line style="stroke:#181818;stroke-width:1.0;" x1="521.1274" x2="1089.2778" y1="794.7227" y2="794.7227"/><text fill="#000000" font-family="sans-serif" font-size="13" font-weight="bold" lengthAdjust="spacing" textLength="14.46" x="528.1274" y="789.46">18</text><text fill="#000000" font-family="sans-serif" font-size="13" lengthAdjust="spacing" textLength="135.8462" x="546.5874" y="789.46">remove(updatedFigure)</text><polygon fill="#181818" points="73.7793,822.0137,63.7793,826.0137,73.7793,830.0137,69.7793,826.0137" style="stroke:#181818;stroke-width:1.0;"/><line style="stroke:#181818;stroke-width:1.0;stroke-dasharray:2.0,2.0;" x1="67.7793" x2="510.1274" y1="826.0137" y2="826.0137"/><text fill="#000000" font-family="sans-serif" font-size="13" font-weight="bold" lengthAdjust="spacing" textLength="14.46" x="79.7793" y="820.751">19</text><text fill="#000000" font-family="sans-serif" font-size="13" lengthAdjust="spacing" textLength="405.8882" x="98.2393" y="820.751">informs "Figure decommissioned", displayUpdatedFigures(FiguresList)</text><line style="stroke:#000000;stroke-width:1.0;stroke-dasharray:2.0,2.0;" x1="30" x2="1337.4185" y1="835.0137" y2="835.0137"/><text fill="#000000" font-family="sans-serif" font-size="11" font-weight="bold" lengthAdjust="spacing" textLength="101.46" x="35" y="846.8838">[no figure selected]</text><polygon fill="#181818" points="73.7793,869.9355,63.7793,873.9355,73.7793,877.9355,69.7793,873.9355" style="stroke:#181818;stroke-width:1.0;"/><line style="stroke:#181818;stroke-width:1.0;stroke-dasharray:2.0,2.0;" x1="67.7793" x2="510.1274" y1="873.9355" y2="873.9355"/><text fill="#000000" font-family="sans-serif" font-size="13" font-weight="bold" lengthAdjust="spacing" textLength="14.46" x="79.7793" y="868.6729">20</text><text fill="#000000" font-family="sans-serif" font-size="13" lengthAdjust="spacing" textLength="283.0674" x="98.2393" y="868.6729">informs "No figure selected for decommissioning"</text><line style="stroke:#000000;stroke-width:1.0;stroke-dasharray:2.0,2.0;" x1="20" x2="1550.4868" y1="889.9355" y2="889.9355"/><text fill="#000000" font-family="sans-serif" font-size="11" font-weight="bold" lengthAdjust="spacing" textLength="86.813" x="25" y="901.8057">[option is "Exit"]</text><polygon fill="#181818" points="73.7793,924.8574,63.7793,928.8574,73.7793,932.8574,69.7793,928.8574" style="stroke:#181818;stroke-width:1.0;"/><line style="stroke:#181818;stroke-width:1.0;stroke-dasharray:2.0,2.0;" x1="67.7793" x2="510.1274" y1="928.8574" y2="928.8574"/><text fill="#000000" font-family="sans-serif" font-size="13" font-weight="bold" lengthAdjust="spacing" textLength="14.46" x="79.7793" y="923.5947">21</text><text fill="#000000" font-family="sans-serif" font-size="13" lengthAdjust="spacing" textLength="129.3271" x="98.2393" y="923.5947">exiting list figures view</text><path d="M50,943.8574 L129.6899,943.8574 L129.6899,953.1484 L119.6899,963.1484 L50,963.1484 L50,943.8574 " fill="#EEEEEE" style="stroke:#000000;stroke-width:1.5;"/><rect fill="none" height="19.291" style="stroke:#000000;stroke-width:1.5;" width="84.6899" x="50" y="943.8574"/><text fill="#000000" font-family="sans-serif" font-size="13" font-weight="bold" lengthAdjust="spacing" textLength="34.6899" x="65" y="958.8857">break</text><!--SRC=[ZLNRRjim37tNLmX-ieiLUm-60aMt0W66RUYM3r1jjX4cMuQa9ElVZn8bMxATRdveO-gSmuj8MfoS7axzCnWcMgSDhmuMJCM5vVu7OwCmJhPo58FZrUwhjEw-TV8CZ_BrPC0UzeJTRm09yg07PxHIKVN16RN04ku9HcqbXl0MS6ZqbXBwGaw3-YUYtIMqF_3sBSOl_HbQtKTFYH6j9K6Xn0-Z-z45B_Ipy3MR3qugndpXv5aue8hvF_ps3al2TrmEqaayijphye047jF8Y7l648yiNnxagMMTwsP6Xn9oV08OIR5Mo1DABMaUE55JLRqniMvdjoBd5bKEZ0vMGXH2IdVhVbZ62f6pra2KcEwCaiyiA3R0fOw2JG1uBxwuEzv9EohnbfBCU0rZIkkHNuvIqONmYxH7l02dyJOS60o6XMms9R-FJkh1yheAlT5BQ_6z-i2hdo1CU_pu11QSV__oHxgAobjSkGK5hRCaLElmho6FGZbE1YujBpp4tAk0Iz7TBNhjvWRrgNernkFzS16BZY4LPKWwK-qNRPlEI_CYYxs3lcxmbR8HgcY7HKiivsAA0BEc67tM90pTV3vdEyzadcbYaEj7z41UcWs5sCUTrw324gkUfKlQUgZo9nkmo0xYzv5KDoj6FY1flomnvHXTGws7suhpzKIkZdd-R8oy5usbZUln7_6kXCiLS1exuTvJNAw3pJR8re21NcFUXUxwwkT1biEBDZsE5q6f5s8pG8TZ4YVza0ikTaXI1cM13pgrxzIx_-7zsuh5yQI8HWwlrJm6CE1CiCbhjYV2fc7R_W3FK8S-Bt5RyhE4ouH_nYdw7ONHHN2JtG5-Ul8t_mNx2m00]--></g></svg>