<?xml version="1.0" encoding="UTF-8" standalone="no"?><svg xmlns="http://www.w3.org/2000/svg" xmlns:xlink="http://www.w3.org/1999/xlink" contentStyleType="text/css" height="345px" preserveAspectRatio="none" style="width:890px;height:345px;background:#FFFFFF;" version="1.1" viewBox="0 0 890 345" width="890px" zoomAndPan="magnify"><defs/><g><!--cluster Figure Category--><g id="cluster_Figure Category"><path d="M8.5,6.7188 L174.5,6.7188 A3.75,3.75 0 0 1 177,9.2188 L184,36.2734 L880.5,36.2734 A2.5,2.5 0 0 1 883,38.7734 L883,336.0988 A2.5,2.5 0 0 1 880.5,338.5988 L8.5,338.5988 A2.5,2.5 0 0 1 6,336.0988 L6,9.2188 A2.5,2.5 0 0 1 8.5,6.7188 " fill="#DDADDD" style="stroke:#000000;stroke-width:1.5;"/><line style="stroke:#000000;stroke-width:1.5;" x1="6" x2="184" y1="36.2734" y2="36.2734"/><text fill="#000000" font-family="sans-serif" font-size="20" font-weight="bold" lengthAdjust="spacing" textLength="165" x="10" y="28.0547">Figure Category</text></g><g id="elem_FigureCategory"><rect fill="#F1F1F1" height="106.2188" style="stroke:#181818;stroke-width:0.5;" width="205" x="308.5" y="216.3788"/><text fill="#000000" font-family="sans-serif" font-size="20" font-style="italic" lengthAdjust="spacing" textLength="73" x="374.5" y="235.7147">«Entity»</text><text fill="#000000" font-family="sans-serif" font-size="20" font-style="italic" lengthAdjust="spacing" textLength="64" x="379" y="259.2694">«Root»</text><text fill="#000000" font-family="sans-serif" font-size="20" lengthAdjust="spacing" textLength="145" x="338.5" y="284.8241">FigureCategory</text><line style="stroke:#181818;stroke-width:0.5;" x1="309.5" x2="512.5" y1="291.0428" y2="291.0428"/><rect fill="none" height="6" style="stroke:#C82930;stroke-width:1.0;" width="6" x="316.5" y="305.3202"/><text fill="#000000" font-family="sans-serif" font-size="20" lengthAdjust="spacing" textLength="178" x="329.5" y="314.3787">Description :String</text></g><g id="elem_FigureCategoryName"><rect fill="#F1F1F1" height="82.6641" style="stroke:#181818;stroke-width:0.5;" width="215" x="303.5" y="48.7188"/><text fill="#000000" font-family="sans-serif" font-size="20" font-style="italic" lengthAdjust="spacing" textLength="142" x="340" y="68.0547">«Value Object»</text><text fill="#000000" font-family="sans-serif" font-size="20" lengthAdjust="spacing" textLength="201" x="310.5" y="93.6094">FigureCategoryName</text><line style="stroke:#181818;stroke-width:0.5;" x1="304.5" x2="517.5" y1="99.8281" y2="99.8281"/><rect fill="none" height="6" style="stroke:#C82930;stroke-width:1.0;" width="6" x="311.5" y="114.1055"/><text fill="#000000" font-family="sans-serif" font-size="20" lengthAdjust="spacing" textLength="124" x="324.5" y="123.1641">Name :String</text></g><g id="elem_FigureCategoryStatus"><rect fill="#F1F1F1" height="82.6641" style="stroke:#181818;stroke-width:0.5;" width="217" x="22.5" y="228.1588"/><text fill="#000000" font-family="sans-serif" font-size="20" font-style="italic" lengthAdjust="spacing" textLength="142" x="60" y="247.4947">«Value Object»</text><text fill="#000000" font-family="sans-serif" font-size="20" lengthAdjust="spacing" textLength="203" x="29.5" y="273.0494">FigureCategoryStatus</text><line style="stroke:#181818;stroke-width:0.5;" x1="23.5" x2="238.5" y1="279.2681" y2="279.2681"/><rect fill="none" height="6" style="stroke:#C82930;stroke-width:1.0;" width="6" x="30.5" y="293.5455"/><text fill="#000000" font-family="sans-serif" font-size="20" lengthAdjust="spacing" textLength="126" x="43.5" y="302.6041">Status :String</text></g><g id="elem_FigureCategoryCreationDate"><rect fill="#F1F1F1" height="82.6641" style="stroke:#181818;stroke-width:0.5;" width="284" x="583" y="228.1588"/><text fill="#000000" font-family="sans-serif" font-size="20" font-style="italic" lengthAdjust="spacing" textLength="142" x="654" y="247.4947">«Value Object»</text><text fill="#000000" font-family="sans-serif" font-size="20" lengthAdjust="spacing" textLength="270" x="590" y="273.0494">FigureCategoryCreationDate</text><line style="stroke:#181818;stroke-width:0.5;" x1="584" x2="866" y1="279.2681" y2="279.2681"/><rect fill="none" height="6" style="stroke:#C82930;stroke-width:1.0;" width="6" x="591" y="293.5455"/><text fill="#000000" font-family="sans-serif" font-size="20" lengthAdjust="spacing" textLength="100" x="604" y="302.6041">Date :Date</text></g><!--reverse link FigureCategoryName to FigureCategory--><g id="link_FigureCategoryName_FigureCategory"><path codeLine="26" d="M411,138.0688 C411,162.0988 411,191.4188 411,216.1688 " fill="none" id="FigureCategoryName-backto-FigureCategory" style="stroke:#181818;stroke-width:1.0;"/><polygon fill="#181818" points="411,133.2687,407,142.2687,411,138.2687,415,142.2687,411,133.2687" style="stroke:#181818;stroke-width:1.0;"/><text fill="#000000" font-family="sans-serif" font-size="20" lengthAdjust="spacing" textLength="33" x="412" y="181.7147">has</text><text fill="#000000" font-family="sans-serif" font-size="20" lengthAdjust="spacing" textLength="13" x="397.0859" y="158.6161">1</text><text fill="#000000" font-family="sans-serif" font-size="20" lengthAdjust="spacing" textLength="13" x="397.1672" y="204.2352">1</text></g><!--reverse link FigureCategoryStatus to FigureCategory--><g id="link_FigureCategoryStatus_FigureCategory"><path codeLine="27" d="M246.04,269.4888 C266.69,269.4888 288.1,269.4888 308.37,269.4888 " fill="none" id="FigureCategoryStatus-backto-FigureCategory" style="stroke:#181818;stroke-width:1.0;"/><polygon fill="#181818" points="241.17,269.4888,250.17,273.4888,246.17,269.4888,250.17,265.4888,241.17,269.4888" style="stroke:#181818;stroke-width:1.0;"/><text fill="#000000" font-family="sans-serif" font-size="20" lengthAdjust="spacing" textLength="33" x="257.5" y="261.8247">has</text><text fill="#000000" font-family="sans-serif" font-size="20" lengthAdjust="spacing" textLength="13" x="247.3973" y="265.0705">1</text><text fill="#000000" font-family="sans-serif" font-size="20" lengthAdjust="spacing" textLength="13" x="287.3558" y="265.0006">1</text></g><!--link FigureCategory to FigureCategoryCreationDate--><g id="link_FigureCategory_FigureCategoryCreationDate"><path codeLine="28" d="M513.82,269.4888 C533.84,269.4888 555.2,269.4888 576.36,269.4888 " fill="none" id="FigureCategory-to-FigureCategoryCreationDate" style="stroke:#181818;stroke-width:1.0;"/><polygon fill="#181818" points="581.11,269.4888,572.11,265.4888,576.11,269.4888,572.11,273.4888,581.11,269.4888" style="stroke:#181818;stroke-width:1.0;"/><text fill="#000000" font-family="sans-serif" font-size="20" lengthAdjust="spacing" textLength="33" x="531.75" y="261.8247">has</text><text fill="#000000" font-family="sans-serif" font-size="20" lengthAdjust="spacing" textLength="13" x="521.5066" y="265.0356">1</text><text fill="#000000" font-family="sans-serif" font-size="20" lengthAdjust="spacing" textLength="13" x="561.9434" y="265.2459">1</text></g><!--SRC=[XP2nJiGm343tV8LL1gPIOAnENUwu4IGgiPl4r-QQ9b7Y3kN4lvCMYWHgTHuYM_PxiXCxRJq6x8sJ7IbGTCB1yD5PhlK7mUEzk6sPVIoBmXkqFFJcJhg-a0PZp9N69i52nCK3HblYqHDuPyQf42ayoWuRWkoeco4Gx96fSM7Cu4OfL4fTX7i_asJu7bZwiDizMTOyLbLANvtZghe8I94VACgWFMjdeQmvQDk8Jx6kUSQU4l-6PY1ucIT-FNFlcg1cv25kANwwroJxG3YjUqZrbchkbTERD4aa_lr7zf11FlYychELAyiMuofawCIhsBBz5XXqqwwJVmwQ-2y0]--></g></svg>