<svg xmlns="http://www.w3.org/2000/svg" xmlns:xlink="http://www.w3.org/1999/xlink" contentStyleType="text/css" height="422px" preserveAspectRatio="none" style="width:741px;height:422px;background:#FFFFFF;" version="1.1" viewBox="0 0 741 422" width="741px" zoomAndPan="magnify"><title>&lt;size:20&gt;Sequence Diagram US243 - List Drones in Inventory&lt;/size&gt;</title><defs/><g><text fill="#000000" font-family="FG Virgil" font-size="20" font-weight="bold" lengthAdjust="spacing" textLength="493.4766" x="123.1455" y="36.582">Sequence Diagram US243 - List Drones in Inventory</text><rect fill="#FFFFFF" height="179.7461" style="stroke:#181818;stroke-width:1.0;" width="10" x="37.6274" y="141.2227"/><rect fill="#FFFFFF" height="156.4551" style="stroke:#181818;stroke-width:1.0;" width="10" x="306.5244" y="164.5137"/><rect fill="#FFFFFF" height="93.873" style="stroke:#181818;stroke-width:1.0;" width="10" x="456.9858" y="195.8047"/><rect fill="#FFFFFF" height="31.291" style="stroke:#181818;stroke-width:1.0;" width="10" x="642.4507" y="227.0957"/><line style="stroke:#181818;stroke-width:0.5;stroke-dasharray:5.0,5.0;" x1="42" x2="42" y1="131.2227" y2="338.9688"/><line style="stroke:#181818;stroke-width:0.5;stroke-dasharray:5.0,5.0;" x1="311.2109" x2="311.2109" y1="131.2227" y2="338.9688"/><line style="stroke:#181818;stroke-width:0.5;stroke-dasharray:5.0,5.0;" x1="461.8379" x2="461.8379" y1="131.2227" y2="338.9688"/><line style="stroke:#181818;stroke-width:0.5;stroke-dasharray:5.0,5.0;" x1="647.1338" x2="647.1338" y1="131.2227" y2="338.9688"/><text fill="#000000" font-family="FG Virgil" font-size="14" lengthAdjust="spacing" textLength="69.2549" x="5" y="127.709">DroneTech</text><ellipse cx="42.6274" cy="61.1016" fill="#E3E3E3" rx="8" ry="8" style="stroke:#181818;stroke-width:0.5;"/><path d="M42.6274,69.1016 L42.6274,96.1016 M29.6274,77.1016 L55.6274,77.1016 M42.6274,96.1016 L29.6274,111.1016 M42.6274,96.1016 L55.6274,111.1016 " fill="none" style="stroke:#181818;stroke-width:0.5;"/><text fill="#000000" font-family="FG Virgil" font-size="14" lengthAdjust="spacing" textLength="69.2549" x="5" y="353.0762">DroneTech</text><ellipse cx="42.6274" cy="365.0898" fill="#E3E3E3" rx="8" ry="8" style="stroke:#181818;stroke-width:0.5;"/><path d="M42.6274,373.0898 L42.6274,400.0898 M29.6274,381.0898 L55.6274,381.0898 M42.6274,400.0898 L29.6274,415.0898 M42.6274,400.0898 L55.6274,415.0898 " fill="none" style="stroke:#181818;stroke-width:0.5;"/><rect fill="#E3E3E3" height="51.2422" rx="2.5" ry="2.5" style="stroke:#181818;stroke-width:0.5;" width="106.627" x="258.2109" y="78.9805"/><text fill="#000000" font-family="FG Virgil" font-size="14" font-style="italic" lengthAdjust="spacing" textLength="92.627" x="265.2109" y="101.0879">&#171;presentation&#187;</text><text fill="#000000" font-family="FG Virgil" font-size="14" lengthAdjust="spacing" textLength="84.8066" x="269.1211" y="119.709">:ListDronesUI</text><rect fill="#E3E3E3" height="51.2422" rx="2.5" ry="2.5" style="stroke:#181818;stroke-width:0.5;" width="106.627" x="258.2109" y="337.9688"/><text fill="#000000" font-family="FG Virgil" font-size="14" font-style="italic" lengthAdjust="spacing" textLength="92.627" x="265.2109" y="360.0762">&#171;presentation&#187;</text><text fill="#000000" font-family="FG Virgil" font-size="14" lengthAdjust="spacing" textLength="84.8066" x="269.1211" y="378.6973">:ListDronesUI</text><rect fill="#E3E3E3" height="51.2422" rx="2.5" ry="2.5" style="stroke:#181818;stroke-width:0.5;" width="174.2959" x="374.8379" y="78.9805"/><text fill="#000000" font-family="FG Virgil" font-size="14" font-style="italic" lengthAdjust="spacing" textLength="82.5098" x="420.731" y="101.0879">&#171;application&#187;</text><text fill="#000000" font-family="FG Virgil" font-size="14" lengthAdjust="spacing" textLength="160.2959" x="381.8379" y="119.709">:DroneInventoryController</text><rect fill="#E3E3E3" height="51.2422" rx="2.5" ry="2.5" style="stroke:#181818;stroke-width:0.5;" width="174.2959" x="374.8379" y="337.9688"/><text fill="#000000" font-family="FG Virgil" font-size="14" font-style="italic" lengthAdjust="spacing" textLength="82.5098" x="420.731" y="360.0762">&#171;application&#187;</text><text fill="#000000" font-family="FG Virgil" font-size="14" lengthAdjust="spacing" textLength="160.2959" x="381.8379" y="378.6973">:DroneInventoryController</text><rect fill="#E3E3E3" height="51.2422" rx="2.5" ry="2.5" style="stroke:#181818;stroke-width:0.5;" width="176.6338" x="559.1338" y="78.9805"/><text fill="#000000" font-family="FG Virgil" font-size="14" font-style="italic" lengthAdjust="spacing" textLength="77.041" x="608.9302" y="101.0879">&#171;repository&#187;</text><text fill="#000000" font-family="FG Virgil" font-size="14" lengthAdjust="spacing" textLength="162.6338" x="566.1338" y="119.709">DroneInventoryRepository</text><rect fill="#E3E3E3" height="51.2422" rx="2.5" ry="2.5" style="stroke:#181818;stroke-width:0.5;" width="176.6338" x="559.1338" y="337.9688"/><text fill="#000000" font-family="FG Virgil" font-size="14" font-style="italic" lengthAdjust="spacing" textLength="77.041" x="608.9302" y="360.0762">&#171;repository&#187;</text><text fill="#000000" font-family="FG Virgil" font-size="14" lengthAdjust="spacing" textLength="162.6338" x="566.1338" y="378.6973">DroneInventoryRepository</text><rect fill="#FFFFFF" height="179.7461" style="stroke:#181818;stroke-width:1.0;" width="10" x="37.6274" y="141.2227"/><rect fill="#FFFFFF" height="156.4551" style="stroke:#181818;stroke-width:1.0;" width="10" x="306.5244" y="164.5137"/><rect fill="#FFFFFF" height="93.873" style="stroke:#181818;stroke-width:1.0;" width="10" x="456.9858" y="195.8047"/><rect fill="#FFFFFF" height="31.291" style="stroke:#181818;stroke-width:1.0;" width="10" x="642.4507" y="227.0957"/><polygon fill="#181818" points="294.5244,160.5137,304.5244,164.5137,294.5244,168.5137,298.5244,164.5137" style="stroke:#181818;stroke-width:1.0;"/><line style="stroke:#181818;stroke-width:1.0;" x1="47.6274" x2="300.5244" y1="164.5137" y2="164.5137"/><text fill="#000000" font-family="FG Virgil" font-size="13" lengthAdjust="spacing" textLength="239.897" x="54.6274" y="159.251">Requests list of active drones in inventory</text><polygon fill="#181818" points="444.9858,191.8047,454.9858,195.8047,444.9858,199.8047,448.9858,195.8047" style="stroke:#181818;stroke-width:1.0;"/><line style="stroke:#181818;stroke-width:1.0;" x1="316.5244" x2="450.9858" y1="195.8047" y2="195.8047"/><text fill="#000000" font-family="FG Virgil" font-size="13" lengthAdjust="spacing" textLength="66.4536" x="323.5244" y="190.542">listDrones()</text><polygon fill="#181818" points="630.4507,223.0957,640.4507,227.0957,630.4507,231.0957,634.4507,227.0957" style="stroke:#181818;stroke-width:1.0;"/><line style="stroke:#181818;stroke-width:1.0;" x1="466.9858" x2="636.4507" y1="227.0957" y2="227.0957"/><text fill="#000000" font-family="FG Virgil" font-size="13" lengthAdjust="spacing" textLength="104.0381" x="473.9858" y="221.833">getActiveDrones()</text><polygon fill="#181818" points="477.9858,254.3867,467.9858,258.3867,477.9858,262.3867,473.9858,258.3867" style="stroke:#181818;stroke-width:1.0;"/><line style="stroke:#181818;stroke-width:1.0;stroke-dasharray:2.0,2.0;" x1="471.9858" x2="646.4507" y1="258.3867" y2="258.3867"/><text fill="#000000" font-family="FG Virgil" font-size="13" lengthAdjust="spacing" textLength="96.0972" x="483.9858" y="253.124">activeDronesList</text><polygon fill="#181818" points="327.5244,285.6777,317.5244,289.6777,327.5244,293.6777,323.5244,289.6777" style="stroke:#181818;stroke-width:1.0;"/><line style="stroke:#181818;stroke-width:1.0;stroke-dasharray:2.0,2.0;" x1="321.5244" x2="460.9858" y1="289.6777" y2="289.6777"/><text fill="#000000" font-family="FG Virgil" font-size="13" lengthAdjust="spacing" textLength="96.0972" x="333.5244" y="284.415">activeDronesList</text><polygon fill="#181818" points="53.6274,316.9688,43.6274,320.9688,53.6274,324.9688,49.6274,320.9688" style="stroke:#181818;stroke-width:1.0;"/><line style="stroke:#181818;stroke-width:1.0;stroke-dasharray:2.0,2.0;" x1="47.6274" x2="310.5244" y1="320.9688" y2="320.9688"/><text fill="#000000" font-family="FG Virgil" font-size="13" lengthAdjust="spacing" textLength="157.5107" x="59.6274" y="315.7061">Display list of active drones</text><!--SRC=[XLD1Ri8m4Bpx5IjExG6reZr5KQIgY2fIrGCqlQ-S9LWOExKD5NrzrmuDAGMHGnGdCxCpEqfGGHFaNdrJDhal5lIv9IC9fWeRXnke5fF71nZ3g_81fiuQyg0Cb6P79bYtp-yYjH32hvLfCL8srbYvSdP34DoM1bzQb6jiQ17sFDEH38DlDIrngyFCcl26J9szm8ToZT83Z5zXRR-KQM29sfCGADb3P-kTv0hGmrDy9HWVb5GjcW2ZB9hll5VbA8Ag4lAyTUGv10PbJL6SK1AyJ_dChfpLcboY7uyiWsshbJodybTZJgtrAZunoVK7viGOQeU13kRJ7SO5synW7XlnmOEE3TWb9311tNUXVYSSTQfI2E2BSxBCqMwMLBfLtDmcICyveZhk82HhNCgIGKFXALawBtk9c50NDpG-iOs32R7DnAxf-fH_KGvhlIPukesuIQQcQZB-EtohSN- -4o46Ejp4uDJr-mC0]--></g></svg>