<svg xmlns="http://www.w3.org/2000/svg" xmlns:xlink="http://www.w3.org/1999/xlink" contentStyleType="text/css" height="732px" preserveAspectRatio="none" style="width:1248px;height:732px;background:#FFFFFF;" version="1.1" viewBox="0 0 1248 732" width="1248px" zoomAndPan="magnify"><defs/><g><rect fill="#FFFFFF" height="537.9473" style="stroke:#181818;stroke-width:1.0;" width="10" x="44.2344" y="93.6211"/><rect fill="#FFFFFF" height="514.6563" style="stroke:#181818;stroke-width:1.0;" width="10" x="393.9795" y="116.9121"/><rect fill="#FFFFFF" height="156.4551" style="stroke:#181818;stroke-width:1.0;" width="10" x="593.4185" y="148.2031"/><rect fill="#FFFFFF" height="201.7461" style="stroke:#181818;stroke-width:1.0;" width="10" x="593.4185" y="398.5313"/><rect fill="#FFFFFF" height="93.873" style="stroke:#181818;stroke-width:1.0;" width="10" x="792.8574" y="179.4941"/><rect fill="#FFFFFF" height="139.1641" style="stroke:#181818;stroke-width:1.0;" width="10" x="792.8574" y="429.8223"/><rect fill="#FFFFFF" height="14" style="stroke:#181818;stroke-width:1.0;" width="10" x="944.4673" y="461.1133"/><rect fill="#FFFFFF" height="31.291" style="stroke:#181818;stroke-width:1.0;" width="10" x="1065.3359" y="210.7852"/><rect fill="#FFFFFF" height="31.291" style="stroke:#181818;stroke-width:1.0;" width="10" x="1065.3359" y="506.4043"/><line style="stroke:#181818;stroke-width:0.5;stroke-dasharray:5.0,5.0;" x1="49" x2="49" y1="83.6211" y2="649.5684"/><line style="stroke:#181818;stroke-width:0.5;stroke-dasharray:5.0,5.0;" x1="398.3555" x2="398.3555" y1="83.6211" y2="649.5684"/><line style="stroke:#181818;stroke-width:0.5;stroke-dasharray:5.0,5.0;" x1="598.0566" x2="598.0566" y1="83.6211" y2="649.5684"/><line style="stroke:#181818;stroke-width:0.5;stroke-dasharray:5.0,5.0;" x1="796.8784" x2="796.8784" y1="83.6211" y2="649.5684"/><line style="stroke:#181818;stroke-width:0.5;stroke-dasharray:5.0,5.0;" x1="948.8364" x2="948.8364" y1="83.6211" y2="649.5684"/><line style="stroke:#181818;stroke-width:0.5;stroke-dasharray:5.0,5.0;" x1="1070.0981" x2="1070.0981" y1="83.6211" y2="649.5684"/><line style="stroke:#181818;stroke-width:0.5;stroke-dasharray:5.0,5.0;" x1="1188.5737" x2="1188.5737" y1="83.6211" y2="649.5684"/><text fill="#000000" font-family="sans-serif" font-size="14" lengthAdjust="spacing" textLength="82.4688" x="5" y="80.1074">Administrator</text><ellipse cx="49.2344" cy="13.5" fill="#E2E2F0" rx="8" ry="8" style="stroke:#181818;stroke-width:0.5;"/><path d="M49.2344,21.5 L49.2344,48.5 M36.2344,29.5 L62.2344,29.5 M49.2344,48.5 L36.2344,63.5 M49.2344,48.5 L62.2344,63.5 " fill="none" style="stroke:#181818;stroke-width:0.5;"/><text fill="#000000" font-family="sans-serif" font-size="14" lengthAdjust="spacing" textLength="82.4688" x="5" y="663.6758">Administrator</text><ellipse cx="49.2344" cy="675.6895" fill="#E2E2F0" rx="8" ry="8" style="stroke:#181818;stroke-width:0.5;"/><path d="M49.2344,683.6895 L49.2344,710.6895 M36.2344,691.6895 L62.2344,691.6895 M49.2344,710.6895 L36.2344,725.6895 M49.2344,710.6895 L62.2344,725.6895 " fill="none" style="stroke:#181818;stroke-width:0.5;"/><rect fill="#E2E2F0" height="32.6211" rx="2.5" ry="2.5" style="stroke:#181818;stroke-width:0.5;" width="111.248" x="343.3555" y="50"/><text fill="#000000" font-family="sans-serif" font-size="14" lengthAdjust="spacing" textLength="97.248" x="350.3555" y="72.1074">:ActivateUserUI</text><rect fill="#E2E2F0" height="32.6211" rx="2.5" ry="2.5" style="stroke:#181818;stroke-width:0.5;" width="111.248" x="343.3555" y="648.5684"/><text fill="#000000" font-family="sans-serif" font-size="14" lengthAdjust="spacing" textLength="97.248" x="350.3555" y="670.6758">:ActivateUserUI</text><rect fill="#E2E2F0" height="51.2422" rx="2.5" ry="2.5" style="stroke:#181818;stroke-width:0.5;" width="200.7236" x="498.0566" y="31.3789"/><text fill="#000000" font-family="sans-serif" font-size="14" lengthAdjust="spacing" textLength="61.4688" x="567.6841" y="53.4863">controller:</text><text fill="#000000" font-family="sans-serif" font-size="14" lengthAdjust="spacing" textLength="186.7236" x="505.0566" y="72.1074">ActivateSystemUserController</text><rect fill="#E2E2F0" height="51.2422" rx="2.5" ry="2.5" style="stroke:#181818;stroke-width:0.5;" width="200.7236" x="498.0566" y="648.5684"/><text fill="#000000" font-family="sans-serif" font-size="14" lengthAdjust="spacing" textLength="61.4688" x="567.6841" y="670.6758">controller:</text><text fill="#000000" font-family="sans-serif" font-size="14" lengthAdjust="spacing" textLength="186.7236" x="505.0566" y="689.2969">ActivateSystemUserController</text><rect fill="#E2E2F0" height="51.2422" rx="2.5" ry="2.5" style="stroke:#181818;stroke-width:0.5;" width="171.958" x="711.8784" y="31.3789"/><text fill="#000000" font-family="sans-serif" font-size="14" lengthAdjust="spacing" textLength="54.4619" x="770.6265" y="53.4863">userSvc:</text><text fill="#000000" font-family="sans-serif" font-size="14" lengthAdjust="spacing" textLength="157.958" x="718.8784" y="72.1074">UserManagementService</text><rect fill="#E2E2F0" height="51.2422" rx="2.5" ry="2.5" style="stroke:#181818;stroke-width:0.5;" width="171.958" x="711.8784" y="648.5684"/><text fill="#000000" font-family="sans-serif" font-size="14" lengthAdjust="spacing" textLength="54.4619" x="770.6265" y="670.6758">userSvc:</text><text fill="#000000" font-family="sans-serif" font-size="14" lengthAdjust="spacing" textLength="157.958" x="718.8784" y="689.2969">UserManagementService</text><rect fill="#E2E2F0" height="51.2422" rx="2.5" ry="2.5" style="stroke:#181818;stroke-width:0.5;" width="111.2617" x="893.8364" y="31.3789"/><text fill="#000000" font-family="sans-serif" font-size="14" lengthAdjust="spacing" textLength="97.2617" x="900.8364" y="53.4863">userToActivate:</text><text fill="#000000" font-family="sans-serif" font-size="14" lengthAdjust="spacing" textLength="76.2344" x="911.3501" y="72.1074">SystemUser</text><rect fill="#E2E2F0" height="51.2422" rx="2.5" ry="2.5" style="stroke:#181818;stroke-width:0.5;" width="111.2617" x="893.8364" y="648.5684"/><text fill="#000000" font-family="sans-serif" font-size="14" lengthAdjust="spacing" textLength="97.2617" x="900.8364" y="670.6758">userToActivate:</text><text fill="#000000" font-family="sans-serif" font-size="14" lengthAdjust="spacing" textLength="76.2344" x="911.3501" y="689.2969">SystemUser</text><rect fill="#E2E2F0" height="51.2422" rx="2.5" ry="2.5" style="stroke:#181818;stroke-width:0.5;" width="110.4756" x="1015.0981" y="31.3789"/><text fill="#000000" font-family="sans-serif" font-size="14" lengthAdjust="spacing" textLength="64.5928" x="1038.0396" y="53.4863">userRepo:</text><text fill="#000000" font-family="sans-serif" font-size="14" lengthAdjust="spacing" textLength="96.4756" x="1022.0981" y="72.1074">UserRepository</text><rect fill="#E2E2F0" height="51.2422" rx="2.5" ry="2.5" style="stroke:#181818;stroke-width:0.5;" width="110.4756" x="1015.0981" y="648.5684"/><text fill="#000000" font-family="sans-serif" font-size="14" lengthAdjust="spacing" textLength="64.5928" x="1038.0396" y="670.6758">userRepo:</text><text fill="#000000" font-family="sans-serif" font-size="14" lengthAdjust="spacing" textLength="96.4756" x="1022.0981" y="689.2969">UserRepository</text><rect fill="#E2E2F0" height="32.6211" rx="2.5" ry="2.5" style="stroke:#181818;stroke-width:0.5;" width="107.3721" x="1135.5737" y="50"/><text fill="#000000" font-family="sans-serif" font-size="14" lengthAdjust="spacing" textLength="93.3721" x="1142.5737" y="72.1074">userToActivate</text><rect fill="#E2E2F0" height="32.6211" rx="2.5" ry="2.5" style="stroke:#181818;stroke-width:0.5;" width="107.3721" x="1135.5737" y="648.5684"/><text fill="#000000" font-family="sans-serif" font-size="14" lengthAdjust="spacing" textLength="93.3721" x="1142.5737" y="670.6758">userToActivate</text><rect fill="#FFFFFF" height="537.9473" style="stroke:#181818;stroke-width:1.0;" width="10" x="44.2344" y="93.6211"/><rect fill="#FFFFFF" height="514.6563" style="stroke:#181818;stroke-width:1.0;" width="10" x="393.9795" y="116.9121"/><rect fill="#FFFFFF" height="156.4551" style="stroke:#181818;stroke-width:1.0;" width="10" x="593.4185" y="148.2031"/><rect fill="#FFFFFF" height="201.7461" style="stroke:#181818;stroke-width:1.0;" width="10" x="593.4185" y="398.5313"/><rect fill="#FFFFFF" height="93.873" style="stroke:#181818;stroke-width:1.0;" width="10" x="792.8574" y="179.4941"/><rect fill="#FFFFFF" height="139.1641" style="stroke:#181818;stroke-width:1.0;" width="10" x="792.8574" y="429.8223"/><rect fill="#FFFFFF" height="14" style="stroke:#181818;stroke-width:1.0;" width="10" x="944.4673" y="461.1133"/><rect fill="#FFFFFF" height="31.291" style="stroke:#181818;stroke-width:1.0;" width="10" x="1065.3359" y="210.7852"/><rect fill="#FFFFFF" height="31.291" style="stroke:#181818;stroke-width:1.0;" width="10" x="1065.3359" y="506.4043"/><polygon fill="#181818" points="381.9795,112.9121,391.9795,116.9121,381.9795,120.9121,385.9795,116.9121" style="stroke:#181818;stroke-width:1.0;"/><line style="stroke:#181818;stroke-width:1.0;" x1="54.2344" x2="387.9795" y1="116.9121" y2="116.9121"/><text fill="#000000" font-family="sans-serif" font-size="13" lengthAdjust="spacing" textLength="125.7153" x="61.2344" y="111.6494">Initiates Activate User</text><polygon fill="#181818" points="581.4185,144.2031,591.4185,148.2031,581.4185,152.2031,585.4185,148.2031" style="stroke:#181818;stroke-width:1.0;"/><line style="stroke:#181818;stroke-width:1.0;" x1="403.9795" x2="587.4185" y1="148.2031" y2="148.2031"/><text fill="#000000" font-family="sans-serif" font-size="13" lengthAdjust="spacing" textLength="86.6836" x="410.9795" y="142.9404">inactiveUsers()</text><polygon fill="#181818" points="780.8574,175.4941,790.8574,179.4941,780.8574,183.4941,784.8574,179.4941" style="stroke:#181818;stroke-width:1.0;"/><line style="stroke:#181818;stroke-width:1.0;" x1="603.4185" x2="786.8574" y1="179.4941" y2="179.4941"/><text fill="#000000" font-family="sans-serif" font-size="13" lengthAdjust="spacing" textLength="86.6836" x="610.4185" y="174.2314">inactiveUsers()</text><polygon fill="#181818" points="1053.3359,206.7852,1063.3359,210.7852,1053.3359,214.7852,1057.3359,210.7852" style="stroke:#181818;stroke-width:1.0;"/><line style="stroke:#181818;stroke-width:1.0;" x1="802.8574" x2="1059.3359" y1="210.7852" y2="210.7852"/><text fill="#000000" font-family="sans-serif" font-size="13" lengthAdjust="spacing" textLength="88.8672" x="809.8574" y="205.5225">findAllInactive()</text><polygon fill="#181818" points="813.8574,238.0762,803.8574,242.0762,813.8574,246.0762,809.8574,242.0762" style="stroke:#181818;stroke-width:1.0;"/><line style="stroke:#181818;stroke-width:1.0;stroke-dasharray:2.0,2.0;" x1="807.8574" x2="1069.3359" y1="242.0762" y2="242.0762"/><text fill="#000000" font-family="sans-serif" font-size="13" lengthAdjust="spacing" textLength="165.439" x="819.8574" y="236.8135">returns inactiveSystemUsers</text><polygon fill="#181818" points="614.4185,269.3672,604.4185,273.3672,614.4185,277.3672,610.4185,273.3672" style="stroke:#181818;stroke-width:1.0;"/><line style="stroke:#181818;stroke-width:1.0;stroke-dasharray:2.0,2.0;" x1="608.4185" x2="796.8574" y1="273.3672" y2="273.3672"/><text fill="#000000" font-family="sans-serif" font-size="13" lengthAdjust="spacing" textLength="165.439" x="620.4185" y="268.1045">returns inactiveSystemUsers</text><polygon fill="#181818" points="414.9795,300.6582,404.9795,304.6582,414.9795,308.6582,410.9795,304.6582" style="stroke:#181818;stroke-width:1.0;"/><line style="stroke:#181818;stroke-width:1.0;stroke-dasharray:2.0,2.0;" x1="408.9795" x2="597.4185" y1="304.6582" y2="304.6582"/><text fill="#000000" font-family="sans-serif" font-size="13" lengthAdjust="spacing" textLength="165.439" x="420.9795" y="299.3955">returns inactiveSystemUsers</text><polygon fill="#181818" points="65.2344,331.9492,55.2344,335.9492,65.2344,339.9492,61.2344,335.9492" style="stroke:#181818;stroke-width:1.0;"/><line style="stroke:#181818;stroke-width:1.0;" x1="59.2344" x2="392.9795" y1="335.9492" y2="335.9492"/><text fill="#000000" font-family="sans-serif" font-size="13" lengthAdjust="spacing" textLength="315.7451" x="71.2344" y="330.6865">Displays list of inactive users and prompts for selection</text><polygon fill="#181818" points="381.9795,363.2402,391.9795,367.2402,381.9795,371.2402,385.9795,367.2402" style="stroke:#181818;stroke-width:1.0;"/><line style="stroke:#181818;stroke-width:1.0;stroke-dasharray:2.0,2.0;" x1="54.2344" x2="387.9795" y1="367.2402" y2="367.2402"/><text fill="#000000" font-family="sans-serif" font-size="13" lengthAdjust="spacing" textLength="132.9453" x="61.2344" y="361.9775">Selects userToActivate</text><polygon fill="#181818" points="581.4185,394.5313,591.4185,398.5313,581.4185,402.5313,585.4185,398.5313" style="stroke:#181818;stroke-width:1.0;"/><line style="stroke:#181818;stroke-width:1.0;" x1="403.9795" x2="587.4185" y1="398.5313" y2="398.5313"/><text fill="#000000" font-family="sans-serif" font-size="13" lengthAdjust="spacing" textLength="167.6099" x="410.9795" y="393.2686">activateUser(userToActivate)</text><polygon fill="#181818" points="780.8574,425.8223,790.8574,429.8223,780.8574,433.8223,784.8574,429.8223" style="stroke:#181818;stroke-width:1.0;"/><line style="stroke:#181818;stroke-width:1.0;" x1="603.4185" x2="786.8574" y1="429.8223" y2="429.8223"/><text fill="#000000" font-family="sans-serif" font-size="13" lengthAdjust="spacing" textLength="167.6099" x="610.4185" y="424.5596">activateUser(userToActivate)</text><polygon fill="#181818" points="1177.2598,457.1133,1187.2598,461.1133,1177.2598,465.1133,1181.2598,461.1133" style="stroke:#181818;stroke-width:1.0;"/><line style="stroke:#181818;stroke-width:1.0;" x1="802.8574" x2="1183.2598" y1="461.1133" y2="461.1133"/><text fill="#000000" font-family="sans-serif" font-size="13" lengthAdjust="spacing" textLength="53.46" x="809.8574" y="455.8506">activate()</text><polygon fill="#181818" points="813.8574,471.1133,803.8574,475.1133,813.8574,479.1133,809.8574,475.1133" style="stroke:#181818;stroke-width:1.0;"/><line style="stroke:#181818;stroke-width:1.0;stroke-dasharray:2.0,2.0;" x1="807.8574" x2="1188.2598" y1="475.1133" y2="475.1133"/><polygon fill="#181818" points="1053.3359,502.4043,1063.3359,506.4043,1053.3359,510.4043,1057.3359,506.4043" style="stroke:#181818;stroke-width:1.0;"/><line style="stroke:#181818;stroke-width:1.0;" x1="802.8574" x2="1059.3359" y1="506.4043" y2="506.4043"/><text fill="#000000" font-family="sans-serif" font-size="13" lengthAdjust="spacing" textLength="122.8208" x="809.8574" y="501.1416">save(userToActivate)</text><polygon fill="#181818" points="813.8574,533.6953,803.8574,537.6953,813.8574,541.6953,809.8574,537.6953" style="stroke:#181818;stroke-width:1.0;"/><line style="stroke:#181818;stroke-width:1.0;stroke-dasharray:2.0,2.0;" x1="807.8574" x2="1069.3359" y1="537.6953" y2="537.6953"/><text fill="#000000" font-family="sans-serif" font-size="13" lengthAdjust="spacing" textLength="118.5107" x="819.8574" y="532.4326">returns updatedUser</text><polygon fill="#181818" points="614.4185,564.9863,604.4185,568.9863,614.4185,572.9863,610.4185,568.9863" style="stroke:#181818;stroke-width:1.0;"/><line style="stroke:#181818;stroke-width:1.0;stroke-dasharray:2.0,2.0;" x1="608.4185" x2="796.8574" y1="568.9863" y2="568.9863"/><text fill="#000000" font-family="sans-serif" font-size="13" lengthAdjust="spacing" textLength="118.5107" x="620.4185" y="563.7236">returns updatedUser</text><polygon fill="#181818" points="414.9795,596.2773,404.9795,600.2773,414.9795,604.2773,410.9795,600.2773" style="stroke:#181818;stroke-width:1.0;"/><line style="stroke:#181818;stroke-width:1.0;stroke-dasharray:2.0,2.0;" x1="408.9795" x2="597.4185" y1="600.2773" y2="600.2773"/><text fill="#000000" font-family="sans-serif" font-size="13" lengthAdjust="spacing" textLength="118.5107" x="420.9795" y="595.0146">returns updatedUser</text><polygon fill="#181818" points="60.2344,627.5684,50.2344,631.5684,60.2344,635.5684,56.2344,631.5684" style="stroke:#181818;stroke-width:1.0;"/><line style="stroke:#181818;stroke-width:1.0;" x1="54.2344" x2="397.9795" y1="631.5684" y2="631.5684"/><text fill="#000000" font-family="sans-serif" font-size="13" lengthAdjust="spacing" textLength="195.0762" x="66.2344" y="626.3057">Displays success/failure message</text><!--SRC=[dLGzRyCW4Dtv5IXJEaJTFLIAqiL3bxhPkY2CAoGC5eSZvT_tm42CqxXkfyI-zy6zEyouCvOUsrvg2Suo_yHWUa46PftaSc3QqLrrv4vUc1Dd4FPSxppiN9SORhIpHYbXgq-TyCqLdEWzwvJBWOs0axEgb1WHrrmuyZtZZMds9NgXNIFiHN8nsKwOU-A7IQR8l_bcqZtZNGmcUlc_8360QyRxLuImg1bJ8U677bwmVLhHMaidiHhwcN31AhCm9898nCU6aIHrA8SiOVyqiuYPa8JrDbExQxIK24dOIFCD8A-JkZqgLKVwaZcrcV67mjCADreDsViMAv1MFD09HoWw_eDCQ2JtdtBUA903Z967MLNqLSAWs1MemZMdfiior6y1KAPREbZJ3mveXtS0X19ODpfDEnsZ2GMWvRhTJvZDRik-16yUzpQDdsPVWcTIoz4Jie3EXh-SowFj0eOhjNgyJGis3YtYs-3qZyLQeQylr0FYRui48-S2uBbZKerMq1uVy5jLUEFDdok6pySt]--></g></svg>