<svg xmlns="http://www.w3.org/2000/svg" xmlns:xlink="http://www.w3.org/1999/xlink" contentStyleType="text/css" height="1097px" preserveAspectRatio="none" style="width:932px;height:1097px;background:#FFFFFF;" version="1.1" viewBox="0 0 932 1097" width="932px" zoomAndPan="magnify"><defs/><g><!--cluster UI Layer (Backoffice Console)--><g id="cluster_UI Layer (Backoffice Console)"><rect fill="none" height="170" rx="2.5" ry="2.5" style="stroke:#000000;stroke-width:1.5;" width="667" x="110" y="7"/><text fill="#000000" font-family="sans-serif" font-size="14" font-style="italic" lengthAdjust="spacing" textLength="94.1787" x="396.4106" y="24.1074">&#171;Presentation&#187;</text><text fill="#000000" font-family="sans-serif" font-size="14" font-weight="bold" lengthAdjust="spacing" textLength="198.3857" x="344.3071" y="42.7285">UI Layer (Backoffice Console)</text></g><!--cluster Application Layer--><g id="cluster_Application Layer"><rect fill="none" height="250" rx="2.5" ry="2.5" style="stroke:#000000;stroke-width:1.5;" width="350" x="152" y="210"/><text fill="#000000" font-family="sans-serif" font-size="14" font-style="italic" lengthAdjust="spacing" textLength="84.0615" x="284.9692" y="227.1074">&#171;Application&#187;</text><text fill="#000000" font-family="sans-serif" font-size="14" font-weight="bold" lengthAdjust="spacing" textLength="117.4688" x="268.2656" y="245.7285">Application Layer</text></g><!--cluster Domain Layer (Framework Core)--><g id="cluster_Domain Layer (Framework Core)"><rect fill="none" height="580" rx="2.5" ry="2.5" style="stroke:#000000;stroke-width:1.5;" width="659" x="7" y="511"/><text fill="#000000" font-family="sans-serif" font-size="14" font-style="italic" lengthAdjust="spacing" textLength="63.8135" x="304.5933" y="528.1074">&#171;Domain&#187;</text><text fill="#000000" font-family="sans-serif" font-size="14" font-weight="bold" lengthAdjust="spacing" textLength="216.2822" x="228.3589" y="546.7285">Domain Layer (Framework Core)</text></g><!--cluster Shodrone User Domain (Context)--><g id="cluster_Shodrone User Domain (Context)"><rect fill="none" height="143" rx="2.5" ry="2.5" style="stroke:#000000;stroke-width:1.5;" width="236" x="690" y="557.5"/><text fill="#000000" font-family="sans-serif" font-size="14" font-style="italic" lengthAdjust="spacing" textLength="63.8135" x="776.0933" y="574.6074">&#171;Domain&#187;</text><text fill="#000000" font-family="sans-serif" font-size="14" font-weight="bold" lengthAdjust="spacing" textLength="220.9033" x="697.5483" y="593.2285">Shodrone User Domain (Context)</text></g><!--class DeactivateUserUI--><g id="elem_DeactivateUserUI"><rect codeLine="9" fill="#F1F1F1" height="85.2422" id="DeactivateUserUI" rx="2.5" ry="2.5" style="stroke:#181818;stroke-width:0.5;" width="307.6611" x="126" y="69.5"/><ellipse cx="220.729" cy="85.5" fill="#ADD1B2" rx="11" ry="11" style="stroke:#181818;stroke-width:1.0;"/><path d="M223.4946,81.375 Q223.6509,81.1563 223.8384,81.0469 Q224.0259,80.9375 224.2446,80.9375 Q224.6196,80.9375 224.854,81.2031 Q225.0884,81.4531 225.0884,82.0625 L225.0884,83.5156 Q225.0884,84.125 224.854,84.3906 Q224.6196,84.6563 224.2446,84.6563 Q223.9009,84.6563 223.6978,84.4531 Q223.4946,84.2656 223.3853,83.75 Q223.3384,83.3906 223.1509,83.2031 Q222.8228,82.8281 222.2134,82.6094 Q221.604,82.3906 220.979,82.3906 Q220.2134,82.3906 219.5728,82.7188 Q218.9478,83.0469 218.4478,83.7969 Q217.9634,84.5469 217.9634,85.5781 L217.9634,86.6719 Q217.9634,87.9063 218.854,88.7344 Q219.7446,89.5469 221.3384,89.5469 Q222.2759,89.5469 222.9321,89.2969 Q223.3228,89.1406 223.7446,88.7031 Q224.0103,88.4375 224.1509,88.3594 Q224.3071,88.2813 224.5103,88.2813 Q224.8384,88.2813 225.0884,88.5469 Q225.354,88.7969 225.354,89.1406 Q225.354,89.4844 225.0103,89.8906 Q224.5103,90.4688 223.7134,90.7969 Q222.6353,91.25 221.3384,91.25 Q219.8228,91.25 218.6196,90.625 Q217.6353,90.125 216.9478,89.0625 Q216.2603,87.9844 216.2603,86.7031 L216.2603,85.5469 Q216.2603,84.2188 216.8696,83.0781 Q217.4946,81.9219 218.5884,81.3125 Q219.6821,80.6875 220.9165,80.6875 Q221.6509,80.6875 222.2915,80.8594 Q222.9478,81.0156 223.4946,81.375 Z " fill="#000000"/><text fill="#000000" font-family="sans-serif" font-size="14" lengthAdjust="spacing" textLength="109.7031" x="241.229" y="91.2969">DeactivateUserUI</text><line style="stroke:#181818;stroke-width:0.5;" x1="127" x2="432.6611" y1="101.5" y2="101.5"/><text fill="#000000" font-family="sans-serif" font-size="14" lengthAdjust="spacing" textLength="295.6611" x="132" y="120.6074">-theController: DeactivateSystemUserController</text><line style="stroke:#181818;stroke-width:1.0;" x1="127" x2="432.6611" y1="128.1211" y2="128.1211"/><text fill="#000000" font-family="sans-serif" font-size="14" lengthAdjust="spacing" textLength="67.7031" x="245.979" y="147.2285">#doShow()</text></g><!--class ActivateUserUI--><g id="elem_ActivateUserUI"><rect codeLine="14" fill="#F1F1F1" height="97.8242" id="ActivateUserUI" rx="2.5" ry="2.5" style="stroke:#181818;stroke-width:0.5;" width="291.3164" x="469.5" y="63"/><ellipse cx="564.229" cy="85.291" fill="#ADD1B2" rx="11" ry="11" style="stroke:#181818;stroke-width:1.0;"/><path d="M566.9946,81.166 Q567.1509,80.9473 567.3384,80.8379 Q567.5259,80.7285 567.7446,80.7285 Q568.1196,80.7285 568.354,80.9941 Q568.5884,81.2441 568.5884,81.8535 L568.5884,83.3066 Q568.5884,83.916 568.354,84.1816 Q568.1196,84.4473 567.7446,84.4473 Q567.4009,84.4473 567.1978,84.2441 Q566.9946,84.0566 566.8853,83.541 Q566.8384,83.1816 566.6509,82.9941 Q566.3228,82.6191 565.7134,82.4004 Q565.104,82.1816 564.479,82.1816 Q563.7134,82.1816 563.0728,82.5098 Q562.4478,82.8379 561.9478,83.5879 Q561.4634,84.3379 561.4634,85.3691 L561.4634,86.4629 Q561.4634,87.6973 562.354,88.5254 Q563.2446,89.3379 564.8384,89.3379 Q565.7759,89.3379 566.4321,89.0879 Q566.8228,88.9316 567.2446,88.4941 Q567.5103,88.2285 567.6509,88.1504 Q567.8071,88.0723 568.0103,88.0723 Q568.3384,88.0723 568.5884,88.3379 Q568.854,88.5879 568.854,88.9316 Q568.854,89.2754 568.5103,89.6816 Q568.0103,90.2598 567.2134,90.5879 Q566.1353,91.041 564.8384,91.041 Q563.3228,91.041 562.1196,90.416 Q561.1353,89.916 560.4478,88.8535 Q559.7603,87.7754 559.7603,86.4941 L559.7603,85.3379 Q559.7603,84.0098 560.3696,82.8691 Q560.9946,81.7129 562.0884,81.1035 Q563.1821,80.4785 564.4165,80.4785 Q565.1509,80.4785 565.7915,80.6504 Q566.4478,80.8066 566.9946,81.166 Z " fill="#000000"/><text fill="#000000" font-family="sans-serif" font-size="12" font-style="italic" lengthAdjust="spacing" textLength="79.3828" x="591.7168" y="80.9492">&#171;Hypothetical&#187;</text><text fill="#000000" font-family="sans-serif" font-size="14" lengthAdjust="spacing" textLength="93.3584" x="584.729" y="99.0684">ActivateUserUI</text><line style="stroke:#181818;stroke-width:0.5;" x1="470.5" x2="759.8164" y1="107.582" y2="107.582"/><text fill="#000000" font-family="sans-serif" font-size="14" lengthAdjust="spacing" textLength="279.3164" x="475.5" y="126.6895">-theController: ActivateSystemUserController</text><line style="stroke:#181818;stroke-width:1.0;" x1="470.5" x2="759.8164" y1="134.2031" y2="134.2031"/><text fill="#000000" font-family="sans-serif" font-size="14" lengthAdjust="spacing" textLength="67.7031" x="581.3066" y="153.3105">#doShow()</text></g><!--class DeactivateActiveSystemUserController--><g id="elem_DeactivateActiveSystemUserController"><rect codeLine="22" fill="#F1F1F1" height="178.3477" id="DeactivateActiveSystemUserController" rx="2.5" ry="2.5" style="stroke:#181818;stroke-width:0.5;" width="318.1406" x="168" y="266"/><ellipse cx="203.2267" cy="282" fill="#ADD1B2" rx="11" ry="11" style="stroke:#181818;stroke-width:1.0;"/><path d="M205.9923,277.875 Q206.1486,277.6563 206.3361,277.5469 Q206.5236,277.4375 206.7423,277.4375 Q207.1173,277.4375 207.3517,277.7031 Q207.5861,277.9531 207.5861,278.5625 L207.5861,280.0156 Q207.5861,280.625 207.3517,280.8906 Q207.1173,281.1563 206.7423,281.1563 Q206.3986,281.1563 206.1955,280.9531 Q205.9923,280.7656 205.883,280.25 Q205.8361,279.8906 205.6486,279.7031 Q205.3205,279.3281 204.7111,279.1094 Q204.1017,278.8906 203.4767,278.8906 Q202.7111,278.8906 202.0705,279.2188 Q201.4455,279.5469 200.9455,280.2969 Q200.4611,281.0469 200.4611,282.0781 L200.4611,283.1719 Q200.4611,284.4063 201.3517,285.2344 Q202.2423,286.0469 203.8361,286.0469 Q204.7736,286.0469 205.4298,285.7969 Q205.8205,285.6406 206.2423,285.2031 Q206.508,284.9375 206.6486,284.8594 Q206.8048,284.7813 207.008,284.7813 Q207.3361,284.7813 207.5861,285.0469 Q207.8517,285.2969 207.8517,285.6406 Q207.8517,285.9844 207.508,286.3906 Q207.008,286.9688 206.2111,287.2969 Q205.133,287.75 203.8361,287.75 Q202.3205,287.75 201.1173,287.125 Q200.133,286.625 199.4455,285.5625 Q198.758,284.4844 198.758,283.2031 L198.758,282.0469 Q198.758,280.7188 199.3673,279.5781 Q199.9923,278.4219 201.0861,277.8125 Q202.1798,277.1875 203.4142,277.1875 Q204.1486,277.1875 204.7892,277.3594 Q205.4455,277.5156 205.9923,277.875 Z " fill="#000000"/><text fill="#000000" font-family="sans-serif" font-size="14" lengthAdjust="spacing" textLength="241.1924" x="221.7215" y="287.7969">DeactivateActiveSystemUserController</text><line style="stroke:#181818;stroke-width:0.5;" x1="169" x2="485.1406" y1="298" y2="298"/><text fill="#000000" font-family="sans-serif" font-size="14" lengthAdjust="spacing" textLength="175.0889" x="239.5259" y="317.1074">-authz: AuthorizationService</text><text fill="#000000" font-family="sans-serif" font-size="14" lengthAdjust="spacing" textLength="220.9717" x="216.5845" y="335.7285">-userSvc: UserManagementService</text><line style="stroke:#181818;stroke-width:1.0;" x1="169" x2="485.1406" y1="343.2422" y2="343.2422"/><text fill="#000000" font-family="sans-serif" font-size="14" lengthAdjust="spacing" textLength="290.5684" x="181.7861" y="362.3496">+activateUser(user: SystemUser): SystemUser</text><text fill="#000000" font-family="sans-serif" font-size="14" lengthAdjust="spacing" textLength="306.1406" x="174" y="380.9707">+deactivateUser(user: SystemUser): SystemUser</text><text fill="#000000" font-family="sans-serif" font-size="14" lengthAdjust="spacing" textLength="237.6924" x="208.2241" y="399.5918">+activeUsers(): Iterable&lt;SystemUser&gt;</text><text fill="#000000" font-family="sans-serif" font-size="14" lengthAdjust="spacing" textLength="248.5889" x="202.7759" y="418.2129">+inactiveUsers(): Iterable&lt;SystemUser&gt;</text><text fill="#000000" font-family="sans-serif" font-size="14" lengthAdjust="spacing" textLength="3.8896" x="325.1255" y="436.834">&#160;</text></g><!--class SystemUser--><g id="elem_SystemUser"><rect codeLine="35" fill="#F1F1F1" height="265.4141" id="SystemUser" rx="2.5" ry="2.5" style="stroke:#181818;stroke-width:0.5;" width="171.5371" x="478" y="810"/><ellipse cx="509.5771" cy="832.291" fill="#ADD1B2" rx="11" ry="11" style="stroke:#181818;stroke-width:1.0;"/><path d="M512.3427,828.166 Q512.4989,827.9473 512.6864,827.8379 Q512.8739,827.7285 513.0927,827.7285 Q513.4677,827.7285 513.7021,827.9941 Q513.9364,828.2441 513.9364,828.8535 L513.9364,830.3066 Q513.9364,830.916 513.7021,831.1816 Q513.4677,831.4473 513.0927,831.4473 Q512.7489,831.4473 512.5458,831.2441 Q512.3427,831.0566 512.2333,830.541 Q512.1864,830.1816 511.9989,829.9941 Q511.6708,829.6191 511.0614,829.4004 Q510.4521,829.1816 509.8271,829.1816 Q509.0614,829.1816 508.4208,829.5098 Q507.7958,829.8379 507.2958,830.5879 Q506.8114,831.3379 506.8114,832.3691 L506.8114,833.4629 Q506.8114,834.6973 507.7021,835.5254 Q508.5927,836.3379 510.1864,836.3379 Q511.1239,836.3379 511.7802,836.0879 Q512.1708,835.9316 512.5927,835.4941 Q512.8583,835.2285 512.9989,835.1504 Q513.1552,835.0723 513.3583,835.0723 Q513.6864,835.0723 513.9364,835.3379 Q514.2021,835.5879 514.2021,835.9316 Q514.2021,836.2754 513.8583,836.6816 Q513.3583,837.2598 512.5614,837.5879 Q511.4833,838.041 510.1864,838.041 Q508.6708,838.041 507.4677,837.416 Q506.4833,836.916 505.7958,835.8535 Q505.1083,834.7754 505.1083,833.4941 L505.1083,832.3379 Q505.1083,831.0098 505.7177,829.8691 Q506.3427,828.7129 507.4364,828.1035 Q508.5302,827.4785 509.7646,827.4785 Q510.4989,827.4785 511.1396,827.6504 Q511.7958,827.8066 512.3427,828.166 Z " fill="#000000"/><text fill="#000000" font-family="sans-serif" font-size="12" font-style="italic" lengthAdjust="spacing" textLength="106.6992" x="525.2608" y="827.9492">&#171;Framework Entity&#187;</text><text fill="#000000" font-family="sans-serif" font-size="14" lengthAdjust="spacing" textLength="76.2344" x="540.4933" y="846.0684">SystemUser</text><line style="stroke:#181818;stroke-width:0.5;" x1="479" x2="648.5371" y1="854.582" y2="854.582"/><text fill="#000000" font-family="sans-serif" font-size="14" lengthAdjust="spacing" textLength="139.2754" x="494.1309" y="873.6895">-username: Username</text><text fill="#000000" font-family="sans-serif" font-size="14" lengthAdjust="spacing" textLength="133.8271" x="496.855" y="892.3105">-password: Password</text><text fill="#000000" font-family="sans-serif" font-size="14" lengthAdjust="spacing" textLength="84.8066" x="521.3652" y="910.9316">-name: Name</text><text fill="#000000" font-family="sans-serif" font-size="14" lengthAdjust="spacing" textLength="132.2617" x="497.6377" y="929.5527">-email: EmailAddress</text><text fill="#000000" font-family="sans-serif" font-size="14" lengthAdjust="spacing" textLength="108.9443" x="509.2964" y="948.1738">-roles: Set&lt;Role&gt;</text><text fill="#000000" font-family="sans-serif" font-size="14" lengthAdjust="spacing" textLength="98.8408" x="514.3481" y="966.7949">-active: boolean</text><text fill="#000000" font-family="sans-serif" font-size="14" lengthAdjust="spacing" textLength="134.627" x="496.4551" y="985.416">-createdOn: Calendar</text><text fill="#000000" font-family="sans-serif" font-size="14" lengthAdjust="spacing" textLength="159.5371" x="484" y="1004.0371">-deactivatedOn: Calendar</text><line style="stroke:#181818;stroke-width:1.0;" x1="479" x2="648.5371" y1="1011.5508" y2="1011.5508"/><text fill="#000000" font-family="sans-serif" font-size="14" lengthAdjust="spacing" textLength="123.3408" x="502.0981" y="1030.6582">+isActive(): boolean</text><text fill="#000000" font-family="sans-serif" font-size="14" lengthAdjust="spacing" textLength="123.3545" x="502.0913" y="1049.2793">+activate(): boolean</text><text fill="#000000" font-family="sans-serif" font-size="14" lengthAdjust="spacing" textLength="138.9268" x="494.3052" y="1067.9004">+deactivate(): boolean</text></g><!--class UserManagementService--><g id="elem_UserManagementService"><rect codeLine="50" fill="#F1F1F1" height="164.3086" id="UserManagementService" rx="2.5" ry="2.5" style="stroke:#181818;stroke-width:0.5;" width="318.1406" x="168" y="567"/><ellipse cx="243.8413" cy="589.291" fill="#B4A7E5" rx="11" ry="11" style="stroke:#181818;stroke-width:1.0;"/><path d="M244.7944,585.9316 L244.7944,592.5879 L246.5132,592.5879 Q247.1226,592.5879 247.3882,592.8223 Q247.6538,593.0566 247.6538,593.4473 Q247.6538,593.8223 247.3882,594.0566 Q247.1226,594.291 246.5132,594.291 L241.3726,594.291 Q240.7632,594.291 240.4976,594.0566 Q240.2319,593.8223 240.2319,593.4316 Q240.2319,593.0566 240.4976,592.8223 Q240.7632,592.5879 241.3726,592.5879 L243.0913,592.5879 L243.0913,585.9316 L241.3726,585.9316 Q240.7632,585.9316 240.4976,585.6973 Q240.2319,585.4629 240.2319,585.0723 Q240.2319,584.6973 240.4976,584.4629 Q240.7632,584.2285 241.3726,584.2285 L246.5132,584.2285 Q247.1226,584.2285 247.3882,584.4629 Q247.6538,584.6973 247.6538,585.0723 Q247.6538,585.4629 247.3882,585.6973 Q247.1226,585.9316 246.5132,585.9316 L244.7944,585.9316 Z " fill="#000000"/><text fill="#000000" font-family="sans-serif" font-size="12" font-style="italic" lengthAdjust="spacing" textLength="116.7012" x="284.9697" y="584.9492">&#171;Framework Service&#187;</text><text fill="#000000" font-family="sans-serif" font-size="14" font-style="italic" lengthAdjust="spacing" textLength="157.958" x="264.3413" y="603.0684">UserManagementService</text><line style="stroke:#181818;stroke-width:0.5;" x1="169" x2="485.1406" y1="611.582" y2="611.582"/><text fill="#000000" font-family="sans-serif" font-size="14" lengthAdjust="spacing" textLength="306.1406" x="174" y="630.6895">+deactivateUser(user: SystemUser): SystemUser</text><text fill="#000000" font-family="sans-serif" font-size="14" lengthAdjust="spacing" textLength="290.5684" x="174" y="649.3105">+activateUser(user: SystemUser): SystemUser</text><text fill="#000000" font-family="sans-serif" font-size="14" lengthAdjust="spacing" textLength="237.6924" x="174" y="667.9316">+activeUsers(): Iterable&lt;SystemUser&gt;</text><text fill="#000000" font-family="sans-serif" font-size="14" lengthAdjust="spacing" textLength="248.5889" x="174" y="686.5527">+inactiveUsers(): Iterable&lt;SystemUser&gt;</text><text fill="#000000" font-family="sans-serif" font-size="14" lengthAdjust="spacing" textLength="215.127" x="174" y="705.1738">+allUsers(): Iterable&lt;SystemUser&gt;</text><text fill="#000000" font-family="sans-serif" font-size="14" lengthAdjust="spacing" textLength="242.334" x="174" y="723.7949">+save(user: SystemUser): SystemUser</text></g><!--class UserRepository--><g id="elem_UserRepository"><rect codeLine="59" fill="#F1F1F1" height="127.0664" id="UserRepository" rx="2.5" ry="2.5" style="stroke:#181818;stroke-width:0.5;" width="420.1123" x="23" y="879"/><ellipse cx="163.7837" cy="901.291" fill="#B4A7E5" rx="11" ry="11" style="stroke:#181818;stroke-width:1.0;"/><path d="M164.7368,897.9316 L164.7368,904.5879 L166.4556,904.5879 Q167.0649,904.5879 167.3306,904.8223 Q167.5962,905.0566 167.5962,905.4473 Q167.5962,905.8223 167.3306,906.0566 Q167.0649,906.291 166.4556,906.291 L161.3149,906.291 Q160.7056,906.291 160.4399,906.0566 Q160.1743,905.8223 160.1743,905.4316 Q160.1743,905.0566 160.4399,904.8223 Q160.7056,904.5879 161.3149,904.5879 L163.0337,904.5879 L163.0337,897.9316 L161.3149,897.9316 Q160.7056,897.9316 160.4399,897.6973 Q160.1743,897.4629 160.1743,897.0723 Q160.1743,896.6973 160.4399,896.4629 Q160.7056,896.2285 161.3149,896.2285 L166.4556,896.2285 Q167.0649,896.2285 167.3306,896.4629 Q167.5962,896.6973 167.5962,897.0723 Q167.5962,897.4629 167.3306,897.6973 Q167.0649,897.9316 166.4556,897.9316 L164.7368,897.9316 Z " fill="#000000"/><text fill="#000000" font-family="sans-serif" font-size="12" font-style="italic" lengthAdjust="spacing" textLength="134.0449" x="182.2837" y="896.9492">&#171;Framework Repository&#187;</text><text fill="#000000" font-family="sans-serif" font-size="14" font-style="italic" lengthAdjust="spacing" textLength="96.4756" x="201.0684" y="915.0684">UserRepository</text><line style="stroke:#181818;stroke-width:0.5;" x1="24" x2="442.1123" y1="923.582" y2="923.582"/><text fill="#000000" font-family="sans-serif" font-size="14" lengthAdjust="spacing" textLength="242.334" x="29" y="942.6895">+save(user: SystemUser): SystemUser</text><text fill="#000000" font-family="sans-serif" font-size="14" lengthAdjust="spacing" textLength="408.1123" x="29" y="961.3105">+findByUsername(username: Username): Optional&lt;SystemUser&gt;</text><text fill="#000000" font-family="sans-serif" font-size="14" lengthAdjust="spacing" textLength="240.8164" x="29" y="979.9316">+findAllActive(): Iterable&lt;SystemUser&gt;</text><text fill="#000000" font-family="sans-serif" font-size="14" lengthAdjust="spacing" textLength="250.9404" x="29" y="998.5527">+findAllInactive(): Iterable&lt;SystemUser&gt;</text></g><!--class ShodroneUser--><g id="elem_ShodroneUser"><rect codeLine="68" fill="#F1F1F1" height="71.2031" id="ShodroneUser" rx="2.5" ry="2.5" style="stroke:#181818;stroke-width:0.5;" width="174.5723" x="706.5" y="613.5"/><ellipse cx="745.0336" cy="635.791" fill="#ADD1B2" rx="11" ry="11" style="stroke:#181818;stroke-width:1.0;"/><path d="M747.7992,631.666 Q747.9555,631.4473 748.143,631.3379 Q748.3305,631.2285 748.5492,631.2285 Q748.9242,631.2285 749.1586,631.4941 Q749.393,631.7441 749.393,632.3535 L749.393,633.8066 Q749.393,634.416 749.1586,634.6816 Q748.9242,634.9473 748.5492,634.9473 Q748.2055,634.9473 748.0023,634.7441 Q747.7992,634.5566 747.6898,634.041 Q747.643,633.6816 747.4555,633.4941 Q747.1273,633.1191 746.518,632.9004 Q745.9086,632.6816 745.2836,632.6816 Q744.518,632.6816 743.8773,633.0098 Q743.2523,633.3379 742.7523,634.0879 Q742.268,634.8379 742.268,635.8691 L742.268,636.9629 Q742.268,638.1973 743.1586,639.0254 Q744.0492,639.8379 745.643,639.8379 Q746.5805,639.8379 747.2367,639.5879 Q747.6273,639.4316 748.0492,638.9941 Q748.3148,638.7285 748.4555,638.6504 Q748.6117,638.5723 748.8148,638.5723 Q749.143,638.5723 749.393,638.8379 Q749.6586,639.0879 749.6586,639.4316 Q749.6586,639.7754 749.3148,640.1816 Q748.8148,640.7598 748.018,641.0879 Q746.9398,641.541 745.643,641.541 Q744.1273,641.541 742.9242,640.916 Q741.9398,640.416 741.2523,639.3535 Q740.5648,638.2754 740.5648,636.9941 L740.5648,635.8379 Q740.5648,634.5098 741.1742,633.3691 Q741.7992,632.2129 742.893,631.6035 Q743.9867,630.9785 745.2211,630.9785 Q745.9555,630.9785 746.5961,631.1504 Q747.2523,631.3066 747.7992,631.666 Z " fill="#000000"/><text fill="#000000" font-family="sans-serif" font-size="12" font-style="italic" lengthAdjust="spacing" textLength="94.0723" x="762.3648" y="631.4492">&#171;AggregateRoot&#187;</text><text fill="#000000" font-family="sans-serif" font-size="14" lengthAdjust="spacing" textLength="90.2754" x="764.2633" y="649.5684">ShodroneUser</text><line style="stroke:#181818;stroke-width:0.5;" x1="707.5" x2="880.0723" y1="658.082" y2="658.082"/><text fill="#000000" font-family="sans-serif" font-size="14" lengthAdjust="spacing" textLength="162.5723" x="712.5" y="677.1895">-systemUser: SystemUser</text></g><!--link DeactivateUserUI to DeactivateActiveSystemUserController--><g id="link_DeactivateUserUI_DeactivateActiveSystemUserController"><path codeLine="73" d="M288.13,154.7 C294.1,185.29 301.2613,222.041 308.6713,260.031 " fill="none" id="DeactivateUserUI-to-DeactivateActiveSystemUserController" style="stroke:#181818;stroke-width:1.0;stroke-dasharray:7.0,7.0;"/><polygon fill="#181818" points="309.82,265.92,312.023,256.3207,308.8628,261.0125,304.171,257.8522,309.82,265.92" style="stroke:#181818;stroke-width:1.0;"/></g><!--link ActivateUserUI to DeactivateActiveSystemUserController--><g id="link_ActivateUserUI_DeactivateActiveSystemUserController"><path codeLine="74" d="M557.41,161.19 C521.63,191.14 479.1416,226.6896 436.8716,262.0596 " fill="none" id="ActivateUserUI-to-DeactivateActiveSystemUserController" style="stroke:#181818;stroke-width:1.0;stroke-dasharray:7.0,7.0;"/><polygon fill="#181818" points="432.27,265.91,441.7393,263.2021,436.1046,262.7013,436.6054,257.0667,432.27,265.91" style="stroke:#181818;stroke-width:1.0;"/></g><!--link DeactivateActiveSystemUserController to UserManagementService--><g id="link_DeactivateActiveSystemUserController_UserManagementService"><path codeLine="76" d="M327,444.01 C327,482.96 327,522.5 327,560.66 " fill="none" id="DeactivateActiveSystemUserController-to-UserManagementService" style="stroke:#181818;stroke-width:1.0;"/><polygon fill="#181818" points="327,566.66,331,557.66,327,561.66,323,557.66,327,566.66" style="stroke:#181818;stroke-width:1.0;"/><polygon fill="#000000" points="332,490.6455,334.9389,481.6004,329.0611,481.6004,332,490.6455" style="stroke:#000000;stroke-width:1.0;"/><text fill="#000000" font-family="sans-serif" font-size="13" lengthAdjust="spacing" textLength="27.46" x="341" y="491.0283">uses</text></g><!--link UserManagementService to UserRepository--><g id="link_UserManagementService_UserRepository"><path codeLine="78" d="M300.82,731.2 C285.77,777.86 268.9917,829.8796 255.0717,873.0396 " fill="none" id="UserManagementService-to-UserRepository" style="stroke:#181818;stroke-width:1.0;"/><polygon fill="#181818" points="253.23,878.75,259.7995,871.4123,254.7648,873.9914,252.1857,868.9567,253.23,878.75" style="stroke:#181818;stroke-width:1.0;"/><polygon fill="#000000" points="294.4652,775.4041,300.0387,767.6979,294.4447,765.8936,294.4652,775.4041" style="stroke:#000000;stroke-width:1.0;"/><text fill="#000000" font-family="sans-serif" font-size="13" lengthAdjust="spacing" textLength="27.46" x="305" y="776.0283">uses</text></g><!--link UserManagementService to SystemUser--><g id="link_UserManagementService_SystemUser"><path codeLine="79" d="M396.03,731.38 C417.06,756.45 440.13,784.24 461,810 C466.57,816.87 468.5274,819.2803 474.2574,826.4603 " fill="none" id="UserManagementService-to-SystemUser" style="stroke:#181818;stroke-width:1.0;stroke-dasharray:7.0,7.0;"/><polygon fill="#181818" points="478,831.15,475.5126,821.6204,474.8812,827.2419,469.2597,826.6106,478,831.15" style="stroke:#181818;stroke-width:1.0;"/><polygon fill="#000000" points="443.1767,774.5066,439.6995,765.6545,435.1604,769.389,443.1767,774.5066" style="stroke:#000000;stroke-width:1.0;"/><text fill="#000000" font-family="sans-serif" font-size="13" lengthAdjust="spacing" textLength="53.479" x="449" y="776.0283">manages</text></g><!--link ShodroneUser to SystemUser--><g id="link_ShodroneUser_SystemUser"><path codeLine="81" d="M766.71,684.58 C738.04,720.93 691.44,779.98 650.15,832.31 " fill="none" id="ShodroneUser-SystemUser" style="stroke:#181818;stroke-width:1.0;"/><polygon fill="#000000" points="707.9029,774.5708,715.8128,769.2903,711.1984,765.6494,707.9029,774.5708" style="stroke:#000000;stroke-width:1.0;"/><text fill="#000000" font-family="sans-serif" font-size="13" lengthAdjust="spacing" textLength="88.8799" x="720" y="776.0283">associated with</text><text fill="#000000" font-family="sans-serif" font-size="13" lengthAdjust="spacing" textLength="7.23" x="754.0937" y="706.7437">1</text><text fill="#000000" font-family="sans-serif" font-size="13" lengthAdjust="spacing" textLength="7.23" x="657.6028" y="819.5042">1</text></g><!--SRC=[fLNRZjem47tFLupeIr35gdsD45BsKXMfxQwW-m4c6S32iIFRG4Er_zvnOd9PijkKve4OppapapFZiTbncJFDCiXPicCRNDf286XCB9CRWO6f0IcksLxOd_ZBne9lP8RIGa8_g5keH31ZOcirN-qjpXCbb_o4y2a8jZn5m2ot1MIOhL2R8F11OVGyXs-iG0tXBMsfzPed27TA6YLmF8Bfz4cZeLZCSYLdC_WT03rbCBX7bbX-O1QV3MhoL1dTCm6xHN9ZjH82TTJ2BWjZCNECnjxm9lNo0wHgkLN7S5nklRG2nzsmq-dN8bSKqFA4YJh9tZpY_ytYfILUdEU2GZffAXMTOAtDD_Kgi-ZDeSvz0cnljoVAc5vAyrFfSOdwG1MgCNiYBmz91CxBToOfBTSUhs3dp_a8xOA5ZXn1ayMu_QUcf7W5gQIK11CIOawzobO2fmrqLcEv78BkaVzUPOpBS_z-eLE0HwLtrBwwwjqAuAjGrQ1nIVQ6yY0jjqLThqfOITPAMRVoXfoy42MDuCcllA52_sYGIC5510_k5QSfdIFZBLHgDAGRskc2bZE_NSaGmKhH9fD-Dz58sgUFCe8x9b2cJ7jBKvaUQrLpKjTKpUQ4RJjkUk7IqZZksbvS5RWRF6j6OwAtvpgo-hrQrokwwPzxTdZp3MqzxrM88J33IEk_PTaZv09pPRXLkkWes6otH1mKmm7NNAQtnRc3mykc9j9ZxWOB4ptVukYn44q3lVFT7ZltYhw3xXvY6gwfLh8I0VoH3jr0fFlkyXJNvzZJ_4cEDnkD6sgIXLBsrGrWwkWN2fMfN5nZDpUpGRCwYA_a1ODkWibaziOHYznuCa13iTz-PhPwggRqCrpghT4OGLP2oXWTgKUVH-I-V7NmL1ELS3UAuCZjbdX_0000]--></g></svg>