<?xml version="1.0" encoding="UTF-8" standalone="no"?><svg xmlns="http://www.w3.org/2000/svg" xmlns:xlink="http://www.w3.org/1999/xlink" contentStyleType="text/css" height="1142px" preserveAspectRatio="none" style="width:2494px;height:1142px;background:#FFFFFF;" version="1.1" viewBox="0 0 2494 1142" width="2494px" zoomAndPan="magnify"><defs/><g><text fill="#000000" font-family="FG Virgil" font-size="20" font-weight="bold" lengthAdjust="spacing" textLength="598" x="947.25" y="34.3359">Sequence Diagram US235: List Customer's Show Requests</text><rect fill="#FFFFFF" height="893.3125" style="stroke:#181818;stroke-width:1.0;" width="10" x="134" y="143.1094"/><rect fill="#FFFFFF" height="863.7578" style="stroke:#181818;stroke-width:1.0;" width="10" x="799" y="172.6641"/><rect fill="#FFFFFF" height="187.7734" style="stroke:#181818;stroke-width:1.0;" width="10" x="1056.5" y="210.2188"/><rect fill="#FFFFFF" height="112.6641" style="stroke:#181818;stroke-width:1.0;" width="10" x="1056.5" y="660.875"/><rect fill="#FFFFFF" height="187.7734" style="stroke:#181818;stroke-width:1.0;" width="10" x="1356" y="435.5469"/><rect fill="#FFFFFF" height="112.6641" style="stroke:#181818;stroke-width:1.0;" width="10" x="1356" y="886.2031"/><rect fill="#FFFFFF" height="37.5547" style="stroke:#181818;stroke-width:1.0;" width="10" x="1606.5" y="247.7734"/><rect fill="#FFFFFF" height="37.5547" style="stroke:#181818;stroke-width:1.0;" width="10" x="1606.5" y="473.1016"/><rect fill="#FFFFFF" height="75.1094" style="stroke:#181818;stroke-width:1.0;" width="10" x="1882" y="322.8828"/><rect fill="#FFFFFF" height="75.1094" style="stroke:#181818;stroke-width:1.0;" width="10" x="1882" y="548.2109"/><rect fill="#FFFFFF" height="37.5547" style="stroke:#181818;stroke-width:1.0;" width="10" x="2151" y="698.4297"/><rect fill="#FFFFFF" height="37.5547" style="stroke:#181818;stroke-width:1.0;" width="10" x="2362" y="923.7578"/><line style="stroke:#181818;stroke-width:0.5;stroke-dasharray:5.0,5.0;" x1="139" x2="139" y1="133.1094" y2="1054.4219"/><line style="stroke:#181818;stroke-width:0.5;stroke-dasharray:5.0,5.0;" x1="803.5" x2="803.5" y1="133.1094" y2="1054.4219"/><line style="stroke:#181818;stroke-width:0.5;stroke-dasharray:5.0,5.0;" x1="1061.5" x2="1061.5" y1="133.1094" y2="1054.4219"/><line style="stroke:#181818;stroke-width:0.5;stroke-dasharray:5.0,5.0;" x1="1360.5" x2="1360.5" y1="133.1094" y2="1054.4219"/><line style="stroke:#181818;stroke-width:0.5;stroke-dasharray:5.0,5.0;" x1="1611.5" x2="1611.5" y1="133.1094" y2="1054.4219"/><line style="stroke:#181818;stroke-width:0.5;stroke-dasharray:5.0,5.0;" x1="1886.5" x2="1886.5" y1="133.1094" y2="1054.4219"/><line style="stroke:#181818;stroke-width:0.5;stroke-dasharray:5.0,5.0;" x1="2155.5" x2="2155.5" y1="133.1094" y2="1054.4219"/><line style="stroke:#181818;stroke-width:0.5;stroke-dasharray:5.0,5.0;" x1="2366.5" x2="2366.5" y1="133.1094" y2="1054.4219"/><text fill="#000000" font-family="FG Virgil" font-size="20" lengthAdjust="spacing" textLength="262" x="5" y="128.8906">CRM Manager/Collaborator</text><ellipse cx="139" cy="58.0547" fill="#E3E3E3" rx="8" ry="8" style="stroke:#181818;stroke-width:0.5;"/><path d="M139,66.0547 L139,93.0547 M126,74.0547 L152,74.0547 M139,93.0547 L126,108.0547 M139,93.0547 L152,108.0547 " fill="none" style="stroke:#181818;stroke-width:0.5;"/><text fill="#000000" font-family="FG Virgil" font-size="20" lengthAdjust="spacing" textLength="262" x="5" y="1072.7578">CRM Manager/Collaborator</text><ellipse cx="139" cy="1085.4766" fill="#E3E3E3" rx="8" ry="8" style="stroke:#181818;stroke-width:0.5;"/><path d="M139,1093.4766 L139,1120.4766 M126,1101.4766 L152,1101.4766 M139,1120.4766 L126,1135.4766 M139,1120.4766 L152,1135.4766 " fill="none" style="stroke:#181818;stroke-width:0.5;"/><rect fill="#E3E3E3" height="61.1094" rx="2.5" ry="2.5" style="stroke:#181818;stroke-width:0.5;" width="201" x="703.5" y="71"/><text fill="#000000" font-family="FG Virgil" font-size="20" font-style="italic" lengthAdjust="spacing" textLength="140" x="734" y="97.3359">«presentation»</text><text fill="#000000" font-family="FG Virgil" font-size="20" lengthAdjust="spacing" textLength="187" x="710.5" y="120.8906">:ListShowRequestUI</text><rect fill="#E3E3E3" height="61.1094" rx="2.5" ry="2.5" style="stroke:#181818;stroke-width:0.5;" width="201" x="703.5" y="1053.4219"/><text fill="#000000" font-family="FG Virgil" font-size="20" font-style="italic" lengthAdjust="spacing" textLength="140" x="734" y="1079.7578">«presentation»</text><text fill="#000000" font-family="FG Virgil" font-size="20" lengthAdjust="spacing" textLength="187" x="710.5" y="1103.3125">:ListShowRequestUI</text><rect fill="#E3E3E3" height="61.1094" rx="2.5" ry="2.5" style="stroke:#181818;stroke-width:0.5;" width="294" x="914.5" y="71"/><text fill="#000000" font-family="FG Virgil" font-size="20" font-style="italic" lengthAdjust="spacing" textLength="127" x="998" y="97.3359">«application»</text><text fill="#000000" font-family="FG Virgil" font-size="20" lengthAdjust="spacing" textLength="280" x="921.5" y="120.8906">:ListShodroneUsersController</text><rect fill="#E3E3E3" height="61.1094" rx="2.5" ry="2.5" style="stroke:#181818;stroke-width:0.5;" width="294" x="914.5" y="1053.4219"/><text fill="#000000" font-family="FG Virgil" font-size="20" font-style="italic" lengthAdjust="spacing" textLength="127" x="998" y="1079.7578">«application»</text><text fill="#000000" font-family="FG Virgil" font-size="20" lengthAdjust="spacing" textLength="280" x="921.5" y="1103.3125">:ListShodroneUsersController</text><rect fill="#E3E3E3" height="61.1094" rx="2.5" ry="2.5" style="stroke:#181818;stroke-width:0.5;" width="285" x="1218.5" y="71"/><text fill="#000000" font-family="FG Virgil" font-size="20" font-style="italic" lengthAdjust="spacing" textLength="127" x="1297.5" y="97.3359">«application»</text><text fill="#000000" font-family="FG Virgil" font-size="20" lengthAdjust="spacing" textLength="271" x="1225.5" y="120.8906">:FindShowRequestController</text><rect fill="#E3E3E3" height="61.1094" rx="2.5" ry="2.5" style="stroke:#181818;stroke-width:0.5;" width="285" x="1218.5" y="1053.4219"/><text fill="#000000" font-family="FG Virgil" font-size="20" font-style="italic" lengthAdjust="spacing" textLength="127" x="1297.5" y="1079.7578">«application»</text><text fill="#000000" font-family="FG Virgil" font-size="20" lengthAdjust="spacing" textLength="271" x="1225.5" y="1103.3125">:FindShowRequestController</text><rect fill="#E3E3E3" height="61.1094" rx="2.5" ry="2.5" style="stroke:#181818;stroke-width:0.5;" width="196" x="1513.5" y="71"/><text fill="#000000" font-family="FG Virgil" font-size="20" font-style="italic" lengthAdjust="spacing" textLength="71" x="1576" y="97.3359">«static»</text><text fill="#000000" font-family="FG Virgil" font-size="20" lengthAdjust="spacing" textLength="182" x="1520.5" y="120.8906">PersistenceContext</text><rect fill="#E3E3E3" height="61.1094" rx="2.5" ry="2.5" style="stroke:#181818;stroke-width:0.5;" width="196" x="1513.5" y="1053.4219"/><text fill="#000000" font-family="FG Virgil" font-size="20" font-style="italic" lengthAdjust="spacing" textLength="71" x="1576" y="1079.7578">«static»</text><text fill="#000000" font-family="FG Virgil" font-size="20" lengthAdjust="spacing" textLength="182" x="1520.5" y="1103.3125">PersistenceContext</text><rect fill="#E3E3E3" height="61.1094" rx="2.5" ry="2.5" style="stroke:#181818;stroke-width:0.5;" width="185" x="1794.5" y="71"/><text fill="#000000" font-family="FG Virgil" font-size="20" font-style="italic" lengthAdjust="spacing" textLength="123" x="1825.5" y="97.3359">«framework»</text><text fill="#000000" font-family="FG Virgil" font-size="20" lengthAdjust="spacing" textLength="171" x="1801.5" y="120.8906">RepositoryFactory</text><rect fill="#E3E3E3" height="61.1094" rx="2.5" ry="2.5" style="stroke:#181818;stroke-width:0.5;" width="185" x="1794.5" y="1053.4219"/><text fill="#000000" font-family="FG Virgil" font-size="20" font-style="italic" lengthAdjust="spacing" textLength="123" x="1825.5" y="1079.7578">«framework»</text><text fill="#000000" font-family="FG Virgil" font-size="20" lengthAdjust="spacing" textLength="171" x="1801.5" y="1103.3125">RepositoryFactory</text><rect fill="#E3E3E3" height="61.1094" rx="2.5" ry="2.5" style="stroke:#181818;stroke-width:0.5;" width="159" x="2076.5" y="71"/><text fill="#000000" font-family="FG Virgil" font-size="20" font-style="italic" lengthAdjust="spacing" textLength="117" x="2097.5" y="97.3359">«repository»</text><text fill="#000000" font-family="FG Virgil" font-size="20" lengthAdjust="spacing" textLength="145" x="2083.5" y="120.8906">UserRepository</text><rect fill="#E3E3E3" height="61.1094" rx="2.5" ry="2.5" style="stroke:#181818;stroke-width:0.5;" width="159" x="2076.5" y="1053.4219"/><text fill="#000000" font-family="FG Virgil" font-size="20" font-style="italic" lengthAdjust="spacing" textLength="117" x="2097.5" y="1079.7578">«repository»</text><text fill="#000000" font-family="FG Virgil" font-size="20" lengthAdjust="spacing" textLength="145" x="2083.5" y="1103.3125">UserRepository</text><rect fill="#E3E3E3" height="61.1094" rx="2.5" ry="2.5" style="stroke:#181818;stroke-width:0.5;" width="243" x="2245.5" y="71"/><text fill="#000000" font-family="FG Virgil" font-size="20" font-style="italic" lengthAdjust="spacing" textLength="117" x="2308.5" y="97.3359">«repository»</text><text fill="#000000" font-family="FG Virgil" font-size="20" lengthAdjust="spacing" textLength="229" x="2252.5" y="120.8906">ShowRequestRepository</text><rect fill="#E3E3E3" height="61.1094" rx="2.5" ry="2.5" style="stroke:#181818;stroke-width:0.5;" width="243" x="2245.5" y="1053.4219"/><text fill="#000000" font-family="FG Virgil" font-size="20" font-style="italic" lengthAdjust="spacing" textLength="117" x="2308.5" y="1079.7578">«repository»</text><text fill="#000000" font-family="FG Virgil" font-size="20" lengthAdjust="spacing" textLength="229" x="2252.5" y="1103.3125">ShowRequestRepository</text><rect fill="#FFFFFF" height="893.3125" style="stroke:#181818;stroke-width:1.0;" width="10" x="134" y="143.1094"/><rect fill="#FFFFFF" height="863.7578" style="stroke:#181818;stroke-width:1.0;" width="10" x="799" y="172.6641"/><rect fill="#FFFFFF" height="187.7734" style="stroke:#181818;stroke-width:1.0;" width="10" x="1056.5" y="210.2188"/><rect fill="#FFFFFF" height="112.6641" style="stroke:#181818;stroke-width:1.0;" width="10" x="1056.5" y="660.875"/><rect fill="#FFFFFF" height="187.7734" style="stroke:#181818;stroke-width:1.0;" width="10" x="1356" y="435.5469"/><rect fill="#FFFFFF" height="112.6641" style="stroke:#181818;stroke-width:1.0;" width="10" x="1356" y="886.2031"/><rect fill="#FFFFFF" height="37.5547" style="stroke:#181818;stroke-width:1.0;" width="10" x="1606.5" y="247.7734"/><rect fill="#FFFFFF" height="37.5547" style="stroke:#181818;stroke-width:1.0;" width="10" x="1606.5" y="473.1016"/><rect fill="#FFFFFF" height="75.1094" style="stroke:#181818;stroke-width:1.0;" width="10" x="1882" y="322.8828"/><rect fill="#FFFFFF" height="75.1094" style="stroke:#181818;stroke-width:1.0;" width="10" x="1882" y="548.2109"/><rect fill="#FFFFFF" height="37.5547" style="stroke:#181818;stroke-width:1.0;" width="10" x="2151" y="698.4297"/><rect fill="#FFFFFF" height="37.5547" style="stroke:#181818;stroke-width:1.0;" width="10" x="2362" y="923.7578"/><polygon fill="#181818" points="787,168.6641,797,172.6641,787,176.6641,791,172.6641" style="stroke:#181818;stroke-width:1.0;"/><line style="stroke:#181818;stroke-width:1.0;" x1="144" x2="793" y1="172.6641" y2="172.6641"/><text fill="#000000" font-family="FG Virgil" font-size="20" lengthAdjust="spacing" textLength="421" x="151" y="166.4453">Asks to list all show requests of a customer.</text><polygon fill="#1D1D1D" points="1044.5,206.2188,1054.5,210.2188,1044.5,214.2188,1048.5,210.2188" style="stroke:#1D1D1D;stroke-width:1.0;"/><line style="stroke:#1D1D1D;stroke-width:1.0;" x1="809" x2="1050.5" y1="210.2188" y2="210.2188"/><text fill="#000000" font-family="FG Virgil" font-size="20" lengthAdjust="spacing" textLength="78" x="816" y="204">«create»</text><polygon fill="#1D1D1D" points="1594.5,243.7734,1604.5,247.7734,1594.5,251.7734,1598.5,247.7734" style="stroke:#1D1D1D;stroke-width:1.0;"/><line style="stroke:#1D1D1D;stroke-width:1.0;" x1="1066.5" x2="1600.5" y1="247.7734" y2="247.7734"/><text fill="#000000" font-family="FG Virgil" font-size="20" lengthAdjust="spacing" textLength="128" x="1073.5" y="241.5547">repositories()</text><polygon fill="#1D1D1D" points="1077.5,281.3281,1067.5,285.3281,1077.5,289.3281,1073.5,285.3281" style="stroke:#1D1D1D;stroke-width:1.0;"/><line style="stroke:#1D1D1D;stroke-width:1.0;stroke-dasharray:2.0,2.0;" x1="1071.5" x2="1610.5" y1="285.3281" y2="285.3281"/><text fill="#000000" font-family="FG Virgil" font-size="20" lengthAdjust="spacing" textLength="166" x="1083.5" y="279.1094">repositoryFactory</text><polygon fill="#1D1D1D" points="1870,318.8828,1880,322.8828,1870,326.8828,1874,322.8828" style="stroke:#1D1D1D;stroke-width:1.0;"/><line style="stroke:#1D1D1D;stroke-width:1.0;" x1="1066.5" x2="1876" y1="322.8828" y2="322.8828"/><text fill="#000000" font-family="FG Virgil" font-size="20" lengthAdjust="spacing" textLength="574" x="1073.5" y="316.6641">userRepository() ' Assumed method on factory for user repo</text><polygon fill="#1D1D1D" points="2144,356.4375,2154,360.4375,2144,364.4375,2148,360.4375" style="stroke:#1D1D1D;stroke-width:1.0;"/><line style="stroke:#1D1D1D;stroke-width:1.0;" x1="1892" x2="2150" y1="360.4375" y2="360.4375"/><text fill="#000000" font-family="FG Virgil" font-size="20" lengthAdjust="spacing" textLength="240" x="1899" y="354.2188">«create» ' Or get instance</text><polygon fill="#1D1D1D" points="1072.5,393.9922,1062.5,397.9922,1072.5,401.9922,1068.5,397.9922" style="stroke:#1D1D1D;stroke-width:1.0;"/><line style="stroke:#1D1D1D;stroke-width:1.0;stroke-dasharray:2.0,2.0;" x1="1066.5" x2="1886" y1="397.9922" y2="397.9922"/><text fill="#000000" font-family="FG Virgil" font-size="20" lengthAdjust="spacing" textLength="143" x="1078.5" y="391.7734">userRepository</text><polygon fill="#1D1D1D" points="1344,431.5469,1354,435.5469,1344,439.5469,1348,435.5469" style="stroke:#1D1D1D;stroke-width:1.0;"/><line style="stroke:#1D1D1D;stroke-width:1.0;" x1="809" x2="1350" y1="435.5469" y2="435.5469"/><text fill="#000000" font-family="FG Virgil" font-size="20" lengthAdjust="spacing" textLength="78" x="816" y="429.3281">«create»</text><polygon fill="#1D1D1D" points="1594.5,469.1016,1604.5,473.1016,1594.5,477.1016,1598.5,473.1016" style="stroke:#1D1D1D;stroke-width:1.0;"/><line style="stroke:#1D1D1D;stroke-width:1.0;" x1="1366" x2="1600.5" y1="473.1016" y2="473.1016"/><text fill="#000000" font-family="FG Virgil" font-size="20" lengthAdjust="spacing" textLength="128" x="1373" y="466.8828">repositories()</text><polygon fill="#1D1D1D" points="1377,506.6563,1367,510.6563,1377,514.6563,1373,510.6563" style="stroke:#1D1D1D;stroke-width:1.0;"/><line style="stroke:#1D1D1D;stroke-width:1.0;stroke-dasharray:2.0,2.0;" x1="1371" x2="1610.5" y1="510.6563" y2="510.6563"/><text fill="#000000" font-family="FG Virgil" font-size="20" lengthAdjust="spacing" textLength="166" x="1383" y="504.4375">repositoryFactory</text><polygon fill="#1D1D1D" points="1870,544.2109,1880,548.2109,1870,552.2109,1874,548.2109" style="stroke:#1D1D1D;stroke-width:1.0;"/><line style="stroke:#1D1D1D;stroke-width:1.0;" x1="1366" x2="1876" y1="548.2109" y2="548.2109"/><text fill="#000000" font-family="FG Virgil" font-size="20" lengthAdjust="spacing" textLength="497" x="1373" y="541.9922">showRequestCatalogue() ' Actual method from code</text><polygon fill="#1D1D1D" points="2355,581.7656,2365,585.7656,2355,589.7656,2359,585.7656" style="stroke:#1D1D1D;stroke-width:1.0;"/><line style="stroke:#1D1D1D;stroke-width:1.0;" x1="1892" x2="2361" y1="585.7656" y2="585.7656"/><text fill="#000000" font-family="FG Virgil" font-size="20" lengthAdjust="spacing" textLength="240" x="1899" y="579.5469">«create» ' Or get instance</text><polygon fill="#1D1D1D" points="1372,619.3203,1362,623.3203,1372,627.3203,1368,623.3203" style="stroke:#1D1D1D;stroke-width:1.0;"/><line style="stroke:#1D1D1D;stroke-width:1.0;stroke-dasharray:2.0,2.0;" x1="1366" x2="1886" y1="623.3203" y2="623.3203"/><text fill="#000000" font-family="FG Virgil" font-size="20" lengthAdjust="spacing" textLength="228" x="1378" y="617.1016">showRequestRepository</text><polygon fill="#181818" points="1044.5,656.875,1054.5,660.875,1044.5,664.875,1048.5,660.875" style="stroke:#181818;stroke-width:1.0;"/><line style="stroke:#181818;stroke-width:1.0;" x1="809" x2="1050.5" y1="660.875" y2="660.875"/><text fill="#000000" font-family="FG Virgil" font-size="20" lengthAdjust="spacing" textLength="187" x="816" y="654.6563">listShodroneUsers()</text><polygon fill="#181818" points="2139,694.4297,2149,698.4297,2139,702.4297,2143,698.4297" style="stroke:#181818;stroke-width:1.0;"/><line style="stroke:#181818;stroke-width:1.0;" x1="1066.5" x2="2145" y1="698.4297" y2="698.4297"/><text fill="#000000" font-family="FG Virgil" font-size="20" lengthAdjust="spacing" textLength="452" x="1073.5" y="692.2109">findAll() ' Or a similar method to fetch all users</text><polygon fill="#181818" points="1077.5,731.9844,1067.5,735.9844,1077.5,739.9844,1073.5,735.9844" style="stroke:#181818;stroke-width:1.0;"/><line style="stroke:#181818;stroke-width:1.0;stroke-dasharray:2.0,2.0;" x1="1071.5" x2="2155" y1="735.9844" y2="735.9844"/><text fill="#000000" font-family="FG Virgil" font-size="20" lengthAdjust="spacing" textLength="426" x="1083.5" y="729.7656">allShodroneUsers (Iterable&lt;ShodroneUser&gt;)</text><polygon fill="#181818" points="820,769.5391,810,773.5391,820,777.5391,816,773.5391" style="stroke:#181818;stroke-width:1.0;"/><line style="stroke:#181818;stroke-width:1.0;stroke-dasharray:2.0,2.0;" x1="814" x2="1060.5" y1="773.5391" y2="773.5391"/><text fill="#000000" font-family="FG Virgil" font-size="20" lengthAdjust="spacing" textLength="167" x="826" y="767.3203">allShodroneUsers</text><polygon fill="#181818" points="155,807.0938,145,811.0938,155,815.0938,151,811.0938" style="stroke:#181818;stroke-width:1.0;"/><line style="stroke:#181818;stroke-width:1.0;stroke-dasharray:2.0,2.0;" x1="149" x2="798" y1="811.0938" y2="811.0938"/><text fill="#000000" font-family="FG Virgil" font-size="20" lengthAdjust="spacing" textLength="588" x="161" y="804.875">Shows list of customers (filtered ShodroneUsers) for selection</text><polygon fill="#181818" points="787,844.6484,797,848.6484,787,852.6484,791,848.6484" style="stroke:#181818;stroke-width:1.0;"/><line style="stroke:#181818;stroke-width:1.0;" x1="144" x2="793" y1="848.6484" y2="848.6484"/><text fill="#000000" font-family="FG Virgil" font-size="20" lengthAdjust="spacing" textLength="466" x="151" y="842.4297">Selects a customer (selectedUser: ShodroneUser)</text><polygon fill="#181818" points="1344,882.2031,1354,886.2031,1344,890.2031,1348,886.2031" style="stroke:#181818;stroke-width:1.0;"/><line style="stroke:#181818;stroke-width:1.0;" x1="809" x2="1350" y1="886.2031" y2="886.2031"/><text fill="#000000" font-family="FG Virgil" font-size="20" lengthAdjust="spacing" textLength="426" x="816" y="879.9844">findShowRequestsByCustomer(selectedUser)</text><polygon fill="#181818" points="2350,919.7578,2360,923.7578,2350,927.7578,2354,923.7578" style="stroke:#181818;stroke-width:1.0;"/><line style="stroke:#181818;stroke-width:1.0;" x1="1366" x2="2356" y1="923.7578" y2="923.7578"/><text fill="#000000" font-family="FG Virgil" font-size="20" lengthAdjust="spacing" textLength="289" x="1373" y="917.5391">findByCustomer(selectedUser)</text><polygon fill="#181818" points="1377,957.3125,1367,961.3125,1377,965.3125,1373,961.3125" style="stroke:#181818;stroke-width:1.0;"/><line style="stroke:#181818;stroke-width:1.0;stroke-dasharray:2.0,2.0;" x1="1371" x2="2366" y1="961.3125" y2="961.3125"/><text fill="#000000" font-family="FG Virgil" font-size="20" lengthAdjust="spacing" textLength="439" x="1383" y="955.0938">customerShowRequests (List&lt;ShowRequest&gt;)</text><polygon fill="#181818" points="820,994.8672,810,998.8672,820,1002.8672,816,998.8672" style="stroke:#181818;stroke-width:1.0;"/><line style="stroke:#181818;stroke-width:1.0;stroke-dasharray:2.0,2.0;" x1="814" x2="1360" y1="998.8672" y2="998.8672"/><text fill="#000000" font-family="FG Virgil" font-size="20" lengthAdjust="spacing" textLength="226" x="826" y="992.6484">customerShowRequests</text><polygon fill="#181818" points="150,1032.4219,140,1036.4219,150,1040.4219,146,1036.4219" style="stroke:#181818;stroke-width:1.0;"/><line style="stroke:#181818;stroke-width:1.0;stroke-dasharray:2.0,2.0;" x1="144" x2="803" y1="1036.4219" y2="1036.4219"/><text fill="#000000" font-family="FG Virgil" font-size="20" lengthAdjust="spacing" textLength="631" x="156" y="1030.2031">Displays the selected customer's show requests / Message if none</text><!--SRC=[hLVRRkCs47ttLmoo3xQ19jccw8jW6F0wTM4WQG9xtJuiYeAHHZPXMb8vrARUh- -Gkb4NDsdHF0I8o3bdBcTc63hA91DQd5GQ7Z6226EHAxDA4xELtn3kFev6HXg5C2F-ExZxED_Ydpac8SAz57ksXDtsxeSV0tYGP62PaqbFgCS4sqFw2XjxcGpDRgtvV3IYYX1EQPA61ystmUWSlPDCX4UnnwqvCw_6q7XddeE_23PT_Go_IhsNohj31n6bhpBPGomKuMWaGfDgk5fk7k5H90ojRvUfKk8brO9Fha0GBEoT4GCO6SfC90Qk0XkI3QECOhTsDtThcCqoZOI94KQcoNm-R1VfDC4TeQObkwkP4GikUrvyDrencCWo9SDXh9LC8i-73f9t-ZRMCpCoiosUXS6_ZCDuNh8PsL32hiK6ivGa9-QySZayEuFDYWrYpZI-flhOjR61DNP5nifFRARhawwT5sJ7l3mPGh2bbL-5mR9-xZTSpxb80IpeI61IK5QPGYaM1ajIbvA4D0O1OIdOcmPfjnwDW7_6q2GRreaqKYZvpMKM9kQSSPQLEiE1Cuu9mUi14-Wf1YH1g95nesc9-ld0tuXbRO6iImJMhx0c8zYZ0ND0gQ6ELYBTE036lFxouKNb-FkyhQI0irDmSMRirJgarZLtP7_QCcn0dvT1YtSohKrgnETb_OtrSttH8zrLK6qMeG_sfbERLG1vIrgJAITpGPIVU72Tq7330MSqBdWWPY5O0-T2Fu3Dglx6UcvuAgtwoMIU9-sA8XDk5EwVbkt5uDl-3aLUUk5zQPUgN_5Enr-kUUTYpTuT6VzJtNj-_UlANtRCrfwy6IYCKEa-nq81eSc5gWGGyqBXLehm_HNtnij_AdelSXgQPE-h_b3Hnl1J4bsUHTMmsXhCuFjo3mkssABY8LElv5fAFPcgxheg2__6-1XtUbNoIj5imwDGcWD8qmp-8WLs5jjysb7iym4lKeu8wT8GyBiovWmjb7Abv_e887cIIkXA0CmHemaFZiKs8FMLKA7L9_M2kkvdXt5QoO79siRved3cVvzFXohSOkf4LMwfBlux1iBOrZ6MobXtU4_0k0ioBfOU9-E8B8iquKN5wI4iQiCleJ-MJmyFYqzFcyNdfmsmil2cmJPsbvLF7CV0XjMcT2lLaXQxrevPSafpUp4d- -ugfFURZBZSqsPjSSJEA70zHuMFl8ORw4aH5G_qLZZJDeq3RAtwWf2yXGwJuZf65Y5euKrRFNCNmAfG33VDlQHCYNFxzUhORSZR4dAegNfZ86w_tEZJkR9gkJPztzWUz-OZYvjSbms-dFfJgpTVEwFF-lkFFhRyz4phG_-XTZsKageuVbfWOXK-ypuDjrANi1TEAOKXZhV6RAFygAX_qLOQ3U_1hrplzijnCiGnhLLIPSvxN1RuwzYTEzdp6n1FcJb_nx83VaBgDDFI-dP28luNnLwmhCbG-zpxNlRenjJnznOUAz0O4cw2aJ-YrlvVnJFwRm00]--></g></svg>