<?xml version="1.0" encoding="UTF-8" standalone="no"?><svg xmlns="http://www.w3.org/2000/svg" xmlns:xlink="http://www.w3.org/1999/xlink" contentStyleType="text/css" height="731px" preserveAspectRatio="none" style="width:491px;height:731px;background:#FFFFFF;" version="1.1" viewBox="0 0 491 731" width="491px" zoomAndPan="magnify"><defs/><g><!--cluster Figure Category--><g id="cluster_Figure Category"><path d="M8.5,6.7188 L174.5,6.7188 A3.75,3.75 0 0 1 177,9.2188 L184,36.2734 L239.5,36.2734 A2.5,2.5 0 0 1 242,38.7734 L242,168.4288 A2.5,2.5 0 0 1 239.5,170.9288 L8.5,170.9288 A2.5,2.5 0 0 1 6,168.4288 L6,9.2188 A2.5,2.5 0 0 1 8.5,6.7188 " fill="#DDADDD" style="stroke:#000000;stroke-width:1.5;"/><line style="stroke:#000000;stroke-width:1.5;" x1="6" x2="184" y1="36.2734" y2="36.2734"/><text fill="#000000" font-family="sans-serif" font-size="20" font-weight="bold" lengthAdjust="spacing" textLength="165" x="10" y="28.0547">Figure Category</text></g><!--cluster  Customer--><g id="cluster_ Customer"><path d="M268.5,6.7188 L375.5,6.7188 A3.75,3.75 0 0 1 378,9.2188 L385,36.2734 L481.5,36.2734 A2.5,2.5 0 0 1 484,38.7734 L484,168.4288 A2.5,2.5 0 0 1 481.5,170.9288 L268.5,170.9288 A2.5,2.5 0 0 1 266,168.4288 L266,9.2188 A2.5,2.5 0 0 1 268.5,6.7188 " fill="#FFF37A" style="stroke:#000000;stroke-width:1.5;"/><line style="stroke:#000000;stroke-width:1.5;" x1="266" x2="385" y1="36.2734" y2="36.2734"/><text fill="#000000" font-family="sans-serif" font-size="20" font-weight="bold" lengthAdjust="spacing" textLength="99" x="277" y="28.0547">Customer</text></g><!--cluster Figure --><g id="cluster_Figure "><path d="M67.5,227.9288 L140.5,227.9288 A3.75,3.75 0 0 1 143,230.4288 L150,257.4834 L402.5,257.4834 A2.5,2.5 0 0 1 405,259.9834 L405,722.1988 A2.5,2.5 0 0 1 402.5,724.6988 L67.5,724.6988 A2.5,2.5 0 0 1 65,722.1988 L65,230.4288 A2.5,2.5 0 0 1 67.5,227.9288 " fill="#9CFFAA" style="stroke:#000000;stroke-width:1.5;"/><line style="stroke:#000000;stroke-width:1.5;" x1="65" x2="150" y1="257.4834" y2="257.4834"/><text fill="#000000" font-family="sans-serif" font-size="20" font-weight="bold" lengthAdjust="spacing" textLength="65" x="69" y="249.2647">Figure</text></g><g id="elem_FigureCategory"><rect fill="#F1F1F1" height="106.2188" style="stroke:#181818;stroke-width:0.5;" width="205" x="21.5" y="48.7188"/><text fill="#000000" font-family="sans-serif" font-size="20" font-style="italic" lengthAdjust="spacing" textLength="73" x="87.5" y="68.0547">«Entity»</text><text fill="#000000" font-family="sans-serif" font-size="20" font-style="italic" lengthAdjust="spacing" textLength="64" x="92" y="91.6094">«Root»</text><text fill="#000000" font-family="sans-serif" font-size="20" lengthAdjust="spacing" textLength="145" x="51.5" y="117.1641">FigureCategory</text><line style="stroke:#181818;stroke-width:0.5;" x1="22.5" x2="225.5" y1="123.3828" y2="123.3828"/><rect fill="none" height="6" style="stroke:#C82930;stroke-width:1.0;" width="6" x="29.5" y="137.6602"/><text fill="#000000" font-family="sans-serif" font-size="20" lengthAdjust="spacing" textLength="178" x="42.5" y="146.7188">Description :String</text></g><g id="elem_Customer"><rect fill="#F1F1F1" height="106.2188" style="stroke:#181818;stroke-width:0.5;" width="186" x="282" y="48.7188"/><text fill="#000000" font-family="sans-serif" font-size="20" font-style="italic" lengthAdjust="spacing" textLength="73" x="338.5" y="68.0547">«Entity»</text><text fill="#000000" font-family="sans-serif" font-size="20" font-style="italic" lengthAdjust="spacing" textLength="64" x="343" y="91.6094">«Root»</text><text fill="#000000" font-family="sans-serif" font-size="20" lengthAdjust="spacing" textLength="93" x="328.5" y="117.1641">Customer</text><line style="stroke:#181818;stroke-width:0.5;" x1="283" x2="467" y1="123.3828" y2="123.3828"/><rect fill="none" height="6" style="stroke:#C82930;stroke-width:1.0;" width="6" x="290" y="137.6602"/><text fill="#000000" font-family="sans-serif" font-size="20" lengthAdjust="spacing" textLength="159" x="303" y="146.7188">Company :String</text></g><g id="elem_Figure"><rect fill="#F1F1F1" height="271.1016" style="stroke:#181818;stroke-width:0.5;" width="248" x="107" y="269.9288"/><text fill="#000000" font-family="sans-serif" font-size="20" font-style="italic" lengthAdjust="spacing" textLength="73" x="194.5" y="289.2647">«Entity»</text><text fill="#000000" font-family="sans-serif" font-size="20" font-style="italic" lengthAdjust="spacing" textLength="64" x="199" y="312.8194">«Root»</text><text fill="#000000" font-family="sans-serif" font-size="20" lengthAdjust="spacing" textLength="60" x="201" y="338.3741">Figure</text><line style="stroke:#181818;stroke-width:0.5;" x1="108" x2="354" y1="344.5928" y2="344.5928"/><rect fill="none" height="6" style="stroke:#C82930;stroke-width:1.0;" width="6" x="115" y="358.8702"/><text fill="#000000" font-family="sans-serif" font-size="20" lengthAdjust="spacing" textLength="170" x="128" y="367.9288">description:String</text><rect fill="none" height="6" style="stroke:#C82930;stroke-width:1.0;" width="6" x="115" y="382.4248"/><text fill="#000000" font-family="sans-serif" font-size="20" lengthAdjust="spacing" textLength="214" x="128" y="391.4834">keywords:Set&lt;String&gt;</text><rect fill="none" height="6" style="stroke:#C82930;stroke-width:1.0;" width="6" x="115" y="405.9795"/><text fill="#000000" font-family="sans-serif" font-size="20" lengthAdjust="spacing" textLength="206" x="128" y="415.0381">figureVersion:Version</text><rect fill="none" height="6" style="stroke:#C82930;stroke-width:1.0;" width="6" x="115" y="429.5342"/><text fill="#000000" font-family="sans-serif" font-size="20" lengthAdjust="spacing" textLength="179" x="128" y="438.5928">author:SystemUser</text><rect fill="none" height="6" style="stroke:#C82930;stroke-width:1.0;" width="6" x="115" y="453.0889"/><text fill="#000000" font-family="sans-serif" font-size="20" lengthAdjust="spacing" textLength="169" x="128" y="462.1475">code:Set&lt;String&gt;</text><rect fill="none" height="6" style="stroke:#C82930;stroke-width:1.0;" width="6" x="115" y="476.6436"/><text fill="#000000" font-family="sans-serif" font-size="20" lengthAdjust="spacing" textLength="179" x="128" y="485.7022">dslVersion:Version</text><rect fill="none" height="6" style="stroke:#C82930;stroke-width:1.0;" width="6" x="115" y="500.1983"/><text fill="#000000" font-family="sans-serif" font-size="20" lengthAdjust="spacing" textLength="221" x="128" y="509.2569">creationDate:LocalDate</text><rect fill="none" height="6" style="stroke:#C82930;stroke-width:1.0;" width="6" x="115" y="523.753"/><text fill="#000000" font-family="sans-serif" font-size="20" lengthAdjust="spacing" textLength="157" x="128" y="532.8116">isActive:boolean</text></g><g id="elem_Version"><rect fill="#F1F1F1" height="82.6641" style="stroke:#181818;stroke-width:0.5;" width="158" x="130" y="626.0388"/><text fill="#000000" font-family="sans-serif" font-size="20" font-style="italic" lengthAdjust="spacing" textLength="142" x="138" y="645.3747">«Value Object»</text><text fill="#000000" font-family="sans-serif" font-size="20" lengthAdjust="spacing" textLength="72" x="173" y="670.9294">Version</text><line style="stroke:#181818;stroke-width:0.5;" x1="131" x2="287" y1="677.1481" y2="677.1481"/><rect fill="none" height="6" style="stroke:#C82930;stroke-width:1.0;" width="6" x="138" y="691.4255"/><text fill="#000000" font-family="sans-serif" font-size="20" lengthAdjust="spacing" textLength="131" x="151" y="700.4841">version:String</text></g><!--reverse link FigureCategory to Figure--><g id="link_FigureCategory_Figure"><path codeLine="35" d="M144.79,161.4388 C155.76,192.3488 169.7,231.6488 183.15,269.5888 " fill="none" id="FigureCategory-backto-Figure" style="stroke:#181818;stroke-width:1.0;"/><polygon fill="#181818" points="143.14,156.7988,142.3868,166.6188,144.8153,161.5097,149.9244,163.9382,143.14,156.7988" style="stroke:#181818;stroke-width:1.0;"/><text fill="#000000" font-family="sans-serif" font-size="20" lengthAdjust="spacing" textLength="33" x="162.66" y="207.2647">has</text><text fill="#000000" font-family="sans-serif" font-size="20" lengthAdjust="spacing" textLength="35" x="107.7718" y="182.2571">1..*</text><text fill="#000000" font-family="sans-serif" font-size="20" lengthAdjust="spacing" textLength="35" x="144.5762" y="257.8794">0..*</text></g><!--reverse link Customer to Figure--><g id="link_Customer_Figure"><path codeLine="36" d="M347.2,161.0488 C332.42,192.0188 313.58,231.4888 295.39,269.5888 " fill="none" id="Customer-backto-Figure" style="stroke:#181818;stroke-width:1.0;"/><polygon fill="#181818" points="349.27,156.7387,341.7805,163.1347,347.1142,161.2501,348.9987,166.5839,349.27,156.7387" style="stroke:#181818;stroke-width:1.0;"/><text fill="#000000" font-family="sans-serif" font-size="20" lengthAdjust="spacing" textLength="80" x="333.45" y="207.2647">contains</text><text fill="#000000" font-family="sans-serif" font-size="20" lengthAdjust="spacing" textLength="13" x="333.2686" y="182.2571">1</text><text fill="#000000" font-family="sans-serif" font-size="20" lengthAdjust="spacing" textLength="35" x="299.8684" y="257.8794">0..*</text></g><!--reverse link Figure to Version--><g id="link_Figure_Version"><path codeLine="38" d="M130.64,546.4388 C120.02,561.2488 113,571.0388 113,571.0388 C113,571.0388 113,596.0388 113,596.0388 C113,596.0388 132.2,610.1088 153.43,625.6588 " fill="none" id="Figure-backto-Version" style="stroke:#181818;stroke-width:1.0;"/><polygon fill="#181818" points="133.49,542.4688,124.999,547.459,130.5798,546.5345,131.5042,552.1153,133.49,542.4688" style="stroke:#181818;stroke-width:1.0;"/><text fill="#000000" font-family="sans-serif" font-size="20" lengthAdjust="spacing" textLength="101" x="114" y="591.3747">dslVersion</text><text fill="#000000" font-family="sans-serif" font-size="20" lengthAdjust="spacing" textLength="13" x="116.0524" y="568.182">1</text><text fill="#000000" font-family="sans-serif" font-size="20" lengthAdjust="spacing" textLength="13" x="130.9255" y="613.8891">1</text></g><!--reverse link Figure to Version--><g id="link_Figure_Version"><path codeLine="39" d="M222.8,547.8388 C221.19,575.4488 220,596.0388 220,596.0388 C220,596.0388 217.78,610.2288 215.34,625.8588 " fill="none" id="Figure-backto-Version-1" style="stroke:#181818;stroke-width:1.0;"/><polygon fill="#181818" points="223.08,542.9788,218.5731,551.7359,222.7948,547.9706,226.56,552.1923,223.08,542.9788" style="stroke:#181818;stroke-width:1.0;"/><text fill="#000000" font-family="sans-serif" font-size="20" lengthAdjust="spacing" textLength="128" x="222.36" y="591.3747">figureVersion</text><text fill="#000000" font-family="sans-serif" font-size="20" lengthAdjust="spacing" textLength="13" x="209.4311" y="568.4134">1</text><text fill="#000000" font-family="sans-serif" font-size="20" lengthAdjust="spacing" textLength="13" x="202.3145" y="613.7901">1</text></g><!--SRC=[VLB1JkCm43tNNs5b3oiXkONbWB2gIAZ0QIMahU0-s9FKrB4jUmBA8luT9qqQqLrX7so_cNapyyPfRro028trQe-QQwoWjNJl7MtDN-I_pjdF7L58ShKA5XorZLqgtwoKXPI4Db3dOCRInCEjSKXTG1wyxVe7Om7K7chanRsfsuXy0uIrZrt1VsWDMkjtvfzVK14_E4nslbxVEJBKbMM-_l6UolATyRp4BIOLJI3Z7PTRYiRLx2FlOog-QHFv1cDEKbNLvHKSaqoMcNqcNuYDRmAuxWlhFnraqcjLLG0dbV-_ueNGSxaJxqBiiNlpKIUvHLeVq3B3rS3qX37rtkEPSMXfvwFSTecmUKmOCwQynfDmdUnfxA2OYWXz_jiihlpj5TZ-Th2PTAF8lA9yzjuYE9Px7liQEN8tJs1Rv0y3FCn1l8vvZahrQrBeVBayAxXeWoXvSJ4yJgOhTv3OD8piKwo56CD64gdoFmJZqanxyBeeZeL9FdVydTSNMJy1]--></g></svg>