<svg xmlns="http://www.w3.org/2000/svg" xmlns:xlink="http://www.w3.org/1999/xlink" contentStyleType="text/css" height="541.8px" preserveAspectRatio="none" style="width:674px;height:541px;background:#FFFFFF;" version="1.1" viewBox="0 0 674 541" width="674.1px" zoomAndPan="magnify"><defs/><g><!--cluster  Customer--><g id="cluster_ Customer"><path d="M138.25,4.2096 L187.4141,4.2096 A2.625,2.625 0 0 1 189.1641,5.9596 L194.0641,21.4443 L338.45,21.4443 A1.75,1.75 0 0 1 340.2,23.1943 L340.2,96.2596 A1.75,1.75 0 0 1 338.45,98.0096 L138.25,98.0096 A1.75,1.75 0 0 1 136.5,96.2596 L136.5,5.9596 A1.75,1.75 0 0 1 138.25,4.2096 " fill="#FFF37A" style="stroke:#000000;stroke-width:1.0499999999999998;"/><line style="stroke:#000000;stroke-width:1.0499999999999998;" x1="136.5" x2="194.0641" y1="21.4443" y2="21.4443"/><text fill="#000000" font-family="sans-serif" font-size="9.8" font-weight="bold" lengthAdjust="spacing" textLength="45.7413" x="142.0228" y="16.1848">Customer</text></g><!--cluster Figure --><g id="cluster_Figure "><path d="M5.95,220.5096 L39.3183,220.5096 A2.625,2.625 0 0 1 41.0683,222.2596 L45.9683,237.7443 L346.85,237.7443 A1.75,1.75 0 0 1 348.6,239.4943 L348.6,431.5596 A1.75,1.75 0 0 1 346.85,433.3096 L5.95,433.3096 A1.75,1.75 0 0 1 4.2,431.5596 L4.2,222.2596 A1.75,1.75 0 0 1 5.95,220.5096 " fill="#88EE88" style="stroke:#000000;stroke-width:1.0499999999999998;"/><line style="stroke:#000000;stroke-width:1.0499999999999998;" x1="4.2" x2="45.9683" y1="237.7443" y2="237.7443"/><text fill="#000000" font-family="sans-serif" font-size="9.8" font-weight="bold" lengthAdjust="spacing" textLength="29.9455" x="7" y="232.4848">Figure</text></g><!--cluster Show Proposal--><g id="cluster_Show Proposal"><path d="M367.15,227.1596 L438.6368,227.1596 A2.625,2.625 0 0 1 440.3868,228.9096 L445.2868,244.3943 L667.45,244.3943 A1.75,1.75 0 0 1 669.2,246.1443 L669.2,535.1596 A1.75,1.75 0 0 1 667.45,536.9096 L367.15,536.9096 A1.75,1.75 0 0 1 365.4,535.1596 L365.4,228.9096 A1.75,1.75 0 0 1 367.15,227.1596 " fill="#9BC8FF" style="stroke:#000000;stroke-width:1.0499999999999998;"/><line style="stroke:#000000;stroke-width:1.0499999999999998;" x1="365.4" x2="445.2868" y1="244.3943" y2="244.3943"/><text fill="#000000" font-family="sans-serif" font-size="9.8" font-weight="bold" lengthAdjust="spacing" textLength="70.7868" x="368.2" y="239.1348">Show Proposal</text></g><g id="elem_Customer"><rect fill="#F1F1F1" height="56.8148" style="stroke:#181818;stroke-width:0.3499999999999999;" width="91.188" x="147.7" y="30.1096"/><text fill="#000000" font-family="sans-serif" font-size="8.4" font-style="italic" lengthAdjust="spacing" textLength="30.3516" x="178.1182" y="39.174">&#171;Entity&#187;</text><text fill="#000000" font-family="sans-serif" font-size="8.4" font-style="italic" lengthAdjust="spacing" textLength="27.0867" x="179.7506" y="50.3467">&#171;Root&#187;</text><text fill="#000000" font-family="sans-serif" font-size="9.8" lengthAdjust="spacing" textLength="42.4778" x="172.0551" y="64.4301">Customer</text><line style="stroke:#181818;stroke-width:0.3499999999999999;" x1="148.4" x2="238.188" y1="68.2896" y2="68.2896"/><rect fill="none" height="4.2" style="stroke:#C82930;stroke-width:0.6999999999999998;" width="4.2" x="153.3" y="76.557"/><text fill="#000000" font-family="sans-serif" font-size="9.8" lengthAdjust="spacing" textLength="72.988" x="161.7" y="81.6648">Company :String</text></g><g id="elem_GMN4"><path d="M263.55,30.8096 L263.55,55.6596 L238.819,58.4596 L263.55,61.2596 L263.55,86.2244 A0,0 0 0 0 263.55,86.2244 L328.8332,86.2244 A0,0 0 0 0 328.8332,86.2244 L328.8332,37.8096 L321.8332,30.8096 L263.55,30.8096 A0,0 0 0 0 263.55,30.8096 " fill="#FEFFDD" style="stroke:#181818;stroke-width:0.3499999999999999;"/><path d="M321.8332,30.8096 L321.8332,37.8096 L328.8332,37.8096 L321.8332,30.8096 " fill="#FEFFDD" style="stroke:#181818;stroke-width:0.3499999999999999;"/><text fill="#000000" font-family="sans-serif" font-size="9.1" lengthAdjust="spacing" textLength="39.457" x="267.75" y="44.1294">In case of</text><text fill="#000000" font-family="sans-serif" font-size="9.1" lengthAdjust="spacing" textLength="50.5832" x="267.75" y="56.2331">a Figure has</text><text fill="#000000" font-family="sans-serif" font-size="9.1" lengthAdjust="spacing" textLength="50.0767" x="267.75" y="68.3368">an exclusive</text><text fill="#000000" font-family="sans-serif" font-size="9.1" lengthAdjust="spacing" textLength="41.972" x="267.75" y="80.4405">Customer.</text></g><g id="elem_Figure"><rect fill="#F1F1F1" height="69.8496" style="stroke:#181818;stroke-width:0.3499999999999999;" width="102.0742" x="142.1" y="246.4096"/><text fill="#000000" font-family="sans-serif" font-size="8.4" font-style="italic" lengthAdjust="spacing" textLength="30.3516" x="177.9613" y="255.474">&#171;Entity&#187;</text><text fill="#000000" font-family="sans-serif" font-size="8.4" font-style="italic" lengthAdjust="spacing" textLength="27.0867" x="179.5937" y="266.6467">&#171;Root&#187;</text><text fill="#000000" font-family="sans-serif" font-size="9.8" lengthAdjust="spacing" textLength="27.7778" x="179.2482" y="280.7301">Figure</text><line style="stroke:#181818;stroke-width:0.3499999999999999;" x1="142.8" x2="243.4742" y1="284.5896" y2="284.5896"/><rect fill="none" height="4.2" style="stroke:#C82930;stroke-width:0.6999999999999998;" width="4.2" x="147.7" y="292.857"/><text fill="#000000" font-family="sans-serif" font-size="9.8" lengthAdjust="spacing" textLength="83.8742" x="156.1" y="297.9648">author:SystemUser</text><rect fill="none" height="4.2" style="stroke:#C82930;stroke-width:0.6999999999999998;" width="4.2" x="147.7" y="305.8918"/><text fill="#000000" font-family="sans-serif" font-size="9.8" lengthAdjust="spacing" textLength="71.3658" x="156.1" y="310.9996">isActive:boolean</text></g><g id="elem_GMN9"><path d="M269.15,259.7096 L269.15,278.6096 L244.321,281.4096 L269.15,284.2096 L269.15,303.0207 A0,0 0 0 0 269.15,303.0207 L329.8743,303.0207 A0,0 0 0 0 329.8743,303.0207 L329.8743,266.7096 L322.8743,259.7096 L269.15,259.7096 A0,0 0 0 0 269.15,259.7096 " fill="#FEFFDD" style="stroke:#181818;stroke-width:0.3499999999999999;"/><path d="M322.8743,259.7096 L322.8743,266.7096 L329.8743,266.7096 L322.8743,259.7096 " fill="#FEFFDD" style="stroke:#181818;stroke-width:0.3499999999999999;"/><text fill="#000000" font-family="sans-serif" font-size="9.1" lengthAdjust="spacing" textLength="45.0112" x="273.35" y="273.0294">Only active</text><text fill="#000000" font-family="sans-serif" font-size="9.1" lengthAdjust="spacing" textLength="46.0243" x="273.35" y="285.1331">Figures are</text><text fill="#000000" font-family="sans-serif" font-size="9.1" lengthAdjust="spacing" textLength="26.3047" x="273.35" y="297.2368">shown</text></g><g id="elem_Keyword"><rect fill="#F1F1F1" height="45.6422" style="stroke:#181818;stroke-width:0.3499999999999999;" width="88.4604" x="15.4" y="376.6096"/><text fill="#000000" font-family="sans-serif" font-size="8.4" font-style="italic" lengthAdjust="spacing" textLength="57.4383" x="30.9111" y="385.674">&#171;Value Object&#187;</text><text fill="#000000" font-family="sans-serif" font-size="9.8" lengthAdjust="spacing" textLength="38.1281" x="40.5662" y="399.7574">Keyword</text><line style="stroke:#181818;stroke-width:0.3499999999999999;" x1="16.1" x2="103.1604" y1="403.617" y2="403.617"/><rect fill="none" height="4.2" style="stroke:#C82930;stroke-width:0.6999999999999998;" width="4.2" x="21" y="411.8844"/><text fill="#000000" font-family="sans-serif" font-size="9.8" lengthAdjust="spacing" textLength="70.2604" x="29.4" y="416.9922">keyword : String</text></g><g id="elem_figureVersion"><rect fill="#F1F1F1" height="45.6422" style="stroke:#181818;stroke-width:0.3499999999999999;" width="88.4652" x="128.1" y="376.6096"/><text fill="#000000" font-family="sans-serif" font-size="8.4" font-style="italic" lengthAdjust="spacing" textLength="57.4383" x="143.6135" y="385.674">&#171;Value Object&#187;</text><text fill="#000000" font-family="sans-serif" font-size="9.8" lengthAdjust="spacing" textLength="57.7425" x="143.4614" y="399.7574">figureVersion</text><line style="stroke:#181818;stroke-width:0.3499999999999999;" x1="128.8" x2="215.8652" y1="403.617" y2="403.617"/><rect fill="none" height="4.2" style="stroke:#C82930;stroke-width:0.6999999999999998;" width="4.2" x="133.7" y="411.8844"/><text fill="#000000" font-family="sans-serif" font-size="9.8" lengthAdjust="spacing" textLength="70.2652" x="142.1" y="416.9922">version: Version</text></g><g id="elem_Description"><rect fill="#F1F1F1" height="45.6422" style="stroke:#181818;stroke-width:0.3499999999999999;" width="96.6383" x="240.8" y="376.6096"/><text fill="#000000" font-family="sans-serif" font-size="8.4" font-style="italic" lengthAdjust="spacing" textLength="57.4383" x="260.4" y="385.674">&#171;Value Object&#187;</text><text fill="#000000" font-family="sans-serif" font-size="9.8" lengthAdjust="spacing" textLength="49.0191" x="264.6096" y="399.7574">Description</text><line style="stroke:#181818;stroke-width:0.3499999999999999;" x1="241.5" x2="336.7383" y1="403.617" y2="403.617"/><rect fill="none" height="4.2" style="stroke:#C82930;stroke-width:0.6999999999999998;" width="4.2" x="246.4" y="411.8844"/><text fill="#000000" font-family="sans-serif" font-size="9.8" lengthAdjust="spacing" textLength="78.4383" x="254.8" y="416.9922">description :String</text></g><g id="elem_ShowProposal"><rect fill="#F1F1F1" height="56.8148" style="stroke:#181818;stroke-width:0.3499999999999999;" width="98.2652" x="394.1" y="253.0596"/><text fill="#000000" font-family="sans-serif" font-size="8.4" font-style="italic" lengthAdjust="spacing" textLength="30.3516" x="428.0568" y="262.124">&#171;Entity&#187;</text><text fill="#000000" font-family="sans-serif" font-size="8.4" font-style="italic" lengthAdjust="spacing" textLength="27.0867" x="429.6893" y="273.2967">&#171;Root&#187;</text><text fill="#000000" font-family="sans-serif" font-size="9.8" lengthAdjust="spacing" textLength="63.1928" x="411.6362" y="287.3801">ShowProposal</text><line style="stroke:#181818;stroke-width:0.3499999999999999;" x1="394.8" x2="491.6652" y1="291.2396" y2="291.2396"/><rect fill="none" height="4.2" style="stroke:#C82930;stroke-width:0.6999999999999998;" width="4.2" x="399.7" y="299.507"/><text fill="#000000" font-family="sans-serif" font-size="9.8" lengthAdjust="spacing" textLength="80.0652" x="408.1" y="304.6148">Description :String</text></g><g id="elem_ProposalStatus"><rect fill="#F1F1F1" height="45.6422" style="stroke:#181818;stroke-width:0.3499999999999999;" width="77.0287" x="482.3" y="376.6096"/><text fill="#000000" font-family="sans-serif" font-size="8.4" font-style="italic" lengthAdjust="spacing" textLength="57.4383" x="492.0952" y="385.674">&#171;Value Object&#187;</text><text fill="#000000" font-family="sans-serif" font-size="9.8" lengthAdjust="spacing" textLength="66.461" x="487.5838" y="399.7574">ProposalStatus</text><line style="stroke:#181818;stroke-width:0.3499999999999999;" x1="483" x2="558.6287" y1="403.617" y2="403.617"/><rect fill="none" height="4.2" style="stroke:#C82930;stroke-width:0.6999999999999998;" width="4.2" x="487.9" y="411.8844"/><text fill="#000000" font-family="sans-serif" font-size="9.8" lengthAdjust="spacing" textLength="58.8287" x="496.3" y="416.9922">Status: Enum</text></g><g id="elem_GMN18"><path d="M583.8,371.7096 L583.8,396.5596 L559.314,399.3596 L583.8,402.1596 L583.8,427.1244 A0,0 0 0 0 583.8,427.1244 L657.6589,427.1244 A0,0 0 0 0 657.6589,427.1244 L657.6589,378.7096 L650.6589,371.7096 L583.8,371.7096 A0,0 0 0 0 583.8,371.7096 " fill="#FEFFDD" style="stroke:#181818;stroke-width:0.3499999999999999;"/><path d="M650.6589,371.7096 L650.6589,378.7096 L657.6589,378.7096 L650.6589,371.7096 " fill="#FEFFDD" style="stroke:#181818;stroke-width:0.3499999999999999;"/><text fill="#000000" font-family="sans-serif" font-size="9.1" lengthAdjust="spacing" textLength="33.8895" x="588" y="385.0294">Only the</text><text fill="#000000" font-family="sans-serif" font-size="9.1" lengthAdjust="spacing" textLength="59.1589" x="588" y="397.1331">INCOMPLETE</text><text fill="#000000" font-family="sans-serif" font-size="9.1" lengthAdjust="spacing" textLength="57.146" x="588" y="409.2368">matters to this</text><text fill="#000000" font-family="sans-serif" font-size="9.1" lengthAdjust="spacing" textLength="42.4785" x="588" y="421.3405">user story.</text></g><g id="elem_ProposalFigures"><rect fill="#F1F1F1" height="38.2074" style="stroke:#181818;stroke-width:0.3499999999999999;" width="81.1562" x="376.6" y="380.1096"/><text fill="#000000" font-family="sans-serif" font-size="8.4" font-style="italic" lengthAdjust="spacing" textLength="57.4383" x="388.459" y="389.174">&#171;Value Object&#187;</text><text fill="#000000" font-family="sans-serif" font-size="9.8" lengthAdjust="spacing" textLength="71.3562" x="381.5" y="403.2574">ProposalFigures</text><line style="stroke:#181818;stroke-width:0.3499999999999999;" x1="377.3" x2="457.0562" y1="407.117" y2="407.117"/></g><g id="elem_DroneTypeSettings"><rect fill="#F1F1F1" height="38.2074" style="stroke:#181818;stroke-width:0.3499999999999999;" width="93.6886" x="376.6" y="484.7596"/><text fill="#000000" font-family="sans-serif" font-size="8.4" font-style="italic" lengthAdjust="spacing" textLength="57.4383" x="394.7251" y="493.824">&#171;Value Object&#187;</text><text fill="#000000" font-family="sans-serif" font-size="9.8" lengthAdjust="spacing" textLength="83.8886" x="381.5" y="507.9074">DroneTypeSettings</text><line style="stroke:#181818;stroke-width:0.3499999999999999;" x1="377.3" x2="469.5886" y1="511.767" y2="511.767"/></g><g id="elem_GMN23"><path d="M495.25,482.3096 L495.25,501.2096 L470.407,504.0096 L495.25,506.8096 L495.25,525.6207 A0,0 0 0 0 495.25,525.6207 L556.4942,525.6207 A0,0 0 0 0 556.4942,525.6207 L556.4942,489.3096 L549.4942,482.3096 L495.25,482.3096 A0,0 0 0 0 495.25,482.3096 " fill="#FEFFDD" style="stroke:#181818;stroke-width:0.3499999999999999;"/><path d="M549.4942,482.3096 L549.4942,489.3096 L556.4942,489.3096 L549.4942,482.3096 " fill="#FEFFDD" style="stroke:#181818;stroke-width:0.3499999999999999;"/><text fill="#000000" font-family="sans-serif" font-size="9.1" lengthAdjust="spacing" textLength="32.872" x="499.45" y="495.6294">It will be</text><text fill="#000000" font-family="sans-serif" font-size="9.1" lengthAdjust="spacing" textLength="46.5442" x="499.45" y="507.7331">instantiated</text><text fill="#000000" font-family="sans-serif" font-size="9.1" lengthAdjust="spacing" textLength="33.8939" x="499.45" y="519.8368">as a null</text></g><!--link ShowProposal to ProposalStatus--><g id="link_ShowProposal_ProposalStatus"><path codeLine="72" d="M461.713,310.0256 C475.272,330.3676 491.0577,354.0544 503.6437,372.9264 " fill="none" id="ShowProposal-to-ProposalStatus" style="stroke:#181818;stroke-width:0.6999999999999998;"/><polygon fill="#181818" points="505.974,376.4206,504.808,369.6257,504.0321,373.5087,500.149,372.7328,505.974,376.4206" style="stroke:#181818;stroke-width:0.6999999999999998;"/><text fill="#000000" font-family="sans-serif" font-size="9.1" lengthAdjust="spacing" textLength="14.672" x="487.2" y="347.9294">has</text><text fill="#000000" font-family="sans-serif" font-size="9.1" lengthAdjust="spacing" textLength="5.061" x="459.3807" y="325.3614">1</text><text fill="#000000" font-family="sans-serif" font-size="9.1" lengthAdjust="spacing" textLength="5.061" x="497.6858" y="368.6589">1</text></g><!--link ShowProposal to ProposalFigures--><g id="link_ShowProposal_ProposalFigures"><path codeLine="73" d="M436.898,310.0256 C432.075,331.7116 426.4418,357.0747 422.2418,375.9607 " fill="none" id="ShowProposal-to-ProposalFigures" style="stroke:#181818;stroke-width:0.6999999999999998;"/><polygon fill="#181818" points="421.33,380.0606,425.4309,374.5186,422.0898,376.644,419.9644,373.303,421.33,380.0606" style="stroke:#181818;stroke-width:0.6999999999999998;"/><text fill="#000000" font-family="sans-serif" font-size="9.1" lengthAdjust="spacing" textLength="14.672" x="430.5" y="347.9294">has</text><text fill="#000000" font-family="sans-serif" font-size="9.1" lengthAdjust="spacing" textLength="5.061" x="430.6108" y="325.3614">1</text><text fill="#000000" font-family="sans-serif" font-size="9.1" lengthAdjust="spacing" textLength="13.6589" x="407.4938" y="372.1989">1..*</text></g><!--link ProposalFigures to DroneTypeSettings--><g id="link_ProposalFigures_DroneTypeSettings"><path codeLine="74" d="M418.341,418.7566 C419.482,437.4676 420.9773,461.8983 422.1113,480.5603 " fill="none" id="ProposalFigures-to-DroneTypeSettings" style="stroke:#181818;stroke-width:0.6999999999999998;"/><polygon fill="#181818" points="422.366,484.7526,424.7787,478.2943,422.1537,481.259,419.189,478.634,422.366,484.7526" style="stroke:#181818;stroke-width:0.6999999999999998;"/><text fill="#000000" font-family="sans-serif" font-size="9.1" lengthAdjust="spacing" textLength="14.672" x="421.4" y="458.5294">has</text><text fill="#000000" font-family="sans-serif" font-size="9.1" lengthAdjust="spacing" textLength="5.061" x="413.1921" y="433.8554">1</text><text fill="#000000" font-family="sans-serif" font-size="9.1" lengthAdjust="spacing" textLength="13.6589" x="407.3203" y="476.9007">1..*</text></g><!--link Figure to figureVersion--><g id="link_Figure_figureVersion"><path codeLine="76" d="M187.012,316.4446 C183.519,335.8556 179.9945,355.4103 176.9355,372.3713 " fill="none" id="Figure-to-figureVersion" style="stroke:#181818;stroke-width:0.6999999999999998;"/><polygon fill="#181818" points="176.19,376.5046,180.0637,370.8016,176.8112,373.0601,174.5527,369.8076,176.19,376.5046" style="stroke:#181818;stroke-width:0.6999999999999998;"/><text fill="#000000" font-family="sans-serif" font-size="9.1" lengthAdjust="spacing" textLength="14.672" x="183.4" y="347.9294">has</text><text fill="#000000" font-family="sans-serif" font-size="9.1" lengthAdjust="spacing" textLength="5.061" x="180.9705" y="331.7955">1</text><text fill="#000000" font-family="sans-serif" font-size="9.1" lengthAdjust="spacing" textLength="5.061" x="171.5829" y="368.7595">1</text></g><!--link Figure to Keyword--><g id="link_Figure_Keyword"><path codeLine="77" d="M153.811,316.4446 C131.551,335.8556 107.5357,356.7834 88.0827,373.7444 " fill="none" id="Figure-to-Keyword" style="stroke:#181818;stroke-width:0.6999999999999998;"/><polygon fill="#181818" points="84.917,376.5046,91.5056,374.4748,87.5551,374.2044,87.8254,370.2539,84.917,376.5046" style="stroke:#181818;stroke-width:0.6999999999999998;"/><text fill="#000000" font-family="sans-serif" font-size="9.1" lengthAdjust="spacing" textLength="14.672" x="127.4" y="347.9294">has</text><text fill="#000000" font-family="sans-serif" font-size="9.1" lengthAdjust="spacing" textLength="5.061" x="143.3082" y="331.7955">1</text><text fill="#000000" font-family="sans-serif" font-size="9.1" lengthAdjust="spacing" textLength="13.6589" x="75.3214" y="368.7595">1..*</text></g><!--link Figure to Description--><g id="link_Figure_Description"><path codeLine="78" d="M221.452,316.4446 C237.419,335.8556 254.246,356.2999 268.197,373.2609 " fill="none" id="Figure-to-Description" style="stroke:#181818;stroke-width:0.6999999999999998;"/><polygon fill="#181818" points="270.865,376.5046,269.0254,369.8603,268.6416,373.8015,264.7005,373.4177,270.865,376.5046" style="stroke:#181818;stroke-width:0.6999999999999998;"/><text fill="#000000" font-family="sans-serif" font-size="9.1" lengthAdjust="spacing" textLength="14.672" x="247.1" y="347.9294">has</text><text fill="#000000" font-family="sans-serif" font-size="9.1" lengthAdjust="spacing" textLength="5.061" x="220.0384" y="331.7955">1</text><text fill="#000000" font-family="sans-serif" font-size="9.1" lengthAdjust="spacing" textLength="5.061" x="261.9047" y="368.7595">1</text></g><!--reverse link Customer to Figure--><g id="link_Customer_Figure"><path codeLine="82" d="M193.2,91.1916 C193.2,131.6376 193.2,202.3936 193.2,246.2626 " fill="none" id="Customer-backto-Figure" style="stroke:#181818;stroke-width:0.6999999999999998;"/><polygon fill="#181818" points="193.2,86.9916,190.4,93.2916,193.2,90.4916,196,93.2916,193.2,86.9916" style="stroke:#181818;stroke-width:0.6999999999999998;"/><text fill="#000000" font-family="sans-serif" font-size="9.1" lengthAdjust="spacing" textLength="33.8939" x="193.9" y="163.1294">contains</text><text fill="#000000" font-family="sans-serif" font-size="9.1" lengthAdjust="spacing" textLength="5.061" x="187.9074" y="102.314">1</text><text fill="#000000" font-family="sans-serif" font-size="9.1" lengthAdjust="spacing" textLength="13.6589" x="178.9989" y="238.428">0..*</text></g><!--reverse link Figure to ProposalFigures--><g id="link_Figure_ProposalFigures"><path codeLine="84" d="M248.3172,311.8769 C252.4682,314.0819 252.896,314.3026 256.9,316.4096 C299.124,338.6066 347.928,363.5476 380.485,380.0816 " fill="none" id="Figure-backto-ProposalFigures" style="stroke:#181818;stroke-width:0.6999999999999998;"/><polygon fill="#181818" points="244.608,309.9066,248.8582,315.3348,247.699,311.5485,251.4853,310.3892,244.608,309.9066" style="stroke:#181818;stroke-width:0.6999999999999998;"/><text fill="#000000" font-family="sans-serif" font-size="9.1" lengthAdjust="spacing" textLength="33.8939" x="323.4" y="347.9294">contains</text><text fill="#000000" font-family="sans-serif" font-size="9.1" lengthAdjust="spacing" textLength="5.061" x="249.755" y="309.9923">1</text><text fill="#000000" font-family="sans-serif" font-size="9.1" lengthAdjust="spacing" textLength="13.6589" x="357.2034" y="372.2248">0..*</text></g><!--SRC=[XLHDZvim43tNls943v4gaNJLGrE48aLPcaRT9gkGRiyECS5Ti14UDaMh_lSQyvsmgWyWPjwRUVE19n5YgfpPB8sfm3o9fu5CPa5CbR9Fd9upcX1zKXeyqpC32rQvGfcmp8BtOHX- -anVYJp-PW6s7jVr178i5WlNtKk9YyKhUMUlP99IKO3ZOyR5cVmbGYA3Z9yZ11csR0BwR0G4L35jDvyKll9pdZ68gAeC0jYV8CuLVs76qB2dX8aJb95rWavrJTUQvtF6vlDMS-te94EdkOnhqnmZcJb-eP0bFrMjp-Pg6Q1ExXobZ1aLD-LKWGru9-82g86RxygbWDP-5ScBw7GtqhwpuYApanRqHEESmSwOMs7FjTk1jg4DCpG9dbYck1HZVFkbyZbGWthaUwQ2ZAVu1hLCVUf1kd7s- -thak0nawbKDDPT_t8Cvc5OqUiy9QH1lDr_a-z-95_fq1bx0PjWFbBCrOrsw0Mi80vu8a_gIELpEC5Xl9PifeaHQmsRxMhtu_71EtYjAQ68kh60KYDvnytr_e1UrAoO6bityv4wcZKP7q9LUpEpJ0fsA5BcCqJTdT7gILFdiCmRRbSOmeN7CHoxMhbGgAy9Jf6TMYFLgmmYZ-DXJLeXcO0zTk3Nvl1jiuNbUhttrik31tllONdOxBR-EA4xX0mMnxgpD6DXtbSBu9INnJLOOwsxwVI3TTDcnrmkjvsiuQwTf_OWJKiiUQIvOUeKrl0dh89VOKpS-YyV0PXalTMl86Gotj6sbVx_Uqb8SrsQ7Au9O7qqUce9JY05KZrkGgxhhO1bEqoT3G5QnZy0]--></g></svg>